<?xml version="1.0" encoding="iso-8859-1"?>
<!-- Generator: Adobe Illustrator 19.0.0, SVG Export Plug-In . SVG Version: 6.00 Build 0)  -->
<svg xmlns="http://www.w3.org/2000/svg" xmlns:xlink="http://www.w3.org/1999/xlink" version="1.1" id="Layer_1" x="0px" y="0px" viewBox="0 0 512.001 512.001" style="enable-background:new 0 0 512.001 512.001;" xml:space="preserve">
<path style="fill:#A05818;" d="M361.895,394.113v94.313h-38.967v-76.679c10.207-5.427,31.549-11.441,38.754-17.879L361.895,394.113z  "/>
<path style="fill:#E2B39F;" d="M396.054,334.708c-2.611-2.903-5.026-6.124-7.181-9.572c-5.727-9.163-5.214-18.542,1.486-27.124  c4.846-6.207,12.184-11.206,19.953-16.499c10.82-7.37,22.009-14.992,22.009-23.528c0-14.504-36.39-19.455-52.991-19.486  l0.018-16.457c7.107,0.005,69.43,1.058,69.43,35.943c0,17.238-15.513,27.805-29.2,37.129  c-18.318,12.478-20.108,15.925-16.749,21.301c0.016,0.026,0.033,0.053,0.049,0.079c2.782,4.438,2.079,10.209-1.816,13.711  L396.054,334.708z"/>
<path style="fill:#BC6D1E;" d="M249.092,283.502c17.894,33.023,87.594,59.651,143.954,53.243h0.011  c-2.929,19.836-12.145,39.968-31.378,57.127c-7.197,6.44-15.81,12.452-26.013,17.872v76.678V512h-35.13v-23.577v-60.419  c0,0-40.879,9.907-83.25,3.84c-8.623-1.24-17.291-3.127-25.706-5.903v63.512V512h-28.437v-22.546v-53.792  c0,0-9.721-1.887-22.48-6.835c-14.449-3.61-27.45-10.894-37.906-20.834c-17.444-16.545-27.878-40.396-26.375-66.661  c2.37-41.811,39.573-78.357,81.418-80.046c2.556-0.11,5.102-0.099,7.614,0.022c14.032,0.669,27.176,4.751,38.608,11.421  c4.356,2.534,8.47,5.442,12.277,8.667c8.503,7.208,20.692,8.733,30.511,3.467c0.461-0.252,0.9-0.505,1.339-0.768  C248.478,283.897,248.785,283.689,249.092,283.502z"/>
<g>
	<rect x="325.123" y="488.428" style="fill:#666666;" width="36.772" height="23.573"/>
	<rect x="191.581" y="489.46" style="fill:#666666;" width="25.701" height="22.54"/>
</g>
<path style="fill:#A05818;" d="M217.286,431.841v57.618h-25.701v-63.514C199.992,428.712,208.666,430.607,217.286,431.841z"/>
<path style="fill:#52CBCE;" d="M165.415,261.31c-2.511-0.117-5.056-0.127-7.62-0.021c-10.578,0.426-20.849,3.075-30.342,7.492  c-28.074,13.005-49.296,41.314-51.073,72.549c-1.501,26.265,8.929,50.116,26.372,66.664l-1.479,1.383  c-15.367,31.182-58.427,32.46-58.427,32.46s27.893-23.53,7.109-78.903c-1.628-4.331-3.054-8.93-4.289-13.739  c-14.463-56.607-0.437-141.3,60.098-141.3C148.312,207.895,161.445,239.248,165.415,261.31z"/>
<g>
	<path style="fill:#A05818;" d="M202.747,429.084c65.197-9.673,97.784-40.026,97.784-40.026v38.94   C300.532,427.999,243.974,447.272,202.747,429.084z"/>
	<path style="fill:#A05818;" d="M113.629,351.299c0,58.534,49.509,84.362,49.509,84.362s-9.716-1.884-22.477-6.833   c-14.452-3.607-27.447-10.898-37.908-20.838c-17.443-16.549-27.872-40.398-26.372-66.664c2.373-41.804,39.579-78.35,81.414-80.042   c2.565-0.106,5.108-0.095,7.62,0.021C165.415,261.306,113.629,289.573,113.629,351.299z"/>
</g>
<path style="fill:#43B5B5;" d="M76.381,341.329c-1.501,26.265,8.929,50.115,26.372,66.665l-1.479,1.383  c-15.367,31.182-58.427,32.459-58.427,32.459s27.893-23.53,7.109-78.903c-1.628-4.331-3.054-8.93-4.289-13.739  c10.153-10.164,16.368-23.988,20.05-35.269c3.672-11.292,4.811-20.04,4.811-20.04c0.543-66.76,57.448-25.85,57.448-25.85  l-0.521,0.745C99.378,281.785,78.158,310.094,76.381,341.329z"/>
<path style="fill:#52CBCE;" d="M471.578,47.27c0,0-14.701,37.192-39.442,44.51c-2.699,0.812-5.519,1.251-8.448,1.251  c-19.211,0-32.672-9.731-39.804-16.632c-3.939-3.829-5.957-6.78-5.957-6.78c-13.78,13.769-26.068,6.769-43.402,9.051  c-3.412,0.439-7.022,1.251-10.883,2.655c-23.413,8.514-38.312,46.825-38.312,46.825l-18.936-29.381v-0.011  C232.152,5.963,328.26,26.984,328.26,26.984l-0.022-0.055c-0.483-1.163-8.075-20.264,16.698-25.42  c7.647-1.591,16.676-1.898,26.079-1.042c21.986,1.997,46.002,10.335,59.058,23.391C448.692,42.475,471.578,47.27,471.578,47.27z"/>
<g>
	<path style="fill:#FFD0B8;" d="M393.056,336.746h-0.011c-23.786,2.699-49.941-0.472-73.573-7.537   c-32.387-9.666-60.035-26.616-70.38-45.706c10.905-6.692,34.57-56.249,46.551-81.714c2.139-4.553,3.917-8.338,5.167-10.971   c9.073,7.164,19.474,12.694,30.796,16.172l0.011,0.011c8.799,2.699,18.146,4.158,27.845,4.158c10.785,0,20.297-1.799,28.591-5.135   c-0.143,0.581-0.318,1.163-0.494,1.755c-1.229,4.169-1.986,9.172-2.392,14.669c-2.238,30.204,6.221,74.988,6.221,74.988   C394.099,309.713,395.053,323.163,393.056,336.746z"/>
	<path style="fill:#FFD0B8;" d="M433.957,116.443c0,41.526-13.977,76.799-45.904,89.58c-5.628,2.26-11.816,3.818-18.574,4.586   c-3.204,0.362-6.539,0.549-10.017,0.549c-12.88,0-25.146-2.567-36.337-7.23c-8.064-3.346-15.557-7.779-22.315-13.111   c-16.15-12.749-28.042-30.654-33.21-51.225c-2.622,2.194-5.716,3.456-9.018,3.456c-9.523,0-17.258-10.478-17.258-23.413   s7.735-23.413,17.258-23.413c2.809,0,5.453,0.922,7.811,2.534v0.011l18.936,29.381c0,0,14.899-38.312,38.312-46.825   c9.523-3.456,17.543-3.313,24.817-3.039c10.631,0.417,19.671,1.119,29.469-8.667c0,0,10.62,15.579,30.708,21.317   c4.542,1.295,9.567,2.096,15.053,2.096c2.929,0,5.749-0.439,8.448-1.251C433.365,99.646,433.957,107.908,433.957,116.443z"/>
</g>
<g>
	<path style="fill:#E2B39F;" d="M388.054,206.023c-0.143,0.581-0.318,1.163-0.494,1.755c-1.229,4.169-1.986,9.172-2.392,14.669   c-4.838,1.701-10.072,2.885-15.689,3.522c-3.204,0.362-6.539,0.549-10.017,0.549c-12.88,0-25.146-2.567-36.337-7.23   c-8.064-3.346-15.557-7.779-22.315-13.111c-1.777-1.404-3.5-2.863-5.167-4.389c2.139-4.553,3.917-8.338,5.167-10.971   c9.073,7.164,19.474,12.694,30.796,16.172l0.011,0.011c8.799,2.699,18.146,4.158,27.845,4.158   C370.247,211.158,379.759,209.359,388.054,206.023z"/>
	<path style="fill:#E2B39F;" d="M319.472,329.208c-32.387-9.666-60.035-26.616-70.38-45.706   c12.858-7.888,43.446-75.361,51.718-92.685c9.073,7.164,19.474,12.694,30.796,16.172l0.011,0.011   C331.618,207,287.634,270.414,319.472,329.208z"/>
	<path style="fill:#E2B39F;" d="M323.126,203.928c-8.064-3.346-15.557-7.779-22.315-13.111   c-16.15-12.749-28.042-30.654-33.21-51.225c-2.622,2.194-5.716,3.456-9.018,3.456c-9.523,0-17.258-10.478-17.258-23.413   s7.735-23.413,17.258-23.413c2.809,0,5.453,0.922,7.811,2.534v0.011l18.936,29.381c0,0,14.899-38.312,38.312-46.825   c9.523-3.456,17.543-3.313,24.817-3.039C348.458,78.285,283.948,138.342,323.126,203.928z"/>
</g>
<rect x="163.132" y="489.46" style="fill:#847E74;" width="28.447" height="22.54"/>
<path style="fill:#E2B39F;" d="M368.349,314.551c-2.927,0-5.401-2.392-5.491-5.319c-0.093-3.031,2.444-5.659,5.486-5.649  c2.977,0.01,5.49,2.499,5.491,5.482C373.836,312.049,371.331,314.551,368.349,314.551z"/>
<g>
	<path style="fill:#3F3E3E;" d="M361.958,131.539c-3.635,0-6.583-2.947-6.583-6.583v-13.835c0-3.636,2.948-6.583,6.583-6.583   c3.635,0,6.583,2.947,6.583,6.583v13.835C368.541,128.592,365.594,131.539,361.958,131.539z"/>
	<path style="fill:#3F3E3E;" d="M397.08,131.539c-3.635,0-6.583-2.947-6.583-6.583v-13.835c0-3.636,2.948-6.583,6.583-6.583   s6.583,2.947,6.583,6.583v13.835C403.662,128.592,400.715,131.539,397.08,131.539z"/>
</g>
<rect x="300.536" y="488.428" style="fill:#847E74;" width="35.13" height="23.573"/>
<path style="fill:#FFD0B8;" d="M264.94,322.139c-3.487,0-6.073-0.45-6.694-0.569l0,0c1.439-7.526,6.539-13.63,13.346-17.146  c0.388-0.201,0.744-0.43,1.057-0.692c0.46-0.384,1.855-1.552,1.855-5.565c0-5.605-9.356-14.502-16.875-21.65  c-12.371-11.762-26.394-25.094-20.415-40.584c7.549-19.564,41.091-20.68,58.357-19.894c4.738,0.216,8.31,4.386,7.825,9.105l0,0  c-0.447,4.345-4.192,7.581-8.556,7.415c-4.712-0.179-11.04-0.229-17.433,0.294c-16.266,1.332-23.496,5.524-24.839,9.004  c-2.015,5.222,8.197,14.932,16.402,22.733c10.811,10.28,21.992,20.91,21.992,33.576c0,9.734-4.267,15.304-7.844,18.264  C277.446,321.122,270.178,322.139,264.94,322.139z"/>
<path style="fill:#FFFFFF;" d="M357.291,151.702c5.159,0.847,9.05,1.499,12.756,1.821c3.66,0.357,6.984,0.472,10.311,0.486  c3.332-0.012,6.638-0.177,10.304-0.504c3.701-0.326,7.592-0.969,12.763-1.803c-0.879,5.195-4.212,9.401-8.405,12.337  c-4.222,2.945-9.453,4.472-14.662,4.466c-5.215,0.009-10.426-1.569-14.654-4.484C361.515,161.081,358.183,156.884,357.291,151.702z"/>
<path style="fill:#E2B39F;" d="M383.884,76.398c-3.939-3.829-5.957-6.78-5.957-6.78C380.747,71.801,382.7,74.072,383.884,76.398z"/>
<path style="fill:#43B5B5;" d="M377.927,69.618c-13.78,13.769-26.068,6.769-43.402,9.051c-3.412,0.439-7.022,1.251-10.883,2.655  c-23.413,8.514-38.312,46.825-38.312,46.825l-18.936-29.381v-0.011C232.152,5.963,328.26,26.984,328.26,26.984l-0.022-0.055  c-0.483-1.163-8.075-20.264,16.698-25.42c7.647-1.591,16.676-1.898,26.079-1.042l0.011,0.011  C371.026,0.477,335.282,36.54,377.927,69.618z"/>
<g>
</g>
<g>
</g>
<g>
</g>
<g>
</g>
<g>
</g>
<g>
</g>
<g>
</g>
<g>
</g>
<g>
</g>
<g>
</g>
<g>
</g>
<g>
</g>
<g>
</g>
<g>
</g>
<g>
</g>
</svg>
