<?xml version="1.0" encoding="iso-8859-1"?>
<!-- Generator: Adobe Illustrator 19.0.0, SVG Export Plug-In . SVG Version: 6.00 Build 0)  -->
<svg xmlns="http://www.w3.org/2000/svg" xmlns:xlink="http://www.w3.org/1999/xlink" version="1.1" id="Layer_1" x="0px" y="0px" viewBox="0 0 512.001 512.001" style="enable-background:new 0 0 512.001 512.001;" xml:space="preserve">
<path style="fill:#F9D780;" d="M391.036,385.51c-9.515-4.28-17.011-10.113-22.888-16.966c-5.145-6.01-9.038-12.808-11.921-20.06  c56.3,10.158,58.13-42.893,58.13-42.893s0,0.011,0.011,0.044C440.949,372.137,391.036,385.51,391.036,385.51z"/>
<g>
	<path style="fill:#C1365B;" d="M403.743,375.108c-3.463,0-6.672-2.253-7.832-5.519c-1.261-3.55,0.078-7.622,3.208-9.717   c6.17-4.132,14.524,1.707,12.684,8.936C410.873,372.46,407.525,375.108,403.743,375.108z"/>
	<path style="fill:#C1365B;" d="M368.148,368.544c-5.145-6.01-9.038-12.808-11.921-20.06c56.3,10.158,58.13-42.893,58.13-42.893   s0,0.011,0.011,0.044C414.812,307.32,425.967,352.187,368.148,368.544z"/>
	<path style="fill:#C1365B;" d="M133.1,361.921c-2.295,18.208,18.365,52.166,5.357,58.498   c-23.176,11.289-85.614-0.608-95.839-16.288c-7.696-11.81,5.904-44.295,10.229-59.931C68.217,391.274,131.991,362.42,133.1,361.921   z"/>
</g>
<path style="fill:#F9D780;" d="M509.778,381.006c-13.052,55.49-66.813,76.294-113.62,67.511  c-19.595-3.671-37.981-12.52-51.654-26.193c-16.046-16.046-32.192-39.444-41.263-67.023c-1.597-4.846-3.837-9.326-6.62-13.362  c78.234,97.973,154.395,43.525,160.86,38.613c0.177-0.133,0.299-0.233,0.377-0.288c4.58-3.393,8.705-7.408,12.287-11.91  c19.983-25.139,22.855-65.382-7.385-95.622C462.76,272.731,524.316,319.217,509.778,381.006z"/>
<path style="fill:#F4516D;" d="M457.305,380.686c-7.563,5.678-83.103,58.407-160.683-38.746  c-10.79-15.702-29.586-24.651-49.269-22.045c-18.031,2.384-33.079,13.995-40.276,30.041c-1.752,3.87-3.038,7.995-3.792,12.32  c-0.887,5.035-2.029,10.357-3.504,15.813h-0.011c-97.385,78.933-138.416,13.873-140.744,9.947  c10.269,15.569,29.242,23.432,52.33,12.176c13.008-6.332,19.45-20.06,21.746-38.269c6.62-52.153-20.737-141.033-25.073-197.92  C100.71,67.86,182.892,52.279,237.417,53.677c19.728,0.51,35.829,3.249,42.771,5.19c115.339,32.303,84.555,162.124,79.266,181.519  c-0.432,1.586-0.699,2.429-0.699,2.429s-0.499,1.564-1.275,4.369c-4.048,14.715-15.503,63.619-0.699,100.745  c6.177,15.525,16.966,28.987,34.809,37.027c5.844,2.628,12.442,4.68,19.883,6.033C428.873,394.149,444.764,389.746,457.305,380.686z  "/>
<path style="fill:#BF984B;" d="M296.622,341.938c2.783,4.036,5.023,8.516,6.62,13.362c9.071,27.579,25.217,50.977,41.263,67.023  c-49.935,36.173-91.275-39.411-91.275-39.411c-2.75,18.907-9.781,38.79-26.27,48.537c-36.594,21.624-65.404,8.128-65.404,8.128  c21.147-16.002,32.336-39.788,38.213-61.512h0.011c1.475-5.456,2.617-10.779,3.504-15.813c3.914-22.234,21.691-39.4,44.069-42.361  C267.036,317.287,285.832,326.236,296.622,341.938z"/>
<path style="fill:#F9D780;" d="M199.768,378.067c-5.877,21.724-17.066,45.51-38.213,61.512  c-15.026,11.378-35.086,18.829-61.845,18.829c-7.94,0-15.481-0.699-22.6-2.029c-62.998-11.633-92.795-71.237-68.886-116.071  c10.457-19.606,25.794-29.719,40.564-34.754c22.822-7.796,44.268-3.504,44.268-3.504c-23.01,9.415-35.596,25.461-40.209,42.139  v0.011c-1.32,4.768-1.985,9.57-2.052,14.294c-0.166,10.801,2.761,21.125,8.117,29.342  C58.913,387.837,99.411,459.406,199.768,378.067z"/>
<path style="fill:#D84161;" d="M237.416,53.674v0.011c0,0-126.883,66.724-52.042,238.041c9.16,20.948,16.268,40.331,21.702,58.207  c-1.752,3.87-3.038,7.995-3.793,12.32c-0.887,5.035-2.029,10.357-3.504,15.813h-0.011c-99.359,80.53-140.046,11.178-140.844,9.792  c10.235,15.669,29.264,23.62,52.43,12.331c13.008-6.332,19.45-20.06,21.746-38.269c6.62-52.153-20.737-141.033-25.073-197.92  C100.709,67.857,182.891,52.277,237.416,53.674z"/>
<g>
	<path style="fill:#DBB561;" d="M77.111,456.379c-62.998-11.633-92.795-71.237-68.886-116.071   c10.457-19.606,25.794-29.719,40.564-34.754c22.822-7.796,44.268-3.504,44.268-3.504c-23.01,9.415-35.596,25.461-40.209,42.139   v0.011c-1.32,4.768-1.985,9.57-2.052,14.294C50.796,358.495,32.066,411.324,77.111,456.379z"/>
	<path style="fill:#DBB561;" d="M470.147,368.355c0,0-6.121,70.417-73.965,80.164c-0.011,0-0.011,0-0.022,0   c-10.967-2.052-21.557-5.733-31.15-10.967c-4.436-2.417-8.65-5.168-12.597-8.25c-2.772-2.162-5.423-4.491-7.907-6.975   c-16.046-16.046-32.192-39.444-41.263-67.023c-1.597-4.846-3.837-9.326-6.62-13.362c78.234,97.973,154.395,43.525,160.86,38.613   c0.177-0.133,0.299-0.233,0.377-0.288C462.439,376.872,466.565,372.857,470.147,368.355z"/>
</g>
<path style="fill:#F9D780;" d="M8.225,340.308c-9.149-104.438,73.2-87.66,73.2-87.66c-13.107,13.107-28.954,28.954-32.636,52.907  C34.018,310.589,18.682,320.703,8.225,340.308z"/>
<g>
	<path style="fill:#C1365B;" d="M20.711,384.878c-7.567,0-11.168-9.778-5.376-14.665c2.574-2.171,6.322-2.568,9.294-0.987   c3.128,1.666,4.88,5.264,4.268,8.753C28.209,381.905,24.715,384.878,20.711,384.878z"/>
	<path style="fill:#C1365B;" d="M39.008,419.809c-7.565,0-11.128-9.727-5.4-14.64c5.861-5.026,15.072,0.38,13.551,7.941   C46.388,416.947,42.935,419.809,39.008,419.809z"/>
	<path style="fill:#C1365B;" d="M71.488,448.087c-3.409,0-6.533-2.166-7.759-5.335c-1.305-3.371-0.212-7.322,2.639-9.541   c5.908-4.602,14.669,0.714,13.288,8.076C78.93,445.16,75.442,448.087,71.488,448.087z"/>
	<path style="fill:#C1365B;" d="M496.949,386.541c-3.693,0-7.036-2.547-8.01-6.105c-0.896-3.272,0.322-6.873,3.061-8.894   c5.928-4.374,14.416,0.879,13.131,8.131C504.436,383.595,500.934,386.541,496.949,386.541z"/>
	<path style="fill:#C1365B;" d="M463.148,421.472c-3.248,0-6.29-1.977-7.602-4.949c-1.47-3.333-0.558-7.36,2.223-9.716   c2.518-2.135,6.171-2.56,9.115-1.078c3.301,1.662,5.142,5.415,4.414,9.045C470.529,418.611,467.076,421.472,463.148,421.472z"/>
	<path style="fill:#C1365B;" d="M26.699,293.603c-7.563,0-11.13-9.726-5.4-14.639c2.728-2.339,6.81-2.635,9.843-0.705   c2.863,1.822,4.378,5.311,3.707,8.646C34.079,290.742,30.627,293.603,26.699,293.603z"/>
	<path style="fill:#C1365B;" d="M416.574,436.443c-7.63,0-11.199-9.929-5.274-14.75c2.954-2.404,7.249-2.49,10.293-0.202   c2.65,1.992,3.863,5.511,3.024,8.714C423.67,433.821,420.327,436.443,416.574,436.443z"/>
	<path style="fill:#C1365B;" d="M221.97,404.839c-7.429,0-11.12-9.498-5.585-14.484c2.85-2.567,7.184-2.843,10.335-0.66   c2.739,1.897,4.062,5.331,3.361,8.58C229.265,402.051,225.849,404.839,221.97,404.839z"/>
	<path style="fill:#C1365B;" d="M230.287,361.591c-7.561,0-11.132-9.725-5.4-14.64c2.728-2.339,6.81-2.63,9.843-0.705   c2.868,1.821,4.385,5.314,3.719,8.657C237.685,358.739,234.194,361.591,230.287,361.591z"/>
	<path style="fill:#C1365B;" d="M283.514,384.878c-3.407,0-6.534-2.156-7.758-5.327c-1.255-3.251-0.293-7.048,2.352-9.313   c2.735-2.342,6.807-2.628,9.847-0.705c2.859,1.808,4.391,5.321,3.71,8.646C290.88,382.02,287.453,384.878,283.514,384.878z"/>
	<path style="fill:#C1365B;" d="M368.78,431.952c-0.41,2.362-1.83,4.369-3.77,5.6c-4.436-2.417-8.65-5.168-12.597-8.25   c0.322-2.196,1.508-4.247,3.393-5.556C361.728,419.621,370.044,424.744,368.78,431.952z"/>
	<path style="fill:#C1365B;" d="M118.296,451.923c-3.412,0-6.527-2.148-7.759-5.324c-1.293-3.335-0.242-7.231,2.545-9.474   c5.841-4.697,14.731,0.526,13.397,7.924C125.773,448.971,122.289,451.923,118.296,451.923z"/>
</g>
<g>
	<path style="fill:#3F3E3E;" d="M241.084,189.548c-3.063,0-5.818-2.127-6.495-5.242l-4.124-18.974   c-0.781-3.591,1.498-7.135,5.089-7.914c3.588-0.781,7.134,1.498,7.915,5.089l4.124,18.974c0.781,3.591-1.498,7.135-5.089,7.914   C242.027,189.498,241.552,189.548,241.084,189.548z"/>
	<path style="fill:#3F3E3E;" d="M301.333,185.083c-0.136,0-0.273-0.004-0.41-0.012c-3.668-0.223-6.461-3.378-6.238-7.046   l0.994-16.309c0.224-3.668,3.391-6.455,7.046-6.237c3.668,0.223,6.461,3.378,6.238,7.046l-0.994,16.309   C307.753,182.364,304.822,185.083,301.333,185.083z"/>
</g>
<g>
	<path style="fill:#C1365B;" d="M203.388,135.21c-0.221-2.565,0.366-5.057,1.466-7.426c1.123-2.351,2.915-4.605,5.535-6.261   c2.587-1.673,6.075-2.434,9.266-2.093c3.203,0.335,6.03,1.534,8.355,3.01c2.333,1.489,4.264,3.265,5.889,5.163   c0.236,0.262,0.336,0.397,0.5,0.593l0.44,0.561l0.908,1.106c0.609,0.742,1.238,1.479,1.88,2.229c2.566,3.033,5.487,5.965,8.89,9.71   c-4.957,1.159-9.989,0.17-14.517-1.926c-1.132-0.531-2.221-1.151-3.272-1.834c-0.528-0.339-1.035-0.706-1.543-1.078l-1.425-1.122   c-1.488-1.173-2.929-2.226-4.278-3.098c-1.356-0.871-2.598-1.496-3.716-1.913c-1.119-0.38-2.162-0.633-3.577-0.525   c-1.413,0.077-3.108,0.63-4.929,1.499C207.418,132.673,205.525,133.842,203.388,135.21z"/>
	<path style="fill:#C1365B;" d="M324.627,130.774c-2.137-1.368-4.029-2.537-5.872-3.406c-1.821-0.869-3.518-1.423-4.929-1.499   c-1.415-0.109-2.458,0.144-3.577,0.525c-1.118,0.417-2.36,1.042-3.716,1.913c-1.351,0.873-2.79,1.925-4.278,3.098l-1.425,1.122   c-0.508,0.37-1.015,0.737-1.542,1.078c-1.051,0.683-2.141,1.303-3.272,1.834c-4.528,2.096-9.56,3.085-14.517,1.926   c3.403-3.745,6.324-6.677,8.89-9.71c0.643-0.75,1.271-1.487,1.88-2.229l0.908-1.106l0.44-0.561c0.164-0.195,0.264-0.33,0.5-0.593   c1.627-1.898,3.556-3.674,5.891-5.163c2.324-1.476,5.153-2.676,8.355-3.01c3.191-0.342,6.678,0.42,9.266,2.093   c2.619,1.655,4.411,3.909,5.535,6.261C324.261,125.717,324.848,128.209,324.627,130.774z"/>
	<path style="fill:#C1365B;" d="M359.454,240.386c-0.432,1.586-0.699,2.429-0.699,2.429s-0.499,1.564-1.275,4.369   c-1.63-0.211-3.249-0.51-4.835-0.887c-2.462-0.566-4.802-1.342-7.13-2.129c-2.295-0.832-4.558-1.741-6.742-2.673   c-2.196-0.909-4.325-1.885-6.443-2.817l-6.254-2.728c-4.125-1.763-8.206-3.338-12.298-4.624c-4.103-1.253-8.206-2.318-12.376-2.994   c-2.085-0.333-4.181-0.632-6.276-0.843l-3.16-0.266l-3.05-0.1c-4.059-0.067-8.106,0.266-12.109,1.02   c-4.025,0.688-8.006,1.83-11.943,3.26c-3.959,1.386-7.84,3.183-11.732,5.123c-3.892,1.941-7.718,4.17-11.61,6.443l-11.843,7.164   c-4.07,2.395-8.284,4.835-13.119,6.809c-2.462,0.943-5.09,1.83-8.117,2.14c-0.377,0.033-0.732,0.089-1.131,0.089h-1.187   c-0.821,0.011-1.497-0.089-2.196-0.177c-1.375-0.166-2.761-0.477-4.103-0.898c-2.673-0.854-5.156-2.196-7.275-3.881   c-2.085-1.719-3.848-3.693-5.201-5.844c-2.739-4.28-4.225-9.016-4.657-13.728c1.076,2.096,2.284,4.081,3.682,5.877   c1.364,1.808,2.872,3.471,4.491,4.868c1.63,1.408,3.371,2.551,5.179,3.371c1.819,0.776,3.648,1.275,5.522,1.397   c0.931,0.033,1.852,0.078,2.783-0.022c0.477-0.044,0.954-0.078,1.286-0.189l0.554-0.122c0.177-0.033,0.388-0.133,0.577-0.189   c1.552-0.532,3.26-1.386,4.979-2.462c1.719-1.12,3.471-2.34,5.234-3.648c1.774-1.342,3.515-2.739,5.323-4.147   c7.164-5.7,14.738-11.655,23.254-16.656c4.247-2.517,8.76-4.735,13.473-6.654c4.724-1.863,9.703-3.316,14.815-4.28   c5.112-0.909,10.368-1.275,15.591-1.087l3.903,0.299l3.759,0.477c2.506,0.377,5.001,0.787,7.463,1.408   c9.869,2.284,19.229,6.432,27.457,11.411c4.136,2.451,8.051,5.057,11.865,7.541c3.826,2.484,7.563,4.846,11.444,6.742   C356.682,239.243,358.057,239.853,359.454,240.386z"/>
</g>
<g>
</g>
<g>
</g>
<g>
</g>
<g>
</g>
<g>
</g>
<g>
</g>
<g>
</g>
<g>
</g>
<g>
</g>
<g>
</g>
<g>
</g>
<g>
</g>
<g>
</g>
<g>
</g>
<g>
</g>
</svg>
