<?xml version="1.0" encoding="iso-8859-1"?>
<!-- Generator: Adobe Illustrator 19.0.0, SVG Export Plug-In . SVG Version: 6.00 Build 0)  -->
<svg xmlns="http://www.w3.org/2000/svg" xmlns:xlink="http://www.w3.org/1999/xlink" version="1.1" id="Layer_1" x="0px" y="0px" viewBox="0 0 512 512" style="enable-background:new 0 0 512 512;" xml:space="preserve">
<g>
	<path style="fill:#79D3D1;" d="M351.355,212.237c0,0,68.3,75.417,55.093,104.742c-12.884,28.634-36.755,52.739-37.859,53.844   C357.579,318.686,351.723,265.556,351.355,212.237z"/>
	<path style="fill:#79D3D1;" d="M338.55,332.153c0,0-63.871,88.848-93.298,75.87c-28.733-12.661-53.023-36.344-54.136-37.44   C243.166,359.169,285.235,332.935,338.55,332.153z"/>
</g>
<path style="fill:#E6E6E6;" d="M322.242,34.58c0,17.39-12.839,31.78-29.56,34.211v51.691h-52.427V68.791  c-16.721-2.432-29.56-16.821-29.56-34.211c0-19.097,15.483-34.58,34.58-34.58c2.655,0,5.243,0.301,7.73,0.881  c4.986,1.127,9.56,3.346,13.464,6.38C272.325,2.722,279.676,0,287.662,0C306.759,0,322.242,15.483,322.242,34.58z"/>
<path style="fill:#8BE8E8;" d="M353.14,512c-8.835,0-16.911-3.391-22.979-8.98c-6.057-5.6-10.106-13.386-10.865-22.187  c-6.369-73.487-32.326-138.932-32.326-138.932s-25.946,65.445-32.326,138.909C253.116,498.425,238.493,512,220.812,512  c-18.863,0-33.966-15.293-33.966-33.91c0-0.68,0.022-1.372,0.067-2.075c1.004-16.609,2.9-37.402,6.447-58.785  c-0.312,0.022-6.269,0.524-13.988-0.491c-2.376-0.323-4.919-0.792-7.518-1.472c-14.245-3.703-30.095-13.62-28.723-39.588  c-57.19-8.366-35.059-70.442-35.059-70.442s12.382-30.631,34.111-59.744c26.872-35.996,44.574-78.016,50.609-122.557l0.335-2.465  h159.835l0.625,91.758c0.368,53.319,6.224,106.46,17.234,158.586c1.405,6.648,2.889,13.274,4.462,19.866  c7.139,30.073,10.329,61.842,11.757,85.3C388.222,495.513,372.706,512,353.14,512z"/>
<g>
	<path style="fill:#79D3D1;" d="M179.37,416.722v0.011c-15.416-2.086-37.859-10.352-36.242-41.049   c-57.19-8.377-35.059-70.442-35.059-70.442s12.382-30.631,34.111-59.744c26.872-36.007,44.574-78.027,50.609-122.557l0.335-2.465   h74.458C267.582,120.476,151.963,356.03,179.37,416.722z"/>
	<path style="fill:#79D3D1;" d="M219.518,334.574c-13.207,22.566-21.261,53.197-26.158,82.656   c-0.312,0.022-6.269,0.524-13.988-0.491c-2.376-0.323-4.919-0.792-7.518-1.472C186.4,363.509,219.518,334.574,219.518,334.574z"/>
</g>
<g>
	<path style="fill:#808080;" d="M206.789,477.415c0,7.701,6.242,13.943,13.943,13.943c7.701,0,13.943-6.242,13.943-13.943"/>
	<path style="fill:#808080;" d="M339.529,477.415c0,7.701,6.242,13.943,13.943,13.943c7.701,0,13.943-6.242,13.943-13.943"/>
</g>
<g>
	<path style="fill:#4D4D4D;" d="M280.967,197.99c-4.621,0-8.366-3.746-8.366-8.366v-24.54c0-4.62,3.745-8.366,8.366-8.366   s8.366,3.746,8.366,8.366v24.54C289.333,194.244,285.588,197.99,280.967,197.99z"/>
	<path style="fill:#4D4D4D;" d="M316.662,197.99c-4.621,0-8.366-3.746-8.366-8.366v-24.54c0-4.62,3.745-8.366,8.366-8.366   s8.366,3.746,8.366,8.366v24.54C325.028,194.244,321.283,197.99,316.662,197.99z"/>
</g>
<path style="fill:#FFFFFF;" d="M255.312,223.088c5.369,0.494,10.123,1.546,14.8,2.633c4.66,1.083,9.122,2.359,13.541,3.542  c4.416,1.213,8.75,2.374,13.174,3.445c2.213,0.516,4.462,1.035,6.797,1.461c2.344,0.443,4.754,0.782,7.462,1.19  c-1.948,1.909-4.34,3.244-6.851,4.258c-2.523,1.001-5.179,1.543-7.845,1.852c-5.344,0.571-10.678-0.073-15.683-1.448  c-5.021-1.375-9.75-3.504-14.069-6.278c-2.155-1.397-4.215-2.943-6.131-4.693C258.604,227.282,256.784,225.393,255.312,223.088z"/>
<path style="fill:#CCCCCC;" d="M266.468,7.262l-11.155,11.689c0,0-2.052-8.132-2.309-18.071  C257.991,2.008,262.564,4.228,266.468,7.262z"/>
<g>
</g>
<g>
</g>
<g>
</g>
<g>
</g>
<g>
</g>
<g>
</g>
<g>
</g>
<g>
</g>
<g>
</g>
<g>
</g>
<g>
</g>
<g>
</g>
<g>
</g>
<g>
</g>
<g>
</g>
</svg>
