<?xml version="1.0" encoding="iso-8859-1"?>
<!-- Generator: Adobe Illustrator 19.0.0, SVG Export Plug-In . SVG Version: 6.00 Build 0)  -->
<svg xmlns="http://www.w3.org/2000/svg" xmlns:xlink="http://www.w3.org/1999/xlink" version="1.1" id="Layer_1" x="0px" y="0px" viewBox="0 0 512 512" style="enable-background:new 0 0 512 512;" xml:space="preserve">
<g>
	<polyline style="fill:#5EBF9A;" points="377.718,222.456 357.948,242.225 299.639,195.284 382.67,125.704 382.67,201.931  "/>
	<path style="fill:#5EBF9A;" d="M246.121,214.129l-2.035,3.132l-50.478,34.554l-38.748-52.23   c15.482-9.518,28.716-23.089,39.969-38.819C207.462,182.388,225.083,200.701,246.121,214.129z"/>
</g>
<g>
	<path style="fill:#D67729;" d="M237.932,431.4c1.296-2.811,0.068-6.141-2.742-7.438c-2.81-1.294-6.141-0.068-7.438,2.742   l-19.895,43.137l-11.128-11.128c-2.189-2.188-5.737-2.188-7.926,0c-2.189,2.189-2.189,5.738,0,7.926l11.625,11.625L171.49,494.8   c-2.688,1.536-3.622,4.959-2.086,7.647c1.536,2.688,4.961,3.621,7.647,2.086l21.829-12.473l-4.636,12.366   c-1.087,2.898,0.381,6.128,3.28,7.216c0.648,0.243,1.313,0.359,1.966,0.359c2.269,0,4.405-1.389,5.25-3.639l10.015-26.705   L237.932,431.4z"/>
	<path style="fill:#D67729;" d="M299.075,423.963c-2.81-1.294-6.142-0.068-7.438,2.742l-19.895,43.137l-11.128-11.128   c-2.189-2.188-5.737-2.188-7.926,0c-2.189,2.189-2.189,5.738,0,7.926l11.625,11.625L235.375,494.8   c-2.688,1.536-3.622,4.959-2.086,7.647c1.536,2.688,4.959,3.623,7.647,2.086l21.829-12.473l-4.636,12.366   c-1.087,2.898,0.381,6.128,3.28,7.216c0.648,0.243,1.313,0.359,1.966,0.359c2.269,0,4.405-1.389,5.25-3.639l10.014-26.705   l23.179-50.255C303.113,428.589,301.886,425.26,299.075,423.963z"/>
</g>
<path style="fill:#FFD0B8;" d="M361.553,127.161c0,12.779-1.255,24.998-3.879,36.219c-3.979,17.095-11.12,31.903-21.792,42.911  c-2.141,2.22-4.439,4.293-6.883,6.199c-11.782,9.158-26.971,14.438-45.916,14.438c-15.649,0-30.457-3.61-43.629-10.033  c-3.475-1.681-6.827-3.576-10.055-5.639c-13.329-8.508-24.494-20.11-32.497-33.809c29.998-41.936,37.901-108.007,37.901-108.007  s13.485,22.812,40.445,32.609h0.011c7.365,2.679,15.739,4.383,25.121,4.383c25.547,0,45.355,6.322,61.094,15.268  C361.531,123.506,361.553,125.333,361.553,127.161z"/>
<g>
	<path style="fill:#50B3EA;" d="M257.201,402.284c-0.493,21.119-11.21,37.979-24.359,37.979c-13.463,0-24.381-17.689-24.381-39.515   c0-8.116,1.513-15.66,4.103-21.938C223.201,389.841,237.819,399.627,257.201,402.284z"/>
	<path style="fill:#50B3EA;" d="M319.191,385.38c1.233,4.731,1.917,9.909,1.917,15.369c0,21.826-10.907,39.515-24.381,39.515   c-13.026,0-23.653-16.557-24.337-37.396c7.589-0.415,15.795-1.883,24.628-4.641C305.896,395.457,313.205,391.04,319.191,385.38z"/>
</g>
<path style="fill:#42A6D3;" d="M444.719,326.494c35.233,20.985,61.139,26.747,61.139,26.747  c-66.194-84.59-129.563-126.716-169.975-146.95c-2.141,2.22-4.439,4.293-6.883,6.199c0.251,0.827-12.801,80.756-12.801,80.756  l17.733,70.6c13.956,9.214,24.639,15.425,24.639,15.425l-1.592-35.042c23.204,19.236,51.038,34.515,51.038,34.515l-10.167-40.815  c32.621,21.388,72.382,36.04,72.382,36.04L444.719,326.494z"/>
<path style="fill:#50B3EA;" d="M342.337,330.733c-1.379,11.838-4.013,23.148-8.407,33.114c-3.621,8.25-8.441,15.582-14.741,21.523  v0.011c-5.986,5.661-13.295,10.078-22.173,12.846c-8.833,2.758-17.039,4.226-24.628,4.641c-5.358,0.303-10.425,0.078-15.189-0.583  c-19.382-2.657-33.999-12.443-44.638-23.473c-16.703-17.297-23.619-37.643-23.81-38.203c-16.389,23.451-34.661,44.167-34.661,44.167  l-9.562-33.742c-15.94,25.581-37.508,48.875-37.508,48.875l-3.251-41.947c-24.191,30.603-57.282,57.081-57.282,57.081l9.203-53.112  h-0.011c-26.377,30.569-48.83,44.279-49.536,44.694c42.889-120.349,100.99-182.429,131.2-208.391  c10.358-8.901,26.097-7.163,34.235,3.811l24.55,33.091l20.099-13.755l11.882-8.138l1.289-1.984  c15.503,9.921,33.921,15.671,53.684,15.671c18.945,0,34.134-5.28,45.916-14.438c0.101,0.336,1.962,6.524,4.327,16.478  C338.694,251.625,346.653,293.763,342.337,330.733z"/>
<g>
	<path style="fill:#42A6D3;" d="M156.4,198.229c1.804-1.55,3.777-2.757,5.838-3.669c-8.013-3.547-17.737-2.482-24.895,3.669   c-30.211,25.962-88.311,88.042-131.2,208.391c0.491-0.289,11.524-7.027,27.075-21.398   C75.082,278.825,128.034,222.605,156.4,198.229z"/>
	<path style="fill:#42A6D3;" d="M333.325,228.97c-1.39,1.3-2.825,2.533-4.327,3.699c-11.782,9.158-26.971,14.438-45.916,14.438   c-15.649,0-30.457-3.61-43.629-10.033c-3.475-1.681-6.827-3.576-10.055-5.639c-4.675-2.982-9.08-6.345-13.172-10.055l11.882-8.138   l1.289-1.984c15.503,9.921,33.921,15.671,53.684,15.671c18.945,0,34.134-5.28,45.916-14.438   C329.099,212.827,330.959,219.015,333.325,228.97z"/>
</g>
<path style="fill:#EFBFAB;" d="M239.456,216.895c-3.475-1.681-6.827-3.576-10.055-5.639c-13.329-8.508-24.494-20.11-32.497-33.809  c29.998-41.936,37.901-108.007,37.901-108.007s13.485,22.812,40.445,32.609C275.249,102.05,228.448,162.281,239.456,216.895z"/>
<path style="fill:#7AEDC7;" d="M377.718,222.456c7.365-29.459-10.078-50.097-20.043-59.076c2.623-11.221,3.879-23.44,3.879-36.219  c0-1.827-0.022-3.654-0.078-5.459c-15.739-8.945-35.546-15.268-61.094-15.268c-9.383,0-17.768-1.704-25.132-4.383v-0.011  c-26.96-9.786-40.445-32.598-40.445-32.598L216.901,32.28h0.011c0,0,34.93-42.586,88.681-29.93  c16.635,3.912,35.087,13.127,54.861,30.558C473.562,132.564,377.718,222.456,377.718,222.456z"/>
<g>
	<path style="fill:#6AD3AD;" d="M216.901,32.28l17.902,37.161c0,0-7.903,66.071-37.901,108.007   c-7.129,9.966-15.514,18.564-25.323,24.594c-8.138-10.974-23.877-12.712-34.235-3.811c-19.897-47.642-7.376-95.497,7.959-128.958   C157.803,41.988,187.397,26.821,216.901,32.28z"/>
	<path style="fill:#6AD3AD;" d="M275.249,102.039c-26.96-9.786-40.445-32.598-40.445-32.598L216.901,32.28h0.011   c0,0,34.93-42.586,88.681-29.93C305.594,2.35,227.719,18.29,275.249,102.039z"/>
</g>
<g>
	<path style="fill:#4D4D4D;" d="M292.736,152.181c-3.406,0-6.165-2.76-6.165-6.165v-15.648c0-3.406,2.76-6.165,6.165-6.165   s6.165,2.76,6.165,6.165v15.648C298.901,149.42,296.142,152.181,292.736,152.181z"/>
	<path style="fill:#4D4D4D;" d="M325.595,152.181c-3.406,0-6.165-2.76-6.165-6.165v-15.648c0-3.406,2.76-6.165,6.165-6.165   s6.165,2.76,6.165,6.165v15.648C331.761,149.42,329.001,152.181,325.595,152.181z"/>
</g>
<path style="fill:#FFFFFF;" d="M282.441,185.808c4.049,0.381,7.342,0.534,10.575,0.599c3.2,0.077,6.23-0.002,9.305-0.069  l9.527-0.495c0.843,0.011,1.676-0.094,2.539-0.13c0.86-0.047,1.745-0.056,2.655-0.049c1.798-0.058,3.648-0.122,5.753,0.146  c-1.123,1.704-2.473,3.148-3.927,4.465c-0.758,0.595-1.537,1.175-2.344,1.716c-0.807,0.54-1.619,1.095-2.505,1.483  c-1.748,0.847-3.552,1.628-5.476,2.064c-1.891,0.557-3.881,0.743-5.864,0.882c-3.986,0.11-8.055-0.638-11.69-2.371  c-0.91-0.42-1.79-0.906-2.621-1.486c-0.847-0.523-1.628-1.19-2.379-1.845C284.53,189.333,283.191,187.765,282.441,185.808z"/>
<g>
	<path style="fill:#42A6D3;" d="M315.931,286.333l-2.798,5.855c-1.854,3.908-3.622,7.845-5.37,11.788   c-1.739,3.947-3.431,7.91-5.104,11.879c-0.387,0.937-0.773,1.875-1.16,2.813c-0.21-0.386-0.417-0.772-0.627-1.159   c-1.689-3.161-3.456-6.275-5.186-9.412c-1.725-3.14-3.53-6.233-5.291-9.35c-1.754-3.122-3.596-6.192-5.39-9.292l-5.484-9.476   l-4.459,10.117c-1.435,3.254-2.798,6.54-4.186,9.815c-1.397,3.271-2.746,6.562-4.089,9.857c-1.361,3.287-2.681,6.59-3.987,9.901   c-0.004,0.012-0.01,0.025-0.015,0.037c-0.598-1.15-1.19-2.302-1.792-3.45c-2.308-4.403-4.662-8.785-7.067-13.146   c-2.399-4.362-4.857-8.697-7.373-13.007c-2.551-4.293-5.098-8.588-7.831-12.798c1.377,4.827,2.939,9.57,4.499,14.314   c1.595,4.727,3.246,9.43,4.958,14.105c1.706,4.677,3.463,9.331,5.264,13.965c1.801,4.634,3.63,9.255,5.521,13.849l4.101,9.963   l4.781-10.061c1.528-3.215,3.052-6.431,4.528-9.668c1.497-3.228,2.978-6.464,4.42-9.716c1.429-3.178,2.852-6.359,4.231-9.561   c1.849,2.996,3.658,6.016,5.543,8.99c1.914,3.029,3.789,6.079,5.743,9.083c1.936,3.014,3.868,6.031,5.853,9.018l5.479,8.252   l2.688-9.078c1.222-4.125,2.37-8.276,3.528-12.423c1.13-4.157,2.24-8.321,3.302-12.501c1.055-4.182,2.09-8.373,3.038-12.592   l1.406-6.335c0.422-2.128,0.886-4.241,1.264-6.384C317.847,282.447,316.911,284.398,315.931,286.333z"/>
	<path style="fill:#42A6D3;" d="M212.561,378.812c-16.703-17.297-23.619-37.643-23.81-38.203c0,0-12.723-63.302,7.376-105.473   l33.271-23.877l10.055,25.816C239.453,237.074,192.282,287.776,212.561,378.812z"/>
</g>
<g>
</g>
<g>
</g>
<g>
</g>
<g>
</g>
<g>
</g>
<g>
</g>
<g>
</g>
<g>
</g>
<g>
</g>
<g>
</g>
<g>
</g>
<g>
</g>
<g>
</g>
<g>
</g>
<g>
</g>
</svg>
