<?xml version="1.0" encoding="iso-8859-1"?>
<!-- Generator: Adobe Illustrator 19.0.0, SVG Export Plug-In . SVG Version: 6.00 Build 0)  -->
<svg xmlns="http://www.w3.org/2000/svg" xmlns:xlink="http://www.w3.org/1999/xlink" version="1.1" id="Layer_1" x="0px" y="0px" viewBox="0 0 512 512" style="enable-background:new 0 0 512 512;" xml:space="preserve">
<g>
	<path style="fill:#DDAA2A;" d="M201.462,67.165c3.625-2.529,8.246-3.898,12.991-3.897c2.364,0.023,4.747,0.328,7.064,0.901   c2.299,0.606,4.545,1.426,6.671,2.454c4.282,2.026,8.064,4.825,11.486,7.907c1.692,1.567,3.284,3.225,4.793,4.958   c0.744,0.875,1.46,1.776,2.167,2.692l1.043,1.405c0.363,0.503,0.654,0.915,1.061,1.566l-10.435,1.774   c0.071-0.293,0.178-0.814,0.261-1.241l0.248-1.372l0.435-2.8c0.298-1.877,0.464-3.773,0.67-5.666   c0.341-3.792,0.505-7.589,0.393-11.378c-0.048-1.895-0.204-3.778-0.393-5.674c-0.235-1.881-0.537-3.764-0.955-5.647   c-0.425-1.879-0.993-3.737-1.664-5.621c-0.711-1.86-1.559-3.715-2.547-5.615c1.854,1.034,3.616,2.335,5.173,3.877   c1.545,1.545,2.931,3.287,4.139,5.153c1.174,1.878,2.202,3.864,3.048,5.923c0.845,2.056,1.493,4.182,2.043,6.327   c1.032,4.3,1.539,8.697,1.567,13.066c0.048,2.188-0.093,4.368-0.265,6.549c-0.085,1.092-0.228,2.178-0.387,3.27l-0.261,1.648   c-0.1,0.577-0.184,1.06-0.334,1.764c-0.658,3.074-3.683,5.034-6.757,4.377c-1.485-0.318-2.711-1.189-3.507-2.351l-0.171-0.253   l-0.725-1.065l-0.828-1.167c-0.573-0.775-1.159-1.549-1.774-2.303c-1.194-1.536-2.453-3.025-3.766-4.452   c-2.597-2.885-5.406-5.528-8.417-7.848c-1.522-1.133-3.084-2.209-4.736-3.151c-1.655-0.916-3.383-1.723-5.207-2.375   c-1.823-0.676-3.747-1.092-5.768-1.413C205.793,67.188,203.688,67.148,201.462,67.165z"/>
	<path style="fill:#DDAA2A;" d="M331.752,116.526l-33.462,33.462l-5.992,5.992c-8.391,8.391-22.591,5.809-27.481-5.016   c-1.033-2.284-1.515-4.661-1.515-6.979c0-7.794,5.441-15.038,13.706-16.679l14.016-2.755L331.752,116.526z"/>
</g>
<path style="fill:#FCC732;" d="M222.977,354.952l-7.347,10.343l-74.432,104.795l9.183-59.692l-48.213,14.923l32.142-48.213  l-36.734-8.036l62.413-56.226c9.08,3.57,17.931,5.854,26.253,6.348C194.061,334.758,206.987,347.49,222.977,354.952z"/>
<g>
	<path style="fill:#DDAA2A;" d="M239.358,341.831l-9.815,15.818c-2.238-0.792-4.431-1.687-6.566-2.698l-7.347,10.343   c-16.622-7.071-55.64-26.471-55.64-52.449c0-24.21,40.246-12.903,61.678-5.154c7.794,2.812,13.098,5.154,13.098,5.154   L239.358,341.831z"/>
	<path style="fill:#DDAA2A;" d="M512,111.854l-75.465,66.706l59.669-8.782l-50.911,43.885l31.603,1.756   c0,0-81.136,90.296-141.724,102.499c-3.432-3.914-7.186-7.163-11.02-9.608c4.58-14.062,5.2-29.685,0.746-45.286l-21.248-74.271   L478.653,62.7l-70.207,86.014L512,111.854z"/>
</g>
<path style="fill:#FCC732;" d="M347.746,363.767c-9.826,7.37-27.527,0.356-39.558-15.669c-0.953-1.263-1.825-2.537-2.652-3.834  c-8.058,6.75-17.563,11.893-28.078,14.912c0.023,1.527-0.011,3.076-0.115,4.638c-1.309,19.986-12.317,35.54-24.566,34.736  c-12.248-0.804-21.122-17.667-19.802-37.652c0.046-0.689,0.103-1.366,0.172-2.043h-0.011c-1.205-0.367-2.411-0.769-3.593-1.205  c-2.238-0.792-4.431-1.687-6.566-2.698c-15.991-7.462-28.916-20.192-36.734-35.758c6.118,0.379,11.95-0.218,17.38-1.974  c7.14-2.307,13.086-5.567,18.045-9.528c10.584-8.437,16.622-20.054,19.848-32.28c8.449-32.062-4.477-65.983-31.384-85.372  l-11.904-8.575l14.636-68.773c3.765-17.621,19.32-30.225,37.342-30.225c8.518,0,16.519,2.824,22.982,7.703  c6.451,4.867,11.365,11.778,13.706,19.974l1.94,6.738l2.193,7.668l-14.016,2.755c-8.265,1.642-13.706,8.885-13.706,16.679  c0,2.319,0.482,4.695,1.515,6.979c4.89,10.825,19.09,13.408,27.481,5.016l5.992-5.992l2.02,7.048l9.08,31.717l21.248,74.271  c4.454,15.6,3.834,31.224-0.746,45.286c3.834,2.445,7.588,5.694,11.02,9.608c0.976,1.113,1.917,2.273,2.835,3.49  C355.782,337.433,357.572,356.397,347.746,363.767z"/>
<path style="fill:#DDAA2A;" d="M146.052,325.399c0,0,42.511,21.884,88.714-12.554c30.513-22.744,6.568-77.77,6.568-77.77"/>
<path style="fill:#FCC732;" d="M159.987,312.846c-57.729-22.706-124.872-97.436-124.872-97.436l31.591-1.756l-50.899-43.874  l59.681,8.77L0,111.854l103.566,36.86L33.359,62.7l164.866,118.765l11.904,8.575c26.907,19.389,39.833,53.31,31.384,85.372  c-4.741,17.954-15.52,34.564-37.893,41.808c-5.43,1.756-11.261,2.353-17.38,1.974C177.918,318.7,169.067,316.416,159.987,312.846z"/>
<g>
	<path style="fill:#4D4D4D;" d="M240.369,120.486c-3.439,0-6.31-2.87-6.314-6.314c-0.003-3.427,2.872-6.318,6.308-6.308   c3.438,0.011,6.319,2.863,6.319,6.308C246.682,117.602,243.806,120.486,240.369,120.486z"/>
	<path style="fill:#4D4D4D;" d="M264.946,116.204c-3.441,0-6.312-2.876-6.314-6.314c-0.001-3.368,2.734-6.192,6.101-6.309   c3.44-0.119,6.4,2.671,6.519,6.102C271.373,113.189,268.452,116.204,264.946,116.204z"/>
</g>
<g>
	<path style="fill:#D67729;" d="M416.856,366.687c-1.436-2.463-4.6-3.296-7.066-1.86l-19.473,11.36l1.476-16.982   c0.247-2.842-1.856-5.346-4.698-5.594c-2.833-0.249-5.346,1.856-5.594,4.698l-1.531,17.609l-29.116-22.009   c-2.275-1.72-5.516-1.27-7.235,1.006c-1.721,2.275-1.27,5.516,1.006,7.235l34.517,26.091v13.813c0,2.853,2.313,5.166,5.166,5.166   s5.166-2.313,5.166-5.166v-13.417l25.523-14.888C417.461,372.315,418.293,369.152,416.856,366.687z"/>
	<path style="fill:#D67729;" d="M304.851,431.427l-22.543,0.259l9.671-14.037c1.619-2.349,1.026-5.566-1.322-7.185   c-2.35-1.619-5.566-1.026-7.185,1.322l-10.028,14.556l-14.447-33.518c-1.13-2.621-4.169-3.827-6.789-2.699   c-2.62,1.128-3.828,4.168-2.699,6.789l17.126,39.736l-6.822,12.011c-1.409,2.481-0.54,5.634,1.94,7.044   c0.806,0.457,1.682,0.675,2.546,0.675c1.798,0,3.545-0.94,4.496-2.615l6.626-11.666l29.547-0.34   c2.853-0.032,5.139-2.372,5.106-5.224C310.043,433.68,307.682,431.374,304.851,431.427z"/>
</g>
<g>
</g>
<g>
</g>
<g>
</g>
<g>
</g>
<g>
</g>
<g>
</g>
<g>
</g>
<g>
</g>
<g>
</g>
<g>
</g>
<g>
</g>
<g>
</g>
<g>
</g>
<g>
</g>
<g>
</g>
</svg>
