<?xml version="1.0" encoding="iso-8859-1"?>
<!-- Generator: Adobe Illustrator 19.0.0, SVG Export Plug-In . SVG Version: 6.00 Build 0)  -->
<svg xmlns="http://www.w3.org/2000/svg" xmlns:xlink="http://www.w3.org/1999/xlink" version="1.1" id="Layer_1" x="0px" y="0px" viewBox="0 0 512 512" style="enable-background:new 0 0 512 512;" xml:space="preserve">
<g>
	<path style="fill:#DB4565;" d="M191.01,247.232c-9.115,25.971-9.909,51.413-4.388,73.06   c-20.209,20.185-72.215,21.319-72.215,21.319C151.233,328.916,189.245,250.876,191.01,247.232z"/>
	<path style="fill:#DB4565;" d="M123.395,338.149c-1.698-0.475-3.038-0.743-4.563-0.97c-1.485-0.214-2.973-0.358-4.48-0.381   c-3.005-0.059-6.05,0.163-9.064,0.971c-3.002,0.787-5.977,1.999-8.571,3.903c-2.562,1.934-4.745,4.507-5.592,7.539   c3.1-0.73,5.621-1.02,8.1-1.12c2.483-0.067,4.874,0.055,7.259,0.172c2.387,0.14,4.801,0.369,7.221,0.567l2.318,0.216   c-0.017,1.352-0.002,2.71,0.073,4.082c0.247,3.552,0.672,7.14,1.974,10.904c2.65-2.973,4.422-6.121,6.017-9.306   c0.772-1.597,1.463-3.211,2.083-4.838c0.603-1.63,1.176-3.268,1.645-4.926l1.464-5.166L123.395,338.149z"/>
</g>
<g>
	<path style="fill:#F4516D;" d="M402.908,341.611c0,0-52.031-1.122-72.24-21.331l-0.378-0.088   c4.803-21.609,3.442-45.096,0.693-63.781C342.482,278.196,373.092,331.323,402.908,341.611z"/>
	<path style="fill:#F4516D;" d="M388.605,338.149c1.698-0.475,3.038-0.743,4.563-0.97c1.485-0.214,2.973-0.358,4.48-0.381   c3.005-0.059,6.05,0.163,9.064,0.971c3.002,0.787,5.977,1.999,8.572,3.903c2.562,1.934,4.745,4.507,5.592,7.539   c-3.1-0.73-5.621-1.02-8.1-1.12c-2.483-0.067-4.874,0.055-7.259,0.172c-2.387,0.14-4.801,0.369-7.221,0.567l-2.318,0.216   c0.017,1.352,0.002,2.71-0.073,4.082c-0.247,3.552-0.672,7.14-1.974,10.904c-2.65-2.973-4.422-6.121-6.017-9.306   c-0.772-1.597-1.463-3.211-2.083-4.838c-0.603-1.63-1.176-3.268-1.645-4.926l-1.464-5.166L388.605,338.149z"/>
	<path style="fill:#F4516D;" d="M320.195,348.558c2.913-4.639,5.307-9.607,7.224-14.776c-0.001,0-0.001,0-0.001,0   c1.656-4.403,2.968-8.952,3.98-13.589c4.805-21.609,3.448-45.099,0.701-63.783c-0.167-1.112-0.334-2.191-0.512-3.248   c-1.401,0.011-2.814,0-4.249-0.022c-6.973-0.133-14.18-0.712-20.853-2.08c-6.862-1.39-12.723-5.06-16.905-10.032   c-2.614,0.779-5.327,1.501-8.141,2.146c-15.726,3.526-31.408,3.692-46.311,0.956c-13.468-2.48-26.303-7.34-37.936-14.202   c-2.836,5.728-5.238,11.466-7.229,17.161c0,0-0.022,0.056-0.067,0.145c-1.98,5.65-3.57,11.277-4.793,16.849   c-4.36,20.008-3.915,39.271,0.411,56.209c1.223,4.805,2.769,9.431,4.582,13.824h0.011c15.348,4.994,31.096,8.263,46.978,9.787   c27.998,2.711,56.383,0.023,83.591-8.023c-27.206,8.05-55.59,10.737-83.59,8.024c-15.885-1.526-31.632-4.791-46.975-9.783   c1.942,4.69,4.223,9.128,6.795,13.263c-6.581,11.245-39.045,69.366-17.94,90.483c7.552,7.539,14.701,9.418,20.903,8.473   l-0.933,11.624l-1.198,14.826h45.954l9.354-41.73c2.155-9.645-4.362-19.1-14.158-20.5l-0.088-0.012l7.552-29.337   c7.45,1.084,15.33,0.983,23.576-0.492l7.703,29.83l-0.101,0.012c-9.796,1.399-16.313,10.855-14.146,20.5l9.354,41.73h45.942   l-2.143-26.45c6.216,0.945,13.364-0.921,20.915-8.473C357.915,417.407,328.049,362.161,320.195,348.558z"/>
</g>
<path style="fill:#DB4565;" d="M237.087,343.905c-15.885-1.526-31.632-4.791-46.975-9.784H190.1c-1.815-4.4-3.367-9.026-4.589-13.83  c-5.522-21.647-4.728-47.088,4.388-73.06c0.038-0.088,0.063-0.139,0.063-0.139c1.992-5.699,4.4-11.435,7.237-17.159  c11.624,6.859,24.459,11.712,37.936,14.196C234.578,244.976,207.522,286.605,237.087,343.905z"/>
<g>
	<polygon style="fill:#666666;" points="318.681,472.79 321.846,512 298.434,498.989 281.527,512 272.74,472.79 318.669,472.79  "/>
	<polygon style="fill:#666666;" points="243.693,472.79 234.906,512 217.987,498.989 194.574,512 197.738,472.79  "/>
</g>
<g>
	<path style="fill:#DB4565;" d="M199.869,446.341c-6.203,0.945-13.352-0.933-20.903-8.473c-21.105-21.118,11.36-79.238,17.94-90.483   c-2.572-4.135-4.854-8.573-6.795-13.263c15.344,4.993,31.09,8.258,46.975,9.784C237.087,343.905,182.056,419.89,199.869,446.341z"/>
	<path style="fill:#DB4565;" d="M327.337,253.141c-14.169,22.799-37.091,37.135-70.189,37.135c-17.328,0-33.743-3.926-48.391-10.944   c-8.541-4.093-16.482-9.231-23.656-15.248c1.223-5.572,2.814-11.2,4.793-16.849c0.044-0.089,0.067-0.145,0.067-0.145   c1.991-5.694,4.393-11.433,7.229-17.161c11.633,6.862,24.468,11.722,37.936,14.202c14.903,2.736,30.585,2.569,46.311-0.956   c2.814-0.645,5.527-1.368,8.141-2.146c4.182,4.971,10.043,8.642,16.905,10.032C313.157,252.428,320.364,253.007,327.337,253.141z"/>
</g>
<path style="fill:#F4516D;" d="M357.298,166.166c0,61.966-26.286,112.206-88.252,112.206c-17.322,0-33.738-3.92-48.387-10.944  c-29.754-14.246-52.245-41.2-60.44-73.841c-3.114,2.597-6.77,4.097-10.691,4.097c-11.284,0-20.424-12.419-20.424-27.736  s9.14-27.736,20.424-27.736c3.341,0,6.481,1.097,9.267,3.013c6.556-34.709,29.085-63.769,59.658-79.224l23.892-8.144l5.598-1.903  c6.833-1.311,13.893-1.992,21.105-1.992c6.556,0,12.721,0.567,18.495,1.652l33.8,15.117  C346.179,90.51,357.298,125.86,357.298,166.166z"/>
<path style="fill:#DB4565;" d="M234.918,112.434c0,0-53.191,52.573-14.259,154.995c-29.754-14.246-52.245-41.2-60.44-73.841  c-3.114,2.597-6.77,4.097-10.691,4.097c-11.284,0-20.424-12.419-20.424-27.736s9.14-27.736,20.424-27.736  c3.341,0,6.481,1.097,9.267,3.013c6.556-34.709,29.085-63.769,59.658-79.224l23.892-8.144L234.918,112.434z"/>
<g>
	<path style="fill:#666666;" d="M260.434,91.369c-5.673-26.137-22.074-70.103-68.922-83.349c0,0,29.24,39.961,32.016,88.175   c0.624,10.829,10.193,18.912,20.956,17.567l0,0C255.33,112.405,262.753,102.052,260.434,91.369z"/>
	<path style="fill:#666666;" d="M323.237,96.592c0.281-26.744-5.93-73.258-48.657-96.592c0,0,19.62,45.463,11.602,93.088   c-1.801,10.696,5.731,20.705,16.524,21.787l0,0C313.582,115.966,323.122,107.522,323.237,96.592z"/>
</g>
<g>
	<path style="fill:#4D4D4D;" d="M260.852,187.413c-3.685,0-6.673-2.988-6.673-6.673v-21.433c0-3.685,2.988-6.673,6.673-6.673   c3.685,0,6.673,2.988,6.673,6.673v21.433C267.525,184.426,264.538,187.413,260.852,187.413z"/>
	<path style="fill:#4D4D4D;" d="M306.238,187.413c-3.685,0-6.673-2.988-6.673-6.673v-21.433c0-3.685,2.988-6.673,6.673-6.673   s6.673,2.988,6.673,6.673v21.433C312.911,184.426,309.923,187.413,306.238,187.413z"/>
</g>
<path style="fill:#666666;" d="M250.766,216.672c0,8.008,12.417,20.802,27.736,20.802c15.318,0,27.736-12.794,27.736-20.802  s-12.417-8.194-27.736-8.194C263.184,208.476,250.766,208.664,250.766,216.672z"/>
<g>
</g>
<g>
</g>
<g>
</g>
<g>
</g>
<g>
</g>
<g>
</g>
<g>
</g>
<g>
</g>
<g>
</g>
<g>
</g>
<g>
</g>
<g>
</g>
<g>
</g>
<g>
</g>
<g>
</g>
</svg>
