<?xml version="1.0" encoding="iso-8859-1"?>
<!-- Generator: Adobe Illustrator 19.0.0, SVG Export Plug-In . SVG Version: 6.00 Build 0)  -->
<svg xmlns="http://www.w3.org/2000/svg" xmlns:xlink="http://www.w3.org/1999/xlink" version="1.1" id="Layer_1" x="0px" y="0px" viewBox="0 0 512 512" style="enable-background:new 0 0 512 512;" xml:space="preserve">
<g>
	<path style="fill:#24BC57;" d="M363.403,246.301c-2.621-12.186-25.622-7.641-51.001-3.229c-7.276,1.261-14.752,2.51-21.995,3.351   c1.935-12.684,4.722-24.948,7.674-35.851c6.215-0.365,13.524-0.84,21.851-1.493c3.727-0.276,7.652-0.597,11.777-0.962   C368.678,204.921,363.403,246.301,363.403,246.301z"/>
	<path style="fill:#24BC57;" d="M325.738,512h-97.689c-7.862,0-12.407-8.924-7.774-15.272   c24.616-33.761,30.267-75.772,14.232-99.923c-3.55-5.341-8.161-9.798-13.856-13.115c-52.538-30.543-25.213-110.064-25.213-110.064   l-0.033-1.935c-27.546,0.498-51.289-4.468-46.434-34.015c8.714-53.091,45.417-91.784,58.255-103.915   c2.798-2.643,4.457-4.025,4.457-4.025c8.836,17.848,21.619,33.872,36.692,43.349c9.013,5.662,18.832,8.99,29.094,8.99   c13.193,0,25.6-5.485,36.526-14.332c-0.144,0.343-3.163,7.586-7.044,19.087c-2.245,6.657-4.777,14.741-7.21,23.742   c-2.953,10.904-5.739,23.167-7.674,35.851c-4.169,27.148-4.445,56.298,5.994,78.481c2.057,4.379,4.003,8.791,5.596,13.347   c8.526,24.395,28.199,93.089,2.532,148.093L325.738,512z"/>
</g>
<path style="fill:#1EA547;" d="M319.933,209.079c-0.133,0.498-0.265,0.995-0.398,1.493c-2.687,9.941-5.242,21.011-7.133,32.5  c-7.276,1.261-14.752,2.51-21.995,3.351c1.935-12.684,4.722-24.948,7.674-35.851C304.296,210.207,311.606,209.731,319.933,209.079z"/>
<path style="fill:#24BC57;" d="M356.289,78.816c0,30.342-17.144,68.552-42.279,88.909c-10.925,8.859-23.352,14.346-36.537,14.346  c-10.264,0-20.089-3.324-29.094-8.982v-0.012c-15.079-9.47-27.86-25.491-36.696-43.343c-8.236-16.631-13.026-34.875-13.026-50.919  C198.656,35.29,233.947,0,277.472,0c6.55,0,12.916,0.794,19.002,2.31C330.823,10.814,356.289,41.84,356.289,78.816z"/>
<g>
	<path style="fill:#1EA547;" d="M313.995,167.743c-0.144,0.343-3.163,7.586-7.044,19.087c-9.101,5.817-19.054,9.245-29.482,9.245   c-10.262,0-20.082-3.318-29.094-8.979v-0.011c-15.073-9.466-27.856-25.489-36.692-43.338c-1.626-3.273-3.118-6.612-4.457-9.986   c2.798-2.643,4.457-4.025,4.457-4.025c8.836,17.848,21.619,33.872,36.692,43.349c9.013,5.662,18.832,8.99,29.094,8.99   C290.661,182.074,303.069,176.59,313.995,167.743z"/>
	<path style="fill:#1EA547;" d="M248.378,173.078c-15.079-9.47-27.86-25.491-36.696-43.343   c-8.236-16.631-13.026-34.875-13.026-50.919C198.656,35.29,233.947,0,277.472,0c6.55,0,12.916,0.794,19.002,2.31   C296.474,2.31,201.564,74.882,248.378,173.078z"/>
	<path style="fill:#1EA547;" d="M234.508,396.807c-3.556-5.34-8.163-9.8-13.857-13.112   c-52.545-30.549-25.209-110.075-25.209-110.075l-0.036-1.931c-27.543,0.501-51.285-4.472-46.434-34.019   c10.619-64.629,62.711-107.936,62.711-107.936c8.835,17.853,21.617,33.873,36.696,43.343   C248.378,173.078,193.402,296.337,234.508,396.807z"/>
</g>
<g>
	<path style="fill:#E0B84B;" d="M332.74,66.672c-10.254,0-19.019,6.322-22.646,15.275c3.627,8.953,12.392,15.275,22.646,15.275   c10.254,0,19.019-6.322,22.646-15.275C351.759,72.993,342.994,66.672,332.74,66.672z"/>
	<path style="fill:#E0B84B;" d="M283.617,81.941c-3.627,8.957-12.385,15.283-22.636,15.283c-1.449,0-2.864-0.122-4.246-0.376   c-8.382-1.46-15.283-7.21-18.401-14.907c3.417-8.438,11.401-14.542,20.9-15.205c0.575-0.044,1.161-0.066,1.747-0.066   C271.232,66.67,279.99,72.995,283.617,81.941z"/>
</g>
<path style="fill:#1EA547;" d="M211.863,290.947c0,0,34.415-22.592,56.116-12.238l-6.721-23.148l-44.233-4.423"/>
<path style="fill:#24BC57;" d="M211.682,129.733c0,0-52.089,43.303-62.711,107.934c-10.622,64.63,115.649,11.704,119.007,41.043  c0,0,9.292-40.659-27.81-41.096c-37.102-0.437-58.371-2.176-58.371-2.176l20.838-28.385c8.37-11.4,7.52-27.356-2.47-37.366  C193.732,163.24,193.011,151.416,211.682,129.733z"/>
<path style="fill:#1EA547;" d="M325.74,512h-35.431l-25.666-25.655c0,0,44.598-48.27-9.776-152.749l-0.918-2.842  c16.145-5.231,35.298-16.687,35.73-41.69c0.818,12.894,3.362,25.169,8.382,35.84c2.057,4.379,4.003,8.791,5.596,13.347  c8.526,24.395,28.199,93.089,2.532,148.093L325.74,512z"/>
<g>
	<path style="fill:#EFCA54;" d="M283.617,81.941c-3.627,8.957-12.385,15.283-22.636,15.283c-1.449,0-2.864-0.122-4.246-0.376   c-3.163-3.727-5.065-8.537-5.065-13.801c0-6.535,2.93-12.385,7.564-16.311c0.575-0.044,1.161-0.066,1.747-0.066   C271.232,66.67,279.99,72.995,283.617,81.941z"/>
	<path style="fill:#EFCA54;" d="M355.386,81.941c-3.627,8.957-12.385,15.283-22.636,15.283c-1.449,0-2.864-0.122-4.246-0.376   c-3.163-3.727-5.065-8.537-5.065-13.801c0-6.535,2.93-12.385,7.564-16.311c0.575-0.044,1.161-0.066,1.747-0.066   C343.001,66.67,351.759,72.995,355.386,81.941z"/>
</g>
<circle style="fill:#4D4D4D;" cx="306.968" cy="128.763" r="7.373"/>
<g>
</g>
<g>
</g>
<g>
</g>
<g>
</g>
<g>
</g>
<g>
</g>
<g>
</g>
<g>
</g>
<g>
</g>
<g>
</g>
<g>
</g>
<g>
</g>
<g>
</g>
<g>
</g>
<g>
</g>
</svg>
