<?xml version="1.0" encoding="iso-8859-1"?>
<!-- Generator: Adobe Illustrator 19.0.0, SVG Export Plug-In . SVG Version: 6.00 Build 0)  -->
<svg xmlns="http://www.w3.org/2000/svg" xmlns:xlink="http://www.w3.org/1999/xlink" version="1.1" id="Layer_1" x="0px" y="0px" viewBox="0 0 512 512" style="enable-background:new 0 0 512 512;" xml:space="preserve">
<path style="fill:#D67729;" d="M410.241,255.18c-17.17,23.884-49.007,31.229-69.791,33.404c-11.79,1.24-20.024,0.819-20.024,0.819  c2.912-6.936,4.772-14.41,5.415-22.211l1.708-20.924c0,3.38,8.047,5.521,19.123,6.866  C371.094,256.092,410.241,255.18,410.241,255.18z"/>
<path style="fill:#BA642A;" d="M346.672,253.133l-0.386,4.807l-0.76,9.252c-0.62,7.497-2.363,14.69-5.076,21.392  c-11.79,1.24-20.024,0.819-20.024,0.819c2.912-6.936,4.772-14.41,5.415-22.211l1.708-20.924  C327.549,249.648,335.596,251.788,346.672,253.133z"/>
<path style="fill:#D67729;" d="M148.112,365.776c-17.041,0-35.92-3.125-50.302-13.928C82.797,340.57,75.184,322.9,75.184,299.328  c0-36.775,9.784-57.787,16.929-73.129c9.916-21.295,14.894-31.984-16.042-66.788c-1.931-2.172-1.736-5.5,0.437-7.431  c2.173-1.931,5.5-1.735,7.431,0.437c35.529,39.972,28.444,55.19,17.717,78.224c-7.104,15.255-15.944,34.241-15.944,68.686  c0,20.073,6.192,34.906,18.403,44.089c29.195,21.953,83.803,6.524,84.352,6.365c2.79-0.805,5.71,0.801,6.518,3.592  c0.808,2.792-0.798,5.709-3.587,6.518C190.004,360.296,170.669,365.776,148.112,365.776z"/>
<g>
	<polygon style="fill:#B3B3B3;" points="228.426,476.841 246.579,509.637 219.093,501.45 204.285,512 192.273,484.35  "/>
	<polygon style="fill:#B3B3B3;" points="321.399,476.958 339.481,509.637 311.995,501.45 297.2,512 285.281,484.572 285.796,484.35     "/>
	<path style="fill:#B3B3B3;" d="M465.028,0l-24.831,53.568c-5.181,11.193-16.398,18.363-28.726,18.363h-29.007l-0.772,0.257   c-3.731-11.322-10.363-24.41-22.141-35.334l0.012-0.012h45.814L465.028,0z"/>
	<path style="fill:#B3B3B3;" d="M246.321,36.843c11.076,0,19.381,10.129,17.205,20.983c-0.819,4.105-3.029,7.626-6.082,10.129   c-3.053,2.503-6.948,3.977-11.123,3.977h-64.797c-12.339,0-23.544-7.158-28.738-18.351L127.956,0l59.65,36.843h24.866H246.321z"/>
</g>
<g>
	<path style="fill:#D67729;" d="M352.509,422.915l-39.931,38.118l8.819,15.93l-35.603,7.392l-0.515,0.222l-11.076-25.498   c-2.269-5.205-1.205-11.252,2.69-15.369l33.346-35.311l-47.089-51.451h-0.269c0.585,30.118,0.351,62.516-3.275,65.966   l-39.931,38.118l8.749,15.813l-36.153,7.509l-10.983-25.275c-2.257-5.205-1.193-11.252,2.702-15.369l33.346-35.311l-11.041-18.936   c-20.012-34.317-30.469-73.358-30.305-113.079c-18.445,31.03-27.498,63.709-31.077,79.335c-1.216,1.743-1.93,3.871-1.93,6.152   c0,0.713,0.07,1.404,0.211,2.082c-0.14,0.772-0.211,1.17-0.211,1.17c-16.503-131.079,35.627-197.747,53.814-216.613   c3.708-3.86,6.012-5.719,6.012-5.719c7.965,13.603,19.287,25.135,32.89,33.381c14.41,8.784,31.369,13.883,49.603,13.883h0.807   c18.889,0,37.346-5.626,53.019-16.152l3.626,15.486l6.012,25.638c3.111,13.263-4.293,26.691-17.123,31.24l-0.947,11.673   l-0.76,9.252c-0.643,7.801-2.503,15.275-5.415,22.211c-2.164,5.17-4.912,10.047-8.176,14.538l41.252,93.382   C361.468,406.072,359.433,416.318,352.509,422.915z"/>
	<path style="fill:#D67729;" d="M409.694,125.406l-2.725,19.86c-1.579,11.591-11.486,20.223-23.182,20.223h-32.141l-12.515,8.41   c-15.673,10.527-34.129,16.152-53.019,16.152h-0.807c-13.088,0-25.509-2.62-36.808-7.345v-0.012   c-19.31-8.059-35.334-22.246-45.685-39.907c-5.918-10.082-9.989-21.299-11.766-33.159l-20.375,16.726   c0,0-10.141-33.428,10.854-54.422h64.797c0.14,0,0.292,0,0.433-0.012c4.012-0.094,7.743-1.544,10.69-3.965   c3.053-2.503,5.263-6.024,6.082-10.129c0.667-3.322,0.351-6.573-0.725-9.497c-2.444-6.608-8.796-11.486-16.48-11.486h-33.849   c23.568-27.93,57.148-26.375,93.838-22.386c24.433,2.667,41.428,11.451,53.241,22.398c11.778,10.924,18.41,24.012,22.141,35.334   c4.889,14.831,4.807,26.632,4.807,26.632C400.688,98.821,411.612,111.348,409.694,125.406z"/>
</g>
<g>
	<path style="fill:#BA642A;" d="M342.754,189.389l-3.626,2.444c-15.673,10.527-34.129,16.152-53.019,16.152h-0.807   c-13.088,0-25.509-2.62-36.808-7.345v-0.012c-19.31-8.059-35.334-22.246-45.685-39.907c-2.292-3.907-4.304-7.988-6.012-12.211   c3.708-3.86,6.012-5.719,6.012-5.719c7.965,13.603,19.287,25.135,32.89,33.381c14.41,8.784,31.369,13.883,49.603,13.883h0.807   c18.889,0,37.346-5.626,53.019-16.152L342.754,189.389z"/>
	<path style="fill:#BA642A;" d="M248.497,182.694c-19.31-8.059-35.334-22.246-45.685-39.907   c-5.918-10.082-9.989-21.299-11.766-33.159l-20.375,16.726c0,0-10.141-33.428,10.854-54.422h64.797c0.14,0,0.292,0,0.433-0.012   C233.035,98.564,227.76,135.079,248.497,182.694z"/>
	<path style="fill:#BA642A;" d="M306.311,14.456c0,0-23.439,10.667-43.51,33.872c-2.444-6.608-8.796-11.486-16.48-11.486h-33.849   C236.04,8.912,269.62,10.468,306.311,14.456z"/>
	<path style="fill:#BA642A;" d="M219.678,461.028l8.749,15.813l-36.153,7.509l-10.979-25.277c-2.259-5.2-1.199-11.246,2.694-15.368   l33.349-35.312l-11.041-18.936c-20.012-34.317-30.469-73.358-30.305-113.079c-18.445,31.03-27.498,63.709-31.077,79.335   c-1.216,1.743-1.93,3.871-1.93,6.152c0,0.713,0.07,1.404,0.211,2.082c-0.14,0.772-0.211,1.17-0.211,1.17   C123.101,207.22,202.81,142.786,202.81,142.786c7.965,13.603,19.287,25.135,32.89,33.381l0.012,0.023   c0,0-55.592,129.852,23.895,246.719L219.678,461.028z"/>
</g>
<path style="fill:#F2A972;" d="M340.65,155.902c7.089,6.184,16.178,9.592,25.587,9.592h17.55c11.696,0,21.603-8.632,23.182-20.223  l2.725-19.86c1.918-14.059-9.006-26.585-23.194-26.585h-37.58c-14.176,0-25.1,12.527-23.182,26.585l0.743,5.409  c1.278,9.317,5.888,17.857,12.975,24.039L340.65,155.902z"/>
<g>
	<path style="fill:#4D4D4D;" d="M311.8,87.756c-3.229,0-5.848-2.619-5.848-5.848V63.194c0-3.229,2.619-5.848,5.848-5.848   c3.229,0,5.848,2.619,5.848,5.848v18.714C317.648,85.138,315.029,87.756,311.8,87.756z"/>
	<path style="fill:#4D4D4D;" d="M342.99,85.807c-3.229,0-5.848-2.619-5.848-5.848V63.194c0-3.229,2.619-5.848,5.848-5.848   c3.229,0,5.848,2.619,5.848,5.848v16.764C348.838,83.188,346.22,85.807,342.99,85.807z"/>
	<path style="fill:#4D4D4D;" d="M359.912,138.593c-3.498,0-6.434-2.933-6.433-6.433c0.001-3.508,2.946-6.418,6.439-6.427   c3.494-0.009,6.438,2.932,6.439,6.427C366.358,135.667,363.415,138.593,359.912,138.593z"/>
	<path style="fill:#4D4D4D;" d="M387.211,138.593c-3.51,0-6.433-2.929-6.433-6.433c0-3.491,2.923-6.438,6.427-6.427   c3.503,0.012,6.439,2.918,6.439,6.427C393.644,135.658,390.717,138.593,387.211,138.593z"/>
</g>
<path style="fill:#D67729;" d="M394.347,263.394c-10.783,0-19.556-8.772-19.556-19.556s8.772-19.556,19.556-19.556  s19.556,8.772,19.556,19.556S405.13,263.394,394.347,263.394z"/>
<path style="fill:#B3B3B3;" d="M65.686,125.157H46.972v18.714c0,10.336,8.378,18.714,18.714,18.714l0,0  c10.336,0,18.714-8.378,18.714-18.714l0,0C84.4,133.535,76.022,125.157,65.686,125.157z"/>
<g>
	<path style="fill:#BA642A;" d="M160.157,374.897c-10.783,0-19.556-8.772-19.556-19.556s8.772-19.556,19.556-19.556   s19.556,8.772,19.556,19.556S170.94,374.897,160.157,374.897z"/>
	<path style="fill:#BA642A;" d="M331.643,246.268l-0.947,11.673c-54.399,4.047-90.283-15.661-90.283-15.661   C309.806,251.636,331.643,246.268,331.643,246.268z"/>
</g>
<g>
</g>
<g>
</g>
<g>
</g>
<g>
</g>
<g>
</g>
<g>
</g>
<g>
</g>
<g>
</g>
<g>
</g>
<g>
</g>
<g>
</g>
<g>
</g>
<g>
</g>
<g>
</g>
<g>
</g>
</svg>
