<?xml version="1.0" encoding="iso-8859-1"?>
<!-- Generator: Adobe Illustrator 19.0.0, SVG Export Plug-In . SVG Version: 6.00 Build 0)  -->
<svg xmlns="http://www.w3.org/2000/svg" xmlns:xlink="http://www.w3.org/1999/xlink" version="1.1" id="Layer_1" x="0px" y="0px" viewBox="0 0 512 512" style="enable-background:new 0 0 512 512;" xml:space="preserve">
<path style="fill:#89571B;" d="M444.098,25.879l-22.593-3.104l1.953-17.536l-12.701,18.762l0.309,0.114l-25.04,13.68  c-0.63,0.349-1.26,0.804-1.8,1.331c-3.251,3.172-3.315,8.379-0.144,11.63c3.172,3.251,8.379,3.315,11.63,0.144l21.919-21.384  L444.098,25.879z"/>
<path style="fill:#9EEFB5;" d="M387.317,144.818c0,6.04-0.293,11.96-0.891,17.696c-4.638,44.94-27.809,78.985-75.15,78.985  c-16.925,0-32.828-4.356-46.668-11.993c-8.473-4.682-16.175-10.602-22.856-17.522c-11.569-11.96-20.064-26.886-24.246-43.539  c-2.683,2.238-5.833,3.53-9.212,3.53c-9.722,0-17.598-10.7-17.598-23.899c0-13.199,7.876-23.899,17.598-23.899  c2.879,0,5.584,0.934,7.984,2.596c1.032-5.497,2.542-10.82,4.465-15.947l43.029-14.339c31.253-7.713,57.835-7.343,79.137-3.661  c0.011,0,0.011,0,0.011,0c16.381,2.835,29.623,7.615,39.455,12.199C385.72,117.161,387.317,130.631,387.317,144.818z"/>
<path style="fill:#389E33;" d="M217.506,168.446c4.182,16.653,12.677,31.579,24.246,43.539c0,0-50.763,20.292-82.266-1.434  c-31.492-21.726-79.822-4.899-95.584,10.852c0.684-1.173,46.711-78.203,126.783-73.326h0.011c0,13.199,7.876,23.899,17.598,23.899  C211.673,171.976,214.823,170.683,217.506,168.446z"/>
<path style="fill:#90E0A5;" d="M264.608,229.507c-8.473-4.682-16.175-10.602-22.856-17.522  c-11.569-11.96-20.064-26.886-24.246-43.539c-2.683,2.238-5.833,3.53-9.212,3.53c-9.722,0-17.598-10.7-17.598-23.899  c0-13.199,7.876-23.899,17.598-23.899c2.879,0,5.584,0.934,7.984,2.596c1.032-5.497,2.542-10.82,4.465-15.947l43.029-14.339  c31.253-7.713,57.835-7.343,79.137-3.661C341.508,92.958,221.591,104.386,264.608,229.507z"/>
<path style="fill:#56D353;" d="M386.426,162.514c0.597-5.736,0.891-11.656,0.891-17.696c0-14.187-1.597-27.657-4.943-39.791  c-22.617-10.537-63.321-22.182-118.603-8.538l-43.029,14.339c-1.923,5.127-3.433,10.45-4.465,15.947  c-2.401-1.662-5.106-2.596-7.984-2.596c-9.722,0-17.598,10.7-17.598,23.899h-0.011c-0.043,0-0.098-0.011-0.141-0.011  c-79.985-4.78-125.957,72.163-126.641,73.336l-0.011,0.011C75.841,143.2,125.811,98.661,125.811,98.661  c-33.675,0-60.833,24.985-60.833,24.985c0-42.366,45.625-85.818,105.371-70.61c49.992,12.721,68.806-21.704,109.88-40.91  c0.011-0.011,0.011-0.011,0.011-0.011c8.017-3.748,16.881-6.92,26.984-9.049c61.919-13.036,77.128,19.553,83.645,41.28  s47.797,14.122,56.488,56.488S386.426,162.514,386.426,162.514z"/>
<path style="fill:#46BA43;" d="M268.573,59.381c0,0-64.548,9.951-105.828,70.784l57.911-19.304  c-1.771,0.739-30.112,12.862-30.112,37.206c-79.985-4.78-125.957,72.163-126.641,73.336l-0.011,0.011  C75.841,143.2,125.811,98.661,125.811,98.661c-33.675,0-60.833,24.985-60.833,24.985c0-42.366,45.625-85.818,105.371-70.61  c49.992,12.721,68.806-21.704,109.88-40.91C279.339,12.8,241.112,42.043,268.573,59.381z"/>
<g>
	<path style="fill:#9EEFB5;" d="M343.113,376.849c-8.43,2.086-16.338,3.281-23.725,3.769c-23.106,1.532-41.149-3.856-54.446-10.787   c-19.434-10.146-28.689-23.605-28.689-23.605c19.195-5.66,23.421-46.277,22.421-55.847l2.021-0.043   c0.087,10.222,7.919,18.88,18.304,19.825c2.803,0.25,5.529-0.087,8.039-0.923c7.409-2.412,13.025-9.038,13.774-17.294h19.032   c-0.989,11.059,7.17,20.824,18.217,21.813c3.998,0.358,7.821-0.478,11.135-2.205c2.781-1.456,5.182-3.552,7.018-6.105   c1.151,0.326,2.314,0.63,3.476,0.913c0.054,0.402,0.196,1.445,0.348,3.031C360.983,319.568,362.145,346.704,343.113,376.849z"/>
	<path style="fill:#9EEFB5;" d="M441.49,304.439c0,0-43.246,11.46-81.799,1.923c-1.162-0.282-2.325-0.587-3.476-0.912   c2.021-2.824,3.335-6.192,3.672-9.896c0.989-11.059-5.54-15.393-16.588-16.392c-11.059-0.989-22.454,1.727-23.453,12.786h-19.032   c0.858-9.494-3.835-14.035-12.177-15.751c-1.369-0.282-2.846-0.489-4.41-0.63c-11.048-0.999-22.454,1.727-23.442,12.775   c-0.065,0.673-0.087,1.336-0.087,1.999l-2.021,0.043c-5.573,4.954-12.199,9.005-19.369,12.319   c-3.954,1.825-8.071,3.433-12.275,4.845c-34.425,11.547-74.499,9.929-74.499,9.929c28.439-13.568,49.155-29.048,64.103-43.528   c3.27-3.161,6.257-6.279,8.984-9.32c11.059-12.275,17.957-23.301,22.052-31.079c3.802-7.267,5.171-11.699,5.171-11.699   c9.516,7.235,20.401,12.742,32.22,16.056c8.332,2.346,17.12,3.596,26.212,3.596c10.287,0,19.434-1.608,27.494-4.595l0.065,0.185   c0,0,3.922,4.313,10.461,10.754c6.67,6.561,16.056,15.36,26.767,24.051C396.332,288.34,421.307,304.439,441.49,304.439z"/>
</g>
<path style="fill:#90E0A5;" d="M287.038,309.237c-2.629,21.9-8.897,40.161-22.095,60.583v0.011  c-19.434-10.146-28.689-23.605-28.689-23.605c19.195-5.66,23.421-46.277,22.421-55.847c-5.573,4.954-12.199,9.005-19.369,12.319  c-3.954,1.825-8.071,3.433-12.275,4.845c1.988-7.952,7.05-33.599-10.396-33.599c3.27-3.161,6.257-6.279,8.984-9.32  c21.368-23.736,27.223-42.779,27.223-42.779c9.516,7.235,20.401,12.742,32.22,16.056c0,0,3.172,15.795,3.574,38.292  c-1.369-0.282-2.846-0.489-4.41-0.63c-11.048-0.999-22.454,1.727-23.442,12.775c-0.065,0.674-0.087,1.336-0.087,1.999  c0.087,10.222,7.919,18.88,18.304,19.825C281.802,310.41,284.529,310.073,287.038,309.237z"/>
<path style="fill:#4D4D4D;" d="M314.243,137.546c-4.429-0.727-7.77-1.286-10.951-1.563c-3.143-0.306-5.996-0.405-8.852-0.417  c-2.86,0.01-5.699,0.152-8.846,0.432c-3.177,0.279-6.518,0.831-10.958,1.548c0.755-4.46,3.616-8.071,7.216-10.591  c3.625-2.528,8.116-3.84,12.588-3.835c4.477-0.007,8.951,1.347,12.582,3.85C310.617,129.494,313.477,133.096,314.243,137.546z"/>
<path style="fill:#90E0A5;" d="M349.295,247.842c-10.352,6.148-22.964,9.592-38.021,9.592c-16.925,0-32.828-4.356-46.668-11.993  c-6.072-3.357-11.743-7.343-16.935-11.895c3.802-7.267,5.171-11.699,5.171-11.699c9.516,7.235,20.401,12.742,32.22,16.056  c8.332,2.346,17.12,3.596,26.212,3.596c10.287,0,19.434-1.608,27.494-4.595l0.065,0.185  C338.834,237.088,342.756,241.401,349.295,247.842z"/>
<path style="fill:#FFFFFF;" d="M296.994,179.84c7.619,0.404,12.915,0.697,17.801,0.671l13.068-0.01l13.055-0.023  c4.88,0.024,10.173-0.257,17.813-0.639c-0.456,7.688-4.83,13.895-10.513,18.284c-5.752,4.356-13.068,6.645-20.355,6.629  c-7.286-0.012-14.596-2.299-20.342-6.66C301.844,193.701,297.473,187.506,296.994,179.84z"/>
<path style="fill:#4D4D4D;" d="M385.829,142.245c-4.115-0.676-7.22-1.196-10.175-1.452c-2.919-0.285-5.572-0.377-8.225-0.387  c-2.658,0.009-5.296,0.141-8.22,0.402c-2.953,0.26-6.056,0.772-10.182,1.438c0.702-4.144,3.36-7.5,6.705-9.842  c3.369-2.349,7.541-3.567,11.696-3.563c4.159-0.007,8.318,1.251,11.691,3.577C382.459,134.763,385.117,138.111,385.829,142.245z"/>
<path style="fill:#90E0A5;" d="M307.875,354.278c-2.361,0-4.345-1.984-4.345-4.345c0-2.369,1.964-4.322,4.318-4.338  c2.221-0.014,4.125,1.704,4.347,3.911C312.448,352.018,310.403,354.278,307.875,354.278z"/>
<g>
	<path style="fill:#9EEFB5;" d="M344.842,397.155c-2.585,28.211-22.497,61.246-37.869,83.004   c-9.885,13.981-17.891,23.312-18.217,23.681c0.098-0.608,8.821-48.938,4.964-87.73c0,0,5.214-4.4,13.84-8.962   c9.255-4.91,22.432-9.994,37.271-9.994L344.842,397.155L344.842,397.155z"/>
	<path style="fill:#9EEFB5;" d="M293.719,416.112c3.856,38.792-4.867,87.122-4.964,87.73c-0.011,0.011-0.011,0.011-0.011,0.011   c0-20.64-53.229-57.574-65.178-94.508c-2.379-7.343-3.302-14.263-3.27-20.64C220.296,388.704,269.179,391.572,293.719,416.112z"/>
</g>
<g>
	<path style="fill:#56D353;" d="M343.113,376.853c1.934,6.279,2.39,13.133,1.727,20.303h-0.011   c-28.635,0-51.111,18.956-51.111,18.956c-24.54-24.54-73.423-27.407-73.423-27.407c0.141-25.669,15.947-42.474,15.947-42.474   s33.502,48.721,106.86,30.623H343.113z"/>
	<path style="fill:#56D353;" d="M329.872,297.373h-39.086c-3,0-5.432-2.432-5.432-5.432s2.431-5.432,5.432-5.432h39.086   c3,0,5.432,2.432,5.432,5.432S332.872,297.373,329.872,297.373z"/>
	<path style="fill:#56D353;" d="M124.901,238.374c0,0,7.026,29.131-13.781,43.466s-21.563,35.217-21.563,35.217   S47.782,250.331,124.901,238.374z"/>
	<path style="fill:#56D353;" d="M222.591,269.444c0,0-14.355,11.087-27.422,3.137c-13.065-7.948-24.788-3.202-24.788-3.202   S196.912,229.798,222.591,269.444z"/>
	<path style="fill:#56D353;" d="M371.296,264.611c0,0,5.52-29.454,30.372-34.011c24.852-4.557,34.094-23.298,34.094-23.298   S446.548,285.284,371.296,264.611z"/>
</g>
<path style="fill:#89571B;" d="M196.831,22.717l24.865-3.415L219.547,0l13.979,20.65l-0.34,0.125l27.56,15.056  c0.693,0.383,1.386,0.884,1.981,1.464c3.578,3.49,3.649,9.222,0.159,12.8s-9.222,3.649-12.8,0.159l-24.125-23.535L196.831,22.717z"/>
<g>
	<path style="fill:#90E0A5;" d="M306.973,480.159c-9.885,13.981-17.891,23.312-18.217,23.681c0.098-0.608,8.821-48.938,4.964-87.73   c0,0,5.214-4.4,13.839-8.962C305.952,426.029,303.779,460.095,306.973,480.159z"/>
	<path style="fill:#90E0A5;" d="M304.887,512h-29.166c-4.501,0-8.147-3.648-8.147-8.147c0-4.499,3.647-8.147,8.147-8.147h29.166   c4.501,0,8.147,3.648,8.147,8.147C313.035,508.352,309.387,512,304.887,512z"/>
</g>
<path style="fill:#56D353;" d="M343.298,279.157c11.048,0.999,17.576,5.334,16.588,16.392c-0.337,3.704-1.651,7.072-3.672,9.896  c-4.019,5.594-10.798,8.973-18.152,8.31c-11.048-0.989-19.206-10.754-18.217-21.813  C320.844,280.884,332.239,278.169,343.298,279.157z"/>
<path style="fill:#46BA43;" d="M329.26,291.942c0.735-8.136,7.104-11.746,14.82-12.698c-0.262-0.028-0.514-0.064-0.781-0.088  c-11.059-0.989-22.454,1.727-23.453,12.786c-0.989,11.059,7.17,20.824,18.217,21.813c2.264,0.204,4.472,0.023,6.563-0.487  C335.066,311.006,328.358,302.023,329.26,291.942z"/>
<path style="fill:#56D353;" d="M284.225,275.562c11.059,0.989,17.587,5.323,16.588,16.381S290.047,311.149,279,310.16  c-10.385-0.945-18.217-9.603-18.304-19.825c0-0.663,0.022-1.325,0.087-1.999C261.771,277.289,273.177,274.562,284.225,275.562z"/>
<path style="fill:#46BA43;" d="M270.834,290.334c0-0.663,0.022-1.325,0.087-1.999c0.717-8.009,6.915-11.631,14.475-12.645  c-0.389-0.045-0.77-0.095-1.172-0.13c-11.048-0.999-22.454,1.727-23.442,12.775c-0.065,0.674-0.087,1.336-0.087,1.999  c0.087,10.222,7.919,18.88,18.304,19.825c2.374,0.213,4.68-0.02,6.861-0.589C277.151,307.3,270.911,299.447,270.834,290.334z"/>
<g>
</g>
<g>
</g>
<g>
</g>
<g>
</g>
<g>
</g>
<g>
</g>
<g>
</g>
<g>
</g>
<g>
</g>
<g>
</g>
<g>
</g>
<g>
</g>
<g>
</g>
<g>
</g>
<g>
</g>
</svg>
