<?xml version="1.0" encoding="iso-8859-1"?>
<!-- Generator: Adobe Illustrator 19.0.0, SVG Export Plug-In . SVG Version: 6.00 Build 0)  -->
<svg xmlns="http://www.w3.org/2000/svg" xmlns:xlink="http://www.w3.org/1999/xlink" version="1.1" id="Layer_1" x="0px" y="0px" viewBox="0 0 512 512" style="enable-background:new 0 0 512 512;" xml:space="preserve">
<path style="fill:#FFD0B8;" d="M327.227,289.99c-0.142-0.964-0.285-1.905-0.438-2.825c-7.162,0.055-14.827-0.394-21.803-1.818  c-0.701-0.142-1.402-0.318-2.081-0.515c-5.07-1.467-9.407-4.402-12.604-8.202c-2.278,0.679-4.632,1.303-7.074,1.862  c-13.656,3.066-27.279,3.209-40.223,0.832c-11.706-2.157-22.854-6.373-32.951-12.331c-1.796,3.625-3.395,7.249-4.786,10.863  c-0.537,1.347-1.029,2.694-1.5,4.041c0,0-0.022,0.044-0.055,0.12c-7.917,22.559-8.607,44.658-3.811,63.46  c1.062,4.172,2.409,8.191,3.986,12.013h0.011c13.327,4.337,27.005,7.173,40.803,8.498c26.337,2.552,53.068-0.383,78.463-8.794  c1.435-3.822,2.573-7.775,3.46-11.805l0.329,0.077c17.554,17.554,62.749,18.529,62.749,18.529  C363.803,355.06,337.214,308.913,327.227,289.99z"/>
<path style="fill:#EFC1AC;" d="M244.704,365.992c-13.798-1.325-27.476-4.161-40.803-8.498h-0.011  c-1.577-3.822-2.924-7.841-3.986-12.013c-4.796-18.803-4.107-40.902,3.811-63.46c0.033-0.077,0.055-0.12,0.055-0.12  c1.73-4.95,3.822-9.932,6.286-14.904c10.097,5.957,21.245,10.173,32.951,12.331C242.525,280.06,219.024,316.22,244.704,365.992z"/>
<g>
	<path style="fill:#E2B39F;" d="M233.203,309.023c-2.383,0-4.379-1.996-4.38-4.38c-0.001-2.387,1.995-4.381,4.38-4.38   c2.319,0.001,4.287,1.888,4.374,4.207C237.666,306.914,235.658,309.023,233.203,309.023z"/>
	<path style="fill:#E2B39F;" d="M297.593,309.023c-2.599,0-4.689-2.386-4.34-4.961c0.315-2.329,2.525-4.065,4.873-3.776   c2.166,0.267,3.855,2.173,3.847,4.356C301.966,307.027,299.981,309.023,297.593,309.023z"/>
</g>
<path style="fill:#52CBCE;" d="M401.531,429.594c-3.362-11.433-9.451-17.259-16.12-19.931c-13.393-5.355-29.129,2.048-29.852,2.398  c1.128-1.095,37.211-36.554,37.211-132.495C392.77,279.567,434.385,357.319,401.531,429.594z"/>
<path style="fill:#3EADAD;" d="M401.531,429.594L400.129,430c-17.215,4.917-35.569-2.464-44.592-17.927c0,0,0.011,0,0.022-0.011  C356.643,411.536,391.401,395.187,401.531,429.594z"/>
<path style="fill:#F7B348;" d="M326.791,287.167c-7.162,0.055-14.828-0.394-21.803-1.818c-5.968-1.216-11.06-4.402-14.685-8.717  c-5.563-6.581-7.753-15.769-4.61-24.53c2.201-6.1,6.79-11.192,15.868-11.838c9.976-0.712,15.78,7.271,21.157,16.678  c7.677,13.415,14.488,29.754,31.363,27.979C354.081,284.922,341.509,287.09,326.791,287.167z"/>
<path style="fill:#FFD0B8;" d="M322.718,256.943c-5.377-9.407-11.181-17.39-21.157-16.678c-9.078,0.646-13.667,5.738-15.868,11.838  c-3.143,8.761-0.953,17.948,4.61,24.53c-2.278,0.679-4.632,1.303-7.074,1.862c-13.645,3.066-27.268,3.209-40.212,0.832  c-11.706-2.157-22.854-6.373-32.962-12.331c-16.295-9.615-29.863-23.796-38.657-41.219c-2.201,2.88-5.103,4.917-8.52,5.684  c-9.878,2.212-20.314-6.844-23.325-20.237c-3.011-13.382,2.541-26.052,12.407-28.264c2.913-0.657,5.881-0.318,8.684,0.81h0.011  c5.694,14.948,23.618-43.554,23.618-43.554c-12.429-39.533,53.112-54.207,53.112-54.207c3.504,0,30.378-6.833,9.748,27.27  c-3.097,5.12,11.299,9.032,11.606,3.393c0,0,6.888-3.975,17.521-1.643c17.116,3.778,12.594-4.38,43.325,0.9  c8.498,13.207,14.718,29.326,18.726,47.111C346.656,200.129,343.153,234.822,322.718,256.943z"/>
<path style="fill:#EFC1AC;" d="M302.905,284.832c-3.57,2.037-7.589,3.909-12.604,5.673c-2.278,0.679-4.632,1.303-7.074,1.862  c-13.645,3.066-27.268,3.209-40.212,0.832c-11.707-2.157-22.855-6.373-32.962-12.331c-1.621-0.953-3.22-1.96-4.786-3.011  c1.391-3.614,2.99-7.239,4.786-10.863c10.097,5.957,21.245,10.173,32.951,12.331c12.944,2.376,26.567,2.234,40.223-0.832  c2.442-0.559,4.797-1.183,7.074-1.862C293.498,280.43,297.835,283.365,302.905,284.832z"/>
<path style="fill:#BC6D1E;" d="M331.881,447.606c-6.56,6.56-12.769,8.18-18.168,7.359l1.862,22.975H275.67l-6.133-27.366v-0.011  l-1.993-8.87c-1.884-8.377,3.778-16.591,12.287-17.806l0.088-0.011l-6.691-25.91c-7.162,1.281-14.006,1.369-20.478,0.427  l-6.56,25.483l0.077,0.011c8.509,1.216,14.17,9.429,12.298,17.806l-8.126,36.247h-39.916l1.04-12.878l0.81-10.097  c-5.388,0.821-11.597-0.81-18.157-7.359c-18.332-18.343,9.867-68.826,15.583-78.595c-2.234-3.592-4.216-7.447-5.903-11.52  c13.327,4.337,27.005,7.173,40.803,8.498c26.337,2.552,53.068-0.383,78.463-8.794c-1.665,4.49-3.745,8.805-6.275,12.834  C323.712,381.846,349.655,429.833,331.881,447.606z"/>
<polygon style="fill:#666666;" points="315.578,477.943 318.326,512 297.99,500.698 283.305,512 275.672,477.943 315.567,477.943   "/>
<path style="fill:#F7B348;" d="M298.319,92.811c8.213,5.968,15.309,13.82,21.267,23.117c-38.624,24.65-85.329,4.074-85.329,4.074  c0.164-2.946-0.394-5.968-1.73-8.805c-3.077-6.472-7.37-14.4-12.999-22.351c5.837-2.65,12.013-4.775,18.485-6.297  c0.35-0.088,0.712-0.175,1.073-0.252c10.611-2.387,20.402-2.814,29.37-1.566C268.204,83.251,298.242,93.205,298.319,92.811z"/>
<path style="fill:#808080;" d="M298.319,92.811c-0.077,0.394-0.164,0.767-0.252,1.139c-1.763,7.501-8.794,12.561-16.481,11.904  c-8.147-0.701-14.247-7.534-14.247-15.474c0-0.799,0.066-1.61,0.186-2.42c0.361-2.278,0.679-4.709,0.931-7.228  c1.588-16.109,0.219-36.149-13.798-45.457c-4.807-3.187-9.144-4.238-12.824-3.734c-15.725,2.179-19.493,32.853,3.734,48.228  c-2.584,1.172-5.125,2.037-7.6,2.606c-21.07,4.807-37.583-11.674-38.46-35.032c-0.69-18.551,20.007-52.444,54.645-46.695h0.033  c6.779,1.139,14.105,3.8,21.913,8.388C308.525,28.102,303.083,71.851,298.319,92.811z"/>
<polygon style="fill:#666666;" points="250.442,477.943 242.809,512 228.113,500.698 207.777,512 210.526,477.943 "/>
<path style="fill:#808080;" d="M234.256,120.002c-0.307,5.64-3.22,11.017-8.191,14.346c-3.154,2.092-6.702,3.099-10.206,3.099  c-6.373,0-12.594-3.296-15.999-9.286c-3.088-5.432-6.943-11.466-11.487-17.149c-10.053-12.594-23.446-23.435-39.259-22.055  c-7.304,0.635-12.342,3.307-15.397,7.085c-11.805,14.554,5.968,45.49,37.572,39.27v0.011c-1.96,3.888-3.669,7.928-5.103,12.057  l-0.011,0.011c-16.153,17.083-41.931,13.393-59.157-6.603c-15.78-18.343-14.718-76.667,31.341-88.045  c3.942-0.975,8.224-1.61,12.845-1.84c32.218-1.61,54.371,18.299,68.323,37.945c5.629,7.95,9.922,15.879,12.999,22.351  C233.862,114.034,234.421,117.056,234.256,120.002z"/>
<path style="fill:#E0993B;" d="M199.859,128.16c3.406,5.99,9.626,9.286,15.999,9.286c0,0-29.272,33.641-16.842,73.174  c0,0-32.667-11.904-38.361-26.852h-0.011c-0.438-12.583,1.522-24.891,5.53-36.379l0.011-0.011c1.435-4.128,3.143-8.169,5.103-12.057  v-0.011c2.103-4.194,4.49-8.235,7.162-12.079c0-0.011,0-0.011,0-0.022c2.99-4.315,6.297-8.388,9.921-12.199  C192.917,116.695,196.771,122.729,199.859,128.16z"/>
<path style="fill:#EFC1AC;" d="M243.017,279.315v0.011c-11.706-2.157-22.854-6.373-32.962-12.331  c-16.295-9.615-29.863-23.796-38.657-41.219c-2.201,2.88-5.103,4.917-8.52,5.684c-9.878,2.212-20.314-6.844-23.325-20.237  c-3.011-13.382,2.541-26.052,12.407-28.264c2.913-0.657,5.881-0.318,8.684,0.81h0.011c5.694,14.948,38.361,26.852,38.361,26.852  c-12.429-39.533,16.842-73.174,16.842-73.174c3.504,0,7.052-1.007,10.206-3.099c4.972-3.329,7.885-8.706,8.191-14.346  c0,0,6.855,3.022,17.489,5.355C251.746,125.357,188.098,177.308,243.017,279.315z"/>
<path style="fill:#FFD0B8;" d="M203.714,282.02c-7.917,22.559-8.607,44.658-3.811,63.46c-17.554,17.532-62.727,18.518-62.727,18.518  C169.164,352.971,202.181,285.185,203.714,282.02z"/>
<g>
	<path style="fill:#A87D6D;" d="M248.718,184.438c-2.945,0-5.624-1.994-6.369-4.982l-3.384-13.557   c-0.879-3.521,1.263-7.087,4.783-7.966c3.521-0.877,7.089,1.263,7.966,4.784l3.384,13.557c0.879,3.521-1.263,7.087-4.783,7.966   C249.779,184.374,249.245,184.438,248.718,184.438z"/>
	<path style="fill:#A87D6D;" d="M308.596,172.009c-2.945,0-5.624-1.994-6.369-4.982l-3.384-13.557   c-0.879-3.521,1.263-7.087,4.783-7.966c3.521-0.878,7.087,1.263,7.966,4.784l3.384,13.557c0.879,3.521-1.263,7.087-4.783,7.966   C309.659,171.945,309.124,172.009,308.596,172.009z"/>
</g>
<path style="fill:#999999;" d="M234.256,120.002c-0.307,5.64-3.22,11.017-8.191,14.346c-17.116-54.24-74.86-83.446-74.86-83.446  c32.218-1.61,54.371,18.299,68.323,37.945c5.629,7.95,9.922,15.879,12.999,22.351C233.862,114.034,234.421,117.056,234.256,120.002z  "/>
<path style="fill:#777777;" d="M171.289,135.311v0.011c-1.96,3.888-3.669,7.928-5.103,12.057l-0.011,0.011  c-16.153,17.083-41.931,13.393-59.157-6.603c-15.78-18.343-14.718-76.667,31.341-88.045c-3.789,5.18-19.405,28.538-4.643,43.3  C121.911,110.595,139.684,141.531,171.289,135.311z"/>
<path style="fill:#FFFFFF;" d="M252.159,211.033c7.065-1.016,13.339-1.398,19.464-2.072c6.102-0.606,11.968-1.347,17.803-2.26  c5.834-0.928,11.628-2.013,17.589-3.325c6.004-1.267,12.035-2.858,19.034-4.264c-3.388,6.318-8.726,11.112-14.68,14.784  c-5.998,3.628-12.755,6.038-19.704,7.108c-6.948,1.087-14.096,0.846-20.896-0.729C263.99,218.635,257.477,215.816,252.159,211.033z"/>
<path style="fill:#777777;" d="M254.155,0.648V0.67c0,0-20.226,12.911-12.32,30.871c-15.725,2.179-19.493,32.853,3.734,48.228  c-2.584,1.172-5.125,2.037-7.6,2.606c-21.07,4.807-37.583-11.674-38.46-35.032C198.819,28.792,219.517-5.101,254.155,0.648z"/>
<path style="fill:#999999;" d="M298.319,92.811c-0.077,0.394-0.164,0.767-0.252,1.139c-1.763,7.501-8.794,12.561-16.481,11.904  C300.279,32.975,254.154,0.67,254.154,0.67l0.033-0.022c6.779,1.139,14.105,3.8,21.913,8.388  C308.525,28.102,303.083,71.851,298.319,92.811z"/>
<path style="fill:#A05818;" d="M212.376,454.968c-5.388,0.821-11.597-0.81-18.157-7.359c-18.332-18.343,9.867-68.826,15.583-78.595  c-2.234-3.592-4.216-7.447-5.903-11.52c13.327,4.337,27.005,7.173,40.803,8.498C244.704,365.992,196.903,431.993,212.376,454.968z"/>
<path style="fill:#3EADAD;" d="M385.411,409.664c-13.393-5.355-29.129,2.048-29.852,2.398c1.128-1.095,37.211-36.554,37.211-132.495  C392.77,279.567,406.088,372.31,385.411,409.664z"/>
<g>
	<path style="fill:#FFD0B8;" d="M146.086,358.358c-1.672-0.468-2.992-0.732-4.493-0.955c-1.462-0.21-2.927-0.353-4.411-0.376   c-2.959-0.058-5.957,0.161-8.925,0.956c-2.956,0.775-5.885,1.968-8.44,3.843c-2.523,1.904-4.672,4.437-5.506,7.424   c3.052-0.718,5.535-1.004,7.976-1.103c2.445-0.066,4.799,0.054,7.148,0.17c2.35,0.138,4.728,0.364,7.11,0.559l2.282,0.212   c-0.016,1.332-0.002,2.669,0.072,4.019c0.243,3.498,0.661,7.03,1.944,10.736c2.61-2.927,4.354-6.027,5.924-9.163   c0.76-1.573,1.44-3.162,2.051-4.764c0.594-1.605,1.158-3.217,1.62-4.85l1.441-5.087L146.086,358.358z"/>
	<path style="fill:#FFD0B8;" d="M404.027,367.485c-3.055-0.712-5.541-1.007-7.983-1.106H396c-2.431-0.066-4.764,0.055-7.096,0.175   c-2.354,0.142-4.731,0.361-7.118,0.559l-1.774,0.164l-0.504,0.044v1.456c-1.336,3.844-2.716,7.392-4.096,10.677   c-1.544-2.124-2.738-4.326-3.844-6.538c-0.767-1.577-1.446-3.165-2.048-4.764c-0.602-1.61-1.161-3.22-1.621-4.851l-1.446-5.081   l5.793-1.632c1.676-0.46,2.99-0.723,4.501-0.953c1.456-0.208,2.924-0.35,4.402-0.372c0.832-0.011,1.665-0.011,2.497,0.033   c2.146,0.077,4.293,0.35,6.428,0.92c2.223,0.58,4.424,1.402,6.461,2.563c0.679,0.383,1.347,0.81,1.982,1.281   C401.037,361.966,403.194,364.496,404.027,367.485z"/>
</g>
<g>
	<path style="fill:#A05818;" d="M232.929,440.653c-3.099,4.446-14.159,21.354-14.159,37.288h-8.246l1.04-12.878l0.81-10.097   C212.374,454.965,226.588,448.855,232.929,440.653z"/>
	<path style="fill:#A05818;" d="M233.575,439.766c-0.142,0.219-0.307,0.438-0.482,0.657   C233.301,440.138,233.466,439.908,233.575,439.766z"/>
	<path style="fill:#A05818;" d="M289.939,439.525c-0.471-0.285-16.065-9.735-20.401,11.038l-1.993-8.87   c-1.884-8.377,3.778-16.591,12.287-17.806l0.088-0.011C279.919,423.876,284.65,434.235,289.939,439.525z"/>
</g>
<g>
</g>
<g>
</g>
<g>
</g>
<g>
</g>
<g>
</g>
<g>
</g>
<g>
</g>
<g>
</g>
<g>
</g>
<g>
</g>
<g>
</g>
<g>
</g>
<g>
</g>
<g>
</g>
<g>
</g>
</svg>
