<?xml version="1.0" encoding="iso-8859-1"?>
<!-- Generator: Adobe Illustrator 19.0.0, SVG Export Plug-In . SVG Version: 6.00 Build 0)  -->
<svg xmlns="http://www.w3.org/2000/svg" xmlns:xlink="http://www.w3.org/1999/xlink" version="1.1" id="Layer_1" x="0px" y="0px" viewBox="0 0 512 512" style="enable-background:new 0 0 512 512;" xml:space="preserve">
<path style="fill:#E8BB54;" d="M308.142,512h-58.356c-5.719,0-10.405-4.516-10.621-10.223c-0.034-0.806-0.045-1.611-0.045-2.417  c0-13.037,3.971-25.803,11.426-36.559l16.839-24.316l2.916-4.221l-36.798-44.196l59.582-0.749l11.04,46.51l0.465,1.986  l-30.75,44.944l7.478,0.511C296.421,484.314,308.142,496.863,308.142,512z"/>
<path style="fill:#CE9F42;" d="M267.384,438.484l2.916-4.221l-36.798-44.196l59.582-0.749l11.04,46.51  C291.916,437.316,279.661,438.201,267.384,438.484z"/>
<g>
	<path style="fill:#E8BB54;" d="M258.546,33.38c-3.446,0-6.241-2.794-6.241-6.241V6.241c0-3.447,2.795-6.241,6.241-6.241   s6.241,2.794,6.241,6.241v20.898C264.787,30.586,261.992,33.38,258.546,33.38z"/>
	<path style="fill:#E8BB54;" d="M340.763,266.372c19.266-18.686,48.773-54.45,48.773-98.255c0,0,22.755,99.556-35.302,147.549"/>
</g>
<path style="fill:#F4516D;" d="M375.727,373.486c-50.584,16.441-103.766,21.956-156.086,16.555  c-26.449-2.723-52.683-8.249-78.259-16.555l17.054-57.29l14.365-48.326l51.276-172.278l4.924-16.566l17.134-57.562h24.827  l17.179,57.732l4.868,16.339L375.727,373.486z"/>
<path style="fill:#DB4565;" d="M259.612,21.468l-39.975,368.577c-26.449-2.723-52.683-8.249-78.259-16.555l17.054-57.29  l14.365-48.326l73.334-246.406L259.612,21.468L259.612,21.468z"/>
<path style="fill:#E8BB54;" d="M187.511,280.469c0,0-65.046-47.307-65.046-112.353c0,0-28.384,124.179,59.134,162.025"/>
<path style="fill:#FFFFFF;" d="M287.364,218.425c-14.191,0-26.058,9.924-29.058,23.209c3.001,13.285,14.867,23.208,29.058,23.208  c14.191,0,26.058-9.924,29.058-23.208C313.421,228.349,301.555,218.425,287.364,218.425z"/>
<g>
	<path style="fill:#4D4D4D;" d="M287.358,250.146c-3.628,0-6.934-2.408-8.069-5.846c-1.067-3.233-0.073-6.889,2.518-9.11   c5.835-5.005,15.152,0.056,13.977,7.692C295.151,246.999,291.534,250.146,287.358,250.146z"/>
	<path style="fill:#4D4D4D;" d="M322.813,284.845c-25.674,25.674-63.455,6.617-63.455,6.617s-3.303,55.236,34.317,55.236   C330.295,346.698,322.813,284.845,322.813,284.845z"/>
</g>
<path style="fill:#E8BB54;" d="M293.009,95.535c-13.344,4.834-25.439,6.468-35.674,6.468c-17.179,0-29.184-4.595-33.257-6.411  l4.924-16.566l1.43,0.749c0.284,0.148,6.252,3.052,16.09,4.448c13.389,1.906,27.244,0.261,41.189-4.868l0.431-0.159L293.009,95.535z  "/>
<g>
</g>
<g>
</g>
<g>
</g>
<g>
</g>
<g>
</g>
<g>
</g>
<g>
</g>
<g>
</g>
<g>
</g>
<g>
</g>
<g>
</g>
<g>
</g>
<g>
</g>
<g>
</g>
<g>
</g>
</svg>
