<?xml version="1.0" encoding="iso-8859-1"?>
<!-- Generator: Adobe Illustrator 19.0.0, SVG Export Plug-In . SVG Version: 6.00 Build 0)  -->
<svg xmlns="http://www.w3.org/2000/svg" xmlns:xlink="http://www.w3.org/1999/xlink" version="1.1" id="Layer_1" x="0px" y="0px" viewBox="0 0 512 512" style="enable-background:new 0 0 512 512;" xml:space="preserve">
<path style="fill:#666666;" d="M332.643,380.299c-14.597,4.434-29.522,6.596-43.362,7.408c-33.034,1.943-59.934-3.72-61.547-4.072  c-0.23,13.686-0.944,29.896-2.656,46.819c0.362,0.582,12.456,18.932,48.213,18.932c3.358-6.563,6.508-14.048,9.12-22.498  c0.878,4.829,1.613,9.559,2.25,14.169c0,0,18.888,1.405,44.426-7.178C331.853,414.168,332.709,395.839,332.643,380.299z"/>
<g>
	<path style="fill:#D67729;" d="M332.248,512h-45.665c0,0,3.951-27.945-1.921-70.945c0,0,18.888,1.405,44.426-7.178   c-2.349,16.835-6.102,34.692-11.853,52.701l18.871,13.086C341.558,503.448,338.882,512,332.248,512z"/>
	<path style="fill:#D67729;" d="M273.291,449.385c-13.181,25.824-29.511,37.369-29.511,37.369l15.581,13.327   c4.78,4.088,1.889,11.915-4.401,11.915h-48.857c10.58-23.684,16.144-53.59,18.976-81.543   C225.441,431.036,237.535,449.385,273.291,449.385z"/>
	<path style="fill:#D67729;" d="M335.947,283.94c-0.68,27.305-6.815,47.422-6.815,47.422c-8.297,3.501-17.34,6.124-26.493,8.088   v-0.011c6.135-40.486-3.303-88.534-4.17-92.803c0.033,0,0.066-0.011,0.099-0.033C300.278,249.5,315.588,274.6,335.947,283.94z"/>
	<path style="fill:#D67729;" d="M302.639,339.441v0.011c-22.894,4.906-46.522,5.685-61.13,5.564   c-8.901-0.077-14.443-0.483-14.443-0.483c0-46.094-30.367-71.907-30.367-71.907c-35.46,7.167-62.337,5.268-82.575-0.867   c-47.005-14.256-58.266-51.439-58.266-51.439c26.471,19.404,50.726,25.857,71.468,25.67c43.757-0.384,71.841-30.302,71.841-30.302   c8.056,9.504,17.9,17.45,29.018,23.311c0,2.261,0.219,4.445,0.626,6.563c5.926,30.773,52.032,46.094,52.032,46.094l17.417-44.953   c0.066-0.011,0.143-0.033,0.209-0.066C299.335,250.906,308.774,298.955,302.639,339.441z"/>
	<path style="fill:#D67729;" d="M227.734,383.635l-6.756,14.601c0,0,57.801,19.755,123.65-5.853l-11.986-12.084l-45.084-22.303   L227.734,383.635z"/>
</g>
<path style="fill:#CCCCCC;" d="M302.643,350.426c-0.38,0-0.765-0.04-1.152-0.122c-2.963-0.633-4.853-3.548-4.22-6.512  c8.153-38.167-4.043-95.422-4.167-95.996c-0.641-2.962,1.241-5.883,4.202-6.523c2.962-0.642,5.883,1.24,6.523,4.203  c0.132,0.609,3.252,15.145,5.363,34.814c2.856,26.598,2.454,48.734-1.19,65.794C307.454,348.662,305.177,350.426,302.643,350.426z"/>
<g>
	<path style="fill:#E6E6E6;" d="M335.507,265.249c0.483,6.486,0.593,12.764,0.439,18.69c-20.358-9.34-35.668-34.439-37.38-37.336   c11.963-3.808,21.697-10.481,29.358-19.327C332.325,240.084,334.586,253.034,335.507,265.249z"/>
	<path style="fill:#E6E6E6;" d="M298.259,246.702l-17.417,44.953c0,0-52.657-17.505-52.657-52.657   c13.598,7.178,29.083,11.238,45.524,11.238C282.751,250.236,290.928,249.007,298.259,246.702z"/>
</g>
<path style="fill:#D67729;" d="M454.497,183.849c-43.581,87.151-117.903,81.488-118.989,81.4  c-0.922-12.215-3.183-25.165-7.584-37.973v-0.011c2.744-3.139,5.202-6.563,7.397-10.218  C375.346,240.512,454.497,183.849,454.497,183.849z"/>
<path style="fill:#F4516D;" d="M332.644,380.3c-14.597,4.434-29.522,6.596-43.362,7.408c-16.407,0.966-31.3,0.055-42.33-1.152  c-11.183-1.218-18.405-2.744-19.217-2.919c0.362-23.157-0.669-39.103-0.669-39.103s7.869,0.571,19.886,0.483  c14.64-0.11,35.449-1.229,55.686-5.564c9.153-1.965,18.196-4.587,26.493-8.088C329.132,331.363,332.545,350.834,332.644,380.3z"/>
<path style="fill:#CCCCCC;" d="M120.609,20.576c0,0-30.73,47.192-6.585,71.337c0,0-50.484,19.755-50.484,116.333H49.272  C49.272,208.246,18.543,83.133,120.609,20.576z"/>
<path style="fill:#FFD0B8;" d="M162.269,177.802c-6.135-3.797-10.382-12.204-10.382-21.95c0-13.334,7.957-24.145,17.779-24.145  c2.908,0,5.641,0.944,8.067,2.623l1.24,42.1c-2.711,2.261-5.893,3.567-9.307,3.567C167.022,179.997,164.519,179.218,162.269,177.802  z"/>
<path style="fill:#666666;" d="M207.991,101.307c0,0-17.143,60.845,17.977,83.892c0,0-18.646,19.041-41.397,7.342  c-2.316-5.147-4.192-10.536-5.597-16.111l-1.24-42.1c1.35-7.167,3.479-14.048,6.311-20.567  C184.044,113.763,192.395,107.629,207.991,101.307z"/>
<path style="fill:#333333;" d="M349.391,139.181c-2.886,13.247-12.511,22.981-23.947,22.981c-13.73,0-24.847-14.004-24.847-31.278  c0-8.132,2.458-15.54,6.508-21.105v-0.011C322.985,116.266,338.163,125.649,349.391,139.181z"/>
<path style="fill:#D67729;" d="M322.546,27.161c26.34,19.755,55.972-7.682,55.972-7.682s8.78,86.701-39.411,75.573  c-48.081-12.105-86.756-7.507-113.447,0.165c-6.651,1.91-12.544,4.006-17.67,6.091c-15.595,6.322-23.947,12.456-23.947,12.456  c-37.534-17.659-37.095-43.801-37.095-43.801c48.289,6.585,46.094-48.289,86.701-64.752S307.017,15.517,322.546,27.161z"/>
<g>
	<path style="fill:#FFD0B8;" d="M350.105,140.016h-0.011c-0.23-0.274-0.45-0.56-0.702-0.834   c-11.227-13.532-26.406-22.915-42.286-29.413c-38.664-15.826-81.444-14.542-81.444-14.542v-0.011   c7.441-2.14,15.815-4.039,25.067-5.411c0,0,0,0,0.011,0c23.925-3.523,53.7-3.479,88.37,5.246   c5.213,10.777,8.56,23.234,10.207,36.733C349.644,134.485,349.908,137.24,350.105,140.016z"/>
	<path style="fill:#FFD0B8;" d="M350.533,152.561c0,24.704-4.796,47.291-15.211,64.488c-2.195,3.655-4.653,7.079-7.397,10.218v0.011   c-7.66,8.846-17.395,15.518-29.358,19.327c-0.077-0.132-0.132-0.219-0.154-0.252c-0.011-0.011-0.011-0.022-0.011-0.022   l-0.143,0.373c-7.331,2.305-15.507,3.534-24.551,3.534c-16.44,0-31.926-4.061-45.524-11.238   c-11.118-5.861-20.962-13.806-29.018-23.311c-5.883-6.947-10.821-14.728-14.597-23.146c22.751,11.699,41.397-7.342,41.397-7.342   c-35.12-23.047-17.977-83.892-17.977-83.892c4.917-1.997,10.547-4.017,16.879-5.861l0.79-0.23v0.011c0,0,42.78-1.284,81.444,14.542   v0.011c-0.933,1.273-1.778,2.645-2.524,4.105c-2.524,4.895-3.984,10.733-3.984,17c0,17.274,11.118,31.278,24.847,31.278   c10.207,0,18.976-7.759,22.784-18.844c0.461-1.339,0.856-2.711,1.163-4.138c0.252,0.274,0.472,0.56,0.702,0.834h0.011   c0.132,1.932,0.241,3.885,0.307,5.861C350.489,148.083,350.533,150.311,350.533,152.561z"/>
</g>
<path style="fill:#FFFFFF;" d="M267.053,188.451c6.089,0.842,10.907,1.507,15.548,1.679c4.594,0.206,8.844,0.117,13.083-0.283  c4.237-0.415,8.424-1.119,12.895-2.184c4.523-1.037,9.132-2.582,14.972-4.534c-0.876,6.131-4.553,11.357-9.321,15.224  c-4.811,3.852-10.884,6.205-17.105,6.781c-6.222,0.577-12.621-0.599-18.065-3.49C273.657,198.735,269.07,194.296,267.053,188.451z"/>
<path style="fill:#666666;" d="M267.283,46.695l11.289-12.157c1.65-1.777,1.546-4.555-0.23-6.204s-4.553-1.547-6.204,0.229  L260.823,40.75l-9.931-9.138c-1.785-1.642-4.562-1.526-6.203,0.258c-1.642,1.785-1.525,4.561,0.259,6.203l9.902,9.11l-11.244,12.11  c-1.65,1.777-1.547,4.555,0.229,6.204c0.845,0.785,1.917,1.173,2.986,1.173c1.179,0,2.353-0.472,3.218-1.403l11.272-12.139  l11.074,10.188c0.844,0.776,1.909,1.159,2.971,1.159c1.184,0,2.366-0.477,3.231-1.418c1.642-1.785,1.527-4.561-0.258-6.203  L267.283,46.695z"/>
<path style="fill:#333333;" d="M350.412,145.878c-0.713-0.867-1.438-1.723-2.184-2.557c-11.513-12.95-27.119-22.455-43.647-29.435  c-29.808-12.588-62.59-16.945-79.71-18.438l0.79-0.23c7.441-2.14,15.815-4.039,25.067-5.411c0,0,0,0,0.011,0  c6.179,1.032,12.852,2.316,19.788,3.951c34.461,8.077,60.888,20.841,78.788,38.028c0.329,2.7,0.593,5.454,0.79,8.231  C350.237,141.948,350.347,143.902,350.412,145.878z"/>
<path style="fill:#FFD0B8;" d="M475.314,168.785H442.54v22.911h18.043c8.136,0,14.732-6.596,14.732-14.732V168.785z"/>
<path style="fill:#4D4D4D;" d="M270.964,158.31c-3.333,0-6.036-2.702-6.036-6.036v-20.852c0-3.334,2.703-6.036,6.036-6.036  s6.036,2.702,6.036,6.036v20.852C277.001,155.608,274.297,158.31,270.964,158.31z"/>
<path style="fill:#E5D24A;" d="M162.314,187.68c-0.452,0-0.911-0.07-1.363-0.217c-2.305-0.752-3.564-3.23-2.812-5.535l4.39-13.455  c0.752-2.306,3.23-3.564,5.535-2.812c2.305,0.752,3.564,3.23,2.812,5.535l-4.39,13.455  C165.882,186.504,164.163,187.68,162.314,187.68z"/>
<g>
	<path style="fill:#666666;" d="M74.514,214.282H37.2c-3.334,0-6.036-2.702-6.036-6.036s2.702-6.036,6.036-6.036h37.315   c3.334,0,6.036,2.702,6.036,6.036S77.849,214.282,74.514,214.282z"/>
	<path style="fill:#666666;" d="M55.992,249.245c-2.979,0-5.424-2.384-5.484-5.377l-0.686-33.865   c-0.061-3.03,2.345-5.536,5.375-5.597c3.025-0.048,5.536,2.345,5.597,5.375l0.686,33.865c0.061,3.03-2.345,5.536-5.375,5.597   C56.068,249.245,56.031,249.245,55.992,249.245z"/>
</g>
<circle style="fill:#FFD0B8;" cx="55.625" cy="229.221" r="10.975"/>
<path style="fill:#E5D24A;" d="M449.669,130.848c-0.458,0-0.922-0.095-1.364-0.299c-7.641-3.492-20.231-14.61-13.199-31.686  c2.69-6.532,1.98-12.379-2.11-17.376c-3.143-3.842-7.182-5.809-7.221-5.829c-1.645-0.775-2.352-2.736-1.578-4.381  c0.775-1.646,2.735-2.353,4.381-1.577c7.433,3.499,19.638,14.62,12.618,31.669c-2.653,6.441-1.905,12.221,2.219,17.18  c3.303,3.972,7.595,5.993,7.637,6.013c1.645,0.765,2.366,2.718,1.607,4.367C452.103,130.136,450.914,130.848,449.669,130.848z"/>
<path style="fill:#666666;" d="M447.363,116.902c18.482,0,33.473,14.992,33.473,33.473s-14.992,33.473-33.473,33.473  s-33.473-14.992-33.473-33.473S428.882,116.902,447.363,116.902z"/>
<path style="fill:#4D4D4D;" d="M432.182,150.376c0-15.309,10.291-28.214,24.328-32.197c-2.908-0.825-5.974-1.276-9.145-1.276  c-18.482,0-33.473,14.992-33.473,33.473s14.992,33.473,33.473,33.473c3.172,0,6.237-0.451,9.145-1.276  C442.473,178.591,432.182,165.686,432.182,150.376z"/>
<path style="fill:#BF6725;" d="M241.509,345.016c-8.901-0.077-14.443-0.483-14.443-0.483c0-46.094-30.367-71.907-30.367-71.907  c-35.46,7.167-62.337,5.268-82.575-0.867c0,0,13.203-2.074,13.203-25.769c43.757-0.384,71.841-30.302,71.841-30.302  c8.056,9.504,17.9,17.45,29.018,23.311c0,2.261,0.219,4.445,0.626,6.563c-1.525,15.584-2.239,37.249,2.777,53.535  C235.681,312.409,239.062,330.013,241.509,345.016z"/>
<path style="fill:#E24969;" d="M246.952,345.016v41.54c-11.183-1.218-18.405-2.744-19.217-2.919  c0.362-23.157-0.669-39.103-0.669-39.103S234.935,345.104,246.952,345.016z"/>
<g>
</g>
<g>
</g>
<g>
</g>
<g>
</g>
<g>
</g>
<g>
</g>
<g>
</g>
<g>
</g>
<g>
</g>
<g>
</g>
<g>
</g>
<g>
</g>
<g>
</g>
<g>
</g>
<g>
</g>
</svg>
