<?xml version="1.0" encoding="iso-8859-1"?>
<!-- Generator: Adobe Illustrator 19.0.0, SVG Export Plug-In . SVG Version: 6.00 Build 0)  -->
<svg xmlns="http://www.w3.org/2000/svg" xmlns:xlink="http://www.w3.org/1999/xlink" version="1.1" id="Layer_1" x="0px" y="0px" viewBox="0 0 512 512" style="enable-background:new 0 0 512 512;" xml:space="preserve">
<path style="fill:#828282;" d="M363.242,273.211c-18.83-9.679-41.925,17.134-62.381,32.91  c-6.617-13.232-12.896-24.764-18.193-34.035C322.8,244.533,363.242,273.211,363.242,273.211z"/>
<path style="fill:#B3B3B3;" d="M356.407,161.756c-0.256,7.747-1.338,17.18-4.327,26.846c-0.593,1.954-1.268,3.92-2.036,5.874  c-0.849,2.175-1.803,4.35-2.873,6.502c-8.352,16.82-23.857,32.418-52.146,38.978c-7.514,1.756-15.936,2.861-25.357,3.187  c-6.328,1.477-13.179,2.268-20.588,2.268c-11.725,0-22.135-1.501-31.36-4.094c-9.154-2.571-17.145-6.211-24.101-10.515v-0.012  c-14.028-8.677-23.915-20.03-30.755-30.755c-9.957-15.575-14.237-34.105-12.725-52.53c1.628-19.891,4.455-48.482,7.537-54.274  c-19.623-24.194-15.959-53.169-9.98-72.327c3.92-12.562,8.84-20.902,8.84-20.902c26.73,17.785,39.548,35.605,45.609,49.587  c14.086-7.177,30.033-11.225,46.935-11.225c15.505,0,28.591,3.42,39.432,9.538c0.896,0.5,1.768,1.024,2.629,1.559  c11.329,7.095,20.042,17.285,26.358,29.673c3.327,6.525,5.979,13.656,8.003,21.275c1.466,5.502,2.594,11.248,3.408,17.204  c3.862,7.712,8.922,14.959,15.517,19.937C352.045,143.308,356.721,152.206,356.407,161.756z"/>
<path style="fill:#7F7F7F;" d="M340.924,501.392L342.517,512h-62.812c0,0,2.733-15.668,1.756-34.884l0.14-0.012h26.02h5.106  C326.837,477.104,338.83,487.433,340.924,501.392z"/>
<path style="fill:#999999;" d="M333.352,0c0,0,35.314,59.869-7.84,100.406h-0.012c-2.024-7.619-4.676-14.749-8.003-21.275  c-6.316-12.388-15.028-22.577-26.358-29.673c-0.861-0.535-1.733-1.058-2.629-1.559v-0.012C294.85,34.174,307.693,17.076,333.352,0z"/>
<path style="fill:#F26D53;" d="M249.009,412.734c-4.141,12.12-9.829,23.299-15.529,32.744c-10.911,18.099-21.81,29.882-21.81,29.882  h-32.86c7.956-37.734,11.295-72.932,11.748-104.687c0,0,41.782-33.128,123.914-13.947c2.815,38.199,2.198,80.958-6.851,120.378  h-26.02l-0.14,0.012C280.275,453.434,273.47,424.389,249.009,412.734z"/>
<path style="fill:#B3B3B3;" d="M314.474,356.73c-40.63-9.492-71.385-6.177-92.09-0.407c-21.158,5.897-31.825,14.354-31.825,14.354  c0.372-25.381-1.105-48.563-3.548-69.105l-0.744-1.943c12.935-5.06,26.323-10.713,37.85-11.83c8.061-0.779,15.214,0.663,20.67,6.095  c-0.407-0.547-7.247-9.41-19.204-17.145c-10.841-7.002-25.893-13.074-44.189-11.155l8.026-22.845l4.199-11.946  c10.259,6.339,22.764,11.248,37.92,13.4c5.49,0.791,11.329,1.21,17.541,1.21c7.41,0,14.261-0.791,20.588-2.268  c9.422-0.326,17.843-1.431,25.357-3.187v0.012c0,0,1.419,4.99,3.513,13.83c0.965,4.036,2.059,8.887,3.234,14.424  c2.21,10.445,4.664,23.345,6.921,37.966C311.031,321.439,313.148,338.572,314.474,356.73z"/>
<path style="fill:#999999;" d="M298.538,253.799c-1.152,0.314-2.315,0.605-3.513,0.884c-7.514,1.756-15.936,2.861-25.357,3.187  c-6.328,1.477-13.179,2.268-20.588,2.268c-11.725,0-22.135-1.501-31.36-4.094c-9.154-2.571-17.145-6.211-24.101-10.515v-0.012  c-1.442-0.896-2.838-1.815-4.199-2.768l4.199-11.946c10.259,6.339,22.764,11.248,37.92,13.4c5.49,0.791,11.329,1.21,17.541,1.21  c7.41,0,14.261-0.791,20.588-2.268c9.422-0.326,17.843-1.431,25.357-3.187v0.012C295.025,239.969,296.445,244.959,298.538,253.799z"/>
<path style="fill:#7F7F7F;" d="M236.4,495.564L241.332,512h-71.536c3.501-12.446,6.491-24.671,9.015-36.64h32.86  C223.268,476.418,233.05,484.409,236.4,495.564z"/>
<g>
	<path style="fill:#999999;" d="M217.708,241.307c0,0,0,0.012,0.012,0.012c-9.154-2.571-17.145-6.211-24.101-10.515v-0.012   c-14.028-8.677-23.915-20.03-30.755-30.755c-9.957-15.575-14.237-34.105-12.725-52.53c1.628-19.891,4.455-48.482,7.537-54.274   c-19.623-24.194-15.959-53.169-9.98-72.327v-0.012c3.92-12.551,8.84-20.891,8.84-20.891c26.73,17.785,39.548,35.605,45.609,49.587   c14.086-7.177,30.033-11.225,46.935-11.225C249.08,38.365,125.855,96.567,217.708,241.307z"/>
	<path style="fill:#999999;" d="M224.118,287.796c-2.466,20.728-3.78,44.666-1.733,68.523   c-21.158,5.897-31.825,14.354-31.825,14.354c0.372-25.381-1.105-48.563-3.548-69.105l-0.744-1.943   C199.202,294.565,212.589,288.912,224.118,287.796z"/>
</g>
<path style="fill:#828282;" d="M181.394,265.59c39.118-4.094,63.417,28.324,63.417,28.324c-13.237-13.237-36.547-2.885-58.543,5.711  c-15.691,6.13-30.696,11.364-40.898,6.491c-21.892-10.464-14.692-41.084-3.626-66.753c7.738-17.948,30.231-24.051,46.013-12.521  c1.868,1.364,3.821,2.683,5.86,3.946v0.012L181.394,265.59z"/>
<path style="fill:#B3B3B3;" d="M180.3,68.376l-22.624,24.857c-19.623-24.194-15.959-53.169-9.98-72.327  C148.289,21.592,169.785,47.159,180.3,68.376z"/>
<g>
	<path style="fill:#5B5B5B;" d="M264.705,125.033c-3.534,0-6.398-2.864-6.398-6.398v-17.447c0-3.534,2.864-6.398,6.398-6.398   s6.398,2.864,6.398,6.398v17.447C271.102,122.17,268.238,125.033,264.705,125.033z"/>
	<path style="fill:#5B5B5B;" d="M301.344,125.033c-3.534,0-6.398-2.864-6.398-6.398v-17.447c0-3.534,2.864-6.398,6.398-6.398   s6.398,2.864,6.398,6.398v17.447C307.741,122.17,304.876,125.033,301.344,125.033z"/>
</g>
<path style="fill:#999999;" d="M231.539,244.199c-1.896,8.573-4.094,19.739-5.956,32.546c-10.841-7.002-25.893-13.074-44.189-11.155  l12.225-34.791C203.877,237.139,216.381,242.048,231.539,244.199z"/>
<g>
	<polyline style="fill:#FFFFFF;" points="270.878,190.138 275.519,212.498 287.546,195.768  "/>
	<polyline style="fill:#FFFFFF;" points="329.037,190.138 333.678,212.498 345.706,195.768  "/>
</g>
<path style="fill:#999999;" d="M352.08,188.603c-0.593,1.954-1.268,3.92-2.036,5.874c-0.849,2.175-1.803,4.35-2.873,6.502  c-0.093,0.012-0.174,0.012-0.268,0.023c-1.256,0.035-2.524,0.128-3.792,0.081c-1.268-0.116-2.547-0.163-3.815-0.372  c-1.245-0.244-2.536-0.419-3.769-0.779c-4.99-1.326-9.736-3.78-13.749-7.165c-1.524-1.28-2.943-2.687-4.257-4.199  c-0.931,1.128-1.919,2.21-2.978,3.222c-3.652,3.408-7.945,6.095-12.597,7.758c-4.641,1.675-9.596,2.385-14.4,2.036  c-4.804-0.291-9.503-1.663-13.656-3.827c-1.035-0.57-2.024-1.198-3.013-1.803c-0.954-0.663-1.861-1.384-2.78-2.07  c-0.861-0.768-1.687-1.57-2.512-2.35c-0.756-0.837-1.5-1.71-2.233-2.547c-5.572-7.107-7.654-16.378-5.63-24.194  c0.989,3.908,2.571,7.421,4.583,10.457c2.024,3.024,4.502,5.572,7.258,7.526c5.525,3.932,11.981,5.514,17.983,4.862  c6.002-0.675,11.399-3.443,15.18-7.677c1.919-2.094,3.385-4.49,4.385-7.072c1-2.571,1.535-5.327,1.559-8.096  c-0.023-4.804,3.85-8.712,8.654-8.736c4.781-0.035,8.677,3.804,8.736,8.573v0.163c-0.023,2.954,0.57,5.874,1.64,8.619  c1.117,2.733,2.745,5.316,4.851,7.503c2.105,2.187,4.653,4.025,7.526,5.316c0.698,0.361,1.466,0.558,2.21,0.872  c0.744,0.268,1.535,0.407,2.315,0.64c0.779,0.186,1.594,0.291,2.408,0.454c0.803,0.093,1.617,0.128,2.443,0.209l0.605-0.023  C350.73,188.451,351.405,188.521,352.08,188.603z"/>
<path style="fill:#5B5B5B;" d="M331.326,163.585H302.08c-4.818,0-8.724-3.906-8.724-8.724s3.906-8.724,8.724-8.724h29.246  c4.818,0,8.724,3.906,8.724,8.724S336.144,163.585,331.326,163.585z"/>
<g>
	<path style="fill:#828282;" d="M248.613,296.587c-0.822-3.251-2.529-6.122-4.519-8.561c-2.015-2.438-4.364-4.457-6.873-6.132   c-1.261-0.832-2.557-1.591-3.904-2.255c-0.668-0.342-1.357-0.646-2.054-0.946c-0.727-0.302-1.352-0.544-2.257-0.858l-0.925-0.321   c-0.276-0.093-0.562-0.166-0.857-0.216c-3.034-0.518-5.914,1.521-6.431,4.555c-0.561,3.284-0.863,6.638-0.82,10.086   c0.01,1.72,0.131,3.472,0.336,5.246c0.214,1.776,0.551,3.587,1.121,5.461c1.442-1.325,2.653-2.713,3.738-4.135   c1.078-1.425,2.072-2.872,2.953-4.349c0.426-0.703,0.829-1.411,1.218-2.125l1.068,0.63c2.062,1.216,4.086,2.421,6.056,3.648   c1.968,1.232,3.904,2.46,5.747,3.928c1.889,1.473,3.631,3.194,5.39,5.892C249.322,303.408,249.452,299.784,248.613,296.587z"/>
	<path style="fill:#828282;" d="M378.602,279.176c-1.777-2.845-4.278-5.056-6.92-6.771c-2.664-1.706-5.517-2.91-8.419-3.737   c-1.455-0.407-2.921-0.734-4.406-0.955c-0.741-0.122-1.49-0.2-2.245-0.273c-0.785-0.066-1.454-0.105-2.411-0.127l-0.979-0.023   c-0.291-0.005-0.586,0.013-0.883,0.056c-3.048,0.434-5.166,3.256-4.732,6.303c0.47,3.298,1.207,6.584,2.302,9.853   c0.535,1.635,1.186,3.266,1.924,4.892c0.747,1.626,1.621,3.246,2.737,4.856c0.969-1.702,1.697-3.394,2.296-5.08   c0.591-1.685,1.095-3.367,1.483-5.044c0.191-0.799,0.358-1.597,0.509-2.395l1.209,0.275c2.336,0.527,4.631,1.056,6.88,1.623   c2.25,0.571,4.469,1.15,6.673,1.984c2.248,0.826,4.433,1.932,6.933,3.963C381.361,285.455,380.377,281.964,378.602,279.176z"/>
</g>
<g>
</g>
<g>
</g>
<g>
</g>
<g>
</g>
<g>
</g>
<g>
</g>
<g>
</g>
<g>
</g>
<g>
</g>
<g>
</g>
<g>
</g>
<g>
</g>
<g>
</g>
<g>
</g>
<g>
</g>
</svg>
