<?xml version="1.0" encoding="iso-8859-1"?>
<!-- Generator: Adobe Illustrator 19.0.0, SVG Export Plug-In . SVG Version: 6.00 Build 0)  -->
<svg xmlns="http://www.w3.org/2000/svg" xmlns:xlink="http://www.w3.org/1999/xlink" version="1.1" id="Layer_1" x="0px" y="0px" viewBox="0 0 511.994 511.994" style="enable-background:new 0 0 511.994 511.994;" xml:space="preserve">
<g>
	
		<rect x="256.127" y="98.346" transform="matrix(-0.7626 -0.6468 0.6468 -0.7626 435.7447 365.3959)" style="fill:#C46722;" width="57.58" height="8.799"/>
	
		<rect x="264.431" y="133.233" transform="matrix(-0.8113 -0.5846 0.5846 -0.8113 433.7819 415.2712)" style="fill:#C46722;" width="38.95" height="8.799"/>
	<rect x="200.134" y="210.091" style="fill:#C46722;" width="16.499" height="301.904"/>
	<rect x="52.621" y="250.778" style="fill:#C46722;" width="311.528" height="16.499"/>
</g>
<rect x="343.32" y="177.933" transform="matrix(-0.9685 -0.2491 0.2491 -0.9685 609.4432 705.6692)" style="fill:#5B5B5B;" width="12.1" height="272.684"/>
<path style="fill:#B25A1F;" d="M216.634,210.096v31.217c-2.717,0.253-5.511,0.385-8.404,0.385c-2.728,0-5.423-0.11-8.096-0.352  v-31.25H216.634z"/>
<path style="fill:#EFCA54;" d="M283.951,131.88c0,12.066-1.265,23.594-3.85,34.197c-0.693,2.86-1.485,5.654-2.376,8.36  c-10.087,30.766-32.669,51.863-69.495,51.863c-12.836,0-25.079-2.563-36.232-7.205c-34.175-14.2-58.198-47.903-58.198-87.215  c0-8.657,1.166-17.038,3.344-25.002v-0.011c28.621,0.77,57.153-1.65,85.092-7.128c24.309-4.774,48.167-11.868,71.244-21.229  C280.553,93.688,283.951,112.069,283.951,131.88z"/>
<path style="fill:#FC813D;" d="M319.744,246.928v54.448h-34.125c-8.057,0-14.45,6.797-13.939,14.837  c2.088,32.816,1.017,65.632-3.227,98.447c-40.698,6.16-81.396,6.16-122.095,0c-4.244-32.815-5.315-65.63-3.22-98.445  c0.514-8.042-5.88-14.839-13.939-14.839H97.015v-54.448h64.501c0,25.882,20.976,46.869,46.869,46.869  c25.882,0,46.869-20.987,46.869-46.869L319.744,246.928L319.744,246.928z"/>
<path style="fill:#D6B047;" d="M171.998,219.088v0.011c-34.175-14.2-58.198-47.903-58.198-87.215c0-8.657,1.166-17.038,3.344-25.002  v-0.011c28.621,0.77,57.153-1.65,85.092-7.128C202.236,99.744,135.601,144.391,171.998,219.088z"/>
<g>
	
		<rect x="124.103" y="87.389" transform="matrix(-0.906 -0.4233 0.4233 -0.906 187.0351 315.0595)" style="fill:#C46722;" width="8.8" height="98.744"/>
	
		<rect x="106.031" y="89.361" transform="matrix(-0.8094 -0.5873 0.5873 -0.8094 128.3727 284.9502)" style="fill:#C46722;" width="8.8" height="64.562"/>
	
		<rect x="165.52" y="91.538" transform="matrix(-0.9203 -0.3913 0.3913 -0.9203 279.0898 298.1005)" style="fill:#C46722;" width="8.799" height="58.149"/>
</g>
<g>
	<path style="fill:#5B5B5B;" d="M219.451,139.972c-3.342,0-6.05-2.708-6.05-6.05v-15.354c0-3.342,2.708-6.05,6.05-6.05   s6.05,2.708,6.05,6.05v15.354C225.501,137.264,222.793,139.972,219.451,139.972z"/>
	<path style="fill:#5B5B5B;" d="M251.695,139.972c-3.342,0-6.05-2.708-6.05-6.05v-15.354c0-3.342,2.708-6.05,6.05-6.05   c3.342,0,6.05,2.708,6.05,6.05v15.354C257.745,137.264,255.036,139.972,251.695,139.972z"/>
</g>
<path style="fill:#C46722;" d="M280.102,166.076c-0.693,2.86-1.485,5.654-2.376,8.36c-17.841,3.641-33.758,4.862-47.1,4.862  c-26.949,0-43.459-4.994-44.504-5.313c-2.024-0.638-3.157-2.794-2.53-4.829c0.638-2.024,2.783-3.157,4.818-2.53  c0.242,0.077,16.301,4.895,42.502,4.895C244.76,171.521,261.424,170.19,280.102,166.076z"/>
<path style="fill:#F48B2C;" d="M451.173,72.082l-19.795,57.356l9.011-60.002l-25.327-6.216l-21.082,61.086l9.597-63.905  l-10.393-2.551l-16.85,43.272l5.099-46.156l-16.521-4.054l-22.191,90.415c-6.403,26.085,9.553,52.421,35.638,58.824l0,0  c26.085,6.403,52.421-9.553,58.824-35.638l22.191-90.415L451.173,72.082z"/>
<path style="fill:#DD7928;" d="M437.187,169.461c-0.391,0-0.788-0.046-1.184-0.144l-94.463-23.186  c-2.655-0.651-4.279-3.332-3.627-5.987c0.652-2.655,3.332-4.28,5.987-3.627l94.463,23.186c2.655,0.651,4.279,3.332,3.627,5.987  C441.436,167.948,439.413,169.461,437.187,169.461z"/>
<g>
	<path style="fill:#24BC57;" d="M257.256,38.916c-27.862,11.285-57.011,18.864-86.698,22.593c-16.631,2.101-33.439,2.992-50.29,2.64   l3.828-40.533l6.908-3.685c12.561-6.699,25.838-11.747,39.499-15.091C183.658,1.628,197.176,0,210.739,0   c9.504,0,19.04,0.792,28.5,2.409L257.256,38.916z"/>
	<path style="fill:#24BC57;" d="M296.172,68.472c-7.469,3.597-15.036,6.952-22.692,10.043   c-37.123,15.058-76.282,24.265-116.067,27.334l-0.011,0.011c-13.364,1.034-26.806,1.375-40.258,1.012   c-7.568-0.187-15.146-0.605-22.714-1.254c9.526-13.507,18.138-27.356,25.838-41.468c16.851,0.352,33.659-0.539,50.29-2.64   c29.688-3.729,58.836-11.308,86.698-22.593C269.476,49.366,282.455,59.243,296.172,68.472z"/>
</g>
<path style="fill:#1BA545;" d="M170.557,61.509l-13.144,44.339l-0.011,0.011c-13.364,1.034-26.806,1.375-40.258,1.012  c-7.568-0.187-15.146-0.605-22.714-1.254c9.526-13.507,18.138-27.356,25.838-41.468l3.828-40.533l6.908-3.685  c12.561-6.699,25.838-11.747,39.499-15.091l0.011,0.011C170.513,4.851,163.001,38.509,170.557,61.509z"/>
<g>
</g>
<g>
</g>
<g>
</g>
<g>
</g>
<g>
</g>
<g>
</g>
<g>
</g>
<g>
</g>
<g>
</g>
<g>
</g>
<g>
</g>
<g>
</g>
<g>
</g>
<g>
</g>
<g>
</g>
</svg>
