<?xml version="1.0" encoding="iso-8859-1"?>
<!-- Generator: Adobe Illustrator 19.0.0, SVG Export Plug-In . SVG Version: 6.00 Build 0)  -->
<svg xmlns="http://www.w3.org/2000/svg" xmlns:xlink="http://www.w3.org/1999/xlink" version="1.1" id="Layer_1" x="0px" y="0px" viewBox="0 0 512.001 512.001" style="enable-background:new 0 0 512.001 512.001;" xml:space="preserve">
<g>
	<path style="fill:#76CECC;" d="M336.656,511.996h-29.269c-7.237-25.317-8.742-55.218-7.926-82.121   c16.714-16.702,35.403-58.86,43.065-77.216C315.129,425.878,336.656,511.996,336.656,511.996z"/>
	<path style="fill:#76CECC;" d="M204.785,511.996h-39.573c-7.237-25.317,1.562-55.218,2.378-82.121   c16.714-16.702,35.403-58.86,43.065-77.216C183.259,425.878,204.785,511.996,204.785,511.996z"/>
	<path style="fill:#76CECC;" d="M362.143,24.824c-0.048-0.093-0.345-0.363-0.546-0.561l-0.718-0.656   c-0.491-0.44-1.006-0.88-1.53-1.314c-1.045-0.874-2.147-1.715-3.265-2.541c-2.246-1.64-4.599-3.177-7.038-4.58   c-4.879-2.799-10.096-5.112-15.588-6.607c-2.743-0.757-5.556-1.344-8.415-1.648c-2.857-0.318-5.771-0.458-8.689-0.26   c-5.86,0.27-11.732,1.771-17.368,4.118c2.481-1.756,5.054-3.494,7.855-4.852c1.37-0.757,2.827-1.312,4.267-1.959   c1.475-0.524,2.948-1.138,4.479-1.546c3.036-0.95,6.192-1.56,9.391-1.963c3.203-0.417,6.455-0.523,9.708-0.418   c6.52,0.192,13.018,1.364,19.33,3.205c3.158,0.926,6.271,2.029,9.34,3.301c1.532,0.644,3.058,1.318,4.575,2.062   c0.76,0.37,1.517,0.752,2.282,1.161l1.156,0.631c0.416,0.241,0.737,0.411,1.292,0.777l2.637,1.732   c4.232,2.78,5.408,8.464,2.628,12.695s-8.464,5.408-12.695,2.628C363.891,27.353,362.842,26.146,362.143,24.824z"/>
</g>
<path style="fill:#8BE8E8;" d="M476.11,63.236c0,27.845-58.228,25.961-86.601,23.376v0.011c0.781,3.699,1.459,7.478,2.022,11.303  c15.197,102.028-43.157,245.972-43.157,245.972s-0.012,0.034-0.046,0.115c-0.034,0.057-0.057,0.115-0.069,0.172  c-1.195,2.722-2.297,5.468-3.343,8.225c-0.034,0.08-0.069,0.172-0.092,0.253c-7.662,18.356-26.351,60.514-43.065,77.216  c-0.816,26.903,0.689,56.803,7.926,82.121h-42.054c-4.124-15.301-6.352-35.725-7.478-56.378c-4.17,2.217-8.271,4.17-12.291,5.881  c-22.652,9.661-42.479,11.74-54.07,11.947c-6.858,0.138-10.832-0.391-10.832-0.391l-1.298-0.459  c-7.869,22.79-16.449,39.401-16.449,39.401h-40.228l6.708-34.519l-0.655-0.126c-19.93,19.942-69.887,29.258-95.147,32.819  c25.122-5.123,72.058-24.605,65.315-98.754C92.063,310.84,161.56,272.438,234.709,272.438c58.469,0,133.721-91.655,91.965-163.725  c-28.224-48.717,0-99.616,41.147-99.616C408.968,9.097,476.11,26.42,476.11,63.236z"/>
<path style="fill:#76CECC;" d="M234.71,272.434c0,0-172.364,37.579-103.671,204.918c-19.93,19.942-69.887,29.258-95.147,32.819  c25.122-5.123,72.058-24.605,65.315-98.754C92.064,310.835,161.561,272.434,234.71,272.434z"/>
<g>
	<path style="fill:#666666;" d="M370.522,52.046c-3.577,0-6.51-3.111-6.308-6.674c0.201-3.548,3.417-6.312,6.963-5.926   c3.244,0.353,5.753,3.184,5.657,6.46C376.736,49.265,373.887,52.046,370.522,52.046z"/>
	<path style="fill:#666666;" d="M397.814,33.255c-3.45,0-6.309-2.868-6.318-6.318c-0.009-3.44,2.889-6.319,6.318-6.318   c3.429,0.001,6.317,2.882,6.318,6.318C404.133,30.379,401.249,33.255,397.814,33.255z"/>
</g>
<g>
	<path style="fill:#76CECC;" d="M341.579,54.211c0.02-0.042-0.208-0.114-0.391-0.179c-0.175-0.069-0.383-0.131-0.602-0.191   c-0.425-0.125-0.857-0.252-1.322-0.354c-0.904-0.235-1.856-0.401-2.812-0.586c-0.96-0.15-1.938-0.296-2.921-0.411   c-0.984-0.076-1.984-0.208-2.983-0.245c-4.01-0.229-8.126-0.024-12.21,0.706c-4.085,0.712-8.212,1.823-12.148,3.561   c-2.032,0.771-3.914,1.832-5.862,2.865c-1.002,0.484-1.884,1.128-2.819,1.723l-2.802,1.833l2.083-2.635   c0.71-0.874,1.38-1.81,2.187-2.6c1.561-1.641,3.118-3.359,4.902-4.822c3.437-3.122,7.37-5.765,11.574-8.043   c4.207-2.299,8.746-4.102,13.493-5.413c1.184-0.348,2.393-0.597,3.602-0.897c1.216-0.261,2.447-0.486,3.691-0.698   c1.251-0.178,2.507-0.369,3.806-0.473c0.639-0.07,1.307-0.108,1.98-0.142c0.331-0.021,0.672-0.036,1.045-0.036   c0.365-0.003,0.686-0.017,1.251,0.024c4.697,0.757,7.892,5.18,7.133,9.877C350.699,51.774,346.276,54.969,341.579,54.211z"/>
	<path style="fill:#76CECC;" d="M391.53,97.927c-24.077-5.962-42.583-26.845-42.583-26.845   c19.528,10.913,40.561,15.531,40.561,15.531v0.011C390.29,90.322,390.968,94.102,391.53,97.927z"/>
	<path style="fill:#76CECC;" d="M260.153,455.622c-4.17,2.217-8.271,4.17-12.291,5.881c-1.022-38.298,13.21-78.548,13.21-78.548   C255.328,413.396,260.153,455.622,260.153,455.622z"/>
	<path style="fill:#76CECC;" d="M193.792,473.45c-6.858,0.138-10.832-0.391-10.832-0.391l-1.298-0.459   c0,0,9.339-35.656,9.339-58.056C191.001,414.545,195.148,448.719,193.792,473.45z"/>
</g>
<g>
</g>
<g>
</g>
<g>
</g>
<g>
</g>
<g>
</g>
<g>
</g>
<g>
</g>
<g>
</g>
<g>
</g>
<g>
</g>
<g>
</g>
<g>
</g>
<g>
</g>
<g>
</g>
<g>
</g>
</svg>
