<?xml version="1.0" encoding="iso-8859-1"?>
<!-- Generator: Adobe Illustrator 19.0.0, SVG Export Plug-In . SVG Version: 6.00 Build 0)  -->
<svg xmlns="http://www.w3.org/2000/svg" xmlns:xlink="http://www.w3.org/1999/xlink" version="1.1" id="Layer_1" x="0px" y="0px" viewBox="0 0 512 512" style="enable-background:new 0 0 512 512;" xml:space="preserve">
<polygon style="fill:#4A395B;" points="321.761,141.514 336.414,85.584 335.286,143.391 "/>
<path style="fill:#644F77;" d="M326.924,436.834c0,22.165,17.978,40.132,40.132,40.132h-30.824  c-15.167,0-25.692,15.111-20.424,29.334l2.105,5.701l-34.249-21.061c-13.939-8.568-31.507-8.568-45.434,0l-3.209,1.98L203.981,512  l2.105-5.701c5.257-14.223-5.257-29.334-20.424-29.334h-30.835c22.165,0,40.132-17.967,40.132-40.132V222.681l-68.851-56.551  L58.94,180.262l58.326-58.314l97.206,53.012l31.814-79.524l-5.302-65.392l35.341,58.326l-14.143,86.59l135.21-80.411l32.375,32.374  c5.249,5.249,0.051,14.039-7.077,11.969l-27.949-8.115l-67.815,75.928V436.834z"/>
<g>
	<polyline style="fill:#4A395B;" points="274.061,203.035 361.543,115.871 262.186,174.966  "/>
	<path style="fill:#4A395B;" d="M206.086,506.299c5.257-14.223-5.257-29.334-20.424-29.334h-30.835   c22.165,0,40.132-17.967,40.132-40.132V222.681l-68.851-56.551L58.94,180.262l58.326-58.314l97.206,53.012l10.605,44.194   l9.945,273.765L203.981,512L206.086,506.299z"/>
</g>
<g>
	<path style="fill:#644F77;" d="M389.428,101.589l37.789-36.012l-0.477,2.335l-6.573-27.264l11.1,25.755   c0.296,0.686,0.182,1.446-0.232,2.007l-0.245,0.329l-31.135,41.896c-2.258,3.037-6.549,3.67-9.586,1.412   c-3.037-2.257-3.67-6.549-1.412-9.586C388.884,102.155,389.162,101.847,389.428,101.589z"/>
	<path style="fill:#644F77;" d="M454.825,174.966c-3.511-3.018-6.733-6.243-9.886-9.518c-3.142-3.283-6.159-6.655-9.111-10.076   c-2.924-3.44-5.805-6.91-8.571-10.465c-2.789-3.538-5.486-7.14-8.136-10.778c-1.657-2.276-1.155-5.462,1.12-7.118   c0.982-0.715,2.133-1.027,3.259-0.969l0.055,0.002c4.692,0.243,9.38,0.593,14.064,1.005c4.68,0.463,9.36,0.949,14.028,1.615   c4.67,0.647,9.335,1.392,13.99,2.304c4.654,0.932,9.304,1.945,13.931,3.349c-4.756,0.876-9.49,1.36-14.22,1.763   c-4.728,0.383-9.446,0.6-14.16,0.718c-4.714,0.138-9.419,0.094-14.122,0.028c-4.7-0.116-9.396-0.296-14.086-0.581l4.433-8.085   c2.61,3.665,5.173,7.365,7.644,11.131c2.494,3.749,4.873,7.581,7.208,11.446c2.308,3.883,4.549,7.815,6.668,11.835   C451.038,166.602,453.076,170.68,454.825,174.966z"/>
	<path style="fill:#644F77;" d="M242.494,57.446L237.443,0l18.416,54.648c1.213,3.599-0.721,7.498-4.32,8.711   c-3.598,1.213-7.498-0.721-8.711-4.319C242.654,58.524,242.543,57.966,242.494,57.446z"/>
	<polygon style="fill:#644F77;" points="243.936,60.423 203.864,1.767 254.418,51.673  "/>
	<polygon style="fill:#644F77;" points="260.46,96.74 293.998,67.159 270.948,105.481  "/>
</g>
<g>
	<path style="fill:#4A395B;" d="M130.006,139.252l-34.18-54.727l17.903-45.644L91.788,79.917l-36.38-28.664l34.824,36.111   l0.135-0.15l27.654,58.582c0.109,0.226,0.248,0.486,0.383,0.703c2,3.203,6.219,4.178,9.424,2.178   C131.033,146.675,132.008,142.455,130.006,139.252z"/>
	<polygon style="fill:#4A395B;" points="161.428,165.623 163.215,113.109 175.019,164.311  "/>
	<path style="fill:#4A395B;" d="M89.219,171.527l-56.786,17.577l51.278-30.071c3.275-1.921,7.485-0.823,9.405,2.452   c1.921,3.275,0.823,7.485-2.452,9.405C90.209,171.156,89.702,171.375,89.219,171.527z"/>
	<polygon style="fill:#4A395B;" points="92.29,168.841 58.944,210.312 80.64,161.72  "/>
	<polygon style="fill:#4A395B;" points="178.344,204.024 129.335,220.187 172.39,191.738  "/>
</g>
<g>
	<path style="fill:#644F77;" d="M312.59,328.661l65.529-76.145l-0.685,2.214l-1.797-47.846l-0.003-0.104   c-0.018-0.479,0.222-0.91,0.593-1.161l32.648-21.817L377.9,207.936l0.588-1.264l5.273,47.589c0.083,0.749-0.13,1.462-0.544,2.024   l-0.141,0.19l-59.817,80.709c-2.246,3.031-6.526,3.667-9.557,1.421c-3.031-2.247-3.667-6.526-1.421-9.557   C312.375,328.919,312.486,328.781,312.59,328.661z"/>
	<polygon style="fill:#644F77;" points="358.785,277.779 401.805,286.307 357.951,286.844  "/>
	<polygon style="fill:#644F77;" points="445.175,130.117 461.993,108.222 453.547,133.627  "/>
</g>
<path style="fill:#4A395B;" d="M212.29,320.514l-51.733-47.449l-1.23-1.128l-14.233-19.208l2.157,22.252l-38.44,11.43L84.57,264.216  l22.807,24.911l0.523,0.572l0.889-0.181l47.796-9.735l46.042,50.377c0.132,0.143,0.279,0.292,0.426,0.427  c2.781,2.551,7.105,2.364,9.656-0.416C215.259,327.388,215.071,323.064,212.29,320.514z"/>
<g>
	<path style="fill:#1A1A1A;" d="M260.419,334.373c-3.77,0-6.827-3.057-6.827-6.827v-21.173c0-3.77,3.057-6.827,6.827-6.827   c3.77,0,6.827,3.057,6.827,6.827v21.173C267.246,331.317,264.188,334.373,260.419,334.373z"/>
	<path style="fill:#1A1A1A;" d="M293.673,334.373c-3.77,0-6.827-3.057-6.827-6.827v-21.173c0-3.77,3.057-6.827,6.827-6.827   c3.77,0,6.827,3.057,6.827,6.827v21.173C300.5,331.317,297.444,334.373,293.673,334.373z"/>
</g>
<path style="fill:#FFFFFF;" d="M253.163,354.798c5.112,0.501,9.048,0.902,12.802,0.942c3.713,0.069,7.096-0.05,10.477-0.37  c3.379-0.332,6.722-0.845,10.352-1.61c3.678-0.741,7.468-1.863,12.41-3.299c-0.53,5.151-3.492,9.547-7.387,12.803  c-3.934,3.243-8.951,5.222-14.096,5.697c-5.143,0.477-10.439-0.529-14.906-2.983C258.384,363.505,254.656,359.747,253.163,354.798z"/>
<g>
</g>
<g>
</g>
<g>
</g>
<g>
</g>
<g>
</g>
<g>
</g>
<g>
</g>
<g>
</g>
<g>
</g>
<g>
</g>
<g>
</g>
<g>
</g>
<g>
</g>
<g>
</g>
<g>
</g>
</svg>
