<?xml version="1.0" encoding="iso-8859-1"?>
<!-- Generator: Adobe Illustrator 19.0.0, SVG Export Plug-In . SVG Version: 6.00 Build 0)  -->
<svg xmlns="http://www.w3.org/2000/svg" xmlns:xlink="http://www.w3.org/1999/xlink" version="1.1" id="Layer_1" x="0px" y="0px" viewBox="0 0 512.001 512.001" style="enable-background:new 0 0 512.001 512.001;" xml:space="preserve">
<path style="fill:#D67729;" d="M61.208,9.479l20.646,36.993c0,27.56-32.873,54.878-46.997,60.853v0.939  c-17.287-26.76-20.874-60.299-9.389-90.298l2.323-6.091C33.413-2.764,53.565-4.221,61.208,9.479z"/>
<polygon style="fill:#F48B2C;" points="315.071,305.687 196.926,305.687 200.463,273.403 203.421,246.478 240.791,191.363   256.005,168.933 271.206,191.363 308.577,246.478 311.534,273.403 "/>
<g>
	<path style="fill:#D67729;" d="M375.332,460.594c4.164,2.189,8.884,3.407,13.829,3.407h48.171   c-0.769-13.936-9.192-26.286-21.874-32.095l-9.57-4.389c21.85-60.557,14.894-103.145,2.331-130.685l-144.905,8.854"/>
	<path style="fill:#D67729;" d="M248.665,305.686l-144.905-8.853c-12.563,27.54-19.519,70.128,2.33,130.685l-9.57,4.389   c-12.682,5.808-21.105,18.159-21.874,32.095h48.171c4.945,0,9.665-1.219,13.829-3.407"/>
</g>
<path style="fill:#F48B2C;" d="M365.893,331.926c16.183,26.31,30.154,72.6,4.543,143.592l9.57,4.389  c12.682,5.809,21.105,18.171,21.885,32.095h-48.183c-13.202,0-24.819-8.707-28.51-21.388c-0.804-2.756-1.207-5.596-1.207-8.435  c0-2.816,0.402-5.631,1.183-8.364c0.556-1.905,1.148-4.117,1.751-6.554c3.206-12.977,6.554-32.71,3.584-51.2l-0.355,0.059  c-0.118,0.024-0.237,0.047-0.355,0.071c-48.81,9.263-98.922,9.275-147.732,0.035c-0.189-0.035-0.379-0.071-0.568-0.106  c-3.005,18.739,0.473,38.755,3.715,51.697c0.556,2.224,1.1,4.235,1.609,5.998c0.793,2.745,1.183,5.56,1.183,8.387  c0,2.827-0.39,5.667-1.195,8.411c-3.703,12.682-15.32,21.388-28.522,21.388h-48.171c0.769-13.924,9.192-26.286,21.874-32.095  l9.582-4.389c-25.6-70.944-11.652-117.223,4.507-143.544c-37.146-20.347-55.258-50.407-63.882-71.819  c-6.104-15.154-7.465-25.99-7.465-25.99l25.683-64.721l41.878-105.57l225.348,5.323L409.9,169.489l27.256,64.674  c0,0-1.159,9.239-6.152,22.607C422.96,278.289,404.979,310.478,365.893,331.926z"/>
<g>
	<path style="fill:#D67729;" d="M287.241,17.966c-11.484,29.986-7.885,63.514,9.389,90.274v-0.903   c0-29.228,19.959-53.811,46.997-60.841v-0.012L322.983,9.479c-7.645-13.699-27.796-12.243-33.405,2.396L287.241,17.966z"/>
	<path style="fill:#D67729;" d="M296.632,108.24v46.745c9.197-12.001,23.667-19.743,39.954-19.743h23.908h26.4h26.4h0.012h23.895   c16.276,0,30.746,7.728,39.943,19.718v-46.696v-0.939c0-29.241-19.959-53.823-46.997-60.853c-5.068-1.312-10.377-2.01-15.854-2.01   h-54.786c-5.489,0-10.81,0.698-15.878,2.035c-27.037,7.031-46.997,31.612-46.997,60.841L296.632,108.24L296.632,108.24z"/>
	<path style="fill:#D67729;" d="M286.29,206.842c0,13.892,5.622,26.46,14.734,35.573c9.101,9.101,21.669,14.734,35.561,14.734   c13.904,0,26.472-5.633,35.573-14.734c9.101-9.113,14.734-21.681,14.734-35.573v-23.895c-14.578,0-26.4-11.822-26.4-26.411h-23.908   c-16.287,0-30.758,7.74-39.954,19.743C290.143,184.752,286.29,195.358,286.29,206.842z"/>
	<path style="fill:#D67729;" d="M437.156,234.163c0,0-1.159,9.239-6.152,22.607c-11.404-1.408-21.649-6.625-29.374-14.35   c-9.097-9.121-14.74-21.684-14.74-35.573v-23.896c9.878,0,18.49-5.43,23.009-13.462L437.156,234.163z"/>
	<path style="fill:#D67729;" d="M450.792,9.479l-20.646,36.993c11.829,3.076,11.828,28.418,19.868,37.133   c10.338,11.205,27.128,7.273,27.128,23.72v0.939c17.287-26.76,20.874-60.299,9.389-90.298l-2.323-6.091   C478.588-2.764,458.437-4.221,450.792,9.479z"/>
</g>
<g>
	<path style="fill:#B3B3B3;" d="M286.29,185.548c0,13.892,5.622,26.46,14.734,35.573c9.101,9.101,21.669,14.734,35.561,14.734   c13.904,0,26.472-5.633,35.573-14.734c9.101-9.113,14.734-21.681,14.734-35.573v-23.895c-14.578,0-26.4-11.822-26.4-26.411h-23.908   c-16.287,0-30.758,7.74-39.954,19.743C290.143,163.458,286.29,174.064,286.29,185.548z"/>
	<path style="fill:#B3B3B3;" d="M477.144,154.96c-9.197-11.99-23.667-19.718-39.943-19.718h-23.895h-0.012   c0,14.59-11.822,26.411-26.4,26.411v23.895c0,13.892,5.633,26.46,14.734,35.573c9.101,9.101,21.693,14.734,35.573,14.734   s26.46-5.633,35.561-14.734c9.113-9.113,14.734-21.681,14.734-35.573C487.497,174.052,483.632,163.446,477.144,154.96z"/>
</g>
<g>
	<path style="fill:#D67729;" d="M311.534,273.403c-0.982,0.059-1.964,0.083-2.957,0.083c-14.539,0-27.67-5.891-37.181-15.403   c-9.511-9.523-15.391-22.654-15.391-37.17v-24.973c5.619,0,10.836-1.68,15.201-4.578l37.371,55.116L311.534,273.403z"/>
	<path style="fill:#D67729;" d="M256.005,195.941v24.973c0,14.515-5.891,27.647-15.403,37.17   c-9.511,9.511-22.666,15.403-37.181,15.403c-0.994,0-1.976-0.024-2.957-0.083l2.957-26.925l37.371-55.116   C245.156,194.261,250.385,195.941,256.005,195.941z"/>
</g>
<path style="fill:#E6E6E6;" d="M446.206,221.122c9.113-9.113,14.734-21.681,14.734-35.573c0-11.496-3.864-22.102-10.352-30.589  c-8.695-11.335-22.105-18.852-37.296-19.64c0-0.026,0.002-0.052,0.002-0.078h0.012h23.895c16.276,0,30.746,7.728,39.943,19.718  c6.489,8.487,10.352,19.092,10.352,30.589c0,13.892-5.622,26.46-14.734,35.573c-9.101,9.101-21.681,14.735-35.561,14.735  c-4.596,0-9.046-0.629-13.28-1.786C432.47,231.732,440.118,227.209,446.206,221.122z"/>
<g>
	<path style="fill:#5B5B5B;" d="M386.894,135.242h-26.401c0,14.59,11.822,26.411,26.4,26.411s26.4-11.822,26.4-26.411H386.894z"/>
	<path style="fill:#5B5B5B;" d="M428.861,117.1c-4.9,0-8.872-3.972-8.872-8.872V96.041c0-4.9,3.973-8.872,8.872-8.872   c4.9,0,8.872,3.972,8.872,8.872v12.187C437.733,113.128,433.762,117.1,428.861,117.1z"/>
</g>
<g>
	<path style="fill:#D67729;" d="M224.759,17.966c11.484,29.986,7.885,63.514-9.389,90.274v-0.903   c0-29.228-19.959-53.811-46.997-60.841v-0.012l20.646-37.005c7.645-13.699,27.796-12.243,33.405,2.396L224.759,17.966z"/>
	<path style="fill:#D67729;" d="M215.37,108.24v46.745c-9.197-12.001-23.667-19.743-39.954-19.743h-23.908h-26.4h-26.4h-0.012H74.8   c-16.276,0-30.746,7.728-39.943,19.718v-46.696v-0.939c0-29.241,19.959-53.823,46.997-60.853c5.068-1.312,10.377-2.01,15.854-2.01   h54.786c5.489,0,10.81,0.698,15.878,2.035c27.037,7.031,46.997,31.612,46.997,60.841v0.903H215.37z"/>
</g>
<path style="fill:#C66A26;" d="M72.313,108.263v-0.939c0-29.241,19.959-53.823,46.997-60.853c5.068-1.312,10.377-2.01,15.854-2.01  H97.708c-5.477,0-10.787,0.698-15.854,2.01c-27.037,7.031-46.997,31.612-46.997,60.853v0.939v46.696  c8.726-11.374,22.2-18.902,37.456-19.645V108.263z"/>
<path style="fill:#F48B2C;" d="M360.141,18.775c12.001,31.339,8.241,66.375-9.813,94.341v-0.944  c0-30.546-20.858-56.235-49.114-63.582v-0.013l21.575-38.672c7.989-14.317,29.048-12.794,34.911,2.503L360.141,18.775z"/>
<path style="fill:#999999;" d="M361.135,193.909c0,14.518-5.875,27.652-15.399,37.176c-9.511,9.511-22.645,15.399-37.163,15.399  c-14.531,0-27.664-5.888-37.176-15.399c-9.511-9.523-15.399-22.658-15.399-37.176v-24.972c15.235,0,27.589-12.354,27.589-27.602  h24.985c17.021,0,32.143,8.089,41.755,20.633C357.109,170.822,361.135,181.906,361.135,193.909z"/>
<g>
	<path style="fill:#D67729;" d="M225.71,210.391c0,13.892-5.622,26.46-14.734,35.573c-9.101,9.101-21.669,14.734-35.561,14.734   c-13.904,0-26.472-5.633-35.573-14.734c-9.101-9.113-14.734-21.681-14.734-35.573v-23.895c14.578,0,26.4-11.822,26.4-26.411h23.908   c16.287,0,30.758,7.74,39.954,19.743C221.857,188.301,225.71,198.907,225.71,210.391z"/>
	<path style="fill:#D67729;" d="M125.106,186.501v23.896c0,13.888-5.631,26.452-14.728,35.573   c-7.465,7.453-17.248,12.575-28.179,14.184c-6.104-15.154-7.465-25.99-7.465-25.99l25.683-64.721   C104.191,179.415,113.821,186.501,125.106,186.501z"/>
</g>
<path style="fill:#B3B3B3;" d="M225.71,185.548c0,13.892-5.622,26.46-14.734,35.573c-9.101,9.101-21.669,14.734-35.561,14.734  c-13.904,0-26.472-5.633-35.573-14.734c-9.101-9.113-14.734-21.681-14.734-35.573v-23.895c14.578,0,26.4-11.822,26.4-26.411h23.908  c16.287,0,30.758,7.74,39.954,19.743C221.857,163.458,225.71,174.064,225.71,185.548z"/>
<path style="fill:#F48B2C;" d="M350.328,113.116v48.85c-9.612-12.543-24.733-20.633-41.755-20.633h-24.985H256h-27.589h-0.013  h-24.972c-17.009,0-32.13,8.076-41.742,20.607v-48.8v-0.981c0-30.558,20.859-56.248,49.114-63.594  c5.296-1.371,10.844-2.101,16.569-2.101h57.254c5.736,0,11.298,0.73,16.594,2.126c28.253,7.346,49.112,33.036,49.112,63.581V113.116  z"/>
<path style="fill:#D67729;" d="M198.413,113.141v-0.982c0-30.558,20.859-56.248,49.114-63.594  c5.296-1.371,10.845-2.101,16.569-2.101h-36.73c-5.725,0-11.273,0.73-16.569,2.101c-28.256,7.348-49.114,33.036-49.114,63.594v0.982  v48.8c8.655-11.283,21.785-18.934,36.73-20.349V113.141z"/>
<path style="fill:#B3B3B3;" d="M34.857,154.96c9.197-11.99,23.667-19.718,39.943-19.718h23.895h0.012  c0,14.59,11.822,26.411,26.4,26.411v23.895c0,13.892-5.633,26.46-14.734,35.573c-9.101,9.101-21.693,14.734-35.573,14.734  s-26.46-5.633-35.561-14.734c-9.113-9.113-14.734-21.681-14.734-35.573C24.505,174.052,28.369,163.446,34.857,154.96z"/>
<path style="fill:#999999;" d="M65.796,221.122c-9.113-9.113-14.734-21.681-14.734-35.573c0-11.496,3.864-22.102,10.352-30.589  c8.695-11.335,22.105-18.852,37.296-19.64c0-0.026-0.002-0.052-0.002-0.078h-0.012H74.8c-16.276,0-30.746,7.728-39.943,19.718  c-6.489,8.487-10.352,19.092-10.352,30.589c0,13.892,5.622,26.46,14.734,35.573c9.101,9.101,21.681,14.735,35.561,14.735  c4.596,0,9.046-0.629,13.28-1.786C79.532,231.732,71.883,227.209,65.796,221.122z"/>
<path style="fill:#5B5B5B;" d="M256,141.334h27.589c0,15.248-12.354,27.602-27.589,27.602c-15.235,0-27.589-12.354-27.589-27.602  C228.411,141.334,256,141.334,256,141.334z"/>
<path style="fill:#999999;" d="M161.683,161.942c9.612-12.53,24.733-20.607,41.742-20.607h24.972h0.013  c0,15.248,12.354,27.602,27.589,27.602v24.972c0,14.518-5.888,27.652-15.399,37.176c-9.511,9.511-22.67,15.399-37.176,15.399  c-14.506,0-27.652-5.888-37.163-15.399c-9.523-9.523-15.399-22.658-15.399-37.176C150.864,181.894,154.902,170.811,161.683,161.942z  "/>
<path style="fill:#808080;" d="M194.313,231.084c-9.523-9.523-15.399-22.658-15.399-37.176c0-12.014,4.039-23.098,10.82-31.967  c9.031-11.773,22.925-19.612,38.679-20.517c0-0.031-0.002-0.06-0.002-0.091h-0.013h-24.972c-17.009,0-32.13,8.076-41.742,20.607  c-6.781,8.869-10.82,19.952-10.82,31.967c0,14.518,5.875,27.652,15.399,37.176c9.511,9.511,22.658,15.399,37.162,15.399  c4.857,0,9.557-0.674,14.027-1.909C208.58,242.119,200.638,237.41,194.313,231.084z"/>
<path style="fill:#F48B2C;" d="M189.222,9.906l21.575,38.66c-28.256,7.348-49.114,33.036-49.114,63.594v0.981  c-18.065-27.966-21.814-63.016-9.813-94.366l2.428-6.366C160.174-2.889,181.234-4.411,189.222,9.906z"/>
<g>
	<path style="fill:#5B5B5B;" d="M125.108,135.242h26.4c0,14.59-11.822,26.411-26.4,26.411s-26.4-11.822-26.4-26.411H125.108z"/>
	<path style="fill:#5B5B5B;" d="M236.698,123.552c-4.9,0-8.872-3.972-8.872-8.872V97.475c0-4.9,3.972-8.872,8.872-8.872   s8.872,3.972,8.872,8.872v17.205C245.571,119.581,241.599,123.552,236.698,123.552z"/>
	<path style="fill:#5B5B5B;" d="M275.305,123.552c-4.9,0-8.872-3.972-8.872-8.872V97.475c0-4.9,3.973-8.872,8.872-8.872   c4.9,0,8.872,3.972,8.872,8.872v17.205C284.177,119.581,280.205,123.552,275.305,123.552z"/>
	<path style="fill:#5B5B5B;" d="M83.14,117.1c-4.9,0-8.872-3.972-8.872-8.872V96.041c0-4.9,3.972-8.872,8.872-8.872   c4.9,0,8.872,3.972,8.872,8.872v12.187C92.012,113.128,88.04,117.1,83.14,117.1z"/>
</g>
<path style="fill:#E6E6E6;" d="M329.8,416.191c-48.81,9.263-98.922,9.275-147.732,0.035c8.943-32.994,38.637-57.21,73.878-57.21  C291.163,359.016,320.844,383.22,329.8,416.191z"/>
<g>
</g>
<g>
</g>
<g>
</g>
<g>
</g>
<g>
</g>
<g>
</g>
<g>
</g>
<g>
</g>
<g>
</g>
<g>
</g>
<g>
</g>
<g>
</g>
<g>
</g>
<g>
</g>
<g>
</g>
</svg>
