<?xml version="1.0" encoding="iso-8859-1"?>
<!-- Generator: Adobe Illustrator 19.0.0, SVG Export Plug-In . SVG Version: 6.00 Build 0)  -->
<svg xmlns="http://www.w3.org/2000/svg" xmlns:xlink="http://www.w3.org/1999/xlink" version="1.1" id="Layer_1" x="0px" y="0px" viewBox="0 0 512 512" style="enable-background:new 0 0 512 512;" xml:space="preserve">
<path style="fill:#FFD0B8;" d="M333.149,408.787c-8.696,2.152-16.855,3.384-24.475,3.889c-23.837,1.58-42.451-3.978-56.168-11.128  c-20.049-10.467-29.597-24.352-29.597-24.352c19.802-5.839,24.162-53.344,23.131-63.217l2.084-0.045  c0.09,10.546,40.613,10.176,41.386,1.659h19.634c-1.02,11.408,39.907,14.58,41.106,14.871c0.056,0.415,0.202,1.49,0.359,3.127  C351.584,344.09,352.783,377.688,333.149,408.787z"/>
<path style="fill:#E2B39F;" d="M296.791,386.064c-2.681,0-4.948-2.204-5.037-4.879c-0.091-2.682,2.035-5.02,4.71-5.194  c2.723-0.178,5.16,1.945,5.357,4.668C302.029,383.531,299.667,386.064,296.791,386.064z"/>
<path style="fill:#F7B348;" d="M458.316,113.378c0,34.214-11.577,55.675-26.168,69.145v0.011  c-24.901,22.985-58.6,22.705-58.6,22.705h-0.011c3.53-12.619,5.211-26.65,5.211-41.431c0-14.905-1.703-29.037-5.301-41.734  c-60.191,0.134-121.895-40.636-121.895-40.636c0,38.361-21.763,53.904-36.343,60.001c-7.363,3.082-12.899,3.765-12.899,3.765  l-0.011-0.011c-2.465-1.703-5.267-2.678-8.226-2.678c-10.03,0-18.166,11.039-18.166,24.655s8.136,24.655,18.166,24.655  c3.474,0,6.735-1.334,9.492-3.642c5.603,22.29,18.704,41.599,36.455,55.092c0,0-6.04,19.645-28.084,44.132  c-100.67,27.389-147.637-54.229-151.851-61.996l0.796-0.504c3.228,5.211,7.531,9.929,12.899,13.919  c43.706,32.499,90.774-10.086,72.844-61.637c-5.267-18.726-8.259-35.312-9.503-49.993c-4.427-52.167,13.179-80.307,29.126-94.854  c15.51-14.154,38.697-16.261,56.258-4.752c2.522,1.659,3.833,2.858,3.833,2.858c24.251-24.251,58.331-32.712,92.926-29.944  C387.793,5.961,458.316,55.439,458.316,113.378z"/>
<path style="fill:#3EADAD;" d="M158.369,437.173c0.684,4.494,0.583,7.609,0.583,7.609c-1.625,0.65-26.989,17.766-28.536,18.281  c-15.813-5.413-3.639-21.038-12.145-16.522c-27.165-14.356-22.738-65.458-22.738-65.458s14.064,17.527,39.257,25.507  C151.891,412.014,156.912,427.67,158.369,437.173z"/>
<path style="fill:#52CBCE;" d="M338.752,408.787c-18.48,29.272-55.428,56.359-128.429,59.877  c-15.757,0.762-33.194,0.426-52.492-1.222l-2.522-0.336c3.956-9.593,3.642-18.805,3.642-18.805c-1.625-0.65-3.216-1.244-4.763-1.759  c1.547-0.516,3.138-1.109,4.763-1.759c0,0,0.101-3.115-0.583-7.609c36.074-4.46,55.025-23.377,64.73-44.692  c2.286-5.021,4.057-10.164,5.413-15.286C228.511,377.195,263.073,427.457,338.752,408.787z"/>
<path style="fill:#C18033;" d="M378.749,163.808c0,0,31.334-2.51,31.334-29.866c0-21.088-36.635-11.868-36.635-11.868"/>
<path style="fill:#FFD0B8;" d="M434.633,328.484c0,0-44.614,11.823-84.387,1.984c-1.199-0.291-2.398-0.605-3.586-0.941  c2.084-2.914,3.44-6.388,3.788-10.209c1.02-11.408-5.715-15.88-17.113-16.911c-11.408-1.02-23.164,1.782-24.195,13.19h-19.634  c0.885-9.795-3.956-14.479-12.563-16.25c-1.412-0.291-2.936-0.504-4.55-0.65c-11.397-1.031-23.164,1.782-24.184,13.179  c-0.067,0.695-0.09,1.378-0.09,2.062l-2.084,0.045c-5.749,5.11-12.585,9.29-19.982,12.708c-4.079,1.883-8.327,3.541-12.664,4.998  c-35.514,11.913-76.856,10.243-76.856,10.243c29.339-13.997,50.71-29.967,66.131-44.905c3.373-3.261,6.455-6.477,9.268-9.615  c13.493-14.983,20.99-28.162,24.767-36.119c2.409-5.054,3.317-8.013,3.317-8.013c9.817,7.464,21.046-7.766,33.239-4.348  c8.596,2.421,17.662,3.709,27.042,3.709c10.613,0,20.049,19.253,28.364,16.171l0.067,0.191c0,0,2.578,2.835,7.049,7.352  c6.847,6.926,18.121,17.807,31.356,28.555C388.047,311.875,413.811,328.484,434.633,328.484z"/>
<path style="fill:#EFC1AC;" d="M335.779,266.354c-2.275,1.154-4.651,2.197-7.116,3.104c-8.315,3.082-17.751,4.74-28.364,4.74  c-16.989,0-32.981-4.236-46.979-11.722v-0.011c-4.662-2.499-9.111-5.357-13.302-8.54c-1.121-0.852-2.23-1.737-3.317-2.634  c2.409-5.054,3.317-8.013,3.317-8.013c9.817,7.464,21.046-7.766,33.239-4.348c8.596,2.421,17.662,3.709,27.042,3.709  c10.613,0,20.049,19.253,28.364,16.171l0.067,0.19C328.73,259.002,331.307,261.837,335.779,266.354z"/>
<path style="fill:#FFD0B8;" d="M378.745,163.812c0,4.528-0.157,8.999-0.482,13.37c-0.314,4.348-0.796,8.596-1.446,12.742  c-0.818,5.29-1.905,10.411-3.284,15.32c-3.015,10.803-7.385,20.564-13.213,28.88c-7.833,11.196-18.301,19.769-31.659,24.688  c-8.315,3.082-17.751,4.74-28.364,4.74c-16.989,0-32.981-4.236-46.979-11.722v-0.011c-4.662-2.499-9.111-5.357-13.302-8.54  c-17.751-13.493-30.852-32.802-36.455-55.092c-2.757,2.309-6.018,3.642-9.492,3.642c-10.03,0-18.166-11.039-18.166-24.655  s8.136-24.655,18.166-24.655c2.959,0,5.76,0.975,8.226,2.678l0.011,0.011c0,0,49.242-6.052,49.242-63.766  c0,0,10.254,6.769,26.47,14.782c23.579,11.655,59.765,25.932,95.425,25.854C377.042,134.776,378.745,148.907,378.745,163.812z"/>
<path style="fill:#E0993B;" d="M445.843,278.049c0,0-60.774-2.028-78.705,16.855c-21.864-17.751-38.405-35.906-38.405-35.906  l-0.067-0.191c13.358-4.92,23.825-13.493,31.659-24.688h0.011C360.336,234.119,414.464,234.343,445.843,278.049z"/>
<g>
	<path style="fill:#EFC1AC;" d="M275.3,333.433c-2.712,22.593-9.178,47.035-22.794,68.103v0.011   c-20.049-10.467-29.597-24.352-29.597-24.352c19.802-5.839,24.162-53.344,23.131-63.217c-5.749,5.11-12.585,9.29-19.982,12.708   c-4.079,1.883-8.327,3.541-12.664,4.998c2.051-8.203,7.273-34.662-10.725-34.662c3.373-3.261,6.455-6.477,9.268-9.615   c22.044-24.487,28.084-44.132,28.084-44.132c9.817,7.464,21.046,13.145,33.239,16.564c0,0,3.272,16.295,3.687,39.504   c-1.412-0.291-2.936-0.504-4.55-0.65c-11.397-1.031-23.164,1.782-24.184,13.179c-0.067,0.695-0.09,1.378-0.09,2.062   c0.09,10.546,8.17,19.477,18.883,20.452C269.898,334.643,272.711,334.296,275.3,333.433z"/>
	<path style="fill:#EFC1AC;" d="M278.023,96.22l-1.401,5.884c0,0-62.287,57.367-23.299,149.71c-4.662-2.499-9.111-5.357-13.302-8.54   c-17.751-13.493-30.852-32.802-36.455-55.092c-2.757,2.309-6.018,3.642-9.492,3.642c-10.03,0-18.166-11.039-18.166-24.655   s8.136-24.655,18.166-24.655c2.959,0,5.76,0.975,8.226,2.678l0.011,0.011c0,0,49.242-6.052,49.242-63.766   C251.552,81.438,261.807,88.207,278.023,96.22z"/>
</g>
<path style="fill:#C18033;" d="M146.624,177.189c17.931,51.551-29.137,94.136-72.844,61.637c-5.368-3.99-9.671-8.708-12.899-13.919  c-20.878-33.699,3.407-87.883,76.239-97.711C138.365,141.876,141.357,158.462,146.624,177.189z"/>
<path style="fill:#F9AF8F;" d="M378.263,177.182c-0.314,4.348-0.796,8.596-1.446,12.742c-0.415,0.179-0.841,0.303-1.289,0.392  l-12.327,2.421c-0.482,0.101-0.953,0.146-1.412,0.146c-3.418,0-6.455-2.409-7.15-5.884c-0.773-3.945,1.793-7.777,5.749-8.551  l12.327-2.432C374.722,175.624,376.706,176.095,378.263,177.182z"/>
<path style="fill:#E0993B;" d="M240.021,243.275c0,0-6.04,19.645-28.084,44.132c-100.67,27.389-147.637-54.229-151.851-61.996  l0.796-0.504c3.228,5.211,7.531,9.929,12.899,13.919c43.706,32.499,90.774-10.086,72.844-61.637  c-5.267-18.726-8.259-35.312-9.503-49.993c-4.427-52.167,13.179-80.307,29.126-94.854c15.51-14.154,38.697-16.261,56.258-4.752  c0,0-60.359,60.785-7.296,113.849c-7.363,3.082-12.899,3.765-12.899,3.765l-0.011-0.011c-2.465-1.703-5.267-2.678-8.226-2.678  c-10.03,0-18.166,11.039-18.166,24.655s8.136,24.655,18.166,24.655c3.474,0,6.735-1.334,9.492-3.642  C209.169,210.473,222.269,229.782,240.021,243.275z"/>
<g>
	<path style="fill:#A87D6D;" d="M291.034,157.084c-3.52-0.186-5.968-0.323-8.225-0.31l-6.036,0.004l-6.03,0.011   c-2.255-0.011-4.7,0.12-8.23,0.296c0.211-3.551,2.23-6.42,4.856-8.448c2.657-2.013,6.037-3.071,9.405-3.064   c3.367,0.006,6.744,1.062,9.399,3.078C288.795,150.68,290.813,153.542,291.034,157.084z"/>
	<path style="fill:#A87D6D;" d="M375.387,157.084c-3.52-0.188-5.966-0.324-8.222-0.312l-6.036,0.006l-6.031,0.011   c-2.255-0.011-4.7,0.119-8.23,0.295c0.211-3.551,2.231-6.42,4.857-8.448c2.657-2.013,6.037-3.071,9.404-3.064   c3.366,0.004,6.744,1.06,9.399,3.076C373.149,150.678,375.168,153.542,375.387,157.084z"/>
</g>
<path style="fill:#3EADAD;" d="M210.334,468.653c0,0-0.011,0-0.011,0.011c-15.757,0.762-33.194,0.426-52.492-1.222l-2.522-0.336  c-12.286-4.883-17.049-9.646-17.049-9.646c-1.625-0.65,2.222-25.656,0.676-26.171c1.547-0.516,7.505,1.326,9.13,0.676  c0,0,10.986,9.702,10.302,5.208c36.074-4.46,60.438-38.663,70.143-59.978C228.511,377.195,250.521,441.858,210.334,468.653z"/>
<g>
	<path style="fill:#FFD0B8;" d="M146.682,335.683c-1.711-0.479-3.062-0.749-4.598-0.977c-1.496-0.215-2.996-0.361-4.514-0.384   c-3.028-0.059-6.096,0.165-9.133,0.978c-3.025,0.793-6.022,2.014-8.637,3.932c-2.582,1.949-4.781,4.541-5.635,7.597   c3.123-0.735,5.664-1.028,8.162-1.129c2.502-0.067,4.911,0.055,7.315,0.174c2.405,0.141,4.838,0.372,7.277,0.572l2.335,0.217   c-0.017,1.363-0.002,2.731,0.074,4.113c0.249,3.579,0.677,7.195,1.989,10.987c2.671-2.996,4.456-6.168,6.063-9.377   c0.778-1.609,1.474-3.235,2.099-4.875c0.607-1.643,1.185-3.293,1.657-4.963l1.475-5.206L146.682,335.683z"/>
	<path style="fill:#FFD0B8;" d="M415.519,325.448c1.711-0.479,3.062-0.749,4.598-0.977c1.496-0.215,2.996-0.361,4.514-0.384   c3.028-0.059,6.096,0.165,9.133,0.978c3.025,0.793,6.022,2.014,8.637,3.932c2.582,1.949,4.781,4.541,5.635,7.597   c-3.123-0.735-5.664-1.028-8.162-1.129c-2.502-0.067-4.911,0.055-7.315,0.174c-2.405,0.141-4.838,0.372-7.277,0.572l-2.336,0.217   c0.017,1.363,0.002,2.731-0.074,4.113c-0.249,3.579-0.677,7.195-1.989,10.987c-2.671-2.996-4.456-6.168-6.063-9.377   c-0.778-1.609-1.474-3.235-2.099-4.875c-0.607-1.643-1.185-3.293-1.657-4.963l-1.475-5.206L415.519,325.448z"/>
</g>
<path style="fill:#3EADAD;" d="M306.345,421.317c-24.28,0-42.742-6.948-55.23-14.007c-19.565-11.06-29.133-24.774-29.531-25.352  c-2.63-3.825-1.661-9.058,2.164-11.687c3.817-2.625,9.036-1.665,11.671,2.138c1.34,1.912,32.624,45.166,101.319,28.219  c0.659-0.162,1.335-0.244,2.014-0.244c4.643,0,8.411,3.763,8.411,8.405c0,4.043-2.851,7.42-6.655,8.224  C328.076,420.056,316.681,421.317,306.345,421.317z"/>
<rect x="284.471" y="310.55" style="fill:#2B8EBF;" width="36.463" height="10.086"/>
<path style="fill:#FFFFFF;" d="M292.219,201.949c5.486,1.253,9.81,2.233,13.999,2.778c4.143,0.584,8.003,0.816,11.867,0.825  c3.864-0.025,7.719-0.261,11.86-0.843c4.185-0.548,8.509-1.518,14.007-2.76c-1.287,5.52-5.063,9.987-9.731,13.096  c-4.705,3.087-10.422,4.748-16.137,4.73c-5.714,0.003-11.426-1.663-16.129-4.748C297.295,211.914,293.518,207.457,292.219,201.949z"/>
<path style="fill:#F9AF8F;" d="M271.775,193.253c-0.365,0-0.736-0.028-1.108-0.084l-13.448-2.054  c-3.977-0.607-6.708-4.325-6.101-8.301c0.607-3.976,4.329-6.707,8.301-6.101l13.448,2.054c3.977,0.607,6.708,4.325,6.101,8.301  C278.415,190.671,275.312,193.253,271.775,193.253z"/>
<path style="fill:#399BD8;" d="M274.976,296.307c12.883,1.152,20.489,6.202,19.325,19.085  c-1.164,12.883-12.541,22.375-25.412,21.223c-12.099-1.1-21.223-11.188-21.325-23.097c0-0.772,0.026-1.544,0.101-2.329  C248.816,298.32,262.105,295.143,274.976,296.307z"/>
<path style="fill:#2B8EBF;" d="M260.451,313.519c0-0.772,0.026-1.544,0.101-2.329c0.818-9.145,7.766-13.393,16.335-14.67  c-0.626-0.08-1.257-0.155-1.912-0.213c-12.871-1.164-26.16,2.013-27.311,14.884c-0.076,0.784-0.101,1.557-0.101,2.329  c0.101,11.909,9.226,21.995,21.325,23.097c2.95,0.263,5.812-0.055,8.499-0.821C267.535,332.963,260.539,323.938,260.451,313.519z"/>
<path style="fill:#399BD8;" d="M338.294,296.307c12.883,1.152,20.489,6.202,19.325,19.085  c-1.164,12.883-12.541,22.375-25.412,21.223c-12.099-1.1-21.223-11.188-21.325-23.097c0-0.772,0.026-1.544,0.101-2.329  C312.134,298.32,325.423,295.143,338.294,296.307z"/>
<path style="fill:#2B8EBF;" d="M323.769,313.519c0-0.772,0.026-1.544,0.101-2.329c0.818-9.145,7.766-13.393,16.335-14.67  c-0.626-0.08-1.257-0.155-1.912-0.213c-12.871-1.164-26.16,2.013-27.311,14.884c-0.076,0.784-0.101,1.557-0.101,2.329  c0.101,11.909,9.227,21.995,21.325,23.097c2.95,0.263,5.812-0.055,8.499-0.821C330.853,332.963,323.857,323.938,323.769,313.519z"/>
<path style="fill:#52CBCE;" d="M158.951,448.301c0,0,0.314,9.212-3.642,18.805c-3.216,7.777-9.234,15.813-20.519,19.388  C109.597,494.484,95.533,512,95.533,512s-4.427-51.103,22.738-65.458c8.506-4.516,20.105-5.413,35.918,0  C155.735,447.057,157.326,447.651,158.951,448.301z"/>
<g>
</g>
<g>
</g>
<g>
</g>
<g>
</g>
<g>
</g>
<g>
</g>
<g>
</g>
<g>
</g>
<g>
</g>
<g>
</g>
<g>
</g>
<g>
</g>
<g>
</g>
<g>
</g>
<g>
</g>
</svg>
