<?xml version="1.0" encoding="iso-8859-1"?>
<!-- Generator: Adobe Illustrator 19.0.0, SVG Export Plug-In . SVG Version: 6.00 Build 0)  -->
<svg xmlns="http://www.w3.org/2000/svg" xmlns:xlink="http://www.w3.org/1999/xlink" version="1.1" id="Layer_1" x="0px" y="0px" viewBox="0 0 512.002 512.002" style="enable-background:new 0 0 512.002 512.002;" xml:space="preserve">
<g>
	<path style="fill:#5B5B5B;" d="M366.016,279.255l-5.346,187.63c-0.564,19.76-13.41,36.351-31.106,42.531   c-4.793,1.669-9.948,2.583-15.305,2.583h-23.55c7.692,0,14.831-2.335,20.741-6.339l0.023-0.011   c9.857-6.677,16.331-17.955,16.331-30.745V326.275l5.752-7.072L366.016,279.255z"/>
	<path style="fill:#5B5B5B;" d="M327.803,326.278v148.629c0,20.482-16.602,37.095-37.095,37.095h-184.71   c59.393,0,99.996-57.148,90.228-139.098c-6.057-50.787,6.508-94.92,16.94-121.143l65.393,42.509l0.011,0.011L327.803,326.278z"/>
</g>
<g>
	<path style="fill:#4D4D4D;" d="M278.571,294.279c0,0-41.37-1.083-41.37,35.009s0,162.411-20.301,182.712H105.998   c59.393,0,99.996-57.148,90.228-139.098c-6.057-50.787,6.508-94.92,16.94-121.143l65.393,42.509L278.571,294.279z"/>
	<path style="fill:#4D4D4D;" d="M336.263,328.903v155.813c0,9.045-2.459,17.516-6.699,24.7c-4.793,1.669-9.948,2.583-15.305,2.583   h-10.873c3.034-1.602,5.763-3.756,8.064-6.339l0.023-0.011c4.872-5.459,7.872-12.835,7.872-20.933V330.246l-3.891-12   l-14.188-43.693c-1.444-4.444,0.993-9.226,5.436-10.658c4.444-1.444,9.215,0.981,10.658,5.425l16.196,49.885l2.301,7.094   C336.128,327.144,336.263,328.024,336.263,328.903z"/>
</g>
<g>
	<path style="fill:#EF5454;" d="M301.491,351.28c-7.438,0-11.259-9.398-5.864-14.557c5.493-5.251,14.935-0.801,14.293,6.801   C309.555,347.845,305.838,351.28,301.491,351.28z"/>
	<path style="fill:#EF5454;" d="M301.491,426.023c-3.538,0-6.764-2.285-7.967-5.608c-1.179-3.256-0.158-7.066,2.487-9.297   c5.67-4.783,14.637-0.139,13.896,7.275C309.481,422.662,305.785,426.023,301.491,426.023z"/>
	<path style="fill:#EF5454;" d="M301.491,388.657c-3.385,0-6.517-2.098-7.817-5.222c-1.437-3.452-0.355-7.616,2.606-9.912   c5.79-4.485,14.549,0.359,13.601,7.708C309.343,385.401,305.718,388.657,301.491,388.657z"/>
	<path style="fill:#EF5454;" d="M301.491,463.399c-7.512,0-11.293-9.594-5.737-14.687c2.509-2.301,6.275-2.873,9.351-1.419   c3.188,1.508,5.157,4.957,4.804,8.47C309.48,460.022,305.784,463.399,301.491,463.399z"/>
	<path style="fill:#EF5454;" d="M309.313,271.937l18.486,54.34l-114.635-74.517l-65.822-42.78   c13.534-24.057,36.779-34.039,36.779-34.039c0,13.703,8.177,24.813,18.271,24.813c3.508,0,6.778-1.342,9.564-3.666   C222.908,239.669,262.338,271.937,309.313,271.937z"/>
	<path style="fill:#EF5454;" d="M406.004,230.037l-39.994,49.22l-38.212,47.02l-18.486-54.34c46.58,0,70.615-31.727,77.111-74.754   C401.188,211.946,406.004,230.037,406.004,230.037z"/>
</g>
<path style="fill:#FCEBE3;" d="M388.266,171.557c0,8.854-0.598,17.448-1.838,25.625c-6.496,43.028-30.531,74.754-77.111,74.754  c-15.925,0-30.982-3.711-44.359-10.309c-26.076-12.869-45.757-36.734-52.998-65.54c-2.786,2.323-6.057,3.666-9.564,3.666  c-10.094,0-18.271-11.109-18.271-24.813c0-3.327,0.485-6.508,1.365-9.406c2.729-9.045,9.271-15.406,16.907-15.406  c2.989,0,5.797,0.981,8.29,2.696c1.635-8.684,4.399-16.974,8.132-24.711c11.651-24.215,37.749-38.55,64.141-33.43  c12.621,2.447,25.241,9.294,33.565,24.824c0,0,1.602-24.283,21.384-32.742c8.335-3.575,18.034-1.489,24.362,5.008  c7.399,7.568,13.117,16.952,17.267,27.632C385.469,134.61,388.266,152.463,388.266,171.557z"/>
<path style="fill:#5B5B5B;" d="M379.548,119.405h-0.011c-4.151-10.681-9.869-20.065-17.267-27.632  c-6.327-6.496-16.027-8.583-24.362-5.008c-19.783,8.459-21.384,32.742-21.384,32.742c-8.324-15.531-20.944-22.377-33.565-24.824  c-7.263-1.41-14.504-1.342-21.418,0c-18.237,3.519-34.287,15.88-42.723,33.43c-3.733,7.737-6.496,16.027-8.132,24.711  c-2.493-1.714-5.301-2.696-8.29-2.696c-7.636,0-14.177,6.361-16.907,15.406c0,0-50.923-94.153-11.82-133.245  c14.572-14.572,42.464-24.226,73.333-28.929c51.96-7.929,112.357-1.838,131.936,18.395  C410.148,54.024,379.548,119.405,379.548,119.405z"/>
<path style="fill:#DDCAC3;" d="M264.946,261.617c0,0,0,0.011,0.011,0.011c-26.076-12.869-45.757-36.734-52.998-65.54  c-2.786,2.323-6.057,3.666-9.564,3.666c-10.094,0-18.271-11.109-18.271-24.813c0-3.327,0.485-6.508,1.365-9.406  c2.729-9.045,9.271-15.406,16.907-15.406c2.989,0,5.797,0.981,8.29,2.696c1.635-8.684,4.399-16.974,8.132-24.711  c11.651-24.215,37.749-38.55,64.141-33.43C282.959,94.683,215.997,179.295,264.946,261.617z"/>
<path style="fill:#4D4D4D;" d="M261.541,94.683c-18.237,3.519-34.287,15.88-42.723,33.43c-3.733,7.737-6.496,16.027-8.132,24.711  c-2.493-1.714-5.301-2.696-8.29-2.696c-7.636,0-14.177,6.361-16.907,15.406c0,0-50.923-94.153-11.82-133.245  c14.572-14.572,42.464-24.226,73.333-28.929C247.002,3.36,227.468,60.599,261.541,94.683z"/>
<path style="fill:#5B5B5B;" d="M280.188,169.043c3.395-0.047,5.854-0.073,8.136-0.248c2.258-0.17,4.234-0.359,6.22-0.601  c1.985-0.247,3.947-0.532,6.18-0.905c2.256-0.373,4.65-0.925,7.969-1.676c0.029,3.424-1.679,6.405-4.059,8.634  c-2.399,2.237-5.585,3.632-8.877,4.023c-3.291,0.389-6.715-0.21-9.574-1.816C283.345,174.851,280.98,172.366,280.188,169.043z"/>
<path style="fill:#EF5454;" d="M361.471,212.858c-2.075-0.259-3.981-0.496-5.797-0.699c-2.978-0.327-5.662-0.564-8.29-0.609h-0.282  c-4.083-0.102-7.861,0.056-11.639,0.519c-3.846,0.474-7.658,1.229-11.685,2.335h-0.011c-2.808,0.756-5.651,1.726-8.842,2.91  c-1.432,0.519-2.932,1.083-4.534,1.692c0.383-2.966,1.489-5.718,3.079-8.177c1.196-1.85,2.662-3.541,4.32-5.03  c0.248-0.237,0.508-0.462,0.767-0.677c4.275-3.575,9.7-5.82,15.294-6.485c5.605-0.677,11.403,0.226,16.388,2.684  c0.293,0.147,0.598,0.305,0.891,0.462c1.218,0.665,2.38,1.41,3.474,2.244C357.625,206.328,360.083,209.283,361.471,212.858z"/>
<path style="fill:#5B5B5B;" d="M385.346,160.494c-0.105,3.415-1.921,6.325-4.377,8.468c-2.477,2.149-5.709,3.426-9.012,3.708  c-3.303,0.281-6.705-0.443-9.506-2.15c-2.78-1.703-5.054-4.279-5.716-7.638c3.403,0.067,5.859,0.124,8.143,0.035  c2.26-0.087,4.24-0.202,6.235-0.361c1.994-0.164,3.969-0.377,6.215-0.667C379.599,161.603,382.011,161.133,385.346,160.494z"/>
<g>
	<path style="fill:#FFFFFF;" d="M323.766,214.404c-2.808,0.756-5.651,1.726-8.842,2.91l-1.455-6.485l-3.699-16.557l8.019,11.527   L323.766,214.404z"/>
	<path style="fill:#FFFFFF;" d="M355.673,212.159c-2.978-0.327-5.662-0.564-8.29-0.609h-0.282l4.026-9.767l2.402-5.831l1.071,8.075   L355.673,212.159z"/>
</g>
<g>
</g>
<g>
</g>
<g>
</g>
<g>
</g>
<g>
</g>
<g>
</g>
<g>
</g>
<g>
</g>
<g>
</g>
<g>
</g>
<g>
</g>
<g>
</g>
<g>
</g>
<g>
</g>
<g>
</g>
</svg>
