<?xml version="1.0" encoding="iso-8859-1"?>
<!-- Generator: Adobe Illustrator 19.0.0, SVG Export Plug-In . SVG Version: 6.00 Build 0)  -->
<svg xmlns="http://www.w3.org/2000/svg" xmlns:xlink="http://www.w3.org/1999/xlink" version="1.1" id="Layer_1" x="0px" y="0px" viewBox="0 0 512.001 512.001" style="enable-background:new 0 0 512.001 512.001;" xml:space="preserve">
<path style="fill:#EFCA54;" d="M432.337,185.109h-97.342c0-26.883,21.8-48.671,48.671-48.671  C410.548,136.438,432.337,158.227,432.337,185.109z"/>
<path style="fill:#DBB342;" d="M397.816,138.534c-4.478-1.358-9.228-2.096-14.15-2.096c-26.871,0-48.671,21.789-48.671,48.671  h28.298C363.292,163.15,377.842,144.595,397.816,138.534z"/>
<path style="fill:#1AA344;" d="M403.375,314.586c-2.437,3.889-7.567,5.074-11.456,2.626c-3.091-1.939-6.714-3.568-10.769-4.864  c-3.423-1.086-6.238-0.233-10.259,2.748c-2.05,1.518-4.41,3.59-7.323,6.227c-9.063,8.177-20.342,18.369-38.434,18.369  c-33.925,0-54.122-35.565-54.964-37.082c-2.238-4.011-0.798-9.063,3.213-11.301c4-2.227,9.052-0.798,11.29,3.202  c0.222,0.388,16.408,28.562,40.462,28.562c11.7,0,19.278-6.847,27.288-14.082c4.288-3.867,8.841-7.988,14.071-10.703  c5.628-2.925,12.021-4.199,19.688-1.773c5.385,1.706,10.293,3.933,14.569,6.625C404.638,305.58,405.812,310.709,403.375,314.586z"/>
<g>
	<path style="fill:#FFD0B8;" d="M169.314,512.001h-18.11c-4.589,0-8.309-3.72-8.309-8.309v-42.446c0-4.589,3.72-8.309,8.309-8.309   c4.589,0,8.309,3.72,8.309,8.309v34.136h9.801c4.589,0,8.309,3.72,8.309,8.309C177.624,508.28,173.903,512.001,169.314,512.001z"/>
	<path style="fill:#FFD0B8;" d="M259.866,512.001h-18.11c-4.589,0-8.309-3.72-8.309-8.309v-42.446c0-4.589,3.72-8.309,8.309-8.309   c4.589,0,8.309,3.72,8.309,8.309v34.136h9.801c4.589,0,8.309,3.72,8.309,8.309C268.175,508.28,264.455,512.001,259.866,512.001z"/>
	<path style="fill:#FFD0B8;" d="M120.821,147.962l1.279,43.419c-2.795,2.32-6.078,3.667-9.598,3.667   c-10.131,0-18.347-11.149-18.347-24.902s8.218-24.902,18.347-24.902C115.49,145.246,118.32,146.231,120.821,147.962z"/>
	<path style="fill:#FFD0B8;" d="M299.03,166.755c0,11.201-1.917,23.244-4.964,35.332c-21.062,31.199-48.915,11.844-48.915,11.844   s-31.764,28.684-65.047-9.462c-1.728-1.95-3.424-4.077-5.13-6.393c-9.107-12.331-11.401-28.618-10.625-44.384   c0.022-0.465,0.044-0.92,0.078-1.385c0.022-0.465,0.055-0.92,0.089-1.385c0.011-0.188,0.022-0.377,0.044-0.565   c0.044-0.698,0.111-1.385,0.166-2.083c0.044-0.41,0.078-0.82,0.122-1.219c0.055-0.554,0.111-1.097,0.177-1.64   c0.1-0.909,0.211-1.817,0.332-2.714c0.1-0.72,0.199-1.44,0.299-2.149c0.022-0.177,0.055-0.355,0.078-0.532   c0.133-0.886,0.277-1.773,0.421-2.637c0.299-1.839,0.643-3.645,0.997-5.407c0.1-0.499,0.199-0.986,0.299-1.474   c0.155-0.764,0.321-1.507,0.487-2.238c0.211-0.975,0.432-1.928,0.665-2.87c0.033-0.155,0.066-0.31,0.111-0.465   c0.188-0.787,0.377-1.551,0.565-2.304c0.476-1.895,0.975-3.7,1.462-5.407c0.1-0.343,0.188-0.676,0.288-1.008   c0.277-0.942,0.543-1.85,0.809-2.726c0.022-0.078,0.044-0.166,0.078-0.244c0.089-0.288,0.177-0.576,0.266-0.864   c0.377-1.208,0.742-2.338,1.097-3.401c0.244-0.742,0.487-1.451,0.709-2.116c0.011-0.044,0.033-0.1,0.055-0.144   c0.31-0.897,0.598-1.717,0.864-2.46c0.055-0.155,0.111-0.31,0.166-0.454c0.1-0.266,0.188-0.521,0.277-0.753   c0.011-0.033,0.022-0.066,0.033-0.1c0.055-0.133,0.1-0.277,0.155-0.399c0.1-0.255,0.188-0.487,0.266-0.709   c0.089-0.222,0.166-0.432,0.233-0.62c0.089-0.188,0.155-0.366,0.211-0.521c0.033-0.089,0.066-0.166,0.089-0.233   c0.233-0.565,0.355-0.864,0.355-0.864c0.598,0.211,1.185,0.432,1.773,0.632c9.118,3.302,16.12,5.972,22.314,7.999   c3.756,1.23,7.224,2.238,10.703,3.014c5.828,1.296,11.678,1.939,18.957,1.939c5.218,0,11.678-1.064,18.768-2.681   c10.913-2.482,23.267-6.271,34.623-9.473c0.709,1.208,1.396,2.437,2.05,3.7c5.529,10.514,9.229,22.701,11.257,35.986   C298.409,149.028,299.03,157.749,299.03,166.755z"/>
</g>
<g>
	<path style="fill:#19A343;" d="M178.932,421.674v39.571h-27.732H120.64v-46.022C134.653,417.634,154.812,420.385,178.932,421.674z"/>
	<path style="fill:#19A343;" d="M269.482,418.324v42.921h-27.732H211.19v-38.846c3.747-0.034,7.549-0.113,11.421-0.238   C237.553,421.687,253.286,420.509,269.482,418.324z"/>
</g>
<g>
	<path style="fill:#24BC57;" d="M222.871,387.113l-0.255,35.055c-2.803,0.089-5.584,0.155-8.321,0.199   c-1.041,0.011-2.072,0.022-3.102,0.033c-11.356,0.111-22.148-0.177-32.252-0.72c-10.304-0.554-19.876-1.374-28.551-2.316   c-11.655-1.263-21.704-2.759-29.748-4.144c-13.672-2.338-21.505-4.343-21.505-4.343c0-15.932,0.764-31.498,2.039-46.433   c18.857,4.986,35.786,7.523,49.292,8.786c19.976,1.872,32.429,0.931,32.429,0.931v12.952H222.871z"/>
	<path style="fill:#24BC57;" d="M288.161,415.408c-6.282,1.13-12.52,2.094-18.68,2.914c-13.218,1.784-26.136,2.903-38.556,3.501   c-2.792,0.144-5.562,0.255-8.309,0.343l0.255-35.055h32.462V374.16c0,0,14.813,0.853,33.238-0.709   C288.815,397.582,288.161,415.408,288.161,415.408z"/>
	<path style="fill:#24BC57;" d="M287.842,344.593c-17.997,1.471-32.508,0.634-32.508,0.634v-14.714h-32.044l0.295-39.458   c16.537,5.625,28.354,7.764,28.354,7.764s10.843-17.59,22.117-42.038c5.965,12.292,9.553,33.085,11.67,55.633   C286.722,322.986,287.39,333.943,287.842,344.593z"/>
	<path style="fill:#24BC57;" d="M223.589,291.055l-0.295,39.458h-40.396v14.714c0,0-10.991,0.827-28.886-0.623   c-13.323-1.075-30.47-3.407-49.769-8.296c3.203-24.199,7.516-45.977,11.715-63.941c7.516-32.089,14.703-52.055,14.703-52.055   c11.308,23.407,31.364,40.329,51.965,52.328C196.944,280.993,211.523,286.947,223.589,291.055z"/>
</g>
<path style="fill:#1AA344;" d="M231.956,282.811l-0.776,104.301l-0.255,34.711c-2.792,0.144-5.562,0.255-8.309,0.343  c-2.803,0.089-5.584,0.155-8.321,0.199l0.266-35.254l0.776-104.434L231.956,282.811z"/>
<path style="fill:#F48B2C;" d="M288.566,373.456c-18.416,1.562-33.232,0.701-33.232,0.701v-28.931c0,0,14.511,0.838,32.508-0.634  C288.261,354.69,288.476,364.503,288.566,373.456z"/>
<polygon style="fill:#EFCA54;" points="255.334,374.159 255.334,387.107 222.872,387.107 182.893,387.107 182.893,374.159   182.893,345.227 182.893,330.513 223.291,330.513 255.334,330.513 255.334,345.227 "/>
<path style="fill:#1AA344;" d="M313.061,95.081c18.11,0,38.326,34.68-15.925,45.638c-2.275-14.862-6.644-28.365-13.311-39.684  C295.493,97.752,306.111,95.081,313.061,95.081z"/>
<g>
	<path style="fill:#F48B2C;" d="M294.071,202.089c-4.822,19.152-12.518,38.439-20.011,54.693   c-11.273,24.449-22.118,42.038-22.118,42.038s-11.817-2.139-28.354-7.764c-12.065-4.109-26.645-10.062-40.962-18.416   c-20.6-11.998-40.658-28.919-51.965-52.328c-4.21-8.716-7.198-18.336-8.557-28.931l-1.28-43.42   c0.803-4.268,1.879-8.444,3.203-12.496c5.399-16.537,14.953-31.184,27.437-42.717c5.037,0.532,10.266,1.63,15.586,3.463   c3.463,1.2,6.666,2.332,9.643,3.396c0,0-26.916,64.347-1.721,98.474c1.71,2.309,3.407,4.437,5.128,6.384   c33.289,38.144,65.05,9.463,65.05,9.463S273.007,233.284,294.071,202.089z"/>
	<path style="fill:#F48B2C;" d="M283.829,101.033c-11.356,3.202-23.71,6.991-34.623,9.473l-0.421-3.667l-4.864-42.312   c7.235-0.831,14.403-2.26,21.283-4.443c3.878,11.423,9.262,24.197,16.785,37.692C282.588,98.861,283.197,99.947,283.829,101.033z"/>
</g>
<path style="fill:#24BC57;" d="M265.208,60.083c-6.881,2.185-14.046,3.611-21.28,4.448l-1.041-9.066l-40.747,1.132l-0.193,7.244  c-6.916-0.883-13.469-2.037-19.434-3.283c-18.981-3.995-32.066-8.931-32.066-8.931l9.813-42.57c0,0,16.31-6.825,39.05-8.625  c16.537-1.313,36.481,0.045,56.028,8.625C255.339,9.057,254.964,29.884,265.208,60.083z"/>
<path style="fill:#EFCA54;" d="M243.925,64.531l5.286,45.977c-7.085,1.619-13.56,2.682-18.778,2.682  c-11.613,0-19.593-1.653-29.655-4.958l1.166-44.393l0.193-7.244l40.747-1.132L243.925,64.531z"/>
<path style="fill:#F48B2C;" d="M201.947,63.841l-1.166,44.393c-6.202-2.037-13.198-4.698-22.32-7.979  c-0.577-0.215-1.166-0.43-1.766-0.645c-2.977-1.064-6.18-2.196-9.643-3.396c-5.32-1.834-10.55-2.932-15.586-3.463  c-3.587-0.384-7.074-0.497-10.413-0.397l9.395-40.725c0,0,13.085,4.935,32.066,8.931C188.477,61.803,195.032,62.958,201.947,63.841z  "/>
<path style="fill:#1AA344;" d="M199.309,0.433c-5.524,14.884-12.485,36.435-16.797,60.126c-18.981-3.995-32.066-8.931-32.066-8.931  l9.813-42.57C160.259,9.057,176.57,2.232,199.309,0.433z"/>
<path style="fill:#DD7824;" d="M182.509,60.561c-2.083,11.423-3.545,23.355-3.944,35.288c-0.055,1.462-0.089,2.925-0.1,4.387  c0,0.011,0,0.011,0,0.022c-0.576-0.222-1.174-0.432-1.773-0.654c-2.969-1.064-6.182-2.194-9.639-3.39  c-5.318-1.839-10.548-2.936-15.589-3.468c-3.59-0.377-7.069-0.499-10.415-0.399l0.897-3.911l8.498-36.805  C150.445,51.631,163.53,56.562,182.509,60.561z"/>
<path style="fill:#E2B39F;" d="M211.478,111.243c0,0-25.252,35.632-31.375,93.222c-1.721-1.947-3.418-4.075-5.128-6.384  c-25.195-34.126,1.721-98.474,1.721-98.474c9.995,3.587,17.488,6.463,24.086,8.625C204.539,109.466,208.002,110.475,211.478,111.243  z"/>
<g>
	<path style="fill:#1AA344;" d="M150.469,373.23c-0.985,13.809-1.143,29.157-0.079,46.135c-11.659-1.267-21.71-2.762-29.746-4.143   c-13.673-2.343-21.506-4.346-21.506-4.346c0-15.938,0.758-31.501,2.037-46.43C120.033,369.427,136.965,371.963,150.469,373.23z"/>
	<path style="fill:#1AA344;" d="M182.626,272.64c0,0-19.649,21.913-28.615,71.966c-13.323-1.075-30.47-3.407-49.769-8.296   c3.203-24.199,7.516-45.977,11.715-63.941c7.516-32.089,14.703-52.055,14.703-52.055   C141.968,243.72,162.025,260.641,182.626,272.64z"/>
</g>
<path style="fill:#DD7824;" d="M182.631,272.641c-20.607-11.999-40.661-28.917-51.973-52.328c-4.21-8.719-7.19-18.336-8.553-28.928  l-1.274-43.42c0.798-4.266,3.89-8.286,3.202-12.497c-3.202-19.599,13.074-28.23,23.776-39.154c1.185-1.219,2.404-2.404,3.656-3.568  c5.041,0.532,10.271,1.629,15.589,3.468c3.457,1.197,6.67,2.327,9.639,3.39c0,0-0.499,1.197-1.307,3.346  c-5.063,13.628-22.17,65.656-0.41,95.127c1.706,2.316,3.401,4.443,5.13,6.393C177.944,224.678,178.144,247.601,182.631,272.641z"/>
<path style="fill:#F48B2C;" d="M182.893,345.227v28.931c0,0-34.964,2.637-81.722-9.712c0.815-9.678,1.868-19.072,3.068-28.139  C149.458,347.751,182.893,345.227,182.893,345.227z"/>
<path style="fill:#1AA344;" d="M141.048,92.353c3.339-0.102,6.825,0.011,10.413,0.397c-12.484,11.534-22.038,26.18-27.437,42.717  c-21.178-7.052-24.867-16.503-23.917-23.589c0.758-5.603,4.652-10.266,9.847-12.507C116.146,96.7,127.42,92.783,141.048,92.353z"/>
<g>
	<path style="fill:#5B5B5B;" d="M210.062,162.862c-3.366,0-6.094-2.728-6.094-6.094v-13.582c0-3.366,2.728-6.094,6.094-6.094   c3.366,0,6.094,2.728,6.094,6.094v13.582C216.156,160.134,213.428,162.862,210.062,162.862z"/>
	<path style="fill:#5B5B5B;" d="M267.186,158.9c-3.366,0-6.094-2.728-6.094-6.094v-13.582c0-3.366,2.728-6.094,6.094-6.094   s6.094,2.728,6.094,6.094v13.582C273.279,156.172,270.552,158.9,267.186,158.9z"/>
</g>
<path style="fill:#FFFFFF;" d="M220.11,185.6c4.574,0.76,8.263,1.347,11.833,1.55c3.542,0.209,6.845,0.176,10.138-0.137  c3.293-0.319,6.539-0.903,9.978-1.772c3.467-0.869,6.981-2.127,11.343-3.718c-0.783,4.601-3.618,8.531-7.272,11.421  c-3.674,2.899-8.288,4.658-13.01,5.099c-4.722,0.437-9.58-0.43-13.729-2.594C225.265,193.288,221.747,189.963,220.11,185.6z"/>
<g>
	<rect x="215.338" y="70.93" style="fill:#F48B2C;" width="16.619" height="30.202"/>
	<rect x="200.059" y="350.505" style="fill:#F48B2C;" width="38.125" height="16.619"/>
</g>
<path style="fill:#1AA344;" d="M136.729,273.061c-0.321,0.055-17.649,3.268-33.881,19.655  c-18.27,18.436-28.352,46.666-29.626,82.408c-0.255,6.947-0.166,14.193,0.255,21.704c0.255,4.576-3.246,8.498-7.822,8.764  c-0.166,0.011-0.321,0.011-0.476,0.011c-4.376,0-8.044-3.412-8.298-7.844c-0.399-7.091-0.554-14.724-0.288-22.635  c1.108-32.185,9.118-69.179,35.299-94.961c20.054-19.743,41.248-23.355,42.146-23.499c4.531-0.731,8.786,2.338,9.528,6.869  C144.296,268.053,141.238,272.308,136.729,273.061z"/>
<g>
	<path style="fill:#FFD0B8;" d="M403.375,314.586c-2.437,3.889-7.567,5.074-11.456,2.626c-3.091-1.939-6.714-3.568-10.769-4.864   c-3.423-1.086-6.238-0.233-10.259,2.748l-4.398-16.807c5.628-2.925,12.021-4.199,19.688-1.773   c5.385,1.706,10.293,3.933,14.569,6.625C404.638,305.58,405.812,310.709,403.375,314.586z"/>
	<path style="fill:#FFD0B8;" d="M65.655,405.593c-0.166,0.011-0.321,0.011-0.476,0.011c-4.376,0-8.044-3.412-8.298-7.844   c-0.399-7.091-0.554-14.724-0.288-22.635h16.63c-0.255,6.947-0.166,14.193,0.255,21.704   C73.732,401.405,70.231,405.327,65.655,405.593z"/>
</g>
<path style="fill:#5B5B5B;" d="M445.298,208.568l-0.249-0.759c5.75-1.913,9.893-7.346,9.893-13.742  c0-4.006-1.619-7.629-4.244-10.255c-2.626-2.626-6.248-4.244-10.255-4.244h-8.105h-97.342h-8.105  c-8.003,0-14.499,6.486-14.499,14.499c0,3.995,1.619,7.629,4.244,10.255c1.573,1.562,3.498,2.773,5.648,3.487l-0.249,0.759  c-6.497,10.809-10.244,23.475-10.244,37.013c0,39.695,32.18,57.16,71.875,57.16s71.875-17.465,71.875-57.16  C455.54,232.043,451.795,219.379,445.298,208.568z"/>
<g>
	<path style="fill:#4D4D4D;" d="M341.724,245.581c0-13.538,3.747-26.203,10.244-37.013H370.5c-1.608,0-3.158-0.26-4.607-0.759   c-2.15-0.714-4.075-1.924-5.648-3.487c-2.626-2.626-4.244-6.259-4.244-10.255c0-8.014,6.497-14.499,14.499-14.499h-35.505h-8.104   c-8.003,0-14.5,6.486-14.5,14.499c0,3.995,1.619,7.629,4.244,10.255c1.573,1.562,3.498,2.773,5.648,3.487l0,0l-0.249,0.759   c-6.497,10.81-10.244,23.475-10.244,37.013c0,39.695,32.18,57.16,71.875,57.16c5.133,0,10.138-0.298,14.966-0.893   C366.123,297.847,341.724,280.143,341.724,245.581z"/>
	<path style="fill:#4D4D4D;" d="M445.048,207.811c-1.449,0.497-2.999,0.759-4.607,0.759h4.856L445.048,207.811z"/>
</g>
<path style="fill:#E2B39F;" d="M289.978,113.686c-19.843,5.362-44.162,13.616-58.676,13.616c-20.508,0-29.693-5.141-58.964-15.433  c2.382-7.556,4.354-12.265,4.354-12.265c9.994,3.59,17.494,6.47,24.086,8.631c3.756,1.23,7.224,2.238,10.703,3.014  c5.828,1.296,11.678,1.939,18.957,1.939c5.218,0,11.689-1.064,18.779-2.681c10.913-2.482,23.255-6.271,34.612-9.473  C286.167,104.999,288.216,109.221,289.978,113.686z"/>
<path style="fill:#1AA344;" d="M285.879,104.733c-2.936,0.831-5.927,1.695-8.897,2.548c-16.674,4.808-33.914,9.783-45.68,9.783  c-17.262,0-26.679-3.446-45.436-10.315c-3.213-1.174-6.67-2.437-10.481-3.8c-2.714-0.975-5.617-1.994-8.73-3.069  c-6.481-2.238-12.841-3.291-18.846-3.568c1.185-1.219,2.404-2.404,3.656-3.568c-3.59-0.377-7.069-0.499-10.415-0.399l0.897-3.911  c8.42-0.233,17.671,0.809,27.233,4.11c3.379,1.152,6.492,2.26,9.384,3.302c3.612,1.296,6.902,2.504,9.96,3.623  c18.469,6.758,26.889,9.838,42.777,9.838c4.797,0,10.824-0.975,17.483-2.471c8.121-1.839,17.162-4.454,26.047-7.013  c2.415-0.698,4.808-1.385,7.157-2.05c0.598,1.086,1.208,2.172,1.839,3.257C284.538,102.24,285.225,103.471,285.879,104.733z"/>
<g>
</g>
<g>
</g>
<g>
</g>
<g>
</g>
<g>
</g>
<g>
</g>
<g>
</g>
<g>
</g>
<g>
</g>
<g>
</g>
<g>
</g>
<g>
</g>
<g>
</g>
<g>
</g>
<g>
</g>
</svg>
