<?xml version="1.0" encoding="iso-8859-1"?>
<!-- Generator: Adobe Illustrator 19.0.0, SVG Export Plug-In . SVG Version: 6.00 Build 0)  -->
<svg xmlns="http://www.w3.org/2000/svg" xmlns:xlink="http://www.w3.org/1999/xlink" version="1.1" id="Layer_1" x="0px" y="0px" viewBox="0 0 512 512" style="enable-background:new 0 0 512 512;" xml:space="preserve">
<path style="fill:#DDBB6F;" d="M217.204,398.288v98.031h-33.907V388.256C194.389,392.964,205.831,396.187,217.204,398.288z"/>
<path style="fill:#FCC03A;" d="M93.205,402.311c-16.425,33.329-62.449,34.694-62.449,34.694s29.814-25.15,7.598-84.334  c-22.227-59.184-10.533-165.711,59.65-165.711c45.477,0,59.514,33.511,63.757,57.091c-2.684-0.125-5.403-0.136-8.145-0.023  c-44.715,1.809-84.482,40.87-87.019,85.551c-1.604,28.073,9.544,53.565,28.187,71.253L93.205,402.311z"/>
<rect x="343.729" y="486.804" style="fill:#726E67;" width="28.039" height="25.196"/>
<rect x="306.18" y="486.804" style="fill:#847E74;" width="37.549" height="25.196"/>
<rect x="183.296" y="487.908" style="fill:#726E67;" width="33.907" height="24.092"/>
<rect x="159.329" y="487.908" style="fill:#847E74;" width="30.405" height="24.092"/>
<path style="fill:#DDBB6F;" d="M371.767,385.999v100.805h-47.42l11.375-106.511c10.909-5.801,28.117,12.326,35.818,5.444  L371.767,385.999z"/>
<path style="fill:#F9D780;" d="M416.938,259.623c-6.893,0.25-14.025-0.398-21.26-2.059l-0.239,1.058  c15.083,34.296,20.009,87.929-23.899,127.116c-7.701,6.882-16.903,13.309-27.812,19.11v81.957h-37.549v-64.587  c0,0-43.691,10.59-88.975,4.106c-9.214-1.319-18.484-3.344-27.471-6.302v67.886h-30.405v-57.501c0,0-10.385-2.013-24.024-7.303  c-15.447-3.856-29.336-11.648-40.518-22.272c-18.644-17.688-29.791-43.179-28.187-71.253c2.537-44.681,42.304-83.743,87.019-85.551  c2.741-0.114,5.46-0.102,8.145,0.023c14.992,0.717,29.04,5.073,41.268,12.205c4.652,2.707,9.043,5.813,13.115,9.271  c9.089,7.701,22.113,9.328,32.612,3.697c0.489-0.262,0.967-0.535,1.433-0.819c0.353-0.205,0.683-0.432,1.012-0.637  c46.262-28.392,5.847-73.391,5.847-139.116s56.397-72.948,56.397-72.948c0-8.634,1.069-15.845,2.832-21.874  c8.554-29.2,33.522-30.701,33.522-30.701V52.78h0.057C351.338,2.241,386.168,0,386.168,0v53.019c0,0,22.864,20.919,33.169,34.694  c0,0,29.04,40.995,29.052,41.007c5.597,7.473,11.341,14.89,17.199,22.158C508.131,203.59,469.786,257.78,416.938,259.623z"/>
<path style="fill:#DDBB6F;" d="M307.703,97.074c0,0-68.616,175.525,87.974,160.49c0,0-61.445-6.917-81.713-52.761  C298.047,168.802,321.771,97.074,307.703,97.074C206.047,175.544,307.703,97.074,307.703,97.074z"/>
<path style="fill:#FCC03A;" d="M316.28,33.829c-1.763,6.029-2.832,13.241-2.832,21.874c0,0-56.397,7.223-56.397,72.948  s40.415,110.724-5.847,139.116c-0.33,0.205-0.66,0.432-1.012,0.637c-0.466,0.284-0.944,0.557-1.433,0.819  c-10.499,5.631-23.523,4.004-32.612-3.697c-4.072-3.458-8.463-6.563-13.115-9.271c39.46-24.092,3.936-60.299,14.253-147.318  C227.817,20.213,316.28,33.829,316.28,33.829z"/>
<g>
	<path style="fill:#DDBB6F;" d="M201.663,423.377c69.684-10.34,104.515-42.781,104.515-42.781v41.621   C306.179,422.217,245.729,442.817,201.663,423.377z"/>
	<path style="fill:#DDBB6F;" d="M106.412,340.238c0,62.563,52.916,90.17,52.916,90.17s-10.385-2.013-24.024-7.303   c-15.447-3.856-29.336-11.648-40.518-22.272c-18.644-17.688-29.791-43.179-28.187-71.253c2.537-44.681,42.304-83.743,87.019-85.551   c2.741-0.114,5.46-0.102,8.145,0.023C161.762,244.051,106.412,274.263,106.412,340.238z"/>
</g>
<g>
	<path style="fill:#4D4D4D;" d="M426.995,203.31c-3.719,0-6.825-3.104-6.825-6.825c0-3.716,3.106-6.823,6.823-6.822   c3.714,0,6.825,3.107,6.827,6.822C433.823,200.193,430.709,203.31,426.995,203.31z"/>
	<path style="fill:#4D4D4D;" d="M474.94,195.12c-3.846,0-7.021-3.324-6.816-7.173c0.199-3.729,3.473-6.66,7.198-6.456   c3.568,0.196,6.445,3.241,6.443,6.815C481.763,192.027,478.657,195.12,474.94,195.12z"/>
</g>
<path style="fill:#E58376;" d="M346.761,178.523h-17.441c-4.713,0-8.531-3.82-8.531-8.531s3.819-8.531,8.531-8.531h17.441  c4.713,0,8.531,3.82,8.531,8.531S351.472,178.523,346.761,178.523z"/>
<g>
	<path style="fill:#4D4D4D;" d="M382.501,136.518c-3.455,0-6.256-2.801-6.256-6.256v-14.788c0-3.456,2.802-6.256,6.256-6.256   c3.455,0,6.256,2.801,6.256,6.256v14.788C388.757,133.717,385.956,136.518,382.501,136.518z"/>
	<path style="fill:#4D4D4D;" d="M418.901,136.518c-3.455,0-6.256-2.801-6.256-6.256v-14.788c0-3.456,2.802-6.256,6.256-6.256   c3.455,0,6.256,2.801,6.256,6.256v14.788C425.157,133.717,422.355,136.518,418.901,136.518z"/>
</g>
<path style="fill:#F99450;" d="M266.387,272.6c0,0-56.644-43.414-54.863-128.613c0.202-9.695-6.279-18.265-15.68-20.641  c-28.829-7.287-89.765-18.537-140.222-0.056c-10.571,3.872-14.731,16.861-8.243,26.061c4.573,6.484,11.614,12.189,22.267,12.395  c0,0-7.461,32.85,26.525,40.332c0,0,11.784,37.772,46.035,31.608c0,0-6.28,30.596,26.702,31.235c0,0,10.911,24.102,36.042,18.901  c0,0,5.254,9.026,18.906,17.033C244.167,312.769,269.316,295.965,266.387,272.6L266.387,272.6z"/>
<path style="fill:#FCC49D;" d="M226.481,218.668c-44.522-0.011-39.63-66.794-62.38-66.794c-22.5,0-20.907-36.718-20.873-37.526  c21.294,1.877,40.017,5.813,52.609,8.998c9.407,2.377,15.891,10.954,15.686,20.646C210.898,174.147,217.587,199.058,226.481,218.668  z"/>
<g>
</g>
<g>
</g>
<g>
</g>
<g>
</g>
<g>
</g>
<g>
</g>
<g>
</g>
<g>
</g>
<g>
</g>
<g>
</g>
<g>
</g>
<g>
</g>
<g>
</g>
<g>
</g>
<g>
</g>
</svg>
