<?xml version="1.0" encoding="iso-8859-1"?>
<!-- Generator: Adobe Illustrator 19.0.0, SVG Export Plug-In . SVG Version: 6.00 Build 0)  -->
<svg xmlns="http://www.w3.org/2000/svg" xmlns:xlink="http://www.w3.org/1999/xlink" version="1.1" id="Layer_1" x="0px" y="0px" viewBox="0 0 512 512" style="enable-background:new 0 0 512 512;" xml:space="preserve">
<path style="fill:#B3B3B3;" d="M308.807,500.332v11.657h-58.296V403.547h38.467v76.956h0.011  C299.938,480.503,308.807,489.383,308.807,500.332z"/>
<polygon style="fill:#999999;" points="266.248,403.549 250.511,403.549 250.511,480.512 250.511,511.997 266.248,511.997   266.248,480.512 "/>
<path style="fill:#B3B3B3;" d="M270.329,500.332V512h-58.307V403.547h38.489v76.967  C261.449,480.514,270.329,489.383,270.329,500.332z"/>
<g>
	<rect x="212.025" y="403.552" style="fill:#999999;" width="76.956" height="16.491"/>
	<polygon style="fill:#999999;" points="227.763,403.549 212.025,403.549 212.025,480.512 212.025,511.997 227.763,511.997    227.763,480.512  "/>
</g>
<path style="fill:#666666;" d="M346.578,283.608l-5.129-4.565c-10.287-9.154-21.878-13.786-29.792-16.06l-6.6-1.896l3.793-13.199  l6.601,1.896c9.283,2.667,22.913,8.128,35.127,19l5.13,4.565L346.578,283.608z"/>
<path style="fill:#B3B3B3;" d="M322.802,277.186v106.778c0,11.432-9.274,20.706-20.706,20.706H203.58  c-11.432,0-20.706-9.274-20.706-20.706V277.187c0-26.192,21.234-47.426,47.426-47.426h45.076c1.641,0,3.271,0.079,4.867,0.247  C304.153,232.447,322.802,252.636,322.802,277.186z"/>
<path style="fill:#999999;" d="M216.594,383.963V277.185c0-26.194,21.234-47.427,47.427-47.427h-33.723  c-26.194,0-47.427,21.234-47.427,47.427v106.777c0,11.438,9.273,20.71,20.71,20.71h33.723  C225.866,404.673,216.594,395.401,216.594,383.963z"/>
<g>
	<path style="fill:#CCCCCC;" d="M265.08,291.35c-3.064,0-5.623-2.556-5.621-5.621c0.002-3.07,2.557-5.609,5.621-5.617   c3.062-0.008,5.618,2.561,5.621,5.617C270.702,288.793,268.144,291.35,265.08,291.35z"/>
	<path style="fill:#CCCCCC;" d="M265.08,371.813c-3.061,0-5.619-2.561-5.621-5.62c-0.001-3.073,2.556-5.609,5.621-5.617   c3.064-0.008,5.622,2.557,5.621,5.617C270.699,369.25,268.139,371.813,265.08,371.813z"/>
	<path style="fill:#CCCCCC;" d="M265.08,331.582c-3.064,0-5.621-2.556-5.621-5.621c0-3.072,2.556-5.609,5.621-5.617   c3.064-0.008,5.621,2.557,5.621,5.617C270.701,329.024,268.144,331.582,265.08,331.582z"/>
</g>
<path style="fill:#999999;" d="M294.992,272.432v132.239h-11.241V272.432c0-17.839-7.869-33.554-19.762-42.671h11.387  c1.641,0,3.271,0.079,4.867,0.247C289.382,241.125,294.992,256.053,294.992,272.432z"/>
<path style="fill:#666666;" d="M144.713,351.821H130.98v-6.867c0-19.305,3.517-36.307,10.455-50.537l3.009-6.172l12.344,6.018  l-3.009,6.172c-6.016,12.338-9.066,27.317-9.066,44.518V351.821z"/>
<circle style="fill:#B3B3B3;" cx="145.062" cy="355.115" r="14.784"/>
<g>
	<path style="fill:#666666;" d="M214.187,253.923c0.138,3.461-2.32,6.465-5.733,7.058c-8.561,1.487-24.791,5.799-38.566,18.061   l-5.129,4.566l-9.131-10.257l5.129-4.566c16.312-14.52,35.069-19.599,45.373-21.361   C210.233,246.721,214.019,249.764,214.187,253.923L214.187,253.923z"/>
	<path style="fill:#666666;" d="M380.362,351.821h-13.733v-6.867c0-17.2-3.05-32.177-9.066-44.519l-3.009-6.172l12.345-6.018   l3.009,6.172c6.938,14.231,10.455,31.234,10.455,50.536v6.868H380.362z"/>
</g>
<g>
	<circle style="fill:#B3B3B3;" cx="155.303" cy="284.802" r="14.784"/>
	<circle style="fill:#B3B3B3;" cx="366.938" cy="355.767" r="14.784"/>
	<circle style="fill:#B3B3B3;" cx="356.034" cy="284.802" r="14.784"/>
	<polyline style="fill:#B3B3B3;" points="237.089,48.342 237.089,0 269.031,0 269.031,48.342  "/>
</g>
<polyline style="fill:#999999;" points="237.089,48.342 237.089,0 251.697,0 251.697,48.342 "/>
<path style="fill:#666666;" d="M189.24,99.83c-1.821,0-3.656-0.588-5.199-1.8c-9.483-7.442-14.92-18.62-14.92-30.67  c0-21.495,17.492-38.983,38.992-38.983c13.613,0,26.015,6.922,33.173,18.516c2.446,3.961,1.217,9.157-2.744,11.603  c-3.959,2.445-9.157,1.217-11.603-2.745c-4.064-6.582-11.102-10.513-18.825-10.513c-12.202,0-22.13,9.924-22.13,22.121  c0,6.838,3.087,13.182,8.468,17.406c3.663,2.874,4.302,8.173,1.429,11.837C194.215,98.723,191.738,99.83,189.24,99.83z"/>
<path style="fill:#B3B3B3;" d="M329.891,99.695l-60.86-65.594h-31.937l-60.86,65.594h0.002h-0.001v108.352  c0,12.612,10.218,22.83,22.831,22.83h107.992c3.08,0,6.025-0.607,8.712-1.72c8.285-3.417,14.119-11.578,14.119-21.111  L329.891,99.695h-0.003H329.891z"/>
<g>
	<path style="fill:#999999;" d="M213.329,208.05V99.695h-37.095V208.05c0,12.61,10.223,22.832,22.832,22.832h37.095   C223.552,230.883,213.329,220.66,213.329,208.05z"/>
	<polyline style="fill:#999999;" points="251.697,34.103 213.329,99.695 176.234,99.695 237.089,34.098  "/>
</g>
<g>
	<polyline style="fill:#CCCCCC;" points="254.427,34.103 294.143,99.697 315.771,99.697 269.035,34.098  "/>
	<path style="fill:#CCCCCC;" d="M315.771,99.697v129.463c-2.687,1.113-5.632,1.72-8.712,1.72h-12.916V99.697H315.771z"/>
</g>
<path style="fill:#999999;" d="M329.891,200.333h-73.561c-12.085,0-21.918-9.833-21.918-21.919v-14.468  c0-9.836-8.002-17.837-17.838-17.837h-40.339v-12.365h40.338c16.654,0,30.203,13.549,30.203,30.202v14.468  c0,5.268,4.286,9.554,9.553,9.554h73.561v12.365H329.891z"/>
<g>
	<path style="fill:#666666;" d="M273.327,160.019c-4.657,0-8.431-3.775-8.431-8.431v-11.661c0-4.656,3.774-8.431,8.431-8.431   c4.657,0,8.431,3.775,8.431,8.431v11.661C281.758,156.244,277.984,160.019,273.327,160.019z"/>
	<path style="fill:#666666;" d="M307.937,160.019c-4.657,0-8.431-3.775-8.431-8.431v-11.661c0-4.656,3.774-8.431,8.431-8.431   s8.431,3.775,8.431,8.431v11.661C316.368,156.244,312.594,160.019,307.937,160.019z"/>
</g>
<g>
</g>
<g>
</g>
<g>
</g>
<g>
</g>
<g>
</g>
<g>
</g>
<g>
</g>
<g>
</g>
<g>
</g>
<g>
</g>
<g>
</g>
<g>
</g>
<g>
</g>
<g>
</g>
<g>
</g>
</svg>
