<?xml version="1.0" encoding="iso-8859-1"?>
<!-- Generator: Adobe Illustrator 19.0.0, SVG Export Plug-In . SVG Version: 6.00 Build 0)  -->
<svg xmlns="http://www.w3.org/2000/svg" xmlns:xlink="http://www.w3.org/1999/xlink" version="1.1" id="Layer_1" x="0px" y="0px" viewBox="0 0 512 512" style="enable-background:new 0 0 512 512;" xml:space="preserve">
<path style="fill:#4D4D4D;" d="M322.502,111.264l-0.091,0.915c-20.574-2.219-42.978-3.431-66.411-3.431  c-8.429,0-16.731,0.149-24.851,0.457c-14.467,0.549-28.385,1.555-41.56,2.973l-0.091-0.915L256.001,0L322.502,111.264z"/>
<path style="fill:#333333;" d="M256.001,0l-23.445,108.748l-1.407,0.457c-14.467,0.549-28.385,1.555-41.56,2.973l-0.091-0.915  L256.001,0z"/>
<g>
	<path style="fill:#E2B39F;" d="M353.669,413.478c-1.126,0-2.272-0.223-3.374-0.695c-4.355-1.866-6.371-6.909-4.505-11.263   c5.246-12.239,1.655-21.858,1.499-22.262c-1.805-4.38,0.301-9.349,4.68-11.154s9.411,0.327,11.217,4.706   c0.272,0.66,6.56,16.363-1.627,35.469C360.164,411.53,356.997,413.478,353.669,413.478z"/>
	<path style="fill:#E2B39F;" d="M158.034,413.478c-3.328,0-6.495-1.949-7.888-5.2c-8.187-19.106-1.9-34.809-1.627-35.469   c1.804-4.38,6.815-6.466,11.198-4.661c4.354,1.794,6.442,6.761,4.692,11.122c-0.212,0.555-3.696,10.114,1.504,22.249   c1.866,4.355-0.151,9.396-4.505,11.263C160.306,413.254,159.16,413.478,158.034,413.478z"/>
</g>
<g>
	<polyline style="fill:#333333;" points="312.992,283.016 370.065,375.546 333.469,400.706  "/>
	<polyline style="fill:#333333;" points="198.711,283.016 141.638,375.546 178.234,400.706  "/>
</g>
<polygon style="fill:#4D4D4D;" points="357.788,512 154.221,512 196.604,261.727 200.893,236.395 314.044,253.664 315.405,261.727   "/>
<polyline style="fill:#333333;" points="230.459,261.944 215.974,511.997 154.218,511.997 203.601,220.369 "/>
<path style="fill:#4D4D4D;" d="M438.593,153.339c0,18.401-35.864,34.503-89.375,43.264c1.235-3.751,1.956-7.308,1.956-10.19  c0-11.997-7.685-21.729-17.155-21.729c-1.395,0-2.733,0.229-4.026,0.629c-1.212-10.087-3.58-19.659-6.942-28.477  c-20.46-2.161-43.161-3.362-67.051-3.362c-23.891,0-46.592,1.201-67.051,3.362c-3.362,8.817-5.73,18.39-6.942,28.477  c-1.292-0.4-2.63-0.629-4.026-0.629c-9.469,0-17.155,9.732-17.155,21.729c0,2.882,0.72,6.439,1.956,10.19  c-53.511-8.76-89.375-24.863-89.375-43.264c0-21.329,48.17-39.558,116.182-46.878c20.574-2.219,42.978-3.431,66.411-3.431  c12.431,0,24.565,0.343,36.288,0.995c0.011,0,0.011,0,0.011,0c10.384,0.572,20.46,1.395,30.112,2.436  C390.424,113.78,438.593,132.01,438.593,153.339z"/>
<g>
	<path style="fill:#333333;" d="M256.001,133.474c-23.891,0-46.592,1.201-67.051,3.362c-3.362,8.817-5.73,18.39-6.942,28.477   c-1.292-0.4-2.63-0.629-4.026-0.629c-9.469,0-17.155,9.732-17.155,21.729c0,2.882,0.721,6.439,1.956,10.19   c-53.511-8.76-89.375-24.863-89.375-43.264c0-21.329,48.17-39.558,116.182-46.878c20.574-2.219,42.978-3.431,66.411-3.431   c12.431,0,24.565,0.343,36.288,0.995C291.42,104.071,245.811,106.312,256.001,133.474z"/>
	<rect x="250.285" y="283.29" style="fill:#333333;" width="11.436" height="228.704"/>
	<path style="fill:#333333;" d="M315.405,261.727c-11.036,15.565-29.609,31.484-59.4,31.484c-17.052,0-30.421-5.215-40.816-12.603   c-7.765-5.512-13.861-12.225-18.584-18.881l4.289-25.332l113.151,17.269L315.405,261.727z"/>
</g>
<path style="fill:#FFD0B8;" d="M351.178,186.418c0,2.882-0.72,6.439-1.956,10.19c-3.866,11.882-12.752,25.675-19.556,25.675  c0,0-15.336,61.013-73.662,61.013c-17.052,0-30.421-5.215-40.816-12.603c-25.16-17.852-32.845-48.41-32.845-48.41  c-6.805,0-15.691-13.792-19.556-25.675c-1.235-3.751-1.956-7.308-1.956-10.19c0-11.997,7.685-21.729,17.155-21.729  c1.395,0,2.733,0.229,4.026,0.629v-0.011c1.212-10.087,3.58-19.648,6.942-28.465c16.022-1.693,33.428-2.802,51.704-3.191  c5.055-0.114,10.178-0.172,15.348-0.172c7.376,0,14.65,0.114,21.775,0.332c3.854,0.126,7.662,0.274,11.425,0.457h0.011  c11.802,0.572,23.124,1.441,33.84,2.573c3.362,8.817,5.73,18.39,6.942,28.477c1.292-0.4,2.63-0.629,4.026-0.629  C343.493,164.689,351.178,174.422,351.178,186.418z"/>
<g>
	<path style="fill:#E2B39F;" d="M329.998,165.318c0,0-22.53-18.23-68.275-18.23c-12.511,0-18.698-5.478-21.066-13.438   c5.055-0.114,10.178-0.172,15.348-0.172c7.376,0,14.65,0.114,21.775,0.332c3.854,0.126,7.662,0.274,11.425,0.457h0.011   c11.802,0.572,23.124,1.441,33.84,2.573C326.418,145.659,328.786,155.231,329.998,165.318z"/>
	<path style="fill:#E2B39F;" d="M215.185,270.689c-25.16-17.852-32.845-48.41-32.845-48.41c-6.805,0-15.691-13.792-19.556-25.675   c-1.235-3.751-1.956-7.308-1.956-10.19c0-11.997,7.685-21.729,17.155-21.729c1.395,0,2.733,0.229,4.026,0.629   c1.212-10.087,3.58-19.659,6.942-28.477c20.46-2.161,43.161-3.362,67.051-3.362c7.376,0,14.65,0.114,21.775,0.332   C277.776,133.808,193.043,168.128,215.185,270.689z"/>
</g>
<path style="fill:#9376E2;" d="M289.216,134.269c0,0-32.365,61.104-107.204,31.038c1.212-10.087,3.58-19.648,6.942-28.465  c20.46-2.161,43.161-3.362,67.051-3.362c7.376,0,14.65,0.114,21.775,0.332c3.854,0.126,7.662,0.274,11.425,0.457H289.216z"/>
<g>
	<path style="fill:#333333;" d="M303.85,192.489c-1.382,3.734-3.301,6.17-5.381,8.215c-2.102,1.992-4.412,3.479-6.912,4.51   c-2.493,1.049-5.177,1.632-8.073,1.706c-2.915,0.026-5.995-0.348-9.618-2.033c1.375-3.751,3.291-6.192,5.374-8.232   c2.102-1.992,4.414-3.476,6.919-4.493c2.498-1.035,5.184-1.614,8.079-1.688C297.156,190.452,300.235,190.82,303.85,192.489z"/>
	<path style="fill:#333333;" d="M208.158,192.489c3.64-1.545,6.694-1.812,9.57-1.695c2.853,0.169,5.478,0.834,7.898,1.946   c2.427,1.097,4.644,2.651,6.631,4.705c1.965,2.102,3.75,4.597,4.943,8.382c-3.648,1.562-6.704,1.833-9.579,1.712   c-2.853-0.168-5.477-0.838-7.89-1.965c-2.421-1.11-4.636-2.668-6.623-4.723C211.145,198.747,209.358,196.257,208.158,192.489z"/>
</g>
<path style="fill:#FFFFFF;" d="M243.263,234.928c3.007,0.309,5.194,0.509,7.214,0.591c2.004,0.077,3.756,0.113,5.523,0.111  c1.766-0.007,3.514-0.045,5.517-0.122c2.019-0.083,4.204-0.279,7.22-0.58c-0.326,3.028-2.128,5.51-4.469,7.228  c-2.354,1.729-5.317,2.627-8.267,2.622c-2.951-0.006-5.911-0.903-8.263-2.634C245.4,240.425,243.598,237.948,243.263,234.928z"/>
<g>
	<circle style="fill:#333333;" cx="280.786" cy="311.012" r="6.481"/>
	<circle style="fill:#333333;" cx="280.786" cy="353.544" r="6.481"/>
	<circle style="fill:#333333;" cx="280.786" cy="438.596" r="6.481"/>
	<circle style="fill:#333333;" cx="280.786" cy="481.128" r="6.481"/>
	<circle style="fill:#333333;" cx="280.786" cy="396.064" r="6.481"/>
</g>
<g>
</g>
<g>
</g>
<g>
</g>
<g>
</g>
<g>
</g>
<g>
</g>
<g>
</g>
<g>
</g>
<g>
</g>
<g>
</g>
<g>
</g>
<g>
</g>
<g>
</g>
<g>
</g>
<g>
</g>
</svg>
