<?xml version="1.0" encoding="iso-8859-1"?>
<!-- Generator: Adobe Illustrator 19.0.0, SVG Export Plug-In . SVG Version: 6.00 Build 0)  -->
<svg xmlns="http://www.w3.org/2000/svg" xmlns:xlink="http://www.w3.org/1999/xlink" version="1.1" id="Layer_1" x="0px" y="0px" viewBox="0 0 511.999 511.999" style="enable-background:new 0 0 511.999 511.999;" xml:space="preserve">
<path style="fill:#808080;" d="M208.631,26.476c-6.107,5.316-11.585,11.271-16.331,17.762h-0.012  c-20.344,8.468-38.641,10.841-53.74,10.387c-26.94-0.779-43.69-10.504-43.69-10.504c26.579-3.199,33.337-28.533,59.94-31.744  c3.49-0.419,6.991-0.489,10.446-0.279C187.693,13.413,207.968,26.069,208.631,26.476z"/>
<path style="fill:#666666;" d="M208.631,26.476c-6.107,5.316-11.585,11.271-16.331,17.762h-0.012  c-20.344,8.468-38.641,10.841-53.74,10.387c2.664-21.996,15.738-35.198,26.695-42.527C187.693,13.413,207.968,26.069,208.631,26.476  z"/>
<path style="fill:#44B7B7;" d="M204.713,456.574c-9.277,20.378,1.254,55.425,1.254,55.425  c-41.157-18.723-32.49-74.122-32.332-75.109C180.257,445.704,190.312,452.618,204.713,456.574z"/>
<path style="fill:#75CC54;" d="M345.861,187.033c-11.625,15.095-28.973,25.43-52.966,28.644  c-19.318,2.593-38.115-0.085-54.974-6.914c-11.528-4.662-22.144-11.273-31.383-19.478v-0.012h-0.012  c-12.393-11.017-22.314-24.895-28.644-40.781c-2.642,2.885-5.953,4.784-9.702,5.295c-10.798,1.437-21.145-9.264-23.117-23.933  c-1.96-14.656,5.198-27.719,15.995-29.154c3.201-0.439,6.355,0.207,9.264,1.692c1.145-21.425,8.618-41.523,20.804-58.152h0.012  c4.748-6.488,10.226-12.453,16.324-17.761c15.436-13.427,34.852-22.643,56.655-25.564c59.308-7.949,90.898,36.751,98.847,96.059  C367.7,132.29,362.977,164.818,345.861,187.033z"/>
<path style="fill:#52CBCE;" d="M204.713,459.483c-14.402-3.956-24.456-10.871-31.078-19.684c0-0.012,0-0.012,0-0.012  c-18.93-25.138-10.043-65.663,4.894-96.583c0,0,16.872,28.401,49.009,24.53c-5.892,2.203-10.81,4.773-14.852,7.56  c-2.216,1.521-4.163,3.116-5.856,4.747c0.913,0.085,1.813,0.17,2.702,0.28c21.79,2.715,35.972,14.547,42.679,28.401h0.012  C265.567,436.244,249.401,471.753,204.713,459.483z"/>
<path style="fill:#6ABA49;" d="M237.921,208.763c-11.528-4.662-22.144-11.273-31.383-19.478v-0.012h-0.012  c-12.393-11.017-22.314-24.895-28.644-40.781c-2.642,2.885-5.953,4.784-9.702,5.295c-10.798,1.437-21.145-9.264-23.117-23.933  c-1.96-14.656,5.198-27.719,15.995-29.154c3.201-0.439,6.355,0.207,9.264,1.692c1.145-21.425,8.618-41.523,20.804-58.152h0.012  c4.748-6.488,10.226-12.453,16.324-17.761c15.436-13.427,34.852-22.643,56.655-25.564  C264.118,0.917,170.518,105.058,237.921,208.763z"/>
<path style="fill:#75CC54;" d="M348.052,253.428c-2.012,10.771-5.409,21.682-10.655,32.407  c-15.761,32.221-48.226,62.638-109.864,81.901c-5.502,0.651-10.562,0.372-15.168-0.547c-22.252-4.478-33.837-23.985-33.837-23.985  c4.595-9.503,9.736-18.099,14.842-25.067c2.361-3.222,4.385-7.107,6.095-11.492v-0.012c6.828-17.343,9.026-42.585,9.213-66.36  c-13.144,4.176-26.591,11.725-30.697,25.439c-3.943,13.202,5.7,25.044,16.18,35.652c-0.384-0.198-6.339-3.42-13.621-8.945  c-30.045-22.834-25.87-69.92,8.456-85.611c2.326-1.059,4.711-1.943,7.13-2.571c2.768-0.71,5.141-2.233,6.921-4.246  c2.489-2.827,3.839-6.63,3.49-10.597v-0.105c12.667,11.236,27.905,19.484,44.539,23.846c0,0,0,0,0,0.012  c13.249,3.466,27.393,4.467,41.817,2.536c23.997-3.222,41.34-13.551,52.972-28.65c0.791,3.513,1.524,7.189,2.164,10.992  C350.785,214.623,351.716,233.781,348.052,253.428z"/>
<path style="fill:#6ABA49;" d="M348.029,198.025c-0.698,1.012-1.419,2.001-2.164,2.966c-11.632,15.098-28.975,25.428-52.972,28.65  c-19.321,2.582-38.106-0.093-54.973-6.921c-11.527-4.664-22.147-11.271-31.383-19.472v-0.012h-0.012  c-1.186-1.047-2.338-2.129-3.478-3.245c2.489-2.827,3.839-6.63,3.49-10.597v-0.105c12.667,11.236,27.905,19.484,44.539,23.846  c0,0,0,0,0,0.012c13.249,3.466,27.393,4.467,41.817,2.536c23.997-3.222,41.34-13.551,52.972-28.65  C346.656,190.545,347.389,194.221,348.029,198.025z"/>
<path style="fill:#44B7B7;" d="M252.212,408.72c-30.604-15.716-48.316,7.608-48.316,7.608l0,0  c-4.245-10.177-3.286-21.781,2.573-31.123l3.064-4.887C231.324,383.035,245.505,394.867,252.212,408.72z"/>
<path style="fill:#6ABA49;" d="M251.081,213.145c0-0.012,0-0.012,0-0.012c-16.641-4.357-31.882-12.611-44.541-23.847v0.109  c0.597,6.817-3.786,13.135-10.408,14.839c-2.423,0.633-4.809,1.51-7.134,2.568c-34.328,15.692-38.504,62.778-8.46,85.615  c0.985,0.748,1.944,1.451,2.871,2.112c5.73,6.351,7.625,10.249,5.332,13.17c-1.784,2.274-1.388,5.565,0.886,7.349  c0.958,0.751,2.097,1.117,3.228,1.117c0.742,0,1.477-0.168,2.159-0.475c-0.53,0.851-1.077,1.67-1.646,2.447  c-5.101,6.963-10.25,15.558-14.839,25.065c0,0,11.589,19.502,33.842,23.982c0.012,0,0.036-0.012,0.049-0.012  C258.422,356.935,251.166,214.727,251.081,213.145z M200.273,304.435c-0.49-8.865-9.424-17.641-17.57-25.631l-0.822-0.81  c-0.231-0.228-0.506-0.499-0.805-0.793c-3.013-2.969-4.315-7.357-3.12-11.414c0.008-0.026,0.015-0.052,0.023-0.078  c4.103-13.707,17.554-21.267,30.701-25.443C208.495,263.075,206.46,287.195,200.273,304.435z"/>
<g>
	<path style="fill:#3F3E3E;" d="M245.839,101.379c3.602,0.029,6.253,0.062,8.73-0.085c2.451-0.141,4.619-0.325,6.794-0.591   c2.174-0.27,4.321-0.605,6.734-1.05c2.438-0.448,5.005-1.1,8.508-1.976c-0.049,3.632-1.91,6.791-4.475,9.152   c-2.586,2.369-5.995,3.848-9.517,4.267c-3.521,0.416-7.182-0.212-10.254-1.902C249.313,107.507,246.757,104.885,245.839,101.379z"/>
	<path style="fill:#3F3E3E;" d="M328.187,91.471c3.602,0.029,6.252,0.062,8.73-0.085c2.451-0.141,4.619-0.325,6.794-0.591   c2.174-0.27,4.321-0.605,6.734-1.05c2.438-0.448,5.005-1.1,8.508-1.976c-0.049,3.632-1.91,6.791-4.475,9.152   c-2.586,2.369-5.995,3.848-9.517,4.267c-3.521,0.416-7.182-0.212-10.254-1.902C331.659,97.599,329.103,94.978,328.187,91.471z"/>
</g>
<path style="fill:#FFFFFF;" d="M285.718,143.714c5.602,0.045,9.723,0.097,13.576-0.131c3.812-0.219,7.184-0.506,10.566-0.918  c3.381-0.42,6.72-0.941,10.471-1.633c3.791-0.696,7.784-1.712,13.23-3.073c-0.077,5.647-2.97,10.561-6.958,14.232  c-4.021,3.685-9.323,5.983-14.799,6.635c-5.476,0.648-11.168-0.329-15.945-2.957C291.119,153.243,287.144,149.166,285.718,143.714z"/>
<g>
	<path style="fill:#6ABA49;" d="M301.489,75.784c-3.618,0-6.593-3.137-6.387-6.758c0.184-3.233,2.846-5.844,6.066-6.018   c3.465-0.187,6.508,2.565,6.708,6.021C308.084,72.64,305.11,75.784,301.489,75.784z"/>
	<path style="fill:#6ABA49;" d="M272.021,257.266c-2.891-0.323-5.016-3.077-4.595-5.953c0.404-2.756,2.991-4.752,5.76-4.45   c2.703,0.293,4.775,2.738,4.654,5.446C277.707,255.279,274.969,257.597,272.021,257.266z"/>
	<path style="fill:#6ABA49;" d="M329.548,252.688c-2.83-0.318-4.935-2.956-4.619-5.785c0.318-2.83,2.957-4.941,5.788-4.612   c2.824,0.328,4.934,2.943,4.616,5.778C335.016,250.895,332.373,253.004,329.548,252.688z"/>
	<path style="fill:#6ABA49;" d="M416.935,262.79c-0.762-2.668-3.586-4.157-6.312-3.632c-5.401,1.041-10.673,2.513-15.81,4.356   l0.792-9.422c0.228-2.716-1.547-5.312-4.228-5.806c-3.084-0.568-5.929,1.651-6.186,4.707l-1.27,15.106   c-0.029,0.014-0.058,0.028-0.087,0.043c-8.056,3.987-17.731,3.087-24.712-2.575c-6.918-5.61-11.07-12.143-11.07-12.143   c-2.009,10.774-5.404,21.681-10.651,32.406c15.818,12.415,32.066,4.741,42.875-3.826c0.222-0.095,0.441-0.208,0.654-0.337   c12.301-7.478,24.164-10.807,31.951-12.282C415.88,268.817,417.792,265.795,416.935,262.79z"/>
</g>
<g>
</g>
<g>
</g>
<g>
</g>
<g>
</g>
<g>
</g>
<g>
</g>
<g>
</g>
<g>
</g>
<g>
</g>
<g>
</g>
<g>
</g>
<g>
</g>
<g>
</g>
<g>
</g>
<g>
</g>
</svg>
