<?xml version="1.0" encoding="iso-8859-1"?>
<!-- Generator: Adobe Illustrator 19.0.0, SVG Export Plug-In . SVG Version: 6.00 Build 0)  -->
<svg xmlns="http://www.w3.org/2000/svg" xmlns:xlink="http://www.w3.org/1999/xlink" version="1.1" id="Layer_1" x="0px" y="0px" viewBox="0 0 512.001 512.001" style="enable-background:new 0 0 512.001 512.001;" xml:space="preserve">
<path style="fill:#F26D53;" d="M38.99,148.437c-0.401,0.284-0.623,0.479-0.885,0.692c-0.266,0.214-0.5,0.423-0.729,0.632  c-0.471,0.417-0.928,0.837-1.351,1.265c-0.886,0.839-1.675,1.733-2.484,2.604c-1.549,1.797-3,3.642-4.293,5.579  c-2.491,3.726-4.566,7.666-6.051,11.787l-2.003,0.158c-1.201,0.177-2.377,0.319-3.551,0.538c-2.352,0.486-4.656,1.045-6.859,1.949  c-2.197,0.875-4.29,1.954-6.153,3.312c-1.842,1.365-3.523,2.948-4.632,4.829c1.792-1.207,3.819-1.83,5.802-2.221  c1.997-0.374,4.008-0.423,5.965-0.289c1.954,0.106,3.895,0.532,5.763,0.992c0.937,0.253,1.87,0.576,2.779,0.852l0.152,0.059  c-0.184,1.108-0.326,2.218-0.42,3.333c-0.336,2.177-0.262,4.393-0.343,6.558c-0.072,1.081,0.098,2.175,0.139,3.253l0.216,3.224  l0.498-3.187c0.195-1.053,0.262-2.113,0.568-3.144c0.55-2.063,0.936-4.131,1.714-6.098c1.254-3.999,3.193-7.708,5.323-11.16  c2.147-3.457,4.8-6.53,7.664-9.245c1.432-1.362,2.963-2.594,4.513-3.743c0.798-0.537,1.575-1.104,2.382-1.575  c0.399-0.256,0.796-0.479,1.189-0.692c0.198-0.111,0.394-0.221,0.574-0.303c0.181-0.088,0.396-0.2,0.449-0.198L38.99,148.437z"/>
<path style="fill:#509364;" d="M168.338,197.719c0,67.611-97.476,112.593-78.157,155.077c6.833,15.034,18.022,24.521,29.628,30.461  l0.011,0.011c-16.617,13.974-27.294,29.067-33.996,43.733c0,0-66.147-32.674-46.839-98.357  c19.32-65.659,120.723-118.772,75.336-164.171c-18.641-18.641-37.615-2.333-53.494,0.607c-28.366,5.238-41.912-34.02-15.772-46.232  c0.536-0.25,1.095-0.488,1.654-0.726C125.913,85.281,168.338,130.132,168.338,197.719z"/>
<g>
	<path style="fill:#666666;" d="M88.475,134.335c-3.855,0-7.047-3.352-6.85-7.2c0.187-3.68,3.368-6.619,7.049-6.518   c3.659,0.099,6.665,3.201,6.66,6.859C95.329,131.206,92.209,134.335,88.475,134.335z"/>
	<path style="fill:#666666;" d="M57.575,130.471c-3.735,0-6.856-3.125-6.859-6.859c-0.003-3.618,2.959-6.724,6.58-6.858   c3.7-0.137,6.931,2.795,7.128,6.497C64.63,127.116,61.443,130.471,57.575,130.471z"/>
</g>
<path style="fill:#A3906C;" d="M321.732,506.352h-65.618h-51.386h-84.103c-28.213,0-49.556-25.664-44.229-53.375  c1.578-8.265,4.195-17.045,8.288-25.973c6.699-14.667,17.376-29.757,33.986-43.738c2.538-2.138,5.201-4.241,8.025-6.333  c12.541-9.237,23.835-20.051,33.952-31.62c0.103-0.126,0.149-0.183,0.149-0.183c7.659-8.78,14.644-18.005,20.966-27.31h0.011  l167.744,14.514l47.442,150.594c-1.783,2.229-31.437,7.202-31.437,10.289l0,0C365.522,500.476,314.484,506.352,321.732,506.352z"/>
<polygon style="fill:#686152;" points="256.111,463.854 243.232,487.042 256.111,506.349 204.725,506.349 204.725,463.854   221.342,463.854 "/>
<polyline style="fill:#E8BB54;" points="323.248,346.991 323.248,489.518 419.608,489.518 419.608,340.145 "/>
<path style="fill:#CEA146;" d="M323.246,380.911v97.036h-1.511c-4.166,0-7.88,1.94-10.284,4.975l-33.175-8.416l10.321-41.257  l-42.852-1.595l14.284-46.018h-48.411l9.523-35.71l-40.472,15.069l1.107-47.173h-0.011c34.079-50.125,49.089-102.69,49.089-102.69  c0,95.107,51.696,142.9,92.393,165.766V380.911z"/>
<g>
	<path style="fill:#E8BB54;" d="M419.605,376.242V477.95h-48.173v-77.839C371.844,399.985,393.45,393.023,419.605,376.242z"/>
	<path style="fill:#E8BB54;" d="M371.432,400.124v77.827h-48.185v-97.044c26.396,14.85,48.173,19.217,48.173,19.217   S371.421,400.124,371.432,400.124z"/>
</g>
<rect x="364.581" y="385.111" style="fill:#CEA146;" width="13.718" height="103.651"/>
<g>
	<path style="fill:#E8BB54;" d="M283.014,70.889c12.665,0,23.807,6.404,30.401,16.153c-22.641,10.273-42.09,26.378-56.398,46.399   c-6.606-6.63-10.689-15.784-10.689-25.878C246.327,87.304,262.742,70.889,283.014,70.889z"/>
	<path style="fill:#E8BB54;" d="M496.524,107.563c0,10.094-4.083,19.248-10.689,25.878c-14.319-20.021-33.758-36.126-56.41-46.399   c6.595-9.749,17.76-16.153,30.425-16.153C480.098,70.889,496.524,87.304,496.524,107.563z"/>
	<path style="fill:#E8BB54;" d="M471.864,213.414c0,56.278-46.287,101.731-102.863,100.393c-19.422-0.446-37.542-6.516-52.78-16.622   c-26.659-17.673-44.527-47.693-45.212-81.68c-0.503-24.51,7.785-47.076,21.926-64.772c9.671-12.095,26.19-16.61,40.537-10.757   c4.504,1.84,9.168,3.372,13.97,4.538c7.682,1.886,15.707,2.892,23.972,2.892c13.444,0,26.259-2.641,37.976-7.431   c14.13-5.773,30.546-1.566,40.148,10.3C463.508,167.516,471.864,189.487,471.864,213.414z"/>
</g>
<path style="fill:#CEA146;" d="M316.222,297.186c-26.659-17.673-44.527-47.693-45.212-81.68  c-0.503-24.51,7.785-47.076,21.926-64.772c9.671-12.095,26.19-16.61,40.537-10.757c4.504,1.84,9.168,3.372,13.97,4.538  C328.442,168.212,301.452,217.712,316.222,297.186z"/>
<path style="fill:#F9D780;" d="M485.834,133.438c-14.324-20.017-33.758-36.124-56.404-46.39  c-15.067-6.836-31.552-11.089-48.905-12.209c-3.007-0.183-6.047-0.286-9.111-0.286c-20.68,0-40.308,4.47-58.004,12.495  c-22.635,10.266-42.08,26.373-56.393,46.39c-16.473,23.035-26.167,51.237-26.167,81.691c0,95.112,51.694,142.908,92.391,165.771  v0.011c26.407,14.85,48.173,19.217,48.173,19.217s0,0,0.011,0v-0.011c0.069-0.023,0.674-0.217,1.76-0.594  c5.693-2.023,24.452-9.18,46.413-23.275c40.685-26.121,92.403-76.044,92.403-161.119  C512.001,184.675,502.307,156.472,485.834,133.438z M369.002,313.807c-38.353-0.892-71.608-23.664-87.693-56.21  c-6.322-12.769-9.991-27.047-10.3-42.092c-0.503-24.51,7.785-47.076,21.926-64.772c2.755-3.452,6.07-6.276,9.728-8.437  c9.18-5.396,20.554-6.505,30.808-2.321c11.717,4.79,24.521,7.431,37.942,7.431c13.444,0,26.259-2.641,37.976-7.431  c14.13-5.773,30.546-1.566,40.148,10.3c13.97,17.239,22.326,39.211,22.326,63.137C471.864,269.692,425.577,315.145,369.002,313.807z  "/>
<path style="fill:#CEA146;" d="M371.432,400.112v0.011c-0.011,0-0.011,0-0.011,0s-57.81-22.075-84.206-36.924l36.033,34.489  c26.407,14.838,48.162,19.205,48.162,19.205s0,0,0.011,0v-0.011c0,0,0,0,0.011,0c0.091-0.034,0.697-0.229,1.749-0.594  c5.693-2.023,24.452-9.18,46.413-23.275c0,0,0.011,0,0.011-0.011v-16.759C393.45,393.023,371.844,399.985,371.432,400.112z"/>
<path style="fill:#E5C06E;" d="M289.826,298.477c-4.115-14.461-6.893-28.076-8.517-40.88c-6.322-12.769-9.991-27.047-10.3-42.092  c-0.503-24.51,7.785-47.076,21.926-64.772c2.755-3.452,6.07-6.276,9.728-8.437c29.837-49.476,77.873-67.436,77.873-67.436  l-0.011-0.023c-3.007-0.183-6.047-0.286-9.111-0.286c-20.68,0-40.308,4.47-58.004,12.495c-22.635,10.266-42.08,26.373-56.393,46.39  c-16.473,23.035-26.167,51.237-26.167,81.691c0,95.112,51.694,142.908,92.391,165.771v0.011  c26.407,14.85,48.173,19.217,48.173,19.217s0,0,0.011,0v-0.011c0.069-0.023,0.674-0.217,1.76-0.594  C334.741,377.905,303.304,345.838,289.826,298.477z"/>
<path style="fill:#B78B3B;" d="M424.545,234.499c1.536,6.966-0.452,15.022-5.407,21.151c-2.472,3.06-5.634,5.671-9.269,7.53  c-3.624,1.878-7.716,2.988-11.882,3.252c-8.354,0.565-17.112-2.589-23.369-8.565c-3.155-2.96-5.659-6.619-7.413-10.614  c-1.738-4.009-2.621-8.397-2.634-12.753h13.716c-0.007,4.358-0.893,8.744-2.624,12.758c-1.754,3.999-4.265,7.652-7.413,10.622  c-6.262,5.971-15.018,9.145-23.38,8.572c-4.169-0.257-8.263-1.379-11.89-3.252c-3.638-1.862-6.801-4.473-9.273-7.537  c-4.956-6.133-6.941-14.196-5.395-21.162c1.499,6.962,5.232,12.717,10.163,16.395c4.918,3.706,10.84,5.296,16.395,4.769  c2.786-0.263,5.438-1.033,7.847-2.217c2.389-1.22,4.569-2.806,6.333-4.769c3.586-3.889,5.503-9.005,5.522-14.179v-0.016  c0.013-3.787,3.093-6.848,6.881-6.835c3.787,0.013,6.848,3.064,6.835,6.851c0.005,5.176,1.927,10.292,5.51,14.19  c1.768,1.959,3.944,3.556,6.337,4.775c2.411,1.182,5.064,1.962,7.854,2.218c5.56,0.53,11.49-1.063,16.408-4.775  C419.325,247.222,423.056,241.462,424.545,234.499z"/>
<path style="fill:#8E7A5A;" d="M153.846,506.352h-33.221c-28.213,0-49.556-25.664-44.229-53.375  c1.578-8.265,4.195-17.045,8.288-25.973c6.699-14.667,17.376-29.757,33.986-43.738c2.538-2.138,5.201-4.241,8.025-6.333  c12.541-9.237,23.835-20.051,33.952-31.62C156.658,350.355,71.812,459.389,153.846,506.352z"/>
<g>
	<path style="fill:#666666;" d="M383.877,238.42h-24.896c-4.736,0-8.574-3.839-8.574-8.574c0-4.735,3.838-8.574,8.574-8.574h24.896   c4.736,0,8.574,3.839,8.574,8.574C392.451,234.581,388.612,238.42,383.877,238.42z"/>
	<path style="fill:#666666;" d="M350.825,206.658c-3.787,0-6.859-3.072-6.859-6.859v-17.17c0-3.787,3.072-6.859,6.859-6.859   s6.859,3.072,6.859,6.859v17.17C357.684,203.587,354.613,206.658,350.825,206.658z"/>
	<path style="fill:#666666;" d="M392.033,206.658c-3.787,0-6.859-3.072-6.859-6.859v-17.17c0-3.787,3.072-6.859,6.859-6.859   c3.787,0,6.859,3.072,6.859,6.859v17.17C398.892,203.587,395.821,206.658,392.033,206.658z"/>
</g>
<g>
	<path style="fill:#B7A57D;" d="M324.457,93.614c-0.712-28.203-9.994-78.807-66.425-86.168c0,0,91.821-21.556,99.009,84.644   c0.566,8.355-5.352,15.768-13.614,17.138l0,0C333.678,110.845,324.707,103.494,324.457,93.614z"/>
	<path style="fill:#B7A57D;" d="M418.401,93.614c0.712-28.203,9.994-78.807,66.424-86.168c0,0-91.821-21.556-99.009,84.644   c-0.566,8.355,5.352,15.768,13.614,17.138l0,0C409.18,110.845,418.15,103.494,418.401,93.614z"/>
</g>
<polygon style="fill:#8E7A5A;" points="204.728,463.86 162.418,463.86 212.718,452.938 "/>
<path style="fill:#F9D780;" d="M421.128,477.947h-1.524h-48.173h-48.185h-1.511c-4.166,0-7.88,1.94-10.284,4.976  c-1.774,2.238-2.845,5.071-2.845,8.154v2.142c0,7.261,5.88,13.129,13.129,13.129h1.084h48.613h49.696  c7.249,0,13.129-5.868,13.129-13.129v-2.142C434.257,483.828,428.377,477.947,421.128,477.947z"/>
<g>
</g>
<g>
</g>
<g>
</g>
<g>
</g>
<g>
</g>
<g>
</g>
<g>
</g>
<g>
</g>
<g>
</g>
<g>
</g>
<g>
</g>
<g>
</g>
<g>
</g>
<g>
</g>
<g>
</g>
</svg>
