<?xml version="1.0" encoding="iso-8859-1"?>
<!-- Generator: Adobe Illustrator 19.0.0, SVG Export Plug-In . SVG Version: 6.00 Build 0)  -->
<svg xmlns="http://www.w3.org/2000/svg" xmlns:xlink="http://www.w3.org/1999/xlink" version="1.1" id="Layer_1" x="0px" y="0px" viewBox="0 0 512 512" style="enable-background:new 0 0 512 512;" xml:space="preserve">
<g>
	<path style="fill:#FFD0B8;" d="M255.767,509.254c-1.625,1.751-3.902,2.746-6.282,2.746h-29.751c-4.737,0-8.582-3.845-8.582-8.582   c0-4.737,3.845-8.582,8.582-8.582h20.517l-4.863-66.447l-4.474-61.172c-0.16-2.163,0.503-4.199,1.705-5.801   c1.442-1.899,3.662-3.204,6.225-3.387c4.199-0.309,7.918,2.46,8.937,6.396c0.126,0.492,0.217,1.007,0.252,1.533l5.149,70.315   l4.863,66.516C258.215,505.169,257.391,507.514,255.767,509.254z"/>
	<path style="fill:#FFD0B8;" d="M311.938,509.254c-1.625,1.751-3.913,2.746-6.293,2.746h-29.751c-4.737,0-8.582-3.845-8.582-8.582   c0-4.737,3.845-8.582,8.582-8.582h20.494l-5.492-73.301l-4.096-54.707l-0.664-8.902c-0.355-4.726,3.193-8.845,7.918-9.2   c4.737-0.355,8.845,3.193,9.2,7.918l0.664,8.799l5.561,74.251l4.726,63.083C314.376,505.157,313.552,507.503,311.938,509.254z"/>
</g>
<g>
	<path style="fill:#E2B39F;" d="M248.031,365.958l5.149,70.315l-7.255,8.033l-10.539-15.917l-4.474-61.172   c-0.16-2.163,0.503-4.199,1.705-5.801c4.76,1.133,9.829,2.163,15.161,3.009C247.905,364.917,247.997,365.431,248.031,365.958z"/>
	<path style="fill:#E2B39F;" d="M309.478,439.694c-0.034,0.023-0.046,0.034-0.046,0.034l-14.738-14.463l-3.799-3.73l-4.096-54.707   c5.561-0.195,11.271-0.641,17.118-1.385L309.478,439.694z"/>
</g>
<path style="fill:#24BC57;" d="M309.431,417.984l-14.738-14.464l-16.729-16.432l-32.039,35.472l-24.865-37.555l-3.17-4.783  l-25.174,36.616c-20.597-49.203-7.403-95.077-7.403-95.077s13.491,8.204,36.021,14.898c25.895,7.701,63.713,13.434,106.691,2.472  C344.72,388.05,309.431,417.984,309.431,417.984z"/>
<g>
	<path style="fill:#FFD0B8;" d="M379.363,377.677c0,0-24.888-65.532-66.173-89.241c-0.893-9.658-0.629-20.803,0.217-31.765   C339.142,270.071,379.363,302.968,379.363,377.677z"/>
	<path style="fill:#FFD0B8;" d="M328.038,339.136h-0.011c-42.978,10.962-80.796,5.229-106.691-2.472   c-22.531-6.694-36.021-14.898-36.021-14.898c0.515-6.934,1.35-13.697,2.437-20.253c-30.804,28.755-48.814,76.185-48.814,76.185   c0-68.576,33.893-101.919,59.353-117.298v-0.011c4.463-12.862,9.509-24.281,14.349-33.893c1.671-3.318,3.318-6.431,4.897-9.303   c8.307,8.193,18.034,14.967,28.755,19.91c0,0,0,0,0,0.011c12.976,6.007,27.439,9.36,42.681,9.36c9.509,0,18.079-1.304,25.78-3.742   c-0.526,4.531-0.996,9.223-1.339,13.949c-0.023,0.32-0.046,0.652-0.069,0.973c-0.79,10.642-1.018,21.421-0.149,30.792   c0.675,7.22,2.014,13.617,4.245,18.491C322.031,316.915,325.99,327.968,328.038,339.136z"/>
	<path style="fill:#FFD0B8;" d="M369.07,144.631c0,46.743-16.477,86.129-54.318,98.098c-7.701,2.437-16.271,3.742-25.78,3.742   c-15.31,0-29.831-3.376-42.853-9.44c-10.653-4.955-20.311-11.683-28.584-19.842c-3.913-3.845-7.518-8.021-10.779-12.461v-0.011   c-7.632-10.401-13.319-22.313-16.557-35.197c-2.826,2.357-6.145,3.719-9.703,3.719c-10.241,0-18.537-11.271-18.537-25.174   c0-13.903,8.296-25.174,18.537-25.174c3.032,0,5.882,0.984,8.41,2.735l0.664-0.092c16.592-2.197,31.524-10.916,42.017-23.949   c17.725-21.993,36.513-21.878,50.13-17.038c9.371,3.318,19.796,0.973,27.165-5.698c3.376-3.055,8.284-5.286,15.425-5.286   c22.702,0,41.045,35.896,41.331,36.456c0,0.011,0,0.011,0,0.011C367.96,120.831,369.07,132.479,369.07,144.631z"/>
</g>
<path style="fill:#E2B39F;" d="M314.753,242.732c-0.526,4.531-0.996,9.223-1.339,13.949c-0.023,0.32-0.046,0.652-0.069,0.973  c-7.335,2.151-15.436,3.307-24.373,3.307c-15.31,0-29.831-3.376-42.853-9.44c-10.653-4.955-20.311-11.683-28.584-19.842  c-1.693-1.671-3.33-3.398-4.897-5.184c1.671-3.318,3.318-6.431,4.897-9.303c8.307,8.193,18.034,14.967,28.755,19.91c0,0,0,0,0,0.011  c12.976,6.007,27.439,9.36,42.681,9.36C298.482,246.474,307.052,245.169,314.753,242.732z"/>
<path style="fill:#F4516D;" d="M365.637,110.017c-0.286-0.561-18.629-36.456-41.331-36.456c-7.14,0-12.049,2.231-15.425,5.286  c-7.369,6.671-17.793,9.017-27.165,5.698c-13.617-4.84-32.406-4.955-50.13,17.038c-9.028,11.214-21.34,19.235-35.163,22.645  c-2.243,0.561-4.531,0.996-6.854,1.304l-0.664,0.092c-2.529-1.751-5.378-2.735-8.41-2.735c-10.241,0-18.537,11.271-18.537,25.174  c0,13.903,8.296,25.174,18.537,25.174c3.559,0,6.877-1.362,9.703-3.719c3.238,12.884,8.925,24.796,16.557,35.197v0.011  l-31.204,35.895c-17.736-17.736-23.457-54.352-23.457-54.352l-15.448,15.448c-17.164-80.098,26.318-118.786,26.318-118.786h-23.949  c24.03-58.346,87.525-63.495,87.525-63.495L214.538,2.274c56.321-9.166,90.648,11.66,103.75,22.027  c4.062,3.227,6.087,5.435,6.087,5.435l3.433-18.88C385.696,34.084,365.958,108.816,365.637,110.017z"/>
<g>
	<path style="fill:#E2B39F;" d="M246.119,237.03c-10.653-4.955-20.311-11.683-28.584-19.841c-3.913-3.845-7.518-8.021-10.779-12.461   v-0.011c-7.632-10.401-13.319-22.313-16.557-35.197c-2.826,2.357-6.145,3.719-9.703,3.719c-10.241,0-18.537-11.271-18.537-25.174   c0-13.903,8.296-25.174,18.537-25.174c3.032,0,5.882,0.984,8.41,2.735l0.664-0.092c16.592-2.197,31.524-10.916,42.017-23.949   c17.725-21.993,36.513-21.878,50.13-17.038C281.717,84.546,199.971,159.438,246.119,237.03z"/>
	<path style="fill:#E2B39F;" d="M246.291,237.099c0,0,0,0,0,0.011c-8.502,18.148-21.329,52.407-24.956,99.551   c-22.531-6.694-36.021-14.898-36.021-14.898c0.515-6.934,1.35-13.697,2.437-20.253c-30.804,28.755-48.814,76.185-48.814,76.185   c0-68.576,33.893-101.919,59.353-117.298v-0.011c5.996-17.29,13.067-31.982,19.246-43.196   C225.843,225.382,235.569,232.156,246.291,237.099z"/>
</g>
<path style="fill:#1BA545;" d="M221.06,385.006l-3.17-4.783l-25.174,36.616c-20.597-49.203-7.403-95.077-7.403-95.077  s13.491,8.204,36.021,14.898C220.179,351.537,219.95,367.682,221.06,385.006z"/>
<path style="fill:#DB4565;" d="M318.288,24.301L312.864,40c0,0-45.77-12.209-80.865-2.289l23.652,12.964  c0,0-43.299,13.617-59.227,73.553c-2.243,0.561-4.531,0.996-6.854,1.304l-0.664,0.092c-2.529-1.751-5.378-2.735-8.41-2.735  c-10.241,0-18.537,11.271-18.537,25.174c0,13.903,8.296,25.174,18.537,25.174c3.559,0,6.877-1.362,9.703-3.719  c3.238,12.884,8.925,24.796,16.557,35.197v0.011l-31.204,35.895c-17.736-17.736-23.457-54.352-23.457-54.352l-15.448,15.448  c-17.164-80.098,26.318-118.786,26.318-118.786h-23.949c24.029-58.346,87.525-63.495,87.525-63.495L214.538,2.274  C270.858-6.892,305.186,13.934,318.288,24.301z"/>
<path style="fill:#FFFFFF;" d="M279.299,186.067c6.7,0.355,11.357,0.613,15.652,0.59l11.491-0.008l11.479-0.019  c4.291,0.021,8.946-0.227,15.665-0.562c-0.402,6.759-4.247,12.217-9.245,16.076c-5.059,3.83-11.491,5.843-17.899,5.828  c-6.407-0.01-12.834-2.021-17.887-5.856C283.564,198.255,279.721,192.807,279.299,186.067z"/>
<g>
	<path style="fill:#5B5B5B;" d="M283.113,163.386c-3.475,0-6.293-2.817-6.293-6.293v-18.308c0-3.476,2.818-6.293,6.293-6.293   s6.293,2.817,6.293,6.293v18.308C289.407,160.568,286.588,163.386,283.113,163.386z"/>
	<path style="fill:#5B5B5B;" d="M330.028,163.386c-3.475,0-6.293-2.817-6.293-6.293v-18.308c0-3.476,2.818-6.293,6.293-6.293   c3.475,0,6.293,2.817,6.293,6.293v18.308C336.321,160.568,333.503,163.386,330.028,163.386z"/>
</g>
<g>
	<path style="fill:#E2B39F;" d="M257.939,284.681c-3.427,0-6.281-2.867-6.293-6.293c-0.013-3.433,2.879-6.293,6.293-6.293   c3.422,0,6.295,2.863,6.293,6.293C264.232,281.812,261.357,284.681,257.939,284.681z"/>
	<path style="fill:#E2B39F;" d="M299.133,284.681c-3.427,0-6.281-2.867-6.293-6.293c-0.013-3.433,2.879-6.293,6.293-6.293   c3.424,0,6.295,2.863,6.293,6.293C305.425,281.812,302.551,284.681,299.133,284.681z"/>
</g>
<g>
</g>
<g>
</g>
<g>
</g>
<g>
</g>
<g>
</g>
<g>
</g>
<g>
</g>
<g>
</g>
<g>
</g>
<g>
</g>
<g>
</g>
<g>
</g>
<g>
</g>
<g>
</g>
<g>
</g>
</svg>
