<?xml version="1.0" encoding="iso-8859-1"?>
<!-- Generator: Adobe Illustrator 19.0.0, SVG Export Plug-In . SVG Version: 6.00 Build 0)  -->
<svg xmlns="http://www.w3.org/2000/svg" xmlns:xlink="http://www.w3.org/1999/xlink" version="1.1" id="Layer_1" x="0px" y="0px" viewBox="0 0 512 512" style="enable-background:new 0 0 512 512;" xml:space="preserve">
<path style="fill:#CC6611;" d="M388.787,64.084c42.619,0-10.669,161.179-31.671,198.37c-2.627-2.383-6.381-3.882-10.553-3.882  C346.563,258.572,346.179,64.084,388.787,64.084z"/>
<path style="fill:#AF530E;" d="M398.26,68.013c-2.403-2.539-5.525-3.93-9.473-3.93c-42.607,0-42.224,194.488-42.224,194.488  c4.172,0,7.926,1.499,10.553,3.882c2.588-4.584,5.669-11.057,8.998-18.875C366.953,202.627,371.683,90.425,398.26,68.013z"/>
<path style="fill:#CC6611;" d="M291.053,334.148c-0.046,0.372-1.034,8.612-3.324,20.618c-2.58,13.517-6.799,31.81-13.168,49.023  c-5.672,15.4-13.064,29.916-22.524,39.376c0,0-9.065-5.056-21.385-14.051c-10.902-7.938-24.36-18.968-36.343-32.31  c-11.425-12.715-21.525-27.522-26.813-43.758c-3.905-11.983-5.195-24.756-2.464-38.04c0,0,12.459,15.283,34.751,25.139v0.012  C221.598,349.815,252.851,354.29,291.053,334.148z"/>
<g>
	<path style="fill:#FFD0B8;" d="M194.309,396.805c-4.416,7.81-9.193,17.306-13.575,28.231c-7.09,17.615-5.073,54.388-6.978,78.249   c-0.403,5.045-8.712-5.257-8.712,0.005c0,0-13.098-46.745-9.856-95.849c1.069-16.411,3.975-33.077,9.809-48.349   c0.779-2.046,1.615-4.056,2.499-6.044c0.732,2.232,1.546,4.44,2.464,6.625C175.597,373.327,184.453,385.845,194.309,396.805z"/>
	<path style="fill:#FFD0B8;" d="M337.039,503.279c0,0-7.159,8.484-8.717,0c-3.975-21.629-27.626-65.573-48.395-92.746   c-1.801-2.383-3.603-4.637-5.37-6.741c6.369-17.213,10.588-35.506,13.168-49.023l0.546,0.105c0,0,2.255,3.475,5.8,9.658   C306.984,387.114,337.039,445.795,337.039,503.279z"/>
</g>
<path style="fill:#E5B7A3;" d="M294.072,364.532c-2.569,11.518-6.102,24.814-10.797,37.517c-1.058,2.871-2.173,5.707-3.347,8.484  c-1.801-2.383-3.603-4.637-5.37-6.741c6.369-17.213,10.588-35.506,13.168-49.023l0.546,0.105  C288.272,354.873,290.527,358.348,294.072,364.532z"/>
<g>
	<path style="fill:#FFD0B8;" d="M338.044,269.416c0,0-20.99,17.712-56.206,17.712c-3.033-10.832-4.498-21.583-4.986-31.613   C276.852,255.515,308.593,269.416,338.044,269.416z"/>
	<path style="fill:#FFD0B8;" d="M291.05,334.139c0,0,0,0,0,0.012c-38.203,20.141-69.455,15.667-91.27,6.009v-0.012   c-22.292-9.856-34.751-25.139-34.751-25.139h0.012c5.137-25.685,12.959-55.752,19.595-79.683   c-41.05,4.649-74.395,115.445-74.395,115.445c-16.899-90.759,39.818-145.849,62.249-163.677c5.335-4.242,8.728-6.369,8.728-6.369   c10.902,9.681,23.826,17.05,37.912,21.443c13.97,4.37,29.079,5.823,44.537,3.754c6.95-0.93,13.319-2.487,19.13-4.602   c-0.093,0.337-1.976,6.474-3.626,16.318c-1.627,9.705-3.045,23.012-2.324,37.877c0.488,10.03,1.953,20.781,4.986,31.613   C286.645,304.293,294.06,316.682,291.05,334.139z"/>
	<path style="fill:#FFD0B8;" d="M314.24,178.572c-7.729,10.03-18.108,17.864-31.427,22.733c-5.811,2.127-12.192,3.684-19.142,4.614   c-23.535,3.15-46.28-1.871-65.364-12.878c-6.102-3.522-11.832-7.648-17.085-12.32l-0.012-0.012   c-11.832-10.518-21.304-23.768-27.347-38.935c-2.522,2.754-5.683,4.568-9.263,5.056c-10.309,1.371-20.188-8.845-22.071-22.85   c-1.871-13.993,4.963-26.464,15.272-27.835c3.057-0.418,6.067,0.198,8.845,1.616c1.093-20.455,8.229-39.644,19.863-55.52h0.012   c4.533-6.195,9.763-11.89,15.586-16.957c14.737-12.819,33.275-21.618,54.09-24.407c6.125-0.825,11.936-1.058,17.434-0.744   c45.443,2.545,70.176,41.945,76.94,92.456C335.09,126.306,330.581,157.361,314.24,178.572z"/>
</g>
<g>
	<path style="fill:#E5B7A3;" d="M282.798,201.319c-0.093,0.337-1.976,6.474-3.626,16.318c-4.8,1.511-9.972,2.65-15.504,3.394   c-23.535,3.15-46.28-1.871-65.364-12.878c-6.102-3.522-11.832-7.648-17.085-12.32l-0.012-0.012   c-3.068-2.731-5.985-5.648-8.717-8.728c5.335-4.242,8.728-6.369,8.728-6.369c10.902,9.681,23.826,17.05,37.912,21.443   c13.97,4.37,29.079,5.823,44.537,3.754C270.618,204.991,276.987,203.434,282.798,201.319z"/>
	<path style="fill:#E5B7A3;" d="M199.783,340.146c-22.292-9.856-34.751-25.139-34.751-25.139h0.012   c5.137-25.685,12.959-55.752,19.595-79.683c-41.05,4.649-74.395,115.445-74.395,115.445   c-20.92-112.353,70.978-170.046,70.978-170.046c10.902,9.681,23.826,17.05,37.912,21.443   C219.134,202.165,186.255,281.488,199.783,340.146z"/>
	<path style="fill:#E5B7A3;" d="M197.029,189.601c0.453,1.174,0.883,2.313,1.278,3.44c-6.102-3.522-11.832-7.648-17.085-12.32   l-0.012-0.012c-11.832-10.518-21.304-23.768-27.347-38.935c-2.522,2.754-5.683,4.568-9.263,5.056   c-10.309,1.371-20.188-8.845-22.071-22.85c-1.871-13.993,4.963-26.464,15.272-27.835c3.057-0.418,6.067,0.198,8.845,1.616   c1.093-20.455,8.229-39.644,19.863-55.52h0.012c4.533-6.195,9.763-11.89,15.586-16.957c14.737-12.819,33.275-21.618,54.09-24.407   c6.125-0.825,11.936-1.058,17.434-0.744C253.629,0.134,148.982,65.638,197.029,189.601z"/>
</g>
<path style="fill:#FFFFFF;" d="M267.794,61.696c-15.314,0-28.118,10.709-31.356,25.044c3.238,14.335,16.042,25.043,31.356,25.043  c15.314,0,28.118-10.709,31.356-25.043C295.911,72.405,283.107,61.696,267.794,61.696z"/>
<path style="fill:#4D4D4D;" d="M267.792,95.45c-3.785,0-7.252-2.551-8.338-6.182c-1.067-3.569,0.273-7.513,3.326-9.654  c6.556-4.594,15.531,1.714,13.405,9.448C275.162,92.796,271.664,95.45,267.792,95.45z"/>
<path style="fill:#E5B7A3;" d="M194.309,396.805c-4.416,7.81-9.193,17.306-13.575,28.231l-25.546-17.596  c1.069-16.411,3.975-33.077,9.809-48.349l10.817-18.223C181.451,354.525,184.453,385.845,194.309,396.805z"/>
<path style="fill:#FFFFFF;" d="M234.48,141.514c6.529,0.387,12.472,0.957,18.324,1.277c5.824,0.36,11.463,0.472,16.972,0.153  c2.759-0.139,5.481-0.424,8.188-0.832c1.373-0.144,2.689-0.488,4.063-0.693c1.331-0.327,2.708-0.569,4.047-0.957  c5.478-1.318,10.786-3.563,16.879-6.09c-0.693,1.466-1.403,3.003-2.361,4.321c-0.458,0.683-0.953,1.339-1.445,2.013  c-0.513,0.647-1.08,1.239-1.629,1.868c-1.098,1.262-2.383,2.312-3.654,3.422c-1.338,0.991-2.686,2.036-4.16,2.853  c-2.889,1.769-6.06,3.068-9.311,4.014c-3.253,0.963-6.615,1.514-9.964,1.682c-6.71,0.384-13.356-0.678-19.496-2.843  c-3.069-1.097-6.026-2.459-8.807-4.125C239.364,145.882,236.706,143.98,234.48,141.514z"/>
<path style="fill:#AF530E;" d="M230.652,429.115c-10.902-7.938-24.36-18.968-36.343-32.31  c-11.425-12.715-21.525-27.522-26.813-43.758c-3.905-11.983-5.195-24.756-2.464-38.04c0,0,12.459,15.283,34.751,25.139v0.012  C199.783,340.157,203.119,393.585,230.652,429.115z"/>
<g>
	<path style="fill:#FFD0B8;" d="M359.703,512h-22.662c-4.814,0-8.717-3.903-8.717-8.717s3.903-8.717,8.717-8.717h22.662   c4.814,0,8.717,3.903,8.717,8.717S364.518,512,359.703,512z"/>
	<path style="fill:#FFD0B8;" d="M165.039,512h-25.568c-4.814,0-8.717-3.903-8.717-8.717s3.903-8.717,8.717-8.717h25.568   c4.814,0,8.717,3.903,8.717,8.717S169.853,512,165.039,512z"/>
</g>
<g>
	<path style="fill:#AF530E;" d="M203.786,365.509c5.101-0.102,9.741,0.304,14.333,0.607l13.513,1.01l13.528,0.948   c4.592,0.374,9.25,0.672,14.277,1.59c-4.203,2.902-8.898,4.604-13.718,5.7c-4.829,1.055-9.82,1.399-14.76,1.032   c-4.941-0.361-9.835-1.42-14.463-3.178C211.883,371.42,207.483,369.031,203.786,365.509z"/>
	<path style="fill:#AF530E;" d="M193.829,387.246c6.137-0.116,11.887,0.3,17.604,0.606l16.947,1.016l16.965,0.939   c5.721,0.371,11.493,0.665,17.566,1.596c-5.404,2.918-11.211,4.608-17.114,5.702c-5.911,1.051-11.95,1.397-17.952,1.044   c-6.002-0.349-11.969-1.382-17.723-3.129C204.383,393.231,198.808,390.84,193.829,387.246z"/>
</g>
<path style="fill:#E5B7A3;" d="M252.812,316.868c-1.069,0-2.115-0.43-2.871-1.185c-0.198-0.186-0.36-0.395-0.511-0.628  c-0.151-0.221-0.267-0.453-0.372-0.697c-0.105-0.244-0.186-0.5-0.232-0.755c-0.058-0.267-0.081-0.535-0.081-0.802  s0.023-0.535,0.081-0.79c0.046-0.256,0.128-0.511,0.232-0.767c0.105-0.244,0.221-0.477,0.372-0.697s0.314-0.43,0.511-0.616  c0.186-0.186,0.395-0.36,0.616-0.511c0.221-0.139,0.453-0.267,0.697-0.372c0.244-0.105,0.5-0.174,0.767-0.232  c1.313-0.267,2.72,0.163,3.661,1.116c0.767,0.755,1.197,1.801,1.197,2.871s-0.43,2.115-1.197,2.882  C254.928,316.438,253.882,316.868,252.812,316.868z"/>
<g>
	<path style="fill:#E8A38B;" d="M209.994,251.667c-0.372,0-0.755-0.035-1.139-0.116c-0.36-0.07-0.732-0.186-1.081-0.325   c-0.349-0.151-0.686-0.325-1-0.535c-0.325-0.221-0.616-0.453-0.883-0.732c-0.267-0.267-0.511-0.558-0.732-0.883   c-0.209-0.314-0.384-0.651-0.535-1c-0.139-0.349-0.256-0.709-0.325-1.081c-0.07-0.384-0.116-0.755-0.116-1.139   c0-0.384,0.046-0.755,0.116-1.139c0.07-0.372,0.186-0.732,0.325-1.081c0.151-0.349,0.325-0.697,0.535-1.011   c0.221-0.314,0.465-0.616,0.732-0.883c0.267-0.267,0.558-0.511,0.883-0.721c0.314-0.209,0.651-0.384,1-0.535   c0.349-0.139,0.721-0.256,1.081-0.325c0.755-0.151,1.523-0.151,2.278,0c0.372,0.07,0.732,0.186,1.081,0.325   c0.36,0.151,0.697,0.325,1.011,0.535c0.314,0.209,0.616,0.453,0.883,0.721c1.081,1.081,1.697,2.58,1.697,4.114   c0,0.384-0.035,0.755-0.116,1.139c-0.07,0.372-0.186,0.732-0.325,1.081c-0.151,0.349-0.325,0.686-0.535,1   c-0.209,0.325-0.453,0.616-0.721,0.883c-0.267,0.279-0.569,0.511-0.883,0.732c-0.314,0.209-0.651,0.384-1.011,0.535   c-0.349,0.139-0.709,0.256-1.081,0.325C210.763,251.631,210.379,251.667,209.994,251.667z"/>
	<path style="fill:#E8A38B;" d="M264.399,251.667c-1.523,0-3.022-0.616-4.103-1.708c-1.081-1.081-1.708-2.569-1.708-4.103   c0-0.384,0.046-0.755,0.116-1.139c0.081-0.372,0.186-0.732,0.337-1.081c0.139-0.349,0.325-0.686,0.535-1.011   c0.209-0.314,0.453-0.616,0.721-0.883c1.348-1.348,3.359-1.964,5.242-1.581c0.372,0.07,0.744,0.186,1.092,0.325   c0.349,0.151,0.686,0.325,1,0.535s0.616,0.453,0.883,0.721c0.267,0.267,0.511,0.57,0.721,0.883   c0.209,0.325,0.395,0.662,0.535,1.011c0.151,0.349,0.256,0.709,0.337,1.081c0.07,0.384,0.105,0.755,0.105,1.139   c0,1.534-0.616,3.022-1.697,4.103c-0.267,0.279-0.569,0.511-0.883,0.732c-0.314,0.209-0.651,0.384-1,0.535   c-0.349,0.139-0.721,0.256-1.092,0.325C265.167,251.631,264.783,251.667,264.399,251.667z"/>
</g>
<ellipse style="fill:#FFD0B8;" cx="346.566" cy="270.58" rx="14.334" ry="12.009"/>
<ellipse style="fill:#E5B7A3;" cx="124.091" cy="346.869" rx="14.334" ry="12.009"/>
<g>
</g>
<g>
</g>
<g>
</g>
<g>
</g>
<g>
</g>
<g>
</g>
<g>
</g>
<g>
</g>
<g>
</g>
<g>
</g>
<g>
</g>
<g>
</g>
<g>
</g>
<g>
</g>
<g>
</g>
</svg>
