<?xml version="1.0" encoding="iso-8859-1"?>
<!-- Generator: Adobe Illustrator 19.0.0, SVG Export Plug-In . SVG Version: 6.00 Build 0)  -->
<svg xmlns="http://www.w3.org/2000/svg" xmlns:xlink="http://www.w3.org/1999/xlink" version="1.1" id="Layer_1" x="0px" y="0px" viewBox="0 0 512.001 512.001" style="enable-background:new 0 0 512.001 512.001;" xml:space="preserve">
<path style="fill:#26BC62;" d="M190.861,451.329h-25.62c-11.672,0-21.794,6.583-26.86,16.233c0,0-16.647-8.203-31.375-22.552  c-16.865-16.417-31.215-40.876-15.28-70.299c29.87-55.145-21.828-111.439-21.828-111.439s75.767,36.821,56.294,109.142  c-2.872,10.673-2.045,19.565,1.448,26.975c5.595,11.879,18.049,19.956,33.122,25.413c0.85,6.859,4.01,13.005,8.651,17.646  C174.903,447.94,182.486,451.329,190.861,451.329z"/>
<path style="fill:#1D994F;" d="M190.861,451.329h-25.62c-11.672,0-21.794,6.583-26.86,16.233c0,0-16.647-8.203-31.375-22.552  c23.69-15.613,23.081-35.327,20.634-45.621c5.595,11.879,18.049,19.956,33.122,25.413c0.85,6.859,4.01,13.005,8.651,17.646  C174.903,447.94,182.486,451.329,190.861,451.329z"/>
<g>
	<path style="fill:#35A09D;" d="M426.101,122.275c0,0,3.798,22.211-23.008,28.339c-26.806,6.127-25.275-58.209-25.275-58.209   l38.295-7.659"/>
	<path style="fill:#35A09D;" d="M146.653,168.434c-9.28,16.81-15.08,51.127-30.009,60.303   c-17.894,10.998-46.583-5.682-78.857-18.277C37.787,210.459,59.282,156.612,146.653,168.434z"/>
</g>
<path style="fill:#FFD0B8;" d="M413.613,155.268c0,45.84-15.774,84.637-51.928,97.619c-8.387,3.01-17.865,4.63-28.492,4.63  c-15.762,0-30.686-3.561-44.013-9.938c-7.605-3.63-14.694-8.168-21.116-13.488c-10.661-8.823-19.508-19.772-25.884-32.191  c-3.493-6.801-6.238-14.062-8.145-21.645c-2.838,2.367-6.169,3.734-9.742,3.734c-10.282,0-18.623-11.316-18.623-25.275  s8.341-25.275,18.623-25.275c3.033,0,5.905,0.988,8.444,2.746c1.999-10.615,5.652-20.657,10.661-29.836  c16.44-1.206,29.87-3.826,40.842-7.295c47.551-15.05,83.212-46.035,83.212-46.035c25.734,37.866,28.371,43.157,42.393,57.179  l-1.448,3.033C411.924,126.052,413.613,140.287,413.613,155.268z"/>
<path style="fill:#E2B39F;" d="M289.18,247.579c-7.605-3.63-14.694-8.168-21.116-13.488c-10.661-8.823-19.508-19.772-25.884-32.191  c-3.493-6.801-15.511,0.867-17.418-6.715c-2.838,2.367,0,3.107-3.573,3.107c-10.282,0-21.254-15.337-21.254-29.296  s-3.016-34.226-13.212-35.556c-31.25-4.08,25.959-16.528,28.497-14.77c1.999-10.615,14.746-19.766,19.755-28.946  c16.44-1.206,38.293,12.798,49.264,9.33C284.24,99.054,237.344,154.912,289.18,247.579z"/>
<path style="fill:#52CBCE;" d="M426.101,122.275c0,0-46.721-17.584-58.649-69.257c0,0-36.384,46.931-124.054,53.33  c-2.206,4.033-4.136,8.237-5.79,12.58c-2.114,5.538-3.745,11.305-4.871,17.256c-2.539-1.758-5.411-2.746-8.444-2.746  c-10.282,0-18.623,11.316-18.623,25.275s8.341,25.275,18.623,25.275c3.573,0,6.905-1.367,9.742-3.734  c1.907,7.582,4.653,14.843,8.145,21.645c-8.685,10.88-17.646,19.714-26.722,26.78c-19.726-12.362-39.578-30.629-47.781-56.467  c0,0,0.161,36.913,20.944,72.447c-75.572,32.306-150.834-34.202-150.834-34.202c59.201,23.104,88.462-5.066,108.866-42.025  c12.075-21.84,21.047-46.759,31.295-65.968c12.143-22.77,30.318-48.011,54.019-67.725v-0.011  c30.089-25.045,69.092-41.21,116.012-32.214C431.846,18.6,426.101,122.275,426.101,122.275z"/>
<path style="fill:#FFD0B8;" d="M473.135,213.893c-0.184,0.735-6.296,24.597-24.08,49.286  c-17.773,24.677-47.218,50.159-94.046,54.134c-0.161,14.694,0.678,30.606,3.355,46.288l-27.711-18.428  c-7.594-5.044-17.509-4.894-24.942,0.379l-13.292,9.444c-6.215,4.4-14.246,5.285-21.265,2.344l-37.671-15.808l-0.034-0.011  c4.389-14.016,8.938-29.767,12.672-45.357c-16.555-7.295-29.618-17.084-39.934-27.963c-7.077-7.479-12.844-15.475-17.566-23.54  c-20.783-35.534-20.944-72.447-20.944-72.447c6.916,21.805,22.139,38.211,38.567,50.228c3.044,2.229,6.135,4.308,9.214,6.238  c12.258,7.697,24.448,13.109,33.776,16.635c4.63,1.758,9.49,0.885,13.143-1.735c2.976-2.148,5.147-5.469,5.687-9.49  c6.411,5.308,13.488,9.846,21.07,13.465c0.034,0.011,0.046,0.023,0.046,0.023c13.327,6.376,28.25,9.938,44.013,9.938  c10.627,0,20.105-1.62,28.492-4.63c0,0-1.149,5.204-2.493,13.97c0,0,1.597,0,4.423-0.149  C381.065,265.787,445.447,259.342,473.135,213.893z"/>
<path style="fill:#E2B39F;" d="M363.614,266.706c-0.632,0.264-1.275,0.505-1.93,0.735c-8.387,3.01-17.865,4.63-28.492,4.63  c-15.762,0-30.686-3.561-44.013-9.938c-7.605-3.63-14.694-8.168-21.116-13.488c-1.953-1.62-3.86-3.309-5.687-5.066  c2.976-2.148,5.147-5.469,5.687-9.49c6.411,5.308,13.488,9.846,21.07,13.465c0.034,0.011,0.046,0.023,0.046,0.023  c13.327,6.376,28.25,9.938,44.013,9.938c10.627,0,20.105-1.62,28.492-4.63c0,0-1.149,5.204-2.493,13.97  C359.191,266.856,360.788,266.856,363.614,266.706z"/>
<path style="fill:#5AE090;" d="M365.154,390.658H216.951v-1.011c0,0,7.939-20.748,16.498-48.126l0.034,0.011l37.671,15.808  c7.02,2.941,15.05,2.056,21.265-2.344l13.292-9.444c7.433-5.273,17.348-5.423,24.942-0.379l27.71,18.428  C359.939,372.805,362.144,381.927,365.154,390.658z"/>
<path style="fill:#E2B39F;" d="M289.18,247.579c0,0-10.133,9.375-16.521,31.732c-2.608,9.11-4.595,20.381-5.021,34.064  c-0.391,12.569,0.54,27.159,3.516,43.967l-37.671-15.808l-0.034-0.012c4.389-14.016,8.938-29.767,12.672-45.357  c-16.555-7.295-29.618-17.084-39.934-27.963c3.895-13.488,5.377-29.422,0.057-45.759c3.044,2.229,6.135,4.308,9.214,6.238  c12.258,7.697,24.448,13.109,33.777,16.635c8.421,3.194,17.624-2.298,18.83-11.224c6.411,5.308,13.488,9.846,21.07,13.465  C289.169,247.567,289.18,247.579,289.18,247.579z"/>
<path style="fill:#26BC62;" d="M399.276,420.999c0,0.62-0.023,1.241-0.057,1.85c-8.938-3.929-16.107-8.674-33.466-8.674  c-29.572,0-29.572,13.786-59.143,13.786s-29.572-13.786-59.143-13.786c-18.841,0-25.677,5.595-35.799,9.65  c-5.767,2.321-12.614,4.136-23.356,4.136c-17.371,0-24.54-4.756-33.489-8.685c0.896-15.946,14.119-28.618,30.295-28.618h183.818  c8.375,0,15.969,3.401,21.461,8.892C395.875,405.042,399.276,412.624,399.276,420.999z"/>
<g>
	<path style="fill:#5AE090;" d="M424.102,488.552c-3.113,13.442-15.153,23.448-29.537,23.448H159.497   c-8.375,0-15.969-3.401-21.461-8.881c-5.48-5.492-8.881-13.074-8.881-21.449c0-2.367,0.276-4.676,0.793-6.882   c28.79,0.241,29.055,13.775,58.362,13.775c1.907,0,3.699-0.057,5.377-0.161c24.321-1.562,26.102-13.625,53.778-13.625   c29.572,0,29.572,13.786,59.143,13.786c29.572,0,29.572-13.786,59.143-13.786C395.059,474.778,395.323,488.311,424.102,488.552z"/>
	<path style="fill:#5AE090;" d="M399.218,422.849c-0.954,15.889-14.142,28.48-30.284,28.48H185.116   c-8.375,0-15.958-3.389-21.449-8.881c-4.641-4.641-7.801-10.788-8.651-17.646c-0.161-1.241-0.241-2.516-0.241-3.803   c0-0.574,0.011-1.149,0.046-1.723c8.95,3.929,16.119,8.685,33.489,8.685c10.742,0,17.589-1.815,23.356-4.136   c10.121-4.055,16.957-9.65,35.798-9.65c29.572,0,29.572,13.786,59.143,13.786c29.572,0,29.572-13.786,59.143-13.786   C383.111,414.175,390.28,418.92,399.218,422.849z"/>
</g>
<path style="fill:#43B5B5;" d="M242.18,201.9c-8.685,10.88-17.646,19.714-26.722,26.78c-19.726-12.362-39.578-30.629-47.781-56.467  c0,0,0.161,36.913,20.944,72.447c-75.572,32.306-150.834-34.202-150.834-34.202c59.201,23.104,88.462-5.066,108.866-42.025  c12.075-21.84,21.047-46.759,31.295-65.968c12.143-22.77,30.318-48.011,54.019-67.725c0,0-18.52,42.094,5.641,84.188  c-2.114,5.538-3.745,11.305-4.871,17.256c-2.539-1.758-5.411-2.746-8.444-2.746c-10.282,0-18.623,11.316-18.623,25.275  s8.341,25.275,18.623,25.275c3.573,0,6.905-1.367,9.742-3.734C235.942,187.838,238.688,195.099,242.18,201.9z"/>
<g>
	<path style="fill:#26BC62;" d="M424.895,481.671c0,2.367-0.276,4.676-0.793,6.882c-28.779-0.241-29.043-13.775-58.351-13.775   c-29.572,0-29.572,13.786-59.143,13.786s-29.572-13.786-59.143-13.786c-27.676,0-29.457,12.063-53.778,13.625   c-1.677,0.103-3.47,0.161-5.377,0.161c-29.307,0-29.572-13.534-58.362-13.775c0.586-2.55,1.494-4.975,2.688-7.226   c5.066-9.65,15.188-16.233,26.86-16.233h235.068c8.375,0,15.958,3.389,21.449,8.881   C421.495,465.702,424.895,473.284,424.895,481.671z"/>
	<path style="fill:#26BC62;" d="M228.44,451.329h-43.324c-8.375,0-15.958-3.389-21.449-8.881   c-4.641-4.641-7.801-10.788-8.651-17.646c-0.161-1.241-0.241-2.516-0.241-3.803c0-0.574,0.011-1.149,0.046-1.723   c0.896-15.946,14.119-28.618,30.295-28.618h43.324c0,0-18.221,14.074-16.773,33.168C212.31,432.27,216.814,441.702,228.44,451.329z   "/>
</g>
<path style="fill:#1EA856;" d="M211.667,423.826c-5.767,2.321-12.614,4.136-23.356,4.136c-17.371,0-24.54-4.756-33.489-8.685  c0.896-15.946,14.119-28.618,30.295-28.618h43.324C228.44,390.658,210.219,404.732,211.667,423.826z"/>
<g>
	<path style="fill:#26BC62;" d="M271.522,390.658h-54.571v-1.011c0,0,7.939-20.748,16.498-48.126l0.034,0.011l37.671,15.808   L271.522,390.658z"/>
	<path style="fill:#26BC62;" d="M193.687,488.402c1.39,7.18,4.906,15.131,11.776,23.598h-45.966c-8.375,0-15.969-3.401-21.461-8.881   c-5.48-5.492-8.881-13.074-8.881-21.449c0-2.367,0.276-4.676,0.793-6.882c0.586-2.55,1.494-4.975,2.688-7.226   c5.066-9.65,15.188-16.233,26.86-16.233h45.966C205.463,451.329,189.367,466.161,193.687,488.402z"/>
</g>
<path style="fill:#1EA856;" d="M193.687,488.402c-1.677,0.103-3.47,0.161-5.377,0.161c-29.307,0-29.572-13.534-58.362-13.775  c0.586-2.55,1.494-4.975,2.688-7.226c5.066-9.65,15.188-16.233,26.86-16.233h45.966  C205.463,451.329,189.367,466.161,193.687,488.402z"/>
<g>
	<path style="fill:#A87D6D;" d="M323.834,157.403c-3.806,0-6.893-3.086-6.893-6.893v-20.678c0-3.807,3.087-6.893,6.893-6.893   c3.806,0,6.893,3.086,6.893,6.893v20.678C330.728,154.316,327.642,157.403,323.834,157.403z"/>
	<path style="fill:#A87D6D;" d="M382.423,157.403c-3.806,0-6.893-3.086-6.893-6.893v-20.678c0-3.807,3.087-6.893,6.893-6.893   s6.893,3.086,6.893,6.893v20.678C389.316,154.316,386.23,157.403,382.423,157.403z"/>
</g>
<path style="fill:#4D4D4D;" d="M321.206,186.309c0,17.344,14.06,31.404,31.404,31.404s31.404-14.061,31.404-31.404H321.206z"/>
<path style="fill:#FFFFFF;" d="M384.019,186.31c0,5.871-1.608,11.374-4.423,16.073h-53.962c-2.815-4.699-4.423-10.202-4.423-16.073  H384.019z"/>
<g>
	<path style="fill:#FFD0B8;" d="M185.8,174.184c-1.688-0.02-3.352,0.022-4.985,0.148c-0.442,0.031-0.878,0.078-1.315,0.118   c0.039-0.387,0.079-0.774,0.097-1.16c0.094-0.766,0.19-1.527,0.258-2.291c0.389-3.041,0.999-5.974,1.816-8.892   c0.192-0.738,0.371-1.49,0.656-2.195c0.265-0.716,0.449-1.492,0.724-2.23c0.317-0.71,0.611-1.451,0.886-2.228   c0.13-0.395,0.293-0.769,0.487-1.127l0.53-1.133c0.645-1.59,1.541-3.062,2.38-4.741c0.393-0.872,0.935-1.612,1.413-2.472   c0.494-0.842,0.975-1.75,1.46-2.719c-4.137,0.302-8.228,1.7-11.675,4.192c-3.547,2.38-6.496,5.781-8.575,9.63   c-2.113,3.845-3.373,8.136-3.774,12.431c-0.063,1.075-0.138,2.152-0.145,3.226c0.033,1.076,0.039,2.147,0.161,3.218   c0.11,1.068,0.248,2.137,0.47,3.204c0.086,0.527,0.232,1.079,0.363,1.613l0.221,0.834l0.284,0.962l0.377,1.278   c0.111,0.369,0.267,0.732,0.466,1.081c1.425,2.488,4.595,3.351,7.084,1.927c1.381-0.79,2.754-1.605,4.099-2.493   c1.35-0.873,2.678-1.808,3.982-2.803c1.309-0.986,2.584-2.055,3.837-3.186c1.25-1.14,2.464-2.371,3.62-3.761   C189.217,174.332,187.491,174.213,185.8,174.184z"/>
	<path style="fill:#FFD0B8;" d="M453.718,211.466c1.646,0.375,3.255,0.803,4.814,1.305c0.423,0.133,0.835,0.28,1.252,0.422   c0.053-0.386,0.103-0.772,0.176-1.151c0.087-0.766,0.171-1.529,0.283-2.289c0.33-3.048,0.42-6.042,0.306-9.07   c-0.015-0.763-0.014-1.536-0.126-2.289c-0.091-0.757-0.09-1.557-0.184-2.338c-0.142-0.765-0.256-1.553-0.342-2.374   c-0.034-0.414-0.107-0.816-0.211-1.209l-0.25-1.225c-0.256-1.697-0.786-3.336-1.21-5.165c-0.178-0.94-0.534-1.785-0.798-2.733   c-0.284-0.934-0.54-1.929-0.786-2.985c3.953,1.257,7.605,3.571,10.377,6.798c2.894,3.142,4.97,7.136,6.095,11.362   c1.159,4.231,1.384,8.699,0.773,12.968c-0.188,1.06-0.368,2.124-0.61,3.171c-0.284,1.039-0.539,2.078-0.905,3.093   c-0.356,1.013-0.739,2.02-1.204,3.007c-0.207,0.492-0.477,0.995-0.728,1.484l-0.409,0.759l-0.5,0.869l-0.664,1.155   c-0.194,0.333-0.43,0.649-0.705,0.942c-1.965,2.089-5.25,2.189-7.338,0.224c-1.159-1.09-2.305-2.202-3.405-3.38   c-1.11-1.164-2.183-2.382-3.219-3.653c-1.042-1.264-2.035-2.601-2.989-3.992c-0.95-1.399-1.845-2.88-2.645-4.501   C450.361,210.814,452.067,211.099,453.718,211.466z"/>
</g>
<g>
	
		<rect x="287.284" y="304.462" transform="matrix(-0.9945 -0.1046 0.1046 -0.9945 577.8818 649.5707)" style="fill:#1EA856;" width="37.38" height="10.34"/>
	<path style="fill:#1EA856;" d="M273.48,312.135l-32.034-3.368c-2.84-0.299-4.9-2.842-4.601-5.682l0,0   c0.299-2.84,2.842-4.9,5.682-4.601l32.034,3.368L273.48,312.135z"/>
</g>
<path style="fill:#26BC62;" d="M279.786,287.001c13.012,2.555,20.225,8.519,17.657,21.53c-2.568,13.011-15.186,21.468-28.185,18.914  c-12.217-2.419-20.438-13.682-19.265-25.834c0.083-0.787,0.192-1.572,0.353-2.363C252.9,286.247,266.789,284.433,279.786,287.001z"/>
<path style="fill:#1EA856;" d="M263.132,302.991c0.083-0.787,0.192-1.572,0.353-2.363c1.815-9.236,9.353-12.821,18.227-13.205  c-0.631-0.148-1.265-0.293-1.927-0.423c-12.997-2.567-26.886-0.753-29.441,12.246c-0.161,0.792-0.27,1.576-0.353,2.363  c-1.173,12.153,7.048,23.415,19.265,25.834c2.979,0.585,5.93,0.568,8.753,0.074C268.271,323.574,262.106,313.623,263.132,302.991z"/>
<path style="fill:#26BC62;" d="M344.34,293.788c13.012,2.555,20.225,8.519,17.657,21.53c-2.569,13.011-15.186,21.468-28.185,18.914  c-12.217-2.419-20.438-13.682-19.265-25.834c0.083-0.787,0.192-1.572,0.353-2.363C317.455,293.036,331.343,291.222,344.34,293.788z"/>
<path style="fill:#1EA856;" d="M327.688,309.779c0.083-0.787,0.192-1.572,0.353-2.363c1.815-9.236,9.353-12.821,18.227-13.205  c-0.631-0.148-1.265-0.293-1.927-0.423c-12.997-2.567-26.886-0.753-29.441,12.246c-0.161,0.792-0.27,1.576-0.353,2.363  c-1.174,12.153,7.048,23.415,19.265,25.834c2.979,0.585,5.93,0.568,8.753,0.074C332.825,330.362,326.661,320.412,327.688,309.779z"/>
<g>
</g>
<g>
</g>
<g>
</g>
<g>
</g>
<g>
</g>
<g>
</g>
<g>
</g>
<g>
</g>
<g>
</g>
<g>
</g>
<g>
</g>
<g>
</g>
<g>
</g>
<g>
</g>
<g>
</g>
</svg>
