<?xml version="1.0" encoding="iso-8859-1"?>
<!-- Generator: Adobe Illustrator 19.0.0, SVG Export Plug-In . SVG Version: 6.00 Build 0)  -->
<svg xmlns="http://www.w3.org/2000/svg" xmlns:xlink="http://www.w3.org/1999/xlink" version="1.1" id="Layer_1" x="0px" y="0px" viewBox="0 0 512 512" style="enable-background:new 0 0 512 512;" xml:space="preserve">
<path style="fill:#24BC57;" d="M390.57,379.591c-3.887,0-7.326-2.794-8.011-6.753c-8.753-50.571-41.451-62.903-42.84-63.403  c-4.249-1.467-6.479-6.093-5.011-10.342c1.467-4.249,6.127-6.495,10.377-5.028c1.752,0.606,43.048,15.518,53.515,75.997  c0.767,4.43-2.202,8.642-6.631,9.409C391.498,379.551,391.03,379.591,390.57,379.591z"/>
<g>
	<path style="fill:#F26D53;" d="M283.139,512c-0.168,0-0.339-0.004-0.509-0.015l-17.59-1.085c-4.292-0.265-7.639-3.824-7.639-8.125   v-28.379c0-4.495,3.645-8.14,8.14-8.14c4.497,0,8.14,3.645,8.14,8.14v20.726l9.951,0.613c4.487,0.277,7.9,4.138,7.622,8.626   C290.99,508.676,287.405,512,283.139,512z"/>
	<path style="fill:#F26D53;" d="M328.715,512h-14.109c-4.167,0-7.66-3.145-8.095-7.289l-2.993-28.481   c-0.47-4.47,2.774-8.476,7.245-8.946c4.475-0.467,8.476,2.774,8.946,7.245l2.227,21.191h6.78c4.496,0,8.14,3.645,8.14,8.14   S333.212,512,328.715,512z"/>
</g>
<path style="fill:#24BC57;" d="M380.812,451.764c-47.451,28.099-103.171,26.742-141.939,20.513  c-28.62-4.591-47.993-11.83-47.993-11.83l34.296-186.514c10.235,7.174,22.488,12.21,34.188,15.737  c22.672,6.827,43.305,7.977,43.305,7.977l6.479-41.21l20.111,35.783l11.439-11.743L380.812,451.764z"/>
<path style="fill:#FFD0B8;" d="M364.185,162.371c0,31.778-8.031,59.975-25.798,77.579c-7.814,7.738-17.517,13.436-29.239,16.475  c-6.371,1.661-13.339,2.54-20.936,2.54c-12.373,0-24.214-2.323-35.089-6.577c-8.607-3.354-16.606-7.912-23.812-13.469  c-16.942-13.035-29.423-31.572-34.785-52.942c-2.681,2.236-5.828,3.527-9.204,3.527c-9.714,0-17.582-10.69-17.582-23.877v-42.718  l25.559,21.446c1.27-6.729,3.234-13.208,5.828-19.373c0,0,0,0,0.011-0.011c0.488-0.358,28.848-21.772,77.221-25.961  c21.934-1.91,47.993-0.271,77.438,8.466C360.874,123.062,364.185,141.979,364.185,162.371z"/>
<g>
	<path style="fill:#F26D53;" d="M353.809,107.476h-0.011c-51.52-15.292-92.687-8.824-119.549,0.293   c-22.336,7.565-34.785,16.964-35.11,17.202c-0.011,0.011-0.011,0.011-0.011,0.011l-19.644-33.851   c11.928-14.533,25.722-24.941,40.222-32.278c36.597-18.537,77.655-17.495,104.333-13.784c17.376,2.399,28.653,5.937,28.653,5.937   L353.809,107.476z"/>
	<path style="fill:#F26D53;" d="M340.693,280.473l-11.439,11.743l-20.111-35.783v-0.011c11.722-3.039,21.424-8.737,29.239-16.475   l11.494,31.105L340.693,280.473z"/>
</g>
<path style="fill:#24BC57;" d="M324.038,45.059v0.011c-26.677-3.712-67.735-4.754-104.333,13.784  c-14.5,7.337-28.294,17.745-40.222,32.278l19.644,33.851c-2.594,6.165-4.558,12.644-5.828,19.373L167.74,122.91v13.024  l-38.724,16.28c0,0,13.024-130.239,85.741-148.69c7.955-2.019,15.477-3.104,22.575-3.419  C295.038-2.523,324.038,45.059,324.038,45.059z"/>
<path style="fill:#E2B39F;" d="M253.123,252.389c-8.607-3.354-16.606-7.912-23.812-13.469  c-16.942-13.035-29.423-31.572-34.785-52.942c-2.681,2.236-5.828,3.527-9.204,3.527c-9.714,0-17.582-10.69-17.582-23.877V122.91  l25.559,21.446c1.27-6.729,3.234-13.208,5.828-19.373c0,0,0,0,0.011-0.011c0.488-0.358,28.848-21.772,77.221-25.961  C276.36,99.011,190.543,159.377,253.123,252.389z"/>
<path style="fill:#F26D53;" d="M309.142,256.422v0.011l-6.479,41.21c0,0-47.429-2.637-77.492-23.714  c-3.365-2.344-6.501-4.927-9.334-7.76l13.469-27.253c16.302,12.579,36.727,20.046,58.901,20.046  C295.804,258.962,302.771,258.083,309.142,256.422z"/>
<path style="fill:#1AA344;" d="M219.706,58.854c-14.5,7.337-28.294,17.745-40.222,32.278l19.644,33.851  c-2.594,6.165-4.558,12.644-5.828,19.373L167.74,122.91v13.024l-38.724,16.28c0,0,13.024-130.239,85.741-148.69  c7.955-2.019,15.477-3.104,22.575-3.419C230.83,4.913,202.905,28.009,219.706,58.854z"/>
<path style="fill:#F26D53;" d="M129.558,143.688c8.987,0,16.28,7.293,16.28,16.28s-7.293,16.28-16.28,16.28  s-16.28-7.293-16.28-16.28S120.572,143.688,129.558,143.688z"/>
<path style="fill:#D8503F;" d="M234.249,107.769c-22.336,7.565-34.785,16.964-35.11,17.202c-0.011,0.011-0.011,0.011-0.011,0.011  l-19.644-33.851c11.928-14.533,25.722-24.941,40.222-32.278L234.249,107.769z"/>
<path style="fill:#FFFFFF;" d="M291.061,199.06c4.704,0.335,8.258,0.61,11.625,0.582c3.328,0,6.327-0.137,9.331-0.422  c3.001-0.295,5.97-0.721,9.236-1.345c3.309-0.602,6.75-1.528,11.32-2.725c-0.363,4.741-3.012,8.79-6.529,11.791  c-3.554,2.988-8.123,4.811-12.807,5.243c-4.683,0.434-9.507-0.503-13.555-2.777C295.669,207.113,292.312,203.637,291.061,199.06z"/>
<g>
	<path style="fill:#666666;" d="M287.473,169.036c-4.497,0-8.14-3.645-8.14-8.14v-11.939c0-4.495,3.643-8.14,8.14-8.14   s8.14,3.645,8.14,8.14v11.939C295.613,165.392,291.969,169.036,287.473,169.036z"/>
	<path style="fill:#666666;" d="M333.056,169.036c-4.497,0-8.14-3.645-8.14-8.14v-11.939c0-4.495,3.643-8.14,8.14-8.14   s8.14,3.645,8.14,8.14v11.939C341.196,165.392,337.553,169.036,333.056,169.036z"/>
</g>
<path style="fill:#1AA344;" d="M259.364,289.669l-20.491,182.606c-28.62-4.591-47.993-11.83-47.993-11.83l34.296-186.514  C235.41,281.107,247.664,286.142,259.364,289.669z"/>
<path style="fill:#EFCA54;" d="M340.241,406.709L340.241,406.709c0.204,2.656-1.783,4.974-4.439,5.179l-33.124,2.557  c-2.656,0.205-4.975-1.781-5.181-4.437l-0.084-1.074l-2.084-26.97l-0.356-4.566c-0.222-2.848,2.065-5.264,4.922-5.198l33.385,0.776  c2.477,0.058,4.507,1.982,4.698,4.452l0.114,1.475L340.241,406.709z"/>
<g>
	<polygon style="fill:#F26D53;" points="361.904,371.045 368.698,400.034 368.688,400.034 341.153,406.633 340.241,406.709    338.092,378.903  "/>
	<path style="fill:#F26D53;" d="M295.33,381.963l2.084,26.97l-2.822,0.217c0,0-63.872,5.709-89.767-7.977l-2.952-0.543l4.732-25.711   c26.916,12.557,87.987,7.098,87.987,7.098L295.33,381.963z"/>
</g>
<g>
	<path style="fill:#EFCA54;" d="M312.436,324.242c-3.445,0-6.24-3.053-5.945-6.48c0.273-3.181,3.129-5.669,6.33-5.451   c3.088,0.211,5.588,2.848,5.585,5.952C318.402,321.511,315.683,324.242,312.436,324.242z"/>
	<path style="fill:#EFCA54;" d="M315.692,351.376c-3.248,0-5.97-2.734-5.969-5.98c0.001-3.249,2.725-5.958,5.969-5.958   c3.243,0,5.968,2.712,5.969,5.958C321.663,348.639,318.939,351.376,315.692,351.376z"/>
	<path style="fill:#EFCA54;" d="M323.289,446.875c-3.181,0-5.852-2.586-5.963-5.766c-0.11-3.164,2.399-5.96,5.566-6.155   c3.248-0.201,6.133,2.314,6.351,5.569C329.473,443.914,326.68,446.875,323.289,446.875z"/>
</g>
<path style="fill:#24BC57;" d="M172.153,403.751c-0.303,0-0.608-0.016-0.915-0.051c-4.467-0.499-7.684-4.527-7.185-8.995  c2.849-25.46,12.152-60.431,40.299-82.454c17.261-13.507,33.526-15.642,34.21-15.726c4.468-0.546,8.525,2.622,9.074,7.083  c0.548,4.449-2.602,8.5-7.043,9.069c-2.211,0.302-51.873,7.969-60.362,83.838C179.768,400.677,176.244,403.751,172.153,403.751z"/>
<g>
</g>
<g>
</g>
<g>
</g>
<g>
</g>
<g>
</g>
<g>
</g>
<g>
</g>
<g>
</g>
<g>
</g>
<g>
</g>
<g>
</g>
<g>
</g>
<g>
</g>
<g>
</g>
<g>
</g>
</svg>
