<?xml version="1.0" encoding="iso-8859-1"?>
<!-- Generator: Adobe Illustrator 19.0.0, SVG Export Plug-In . SVG Version: 6.00 Build 0)  -->
<svg xmlns="http://www.w3.org/2000/svg" xmlns:xlink="http://www.w3.org/1999/xlink" version="1.1" id="Layer_1" x="0px" y="0px" viewBox="0 0 512 512" style="enable-background:new 0 0 512 512;" xml:space="preserve">
<path style="fill:#4D4D4D;" d="M345.358,18.104v32.582L316.39,29.693l-28.979,20.993l-28.968-20.993l-23.602,17.1l-5.376,3.893  l-28.968-20.993V18.104C200.496,8.109,208.605,0,218.6,0h108.666C337.26,0,345.358,8.109,345.358,18.104z"/>
<path style="fill:#333333;" d="M234.841,0v46.792l-5.376,3.893l-28.968-20.993V18.104C200.496,8.109,208.605,0,218.6,0H234.841z"/>
<path style="fill:#EFF9B4;" d="M345.358,50.685v141.17c0,11.89-9.638,21.528-21.516,21.528H289.62v52.632l-89.123-25.727v-63.506  c-2.387,0.714-4.907,1.093-7.518,1.093c-15.449,0-27.796-13.296-26.201-29.069c1.182-11.779,10.341-21.462,22.03-23.279  c4.105-0.647,8.064-0.313,11.689,0.769V29.69l28.968,20.993l5.376-3.893l23.602-17.1l28.968,20.993l28.979-20.99L345.358,50.685z"/>
<path style="fill:#D5DB9A;" d="M234.841,46.792v193.497l-34.344,20.962v-84.467c-2.387,0.714-4.907,1.093-7.518,1.093  c-15.449,0-27.796-13.296-26.201-29.068c1.182-11.779,10.341-21.462,22.03-23.279c4.105-0.647,8.064-0.313,11.689,0.769V29.693  l28.968,20.993L234.841,46.792z"/>
<g>
	<path style="fill:#666666;" d="M281.747,137.25c-3.466,0-6.275-2.809-6.275-6.275v-14.892c0-3.466,2.809-6.275,6.275-6.275   c3.466,0,6.275,2.809,6.275,6.275v14.892C288.022,134.439,285.212,137.25,281.747,137.25z"/>
	<path style="fill:#666666;" d="M319.569,137.25c-3.466,0-6.275-2.809-6.275-6.275v-14.892c0-3.466,2.809-6.275,6.275-6.275   c3.466,0,6.275,2.809,6.275,6.275v14.892C325.844,134.439,323.035,137.25,319.569,137.25z"/>
</g>
<g>
	<path style="fill:#D5DB9A;" d="M345.362,122.358h-95.127c-3.466,0-6.275-2.809-6.275-6.275l0,0c0-3.466,2.809-6.275,6.275-6.275   h95.127V122.358z"/>
	<path style="fill:#D5DB9A;" d="M323.608,176.027h-48.823c-3.15,0-5.705-2.555-5.705-5.705s2.555-5.705,5.705-5.705h48.823   c3.15,0,5.705,2.555,5.705,5.705S326.758,176.027,323.608,176.027z"/>
</g>
<polygon style="fill:#333333;" points="324.254,394.042 290.054,445.096 290.054,485.251 242.52,498.762 242.52,445.096   276.731,381.813 295.075,381.243 "/>
<path style="fill:#D5DB9A;" d="M248.225,485.251h41.829c14.769,0,26.748,11.98,26.748,26.748H246.53  c0-14.769,14.813-26.748,0.044-26.748H248.225z"/>
<path style="fill:#EFF9B4;" d="M273.323,512H246.53h-43.48v-26.748h43.48h0.045C261.343,485.251,273.323,497.231,273.323,512z"/>
<path style="fill:#4D4D4D;" d="M282.436,394.042l-34.211,51.054v40.156h-1.651h-0.045h-43.48v-51.868l-2.46-8.137  c6.102,0,3.498-1.95,3.498-8.062l4.584-34.25L282.436,394.042z"/>
<path style="fill:#EFF9B4;" d="M324.256,278.51v115.535H295.07c0,0,0-82.789,0-109.556c0-26.779-40.151-44.201-40.151-44.201h31.126  c11.364,0,21.576,4.963,28.57,12.847c1.095,1.232,2.111,2.533,3.035,3.902C321.826,263.164,324.256,270.557,324.256,278.51z"/>
<g>
	<path style="fill:#666666;" d="M219.782,394.042H183.92V287.83v-24.707c0-12.616,10.229-22.833,22.845-22.833h26.402l61.907,44.194   c0,26.771,0,109.558,0,109.558h-12.637h-62.654V394.042z"/>
	<path style="fill:#666666;" d="M324.256,283.222v110.822h-21.085c0,0,0-82.789,0-109.556L324.256,283.222z"/>
</g>
<path style="fill:#EFF9B4;" d="M219.782,394.042v28.288c0,6.112-4.953,11.054-11.054,11.054h-5.677h-8.076  c-6.102,0-11.054-4.942-11.054-11.054v-28.288H219.782z"/>
<polyline style="fill:#D5DB9A;" points="289.62,213.384 234.841,213.384 289.62,227.782 "/>
<path style="fill:#666666;" d="M213.336,213.331h-18.945v-5.231c0-2.52-2.043-4.564-4.564-4.564s-4.564,2.043-4.564,4.564v19.59  c0,2.52,2.043,4.564,4.564,4.564s4.564-2.043,4.564-4.564v-5.231h18.945V213.331z"/>
<g>
	<path style="fill:#333333;" d="M275.685,325.324c-3.114,0-5.705-2.595-5.705-5.705c0-3.115,2.588-5.693,5.699-5.701   c3.113-0.008,5.699,2.599,5.699,5.701C281.377,322.72,278.794,325.324,275.685,325.324z"/>
	<path style="fill:#333333;" d="M275.685,358.788c-3.108,0-5.703-2.605-5.705-5.705c-0.002-3.108,2.59-5.705,5.699-5.714   c3.109-0.008,5.701,2.617,5.699,5.714C281.375,356.174,278.788,358.788,275.685,358.788z"/>
</g>
<g>
	<polyline style="fill:#4D4D4D;" points="219.782,394.042 219.782,290.917 231.662,394.042  "/>
	<path style="fill:#4D4D4D;" d="M295.075,284.484l-31.79,6.693l-30.117-50.886h21.751   C254.918,240.289,295.075,257.713,295.075,284.484z"/>
	<path style="fill:#4D4D4D;" d="M324.256,278.51v10.417l-21.085-4.438c0-10.873,6.618-20.207,14.479-27.452   C321.826,263.164,324.256,270.557,324.256,278.51z"/>
</g>
<g>
</g>
<g>
</g>
<g>
</g>
<g>
</g>
<g>
</g>
<g>
</g>
<g>
</g>
<g>
</g>
<g>
</g>
<g>
</g>
<g>
</g>
<g>
</g>
<g>
</g>
<g>
</g>
<g>
</g>
</svg>
