<?xml version="1.0" encoding="iso-8859-1"?>
<!-- Generator: Adobe Illustrator 19.0.0, SVG Export Plug-In . SVG Version: 6.00 Build 0)  -->
<svg xmlns="http://www.w3.org/2000/svg" xmlns:xlink="http://www.w3.org/1999/xlink" version="1.1" id="Layer_1" x="0px" y="0px" viewBox="0 0 512 512" style="enable-background:new 0 0 512 512;" xml:space="preserve">
<path style="fill:#BC6D1E;" d="M370.866,512h-58.684v-27.676h31.008C358.469,484.324,370.866,496.721,370.866,512z"/>
<path style="fill:#A55D1C;" d="M360.164,438.429c0.15,2.814-0.208,5.639-1.061,8.326l-0.242,0.784h-52.653h-0.012  c0.83-7.784,2.698-12.523,2.698-12.523c-4.751-4.751-8.268-14.795-10.736-24.654c6.277-20.285,39.514-32.766,61.083-11.197  L360.164,438.429z"/>
<path style="fill:#8BE8E8;" d="M358.861,447.539l-11.624,36.786h-4.048h-31.008c-6.481-14.576-6.942-27.733-5.985-36.786h0.012  H358.861z"/>
<g>
	<path style="fill:#BC6D1E;" d="M266.932,512h-58.684v-27.676h31.008C254.547,484.324,266.932,496.721,266.932,512z"/>
	<path style="fill:#BC6D1E;" d="M366.004,396.639c-2.18,0.876-4.44,1.73-6.757,2.525c-17.586,6.112-38.988,10.056-61.083,11.197   c-7.599,0.392-15.279,0.45-22.913,0.138h-0.012c-6.919-0.265-13.803-0.83-20.561-1.718l1.568,29.648   c0.15,2.814-0.219,5.639-1.061,8.326l-0.242,0.784h-52.676c0.83-7.784,2.698-12.523,2.698-12.523   c-10.955-10.955-15.348-50.07-15.348-50.07c-16.744-13.019-26.788-31.423-25.231-56.239c0,0,22.302,7.841,53.898,14.772v0.012   c54.279,11.935,135.957,21.23,178.958-16.409C402.109,354.295,398.281,383.631,366.004,396.639z"/>
</g>
<g>
	<path style="fill:#8BE8E8;" d="M397.242,327.079c-43.001,37.639-124.679,28.345-178.958,16.409v-0.012   c-31.596-6.93-53.898-14.772-53.898-14.772c1.292-20.803,4.786-39.795,9.364-56.666c-21.552,21.645-44.039,55.317-54.371,71.507   c-3.448,1.684-5.812,5.224-5.812,9.317c-7.126-101.501,57.07-145.932,86.475-160.957c8.349-4.278,13.895-6.181,14.207-6.342   c0.012-0.012,0.012-0.012,0.012-0.012c7.276,5.996,15.429,10.943,24.251,14.622c11.578,4.855,24.297,7.53,37.639,7.53   c30.881,0,51.569-14.357,63.596-36.763c0,0,2.479,2.295,6.215,6.319c14.541,15.625,48.213,57.415,29.901,92.275   c0,0,1.637,2.814,4.048,7.634C385.018,287.399,393.586,306.634,397.242,327.079z"/>
	<path style="fill:#8BE8E8;" d="M352.858,110.184c0,7.738-0.473,15.256-1.441,22.475c-1.903,14.218-5.731,27.237-11.67,38.285   c-12.027,22.406-32.715,36.763-63.596,36.763c-17.009,0-32.992-4.347-46.91-12.004c-5.316-2.917-10.332-6.319-14.979-10.148   c-15.856-13.031-27.537-30.985-32.692-51.534c-2.71,2.26-5.881,3.563-9.294,3.563c-9.802,0-17.759-10.794-17.759-24.112   l0.565-46.587l25.254,25.104c-5.431-63.031,37.893-87.098,81.32-91.295C266.51,0.219,271.365,0,276.15,0   C330.014,0,352.858,56.332,352.858,110.184z"/>
</g>
<path style="fill:#76CECC;" d="M345.961,177.262c-1.73,5.108-3.794,9.94-6.215,14.437c-12.027,22.406-32.715,36.763-63.596,36.763  c-17.009,0-32.992-4.347-46.91-12.004c-5.316-2.917-10.332-6.319-14.979-10.148c-5.224-4.29-9.998-9.121-14.218-14.403  c8.349-4.278,13.895-6.181,14.207-6.342c0.012-0.012,0.012-0.012,0.012-0.012c7.276,5.996,15.429,10.943,24.251,14.622  c11.578,4.855,24.297,7.53,37.639,7.53c30.881,0,51.569-14.357,63.596-36.763C339.745,170.942,342.225,173.237,345.961,177.262z"/>
<path style="fill:#8BE8E8;" d="M254.939,447.539l-11.624,36.786h-4.059h-31.008c-6.481-14.576-6.942-27.733-5.985-36.786h0.012  H254.939z"/>
<g>
	<path style="fill:#76CECC;" d="M218.285,343.478c-31.596-6.93-53.898-14.772-53.898-14.772c1.292-20.803,4.786-39.795,9.364-56.666   c-21.552,21.645-44.039,55.317-54.371,71.507c-3.448,1.684-5.812,5.224-5.812,9.317c-9.156-130.306,99.263-166.55,100.682-167.299   c0.012-0.012,0.012-0.012,0.012-0.012c7.276,5.996,15.429,10.943,24.251,14.622l1.903,2.779   C240.414,202.955,199.615,271.833,218.285,343.478z"/>
	<path style="fill:#76CECC;" d="M235.635,281.653c6.195-0.353,12.103-0.076,17.97,0.294c5.855,0.39,11.627,0.993,17.366,1.579   c1.433,0.198,2.866,0.315,4.298,0.461c1.429,0.175,2.863,0.359,4.289,0.488c1.428,0.164,2.858,0.3,4.289,0.509   c1.425,0.118,2.854,0.277,4.289,0.453c5.747,0.615,11.434,1.17,17.627,1.695c-1.328,0.775-2.711,1.488-4.134,2.136   c-1.421,0.671-2.892,1.062-4.37,1.56c-0.74,0.218-1.489,0.469-2.237,0.641l-2.256,0.473c-1.508,0.288-3.037,0.619-4.554,0.748   c-1.52,0.167-3.047,0.317-4.578,0.426c-1.521,0.076-3.043,0.07-4.569,0.096c-3.046-0.003-6.075-0.204-9.083-0.517   c-6.022-0.626-11.935-1.891-17.704-3.642C246.529,287.235,240.869,285.033,235.635,281.653z"/>
</g>
<path style="fill:#A55D1C;" d="M256.247,438.429c0.15,2.814-0.219,5.639-1.061,8.326l-0.242,0.784h-52.676  c0.83-7.784,2.698-12.523,2.698-12.523c-10.955-10.955-15.348-50.07-15.348-50.07c-16.744-13.019-26.788-31.423-25.231-56.239  c0,0,22.302,7.841,53.898,14.772v0.012c0,0,36.44,57.727,56.954,67.01c-6.919-0.265-13.803-0.83-20.561-1.718L256.247,438.429z"/>
<g>
	<path style="fill:#76CECC;" d="M229.24,195.702c-5.316-2.917-10.332-6.319-14.979-10.148   c-15.856-13.031-27.537-30.985-32.692-51.534c-2.71,2.26-5.881,3.563-9.294,3.563c-9.802,0-17.759-10.794-17.759-24.112   l0.565-46.587l25.254,25.104c-5.431-63.031,37.893-87.098,81.32-91.295C253.814,8.96,180.415,90.511,229.24,195.702z"/>
	<path style="fill:#76CECC;" d="M130.31,364.707c-9.356,0-16.967-7.612-16.967-16.967s7.612-16.967,16.967-16.967   s16.967,7.612,16.967,16.967S139.666,364.707,130.31,364.707z"/>
	<path style="fill:#76CECC;" d="M271.548,268.107c-2.894,0-5.288-2.483-5.182-5.375c0.106-2.897,2.665-5.191,5.556-4.991   c2.675,0.187,4.816,2.5,4.816,5.175C276.737,265.741,274.374,268.107,271.548,268.107z"/>
	<path style="fill:#76CECC;" d="M367.479,257.659c-2.831,0-5.18-2.364-5.189-5.189c-0.009-2.775,2.26-5.099,5.023-5.182   c2.755-0.082,5.134,2.056,5.343,4.809C372.878,255.05,370.434,257.659,367.479,257.659z"/>
</g>
<g>
	<path style="fill:#666666;" d="M268.839,110.703c-3.502,0-6.342-2.839-6.342-6.342V90.038c0-3.503,2.84-6.342,6.342-6.342   c3.502,0,6.342,2.839,6.342,6.342v14.322C275.182,107.864,272.341,110.703,268.839,110.703z"/>
	<path style="fill:#666666;" d="M326.658,104.937c-3.502,0-6.342-2.839-6.342-6.342V85.541c0-3.503,2.84-6.342,6.342-6.342   c3.502,0,6.342,2.839,6.342,6.342v13.054C333.001,102.098,330.16,104.937,326.658,104.937z"/>
</g>
<path style="fill:#EF5454;" d="M351.404,132.658c-1.222,2.226-2.525,4.509-4.198,6.469c-0.819,1.003-1.603,2.076-2.537,2.975  c-0.899,0.934-1.845,1.834-2.791,2.768c-0.98,0.876-2.006,1.718-3.056,2.525c-3.114,2.399-6.504,4.486-10.056,6.262l-1.672,0.738  l-1.949,0.865c-1.222,0.565-2.479,0.934-3.713,1.395c-1.245,0.438-2.502,0.888-3.771,1.199c-1.268,0.346-2.548,0.715-3.828,0.992  c-5.132,1.188-10.344,1.787-15.533,1.995c-8.833,0.357-17.574-0.623-26.015-2.583c-1.488-0.334-2.964-0.715-4.44-1.119  c-2.998-0.853-5.962-1.834-8.868-2.952c-1.833-0.703-3.632-1.465-5.42-2.283c-4.59-2.156-9.087-4.566-13.146-7.761  c8.453,0.242,16.49,0.75,24.412,1.165c1.661,0.092,3.298,0.173,4.947,0.242l1.211,0.046l5.87,0.231  c2.352,0.058,4.693,0.15,7.023,0.161c4.659,0.069,9.283,0.081,13.861-0.115c4.566-0.208,9.121-0.496,13.619-1.038  c2.226-0.323,4.497-0.554,6.711-0.969c2.249-0.346,4.428-0.865,6.677-1.292c1.326-0.311,2.652-0.657,3.967-1.015  c1.96-0.542,3.921-1.13,5.893-1.776c1.13-0.381,2.26-0.773,3.39-1.176C342.409,136.97,346.734,134.883,351.404,132.658z"/>
<g>
	<path style="fill:#FFFFFF;" d="M272.286,158.258c-1.488-0.334-2.964-0.715-4.44-1.119c-2.998-0.853-5.962-1.834-8.868-2.952   l5.846-8.879l5.305-8.061l0.853,8.349L272.286,158.258z"/>
	<path style="fill:#FFFFFF;" d="M338.823,147.395c-3.114,2.399-6.504,4.486-10.056,6.262l-1.672,0.738l1.614-12.835l1.268-10.102   l4.624,8.326L338.823,147.395z"/>
</g>
<path style="fill:#76CECC;" d="M379.91,277.171l-17.816,2.975l13.769-10.609C375.862,269.537,377.5,272.351,379.91,277.171z"/>
<g>
</g>
<g>
</g>
<g>
</g>
<g>
</g>
<g>
</g>
<g>
</g>
<g>
</g>
<g>
</g>
<g>
</g>
<g>
</g>
<g>
</g>
<g>
</g>
<g>
</g>
<g>
</g>
<g>
</g>
</svg>
