<?xml version="1.0" encoding="iso-8859-1"?>
<!-- Generator: Adobe Illustrator 19.0.0, SVG Export Plug-In . SVG Version: 6.00 Build 0)  -->
<svg xmlns="http://www.w3.org/2000/svg" xmlns:xlink="http://www.w3.org/1999/xlink" version="1.1" id="Layer_1" x="0px" y="0px" viewBox="0 0 512 512" style="enable-background:new 0 0 512 512;" xml:space="preserve">
<g>
	<path style="fill:#B7A57D;" d="M341.6,509.811h-25.216c-3.295,0-6.08-2.436-6.519-5.701l-3.302-24.533   c-1.202,1.924-2.582,3.7-4.166,5.283c-2.568,2.569-6.735,2.569-9.302,0c-2.57-2.569-2.57-6.734,0-9.303   c8.819-8.82,8.363-31.611,7.084-43.427l-0.626-4.655c-0.48-3.561,1.988-6.847,5.54-7.382c3.546-0.536,6.876,1.878,7.468,5.423   c0.134,0.803,0.445,2.784,0.754,5.583l8.822,65.556h19.464c3.632,0,6.578,2.946,6.578,6.578S345.234,509.811,341.6,509.811z"/>
	<path style="fill:#B7A57D;" d="M402.997,481.305c-1.683,0-3.367-0.642-4.651-1.926l-18.638-18.638   c-2.438-2.437-2.581-6.342-0.328-8.952l17.543-20.312l-21.022-31.167c-2.032-3.012-1.237-7.101,1.776-9.132   c3.013-2.033,7.101-1.236,9.132,1.775l23.834,35.338c1.66,2.462,1.466,5.731-0.476,7.978l-16.833,19.492l14.314,14.315   c2.57,2.569,2.57,6.734,0,9.303C406.364,480.663,404.68,481.305,402.997,481.305z"/>
	<path style="fill:#B7A57D;" d="M384.359,462.667h-20.831c-3.632,0-6.578-2.946-6.578-6.578s2.946-6.578,6.578-6.578h20.831   c3.632,0,6.578,2.946,6.578,6.578S387.992,462.667,384.359,462.667z"/>
	<path style="fill:#B7A57D;" d="M48.519,393.048c-2.604,0-5.165-1.233-6.762-3.534c-2.59-3.73-1.665-8.854,2.066-11.444   c16.716-11.606,11.014-30.193-0.362-59.425c-5.915-15.194-12.029-30.906-12.174-45.567c-0.179-18.013,8.82-31.592,26.746-40.36   c13.904-6.801,26.192-7.405,36.527-1.794c7.977,4.333,14.381,12.444,18.519,23.457c2.936,7.814,3.777,14.55,3.812,14.832   c0.548,4.508-2.663,8.608-7.171,9.155c-4.489,0.543-8.594-2.652-9.152-7.15c-0.695-5.484-4.546-20.817-13.889-25.858   c-5.384-2.905-12.588-2.188-21.418,2.132c-25.46,12.454-19.046,32.885-6.473,65.19c5.298,13.613,10.776,27.69,11.831,40.836   c1.308,16.324-4.55,29.129-17.416,38.061C51.772,392.572,50.137,393.048,48.519,393.048z"/>
</g>
<g>
	<path style="fill:#CE9E3E;" d="M382.268,352.282c8.091,13.288,15.974,31.63,12.148,48.755c-1.228,5.493-4.046,8.234-7.872,9.001   c-8.42,1.71-21.73-6.129-33.636-15.086C366.042,384.757,377.334,369.725,382.268,352.282z"/>
	<path style="fill:#CE9E3E;" d="M219.897,429.959l0.011,0.143l-34.064,54.489c14.187,0,24.822,12.97,22.037,26.872l-0.11,0.537   h-38.932l0.099-0.537c0.296-1.502,0.45-2.993,0.45-4.462c0-12.093-9.834-22.41-22.475-22.41l35.489-56.791   C192.784,429.521,205.359,430.573,219.897,429.959z"/>
</g>
<circle style="fill:#E8BB54;" cx="37.538" cy="393.593" r="15.349"/>
<path style="fill:#A08E6A;" d="M325.147,0l48.92,50.531c-13.255-4.594-29.021-7.905-47.746-8.968L325.147,0z"/>
<path style="fill:#FCC34F;" d="M489.811,141.025v23.024h-72.36l-0.68-0.976c-4.725-6.732-7.247-14.384-7.685-22.092  c-0.746-12.97,4.418-26.05,14.943-35.04c0,0,3.344-0.384,8.541-0.384c1.941,0,4.144,0.055,6.523,0.197  C456.865,106.84,484.669,113.1,489.811,141.025z"/>
<path style="fill:#E8BB54;" d="M325.904,408.076c-2.346,8.87-6.315,17.388-12.816,23.89c-3.98,3.98-7.828,4.78-11.468,3.388  c-5.635-2.149-10.777-9.56-15.152-18.594h-0.011c-25.205,8.749-47.56,12.4-66.56,13.2c-14.538,0.614-27.113-0.439-37.495-2.16  l-35.489,56.791c12.641,0,22.475,10.317,22.475,22.41c0,1.469-0.153,2.96-0.45,4.462L168.839,512h-4.923h-38.932l-13.325-29.981  c-3.762-8.463-3.019-18.249,1.976-26.047l24.506-38.259c-26.313-14.253-48.24-58.107-48.24-97.576  c0-19.219,4.868-36.377,13.167-49.928c12.992-21.236,34.437-33.625,58.809-31.202h0.011c3.837,4.265,10.163,7.488,20.447,7.685  c0,0,10.514,23.232,34.733,18.221c0,0,9.769,16.785,37.452,24.405l19.099,47.264l36.18-24.12l25.216,23.024l13.156-29.602  l35.993,17.575c1.524,10.032,0.68,19.756-1.897,28.812v0.011c-4.934,17.443-16.226,32.474-29.361,42.67  C344.268,401.651,334.839,406.256,325.904,408.076z"/>
<path style="fill:#B7A57D;" d="M439.093,105.755c-2.379-0.143-4.583-0.197-6.523-0.197h-0.154  c-6.008,0.011-11.665,2.883-15.207,7.74c-10.558,14.483-11.15,34.513-0.439,49.775l0.68,0.976c0,0-34.448,12.455-62.821,10.843  l-0.055,1.085c0,0-1.919,7.236-3.388,18.518c-3.07,23.473-4.177,64.488,18.024,94.44c8.574,11.578,13.255,23.243,14.954,34.524  l-35.994-17.575l-13.156,29.602l-25.216-23.024l-36.18,24.12l-14.066-34.809l-25.841,4.221l6.074-22.256  c-7.784-3.859-13.288-8.267-16.917-11.841c-4.067-4.013-5.8-6.984-5.8-6.984c-15.196,3.147-25.008-4.835-30.194-11.216  c-3.081-3.782-4.539-7.006-4.539-7.006c-10.284-0.197-16.61-3.421-20.447-7.685h-0.011c-2.686-2.971-4.166-6.447-4.945-9.769  c-1.513-6.392-0.428-12.192-0.351-12.63l0.011-0.022c-20.458,3.684-32.595-8.902-38.877-19c-3.848-6.205-5.493-11.468-5.493-11.468  c-18.759-4.133-24.416-16.281-25.83-25.896c-1.053-7.192,0.263-12.97,0.263-12.97c-10.262-0.208-17.048-5.701-21.456-11.95  c-6.249-8.87-2.248-21.39,7.949-25.118c48.624-17.816,107.356-6.973,135.137,0.044c9.067,2.291,15.316,10.558,15.119,19.91  c-1.129,54.248,22.311,90.921,38.351,109.559h0.011c-10.854-130.28,63.227-167.03,64.663-167.732c0.011,0,0.022-0.011,0.022-0.011  l-48.24-28.505c17.871-2.215,33.845-2.708,48.108-1.886c18.726,1.063,34.491,4.374,47.746,8.968l0.011,0.011  C425.191,68.248,438.83,104.998,439.093,105.755z"/>
<g>
	<path style="fill:#4D4D4D;" d="M364.624,114.025c-3.028,0-5.482-2.455-5.482-5.482V93.194c0-3.027,2.454-5.482,5.482-5.482   s5.482,2.455,5.482,5.482v15.349C370.106,111.57,367.652,114.025,364.624,114.025z"/>
	<path style="fill:#4D4D4D;" d="M394.226,114.025c-3.028,0-5.482-2.455-5.482-5.482V93.194c0-3.027,2.454-5.482,5.482-5.482   s5.482,2.455,5.482,5.482v15.349C399.708,111.57,397.254,114.025,394.226,114.025z"/>
</g>
<path style="fill:#E8AF49;" d="M489.811,164.048h-72.36l-0.68-0.976c-4.725-6.732-7.247-14.384-7.685-22.092  C458.005,133.109,489.811,164.048,489.811,164.048z"/>
<path style="fill:#CE9E3E;" d="M182.401,427.8l11.728-17.524c5.059-7.558,5.781-17.216,1.904-25.444l-23.718-50.328l40.605,59.297  c3.31,4.834,3.469,11.162,0.405,16.156l-14.697,23.951"/>
<g>
	<path style="fill:#A08E6A;" d="M354.575,175.977c0,0-1.919,7.236-3.388,18.518c-37.419-11.896-39.995-55.87-39.995-55.87   C319.228,162.009,354.575,175.977,354.575,175.977z"/>
	<path style="fill:#A08E6A;" d="M276.108,251.176l-14.34-11.479c-10.854-130.28,63.227-167.03,64.663-167.732   C324.929,73.336,258.764,134.107,276.108,251.176z"/>
	<path style="fill:#A08E6A;" d="M152.581,143.009l-66.187,17.213c-1.053-7.192,0.263-12.97,0.263-12.97L152.581,143.009z"/>
	<path style="fill:#A08E6A;" d="M166.472,171.515l-48.755,26.071c-3.848-6.205-5.493-11.468-5.493-11.468L166.472,171.515z"/>
	<path style="fill:#A08E6A;" d="M194.978,196.358l-38.044,32.88c-1.513-6.392-0.428-12.192-0.351-12.63l0.011-0.022L194.978,196.358   z"/>
	<path style="fill:#A08E6A;" d="M211.05,227.791l-24.175,25.907c-3.081-3.782-4.539-7.006-4.539-7.006L211.05,227.791z"/>
	<path style="fill:#A08E6A;" d="M232.978,247.525l-10.108,24.372c-4.068-4.013-5.8-6.984-5.8-6.984L232.978,247.525z"/>
</g>
<g>
</g>
<g>
</g>
<g>
</g>
<g>
</g>
<g>
</g>
<g>
</g>
<g>
</g>
<g>
</g>
<g>
</g>
<g>
</g>
<g>
</g>
<g>
</g>
<g>
</g>
<g>
</g>
<g>
</g>
</svg>
