<?xml version="1.0" encoding="iso-8859-1"?>
<!-- Generator: Adobe Illustrator 19.0.0, SVG Export Plug-In . SVG Version: 6.00 Build 0)  -->
<svg xmlns="http://www.w3.org/2000/svg" xmlns:xlink="http://www.w3.org/1999/xlink" version="1.1" id="Layer_1" x="0px" y="0px" viewBox="0 0 512 512" style="enable-background:new 0 0 512 512;" xml:space="preserve">
<g>
	<path style="fill:#509364;" d="M348.631,93.475c-1.578,0-3.161-0.57-4.415-1.723c-2.65-2.439-2.823-6.565-0.384-9.216   c1.688-1.835,3.5-3.636,5.387-5.354c13.585-12.326,27.545-13.664,38.762-14.74c11.603-1.113,15.9-2.077,18.561-8.525   c1.375-3.33,5.191-4.912,8.517-3.539c3.33,1.374,4.915,5.187,3.541,8.517c-5.895,14.281-18.368,15.476-29.373,16.532   c-10.258,0.984-20.865,2.001-31.234,11.409c-1.596,1.453-3.133,2.981-4.561,4.532C352.147,92.767,350.392,93.475,348.631,93.475z"/>
	<path style="fill:#509364;" d="M360.511,137.495c-2.003,0-4.027-0.255-6.058-0.772c-3.492-0.886-5.603-4.436-4.717-7.927   s4.435-5.604,7.927-4.717c3.597,0.914,7.127,0.049,10.492-2.569c5.867-4.563,8.991-12.453,8.991-16.394   c0-6.807,3.161-10.639,5.814-12.654c7.742-5.886,19.704-2.97,22.021-2.326c3.471,0.964,5.504,4.559,4.539,8.03   c-0.965,3.47-4.557,5.502-8.03,4.538c-3.145-0.851-8.761-1.294-10.641,0.146c-0.162,0.124-0.658,0.503-0.658,2.265   c0,7.842-4.819,19.528-14.027,26.69C371.321,135.576,365.996,137.495,360.511,137.495z"/>
	<path style="fill:#509364;" d="M370.733,228.28c-8.931,0-16.181-2.907-21.545-8.64c-10.101-10.791-9.107-27.674-9.061-28.388   c0.238-3.595,3.366-6.319,6.94-6.077c3.587,0.237,6.305,3.333,6.079,6.918c-0.012,0.211-0.611,12.081,5.6,18.67   c2.836,3.01,6.758,4.472,11.987,4.472c2.857,0,4.773-0.605,5.697-1.799c3.585-4.633-0.209-19.281-2.721-28.974   c-3.134-12.1-5.399-20.842-1.117-26.373c1.861-2.405,4.675-3.729,7.925-3.729h11.958c3.601,0,6.522,2.921,6.522,6.522   s-2.921,6.522-6.522,6.522h-9.158c0.341,3.439,1.907,9.481,3.022,13.786c3.707,14.313,7.909,30.537,0.408,40.229   C383.224,225.972,377.836,228.28,370.733,228.28z"/>
	<path style="fill:#509364;" d="M206.885,118.445c1.078,2.85,0.034,6.158-2.65,7.833c-3.67,2.29-36.45,22.155-57.232,14.288   c-3.37-1.275-5.067-5.043-3.791-8.408c1.275-3.369,5.04-5.066,8.408-3.791c12.52,4.738,37.827-8.235,45.705-13.154   c3.056-1.907,7.079-0.977,8.987,2.078C206.545,117.663,206.736,118.049,206.885,118.445z"/>
	<path style="fill:#509364;" d="M149.507,227.251c-7.144,0-15.136-2.606-23.905-7.812c-4.538-2.694-9.619-3.981-14.644-3.732   l-11.206,0.561c-3.617,0.171-6.66-2.592-6.84-6.189c-0.18-3.598,2.59-6.66,6.187-6.84l11.206-0.561   c7.614-0.374,15.202,1.537,21.953,5.543c10.364,6.152,18.456,7.544,24.051,4.139c13.262-8.069,14.424-41.247,13.785-52.234   c-0.209-3.596,2.537-6.681,6.133-6.89c3.622-0.211,6.681,2.537,6.891,6.133c0.028,0.498,0.688,12.352-1.154,25.879   c-2.636,19.369-8.987,32.24-18.873,38.255C158.986,226.003,154.449,227.251,149.507,227.251z"/>
</g>
<path style="fill:#FFD0B8;" d="M319.064,273.531l-0.12,0.185c-2.457-1.652-5.381-2.696-8.631-2.87  c-0.37-0.022-0.739-0.033-1.12-0.033c-10.479,0.033-18.969,8.544-18.969,19.012c-0.065-10.468-8.588-18.936-19.078-18.904  c-10.501,0.033-19.002,8.577-18.969,19.078l-18.915-5.033c-32.992,26.057-45.884,95.856-45.884,95.856  c-23.426-73.474,16.393-124.935,38.329-142.512c4.696-3.761,8.577-5.979,10.838-6.511c14.577,8.805,31.666,13.871,49.939,13.871  c10.392,0,19.632-1.641,27.752-4.685c0.826,4.305,1.576,8.729,2.272,13.24C317.477,260.53,318.325,266.998,319.064,273.531z"/>
<path style="fill:#509364;" d="M325.301,296.351l-3.511,7.794C292.483,381.554,318.572,512,318.572,512H187.039  c1.359-3.772,59.907-95.378,53.124-115.151c-2.881-8.392-5.261-15.045-6.903-19.578c-1.011-2.207-1.87-4.49-2.533-6.859  c0-0.011-0.011-0.022-0.011-0.022c-1.62-5.75-2.185-11.925-1.457-18.284c3.087-26.85,19.752-33.612,4-67.136l18.915,5.033  c-0.033-10.501,8.468-19.045,18.969-19.078h0.011c10.49-0.033,19.002,8.435,19.067,18.904c0-10.468,8.49-18.98,18.969-19.013  c0.38,0,0.75,0.011,1.12,0.033c3.25,0.174,6.174,1.217,8.631,2.87C325.921,278.393,329.117,287.927,325.301,296.351z"/>
<path style="fill:#FFD0B8;" d="M362.576,148.926c0,53.428-22.654,96.747-76.093,96.747c-12.621,0-24.676-2.413-35.731-6.816v-0.011  c-28.6-11.36-50.483-35.981-58.092-66.277c-2.685,2.239-5.837,3.533-9.218,3.533c-9.729,0-17.621-10.707-17.621-23.915  s7.892-23.915,17.621-23.915c2.881,0,5.587,0.946,7.99,2.598c8.457-44.797,47.798-78.691,95.052-78.691  C339.922,52.178,362.576,95.497,362.576,148.926z"/>
<g>
	<path style="fill:#E2B39F;" d="M316.509,254.225c-8.664,3.609-18.643,5.577-30.024,5.577c-12.621,0-24.676-2.413-35.731-6.816   v-0.011c-9.109-3.62-17.545-8.588-25.046-14.664c4.696-3.761,8.577-5.979,10.838-6.511c14.577,8.805,31.666,13.871,49.939,13.871   c10.392,0,19.632-1.641,27.752-4.685C315.063,245.289,315.813,249.714,316.509,254.225z"/>
	<path style="fill:#E2B39F;" d="M250.751,238.846c-28.6-11.36-50.483-35.981-58.092-66.277c-2.685,2.239-5.837,3.533-9.218,3.533   c-9.729,0-17.621-10.707-17.621-23.915s7.892-23.915,17.621-23.915c2.881,0,5.587,0.946,7.99,2.598   c8.457-44.797,47.798-78.691,95.052-78.691C286.483,52.178,189.888,132.783,250.751,238.846z"/>
</g>
<path style="fill:#FFFFFF;" d="M277.028,181.247c6.13,0.65,10.565,1.137,14.718,1.315c4.106,0.183,7.709,0.273,11.342,0.266  c3.632-0.014,7.231-0.104,11.334-0.289c4.146-0.184,8.582-0.659,14.727-1.292c-0.69,6.178-4.417,11.18-9.188,14.682  c-4.809,3.511-10.855,5.334-16.873,5.325c-6.017-0.013-12.058-1.835-16.863-5.348C281.459,192.4,277.734,187.408,277.028,181.247z"/>
<g>
	<path style="fill:#509364;" d="M149.816,107.228c-9.591,0-19.035-4.776-28.824-14.564c-2.548-2.547-2.548-6.677,0-9.224   c2.546-2.547,6.678-2.547,9.223,0c7.52,7.519,14.201,11.03,20.379,10.725c10.799-0.526,21.084-13.042,31.033-25.146   c10.424-12.683,21.202-25.796,35.054-28.662c18.999-3.928,38.116,9.786,53.824,38.624c1.724,3.163,0.557,7.125-2.607,8.847   c-3.16,1.724-7.125,0.555-8.847-2.608c-17.17-31.52-32.264-33.634-39.726-32.091c-9.343,1.933-18.634,13.238-27.62,24.171   c-11.752,14.299-23.904,29.085-40.474,29.893C150.758,107.217,150.286,107.228,149.816,107.228z"/>
	<path style="fill:#509364;" d="M293.777,83.089c-2.297,0-4.525-1.215-5.715-3.369c-11.633-21.05-24.594-34.009-35.561-35.557   c-6.034-0.851-11.875,1.637-17.852,7.613c-2.547,2.547-6.678,2.547-9.224,0c-2.546-2.547-2.547-6.677,0.001-9.224   c8.945-8.945,18.665-12.751,28.898-11.305c19.59,2.765,35.367,24.456,45.153,42.164c1.744,3.152,0.6,7.121-2.553,8.864   C295.925,82.827,294.843,83.089,293.777,83.089z"/>
	<path style="fill:#509364;" d="M317.43,81.837c-2.881,0-5.518-1.924-6.297-4.841c-6.319-23.648-14.789-39.594-22.663-42.655   c-5.412-2.106-10.51-3.039-15.007-3.864c-10.709-1.964-22.849-4.189-22.849-23.955c0-3.601,2.921-6.522,6.522-6.522   c3.601,0,6.522,2.921,6.522,6.522c0,8.895,1.62,9.193,12.16,11.125c4.818,0.884,10.812,1.983,17.381,4.537   c12.434,4.835,22.708,22.144,30.537,51.446c0.929,3.481-1.138,7.055-4.618,7.985C318.555,81.766,317.988,81.837,317.43,81.837z"/>
	<path style="fill:#509364;" d="M235.398,109.793c-2.553,0-4.977-1.508-6.021-4.01c-0.126-0.297-5.321-12.391-15.361-22.695   c-12.733-13.066-27.233-17.336-43.098-12.692c-20.831,6.097-32.143,1.219-37.962-3.948c-7.033-6.244-9.991-16.233-8.119-27.405   c0.419-2.499-0.255-5.012-1.849-6.896c-1.526-1.803-3.673-2.797-6.046-2.797c-3.601,0-6.541-2.92-6.541-6.522   s2.904-6.522,6.505-6.522c6.218,0,12.05,2.702,16.038,7.415c4.078,4.819,5.811,11.189,4.756,17.48   c-0.526,3.145-1.2,10.951,3.916,15.493c4.744,4.213,13.849,4.633,25.637,1.184c20.701-6.061,40.202-0.385,56.396,16.407   c11.724,12.16,17.525,25.899,17.767,26.477c1.385,3.325-0.187,7.144-3.511,8.529C237.084,109.632,236.234,109.793,235.398,109.793z   "/>
	<path style="fill:#509364;" d="M333.813,80.664c-1.348,0-2.709-0.416-3.875-1.281c-2.894-2.143-3.504-6.226-1.363-9.12   c3.142-4.27,11.455-18.28,8.629-26.476c-1.237-3.585-3.442-6.08-5.775-8.721c-4.969-5.623-11.153-12.622-5.099-27.693   c1.342-3.343,5.14-4.965,8.483-3.622c3.342,1.343,4.963,5.141,3.621,8.483c-3.053,7.603-1.467,9.398,2.771,14.195   c2.786,3.151,6.252,7.075,8.331,13.105c2.477,7.181,1.372,15.963-3.285,26.1c-3.209,6.984-7.028,12.172-7.188,12.389   C337.781,79.75,335.81,80.664,333.813,80.664z"/>
</g>
<path style="fill:#417A50;" d="M263.144,375.032C276.188,417.427,255.534,512,255.534,512h-68.495  c1.359-3.772,59.907-95.378,53.124-115.151c-2.881-8.392-5.261-15.045-6.903-19.578c-1.011-2.207-1.87-4.49-2.533-6.859  c0-0.011-0.011-0.022-0.011-0.022c-1.62-5.75-2.185-11.925-1.457-18.284c3.087-26.85,19.752-33.612,4-67.136l18.915,5.033  c-0.033-10.501,8.468-19.045,18.969-19.078h0.011C271.155,270.925,250.099,332.637,263.144,375.032z"/>
<g>
	<path style="fill:#4D4D4D;" d="M275.617,154.361c-3.601,0-6.522-2.921-6.522-6.522v-17.393c0-3.601,2.921-6.522,6.522-6.522   c3.601,0,6.522,2.921,6.522,6.522v17.393C282.139,151.44,279.218,154.361,275.617,154.361z"/>
	<path style="fill:#4D4D4D;" d="M331.056,154.361c-3.601,0-6.522-2.921-6.522-6.522v-17.393c0-3.601,2.921-6.522,6.522-6.522   s6.522,2.921,6.522,6.522v17.393C337.578,151.44,334.657,154.361,331.056,154.361z"/>
</g>
<path style="fill:#509364;" d="M169.813,242.605c-1.24,0-2.49-0.083-3.754-0.249c-27.038-3.558-31.843-32.151-35.704-55.124  c-3.006-17.886-5.49-29.61-12.361-29.61c-3.601,0-6.522-2.92-6.522-6.522s2.921-6.522,6.522-6.522  c8.617,0,15.038,4.91,19.087,14.594c2.987,7.143,4.518,16.254,6.139,25.898c4.138,24.624,8.32,42.219,24.541,44.354  c4.296,0.565,8.315-0.678,12.3-3.801c20.964-16.432,31.798-76.363,34.204-98.068c0.398-3.581,3.631-6.161,7.202-5.764  c3.58,0.397,6.16,3.621,5.765,7.202c-0.093,0.841-2.352,20.889-8.093,43.953c-7.926,31.842-18.367,53.019-31.03,62.944  C182.411,240.354,176.272,242.605,169.813,242.605z"/>
<g>
</g>
<g>
</g>
<g>
</g>
<g>
</g>
<g>
</g>
<g>
</g>
<g>
</g>
<g>
</g>
<g>
</g>
<g>
</g>
<g>
</g>
<g>
</g>
<g>
</g>
<g>
</g>
<g>
</g>
</svg>
