<?xml version="1.0" encoding="iso-8859-1"?>
<!-- Generator: Adobe Illustrator 19.0.0, SVG Export Plug-In . SVG Version: 6.00 Build 0)  -->
<svg xmlns="http://www.w3.org/2000/svg" xmlns:xlink="http://www.w3.org/1999/xlink" version="1.1" id="Layer_1" x="0px" y="0px" viewBox="0 0 511.999 511.999" style="enable-background:new 0 0 511.999 511.999;" xml:space="preserve">
<path style="fill:#F9E4AF;" d="M347.116,431.132c-1.478-5.971-2.819-12.309-4.034-18.922c-17.741,4.355-37.053,3.748-51.551-10.75  c-21.581,21.581-53.785,12.378-75.653,1.891c-8.687-4.16-15.747-8.527-19.85-11.243c5.948,2.567,13.317-0.149,21.168-4.687  c14.039-8.126,29.603-22.119,41.19-22.119c19.586,0,33.145,13.558,33.145,13.558s13.558-13.558,33.145-13.558  c3.759,0,7.942,1.478,12.355,3.736c-1.444-13.673-2.544-27.563-3.381-40.984c-0.344-5.387-0.642-10.681-0.894-15.873l-52.685-35.127  l-24.068,32.09l-16.309-21.753l-7.759-10.338L179.25,312.18c-0.264,5.18-0.55,10.487-0.894,15.873  c-2.189,35.23-6.2,73.693-13.466,103.078c-5.203,21.019,2.476,43.115,19.827,56.078l2.682,2.006  c20.354,15.197,44.479,22.784,68.604,22.784s48.25-7.587,68.604-22.784l2.682-2.006  C344.642,474.248,352.319,452.151,347.116,431.132z M192.166,389.461c0.321,0.229,1.673,1.203,3.839,2.636  C194.642,391.523,193.37,390.652,192.166,389.461z"/>
<path style="fill:#E0CB9B;" d="M255.999,511.999c-24.125,0-48.25-7.587-68.604-22.784l-2.682-2.006  c-17.352-12.962-25.03-35.059-19.827-56.078c8.378-33.867,12.423-79.801,14.36-118.951l52.685-35.127l7.759,10.338  c-7.014,21.443-18.188,60.135-22.498,100.03c-0.573,5.306-1.02,10.624-1.318,15.93C213.308,448.449,221.376,492.355,255.999,511.999  z"/>
<path style="fill:#666666;" d="M337.027,369.037c16.767,8.63,36.858,28.755,50.003,23.071c-7.495,4.962-24.813,15.415-43.952,20.102  c-17.741,4.355-37.053,3.748-51.551-10.75c-30.153,30.153-81.062,0.206-95.503-9.352c16.595,7.174,44.284-26.807,62.358-26.807  c19.586,0,33.145,13.558,33.145,13.558s13.558-13.558,33.145-13.558C328.432,365.301,332.615,366.779,337.027,369.037z"/>
<path style="fill:#D1CBBF;" d="M331.231,265.604l17.604,57.292l-16.079-10.716l-52.685-35.127l-24.068,32.09l-8.286-11.048  l-15.781-21.042L179.25,312.18l-16.079,10.716l17.604-57.292l-48.548,9.157l12.011-18.956l9.501-15.002  c29.42,5.008,64.536,5.685,102.265,5.685h3.324c36.468-0.046,70.392-0.825,98.941-5.685l9.501,15.002l12.011,18.956L331.231,265.604  z"/>
<path style="fill:#E0CB9B;" d="M333.65,328.055l-0.894-0.596l-52.685-35.127l-24.068,32.09l-8.286-11.048l-15.781-21.042  l-52.685,35.127l-0.894,0.596c0.344-5.387,0.63-10.693,0.894-15.873l52.685-35.127l7.759,10.338l16.309,21.753l24.068-32.09  l52.685,35.127C333.008,317.372,333.306,322.667,333.65,328.055z"/>
<path style="fill:#F4516D;" d="M255.999,0c103.686,0,187.739,69.613,187.739,155.477c0,54.622-34.027,76.581-85.475,85.326  c-29.42,5.008-64.536,5.685-102.265,5.685s-72.845-0.676-102.265-5.685c-51.447-8.745-85.475-30.703-85.475-85.326  C68.26,69.613,152.314,0,255.999,0z"/>
<path style="fill:#B7AE9F;" d="M367.768,255.805c-3.094,0.653-6.269,1.261-9.501,1.811c-29.42,5.008-64.536,5.685-102.265,5.685  s-72.845-0.676-102.265-5.685c-3.232-0.55-6.407-1.158-9.501-1.811l9.501-15.002c29.42,5.008,64.536,5.685,102.265,5.685h3.324  c36.468-0.046,70.392-0.825,98.941-5.685L367.768,255.805z"/>
<path style="fill:#D64161;" d="M243.129,240.802c-51.447-8.745-85.475-30.703-85.475-85.326  c0-73.107,60.938-134.422,143.042-151.031C286.371,1.548,271.404,0,255.999,0C152.314,0,68.26,69.613,68.26,155.477  c0,54.622,34.027,76.581,85.474,85.326c29.42,5.008,64.536,5.685,102.265,5.685c15.409,0,30.37-0.119,44.697-0.594  C279.943,245.206,260.534,243.765,243.129,240.802z"/>
<path style="fill:#B7AE9F;" d="M259.323,246.487l-11.61,51.608l-15.781-21.042l-52.685,35.127l-16.079,10.716l17.604-57.292  l-48.548,9.157l21.512-33.958c29.42,5.008,64.536,5.685,102.265,5.685L259.323,246.487L259.323,246.487z"/>
<g>
	<path style="fill:#666666;" d="M269.754,350.975c-3.481,0-6.303-2.822-6.303-6.303v-14.899c0-3.482,2.823-6.303,6.303-6.303   c3.481,0,6.303,2.822,6.303,6.303v14.899C276.057,348.153,273.234,350.975,269.754,350.975z"/>
	<path style="fill:#666666;" d="M298.405,350.975c-3.481,0-6.303-2.822-6.303-6.303v-14.899c0-3.482,2.823-6.303,6.303-6.303   c3.481,0,6.303,2.822,6.303,6.303v14.899C304.709,348.153,301.886,350.975,298.405,350.975z"/>
</g>
<g>
</g>
<g>
</g>
<g>
</g>
<g>
</g>
<g>
</g>
<g>
</g>
<g>
</g>
<g>
</g>
<g>
</g>
<g>
</g>
<g>
</g>
<g>
</g>
<g>
</g>
<g>
</g>
<g>
</g>
</svg>
