<?xml version="1.0" encoding="iso-8859-1"?>
<!-- Generator: Adobe Illustrator 19.0.0, SVG Export Plug-In . SVG Version: 6.00 Build 0)  -->
<svg xmlns="http://www.w3.org/2000/svg" xmlns:xlink="http://www.w3.org/1999/xlink" version="1.1" id="Layer_1" x="0px" y="0px" viewBox="0 0 511.999 511.999" style="enable-background:new 0 0 511.999 511.999;" xml:space="preserve">
<rect x="222.361" y="225.424" style="fill:#DBB561;" width="65.616" height="32.441"/>
<g>
	<path style="fill:#F9D780;" d="M231.945,511.999h-29.86c-2.885,0-5.563-1.499-7.071-3.958c-1.509-2.46-1.63-5.526-0.322-8.098   l30.784-60.507l-9.419-49.19c-0.862-4.499,2.088-8.845,6.587-9.707c4.501-0.862,8.845,2.087,9.707,6.587l9.953,51.979   c0.346,1.808,0.081,3.681-0.754,5.322l-25.939,50.983h16.335c4.581,0,8.295,3.714,8.295,8.295S236.526,511.999,231.945,511.999z"/>
	<path style="fill:#F9D780;" d="M298.133,511.999h-29.861c-2.885,0-5.563-1.499-7.071-3.958c-1.509-2.46-1.63-5.526-0.322-8.098   l30.784-60.507l-9.419-49.19c-0.862-4.499,2.088-8.845,6.587-9.707c4.501-0.862,8.845,2.087,9.707,6.587l9.953,51.979   c0.346,1.808,0.081,3.681-0.754,5.322l-25.939,50.983h16.335c4.581,0,8.295,3.714,8.295,8.295S302.715,511.999,298.133,511.999z"/>
	<path style="fill:#F9D780;" d="M343.881,405.964c0,4.579-3.716,8.295-8.295,8.295c-4.579,0-8.295-3.716-8.295-8.295   c0-43.209-7.565-77.095-14.93-99.823c-3.65-11.281-7.255-19.807-9.865-25.381c-2.3-4.955-3.827-7.565-3.893-7.675   c-2.334-3.937-1.051-9.025,2.875-11.369c3.086-1.836,6.868-1.449,9.5,0.697c0.719,0.586,1.349,1.305,1.858,2.146   c0.575,0.951,6.79,11.524,13.526,30.812C334.735,319.357,343.881,356.827,343.881,405.964z"/>
</g>
<path style="fill:#6ABA49;" d="M326.363,295.369l-14.001,10.772c-3.65-11.281-7.255-19.807-9.865-25.381l-1.017-19.044l9.5,0.697  c0.719,0.586,1.349,1.305,1.858,2.146C313.413,265.509,319.628,276.082,326.363,295.369z"/>
<rect x="196.56" y="244.911" style="fill:#75CC54;" width="122.76" height="143.773"/>
<g>
	<rect x="196.56" y="325.645" style="fill:#F4516D;" width="122.76" height="63.039"/>
	<path style="fill:#F4516D;" d="M334.71,68.549L334.234,86.1l-154.655,56.757l-33.543,12.309   c-24.497-7.686-62.287,82.006-62.287,82.006c0-67.463,11.059-150.408,74.098-202.388c18.204-15.008,38.564-24.43,58.947-29.628   c20.007-5.098,40.035-6.127,58.062-4.346C309.494,4.227,335.639,33.756,334.71,68.549z"/>
</g>
<path style="fill:#D84161;" d="M189.256,77.164c4.523,16.058-1.084,41.042-9.677,65.693l-33.543,12.309  c-24.497-7.686-62.287,82.006-62.287,82.006c0-67.463,11.059-150.408,74.098-202.388c18.204-15.008,38.564-24.43,58.947-29.628  C216.794,5.155,177.544,35.492,189.256,77.164z"/>
<path style="fill:#F9D780;" d="M343.417,138.801c0,54.357-23.059,98.429-77.416,98.429c-16.291,0-31.663-3.959-45.189-10.96v-0.011  c-24.729-12.796-43.331-35.788-50.276-63.404c-2.721,2.278-5.939,3.594-9.378,3.594c-9.887,0-17.916-10.894-17.916-24.331  s8.029-24.331,17.916-24.331c2.931,0,5.696,0.962,8.129,2.643c7.808-41.373,41.517-73.601,83.631-79.197  c4.28-0.564,8.648-0.863,13.083-0.863c1.161,0,2.311,0.022,3.451,0.066c1.548,0.044,3.075,0.144,4.579,0.276  c6.337,0.531,12.21,1.725,17.618,3.517c10.418,3.417,19.144,9.013,26.277,16.324c1.15,1.183,2.256,2.411,3.329,3.672  C336.483,82.276,343.417,108.996,343.417,138.801z"/>
<rect x="196.56" y="244.911" style="fill:#6ABA49;" width="32.072" height="143.773"/>
<rect x="196.56" y="325.645" style="fill:#D84161;" width="32.072" height="63.039"/>
<path style="fill:#DBB561;" d="M265.997,40.37c0,0-98.628,84.56-45.189,185.887c-24.729-12.796-43.331-35.788-50.276-63.404  c-2.721,2.278-5.939,3.594-9.378,3.594c-9.887,0-17.916-10.894-17.916-24.331s8.029-24.331,17.916-24.331  c2.931,0,5.696,0.962,8.129,2.643C177.887,74.853,217.911,40.37,265.997,40.37z"/>
<path style="fill:#FFFFFF;" d="M245.883,174.723c7.848,1.793,14.034,3.195,20.028,3.974c5.927,0.835,11.449,1.168,16.976,1.18  c5.528-0.034,11.042-0.374,16.966-1.205c5.986-0.784,12.172-2.172,20.039-3.948c-1.841,7.896-7.243,14.287-13.921,18.735  c-6.731,4.417-14.91,6.793-23.084,6.767c-8.174,0.004-16.346-2.379-23.073-6.793C253.143,188.979,247.742,182.602,245.883,174.723z"/>
<path style="fill:#BA9449;" d="M419.966,173.582c-0.33,0-0.664-0.02-0.999-0.06l-138.243-16.589  c-4.549-0.546-7.792-4.676-7.247-9.224c0.546-4.548,4.677-7.789,9.224-7.247l138.243,16.589c4.549,0.546,7.792,4.676,7.247,9.224  C427.685,170.486,424.105,173.582,419.966,173.582z"/>
<g>
	<path style="fill:#666666;" d="M252.958,128.789c-3.664,0-6.636-2.971-6.636-6.636v-13.271c0-3.665,2.972-6.636,6.636-6.636   c3.664,0,6.636,2.971,6.636,6.636v13.271C259.594,125.818,256.622,128.789,252.958,128.789z"/>
	<path style="fill:#666666;" d="M308.256,128.789c-3.664,0-6.636-2.971-6.636-6.636v-13.271c0-3.665,2.972-6.636,6.636-6.636   s6.636,2.971,6.636,6.636v13.271C314.891,125.818,311.92,128.789,308.256,128.789z"/>
</g>
<g>
	<path style="fill:#BA9449;" d="M335.178,56.685c-4.302,2.931-8.87,5.629-13.924,7.543c-0.21,0.088-0.42,0.166-0.63,0.243   c-1.338,0.442-2.676,0.962-4.081,1.283c-0.697,0.177-1.382,0.387-2.101,0.52l-2.168,0.387c-2.909,0.42-5.95,0.575-9.047,0.221   c-3.086-0.376-6.193-1.205-9.135-2.533c-2.953-1.305-5.718-3.086-8.195-5.176c-2.488-2.09-4.667-4.49-6.58-7.078   c-0.962-1.294-1.847-2.643-2.676-4.059c-0.409-0.697-0.807-1.416-1.183-2.168c-0.199-0.376-0.376-0.763-0.564-1.161   c-0.199-0.442-0.343-0.73-0.586-1.427c-0.232-0.863-0.332-1.725-0.276-2.566c6.337,0.531,12.21,1.725,17.618,3.517   c0.066,0.188,0.133,0.365,0.199,0.542c0.796,2.046,1.814,4.026,3.052,5.806c2.466,3.594,5.884,6.492,10.197,8.217   c2.157,0.852,4.512,1.36,6.967,1.648l1.869,0.155c0.63,0.044,1.261,0.011,1.891,0.022c0.697,0.022,1.405-0.011,2.101-0.066   c0.586-0.033,1.161-0.088,1.747-0.122C324.859,59.947,330.079,58.509,335.178,56.685z"/>
	<path style="fill:#BA9449;" d="M302.088,77.62c-5.353,0.807-10.86,1.261-16.49,0.708c-1.393-0.166-2.82-0.288-4.225-0.597   c-0.708-0.144-1.427-0.254-2.123-0.442l-2.123-0.586c-2.809-0.885-5.618-2.057-8.25-3.716c-2.621-1.67-5.065-3.771-7.155-6.238   c-2.09-2.455-3.804-5.253-5.132-8.206c-1.338-2.964-2.278-6.072-2.875-9.235c-0.31-1.581-0.531-3.185-0.664-4.811   c-0.066-0.818-0.111-1.626-0.122-2.477c-0.011-0.254-0.011-0.52-0.011-0.785c4.28-0.564,8.648-0.863,13.083-0.863   c1.161,0,2.311,0.022,3.451,0.066c0.022,0.564-0.022,1.139-0.122,1.714c-0.033-0.077-0.133,0.276-0.188,0.453   c-0.066,0.232-0.144,0.464-0.199,0.719c-0.133,0.498-0.243,1.029-0.343,1.559c-0.199,1.062-0.343,2.146-0.42,3.24   c-0.177,2.201-0.111,4.413,0.232,6.558c0.675,4.313,2.499,8.405,5.64,11.823c1.581,1.692,3.484,3.174,5.574,4.501l1.615,0.94   c0.553,0.31,1.128,0.553,1.703,0.841c1.128,0.597,2.345,1.006,3.55,1.493C291.371,76.094,296.702,77.056,302.088,77.62z"/>
	<path style="fill:#BA9449;" d="M369.977,164.265c-1.168,0-2.34-0.409-3.286-1.241c-2.064-1.816-2.264-4.96-0.448-7.024   l11.268-12.804c1.814-2.061,4.959-2.264,7.024-0.448c2.064,1.816,2.264,4.96,0.448,7.024l-11.268,12.803   C372.732,163.693,371.357,164.265,369.977,164.265z"/>
	<path style="fill:#BA9449;" d="M400.585,181.689c-1.794,0-3.526-0.972-4.415-2.672l-7.902-15.115   c-1.273-2.436-0.331-5.442,2.105-6.716c2.438-1.275,5.443-0.331,6.716,2.105l7.902,15.115c1.273,2.436,0.331,5.442-2.105,6.716   C402.151,181.507,401.362,181.689,400.585,181.689z"/>
</g>
<path style="fill:#F9D780;" d="M215.337,273.085c-0.188,0.332-7.62,13.094-14.864,36.574c-7.001,22.65-13.824,55.275-13.824,96.306  c0,4.579-3.705,8.295-8.295,8.295c-4.579,0-8.295-3.716-8.295-8.295c0-45.476,7.841-80.944,15.638-104.998  c7.41-22.838,14.786-35.368,15.406-36.408c2.356-3.926,7.454-5.198,11.38-2.842C216.41,264.071,217.682,269.159,215.337,273.085z"/>
<path style="fill:#75CC54;" d="M215.337,273.085c-0.188,0.332-7.62,13.094-14.864,36.574l-14.775-8.693  c7.41-22.838,14.786-35.368,15.406-36.408c2.356-3.926,7.454-5.198,11.38-2.842C216.41,264.071,217.682,269.159,215.337,273.085z"/>
<g>
</g>
<g>
</g>
<g>
</g>
<g>
</g>
<g>
</g>
<g>
</g>
<g>
</g>
<g>
</g>
<g>
</g>
<g>
</g>
<g>
</g>
<g>
</g>
<g>
</g>
<g>
</g>
<g>
</g>
</svg>
