<?xml version="1.0" encoding="iso-8859-1"?>
<!-- Generator: Adobe Illustrator 19.0.0, SVG Export Plug-In . SVG Version: 6.00 Build 0)  -->
<svg xmlns="http://www.w3.org/2000/svg" xmlns:xlink="http://www.w3.org/1999/xlink" version="1.1" id="Layer_1" x="0px" y="0px" viewBox="0 0 512 512" style="enable-background:new 0 0 512 512;" xml:space="preserve">
<g>
	<path style="fill:#666666;" d="M304.076,512h-21.195c-3.092,0-5.919-1.746-7.301-4.511c-1.383-2.765-1.086-6.073,0.766-8.548   c32.315-43.148,2.759-109.291,2.456-109.954c-1.869-4.1-0.065-8.943,4.032-10.816c4.102-1.875,8.938-0.076,10.815,4.019   c0.349,0.762,8.606,18.961,12.361,43.409c4.108,26.746,1.151,50.65-8.548,70.071h6.612c4.51,0,8.164,3.655,8.164,8.164   S308.585,512,304.076,512z"/>
	<path style="fill:#666666;" d="M238.368,512h-21.194c-3.092,0-5.919-1.746-7.301-4.511c-1.383-2.765-1.086-6.073,0.766-8.548   c32.315-43.148,2.758-109.291,2.456-109.954c-1.869-4.1-0.065-8.943,4.032-10.816c4.103-1.875,8.938-0.076,10.815,4.019   c0.349,0.762,8.606,18.961,12.361,43.409c4.108,26.746,1.151,50.65-8.548,70.071h6.612c4.51,0,8.164,3.655,8.164,8.164   S242.878,512,238.368,512z"/>
	<path style="fill:#666666;" d="M352.918,383.122c-0.192,0-0.384-0.007-0.577-0.021c-4.498-0.315-7.89-4.215-7.576-8.713   c3.876-55.537-15.696-83.034-32.799-96.324c-3.561-2.767-4.204-7.896-1.437-11.456c2.765-3.561,7.897-4.203,11.455-1.438   c20.24,15.727,43.448,47.639,39.069,110.356C360.754,379.83,357.168,383.122,352.918,383.122z"/>
	<path style="fill:#666666;" d="M261.688,76.069c-3.607,0-6.532-2.925-6.532-6.532V26.781c0-3.606,2.925-6.532,6.532-6.532   s6.532,2.925,6.532,6.532v42.755C268.219,73.143,265.295,76.069,261.688,76.069z"/>
</g>
<rect x="206.647" y="60.471" style="fill:#E6E6E6;" width="147.635" height="172.814"/>
<rect x="150.912" y="60.471" style="fill:#CCCCCC;" width="55.736" height="172.814"/>
<rect x="190.297" y="233.285" style="fill:#E6E6E6;" width="129.401" height="153.938"/>
<rect x="190.297" y="233.285" style="fill:#CCCCCC;" width="35.249" height="153.938"/>
<rect x="281.945" y="233.285" style="fill:#F2F2F2;" width="17.624" height="153.938"/>
<rect x="190.297" y="233.285" style="fill:#CCCCCC;" width="129.401" height="29.425"/>
<path style="fill:#666666;" d="M354.273,196.474h-95.376c-7.701,0-13.944-6.243-13.944-13.944l0,0  c0-7.701,6.243-13.944,13.944-13.944h95.376"/>
<g>
	<path style="fill:#F4516D;" d="M252.763,139.94c-4.51,0-8.164-3.655-8.164-8.164v-12.271c0-4.509,3.654-8.164,8.164-8.164   c4.51,0,8.164,3.655,8.164,8.164v12.271C260.928,136.285,257.273,139.94,252.763,139.94z"/>
	<path style="fill:#F4516D;" d="M325.27,139.94c-4.51,0-8.164-3.655-8.164-8.164v-12.271c0-4.509,3.654-8.164,8.164-8.164   s8.164,3.655,8.164,8.164v12.271C333.435,136.285,329.78,139.94,325.27,139.94z"/>
</g>
<g>
	<rect x="277.46" y="162.058" style="fill:#E6E6E6;" width="13.063" height="40.951"/>
	<rect x="314.276" y="162.058" style="fill:#E6E6E6;" width="13.063" height="40.951"/>
</g>
<circle style="fill:#F4516D;" cx="261.687" cy="17.921" r="17.921"/>
<path style="fill:#666666;" d="M159.053,383.12c-4.25,0-7.836-3.292-8.136-7.597c-2.017-28.906,1.003-69.517,26.838-98.832  c15.887-18.025,32.965-23.148,33.684-23.357c4.329-1.258,8.861,1.23,10.12,5.558c1.255,4.316-1.213,8.832-5.516,10.108  c-0.317,0.098-13.995,4.457-26.678,19.223c-17.045,19.845-24.708,49.64-22.159,86.162c0.315,4.498-3.077,8.398-7.576,8.713  C159.437,383.113,159.245,383.12,159.053,383.12z"/>
<g>
</g>
<g>
</g>
<g>
</g>
<g>
</g>
<g>
</g>
<g>
</g>
<g>
</g>
<g>
</g>
<g>
</g>
<g>
</g>
<g>
</g>
<g>
</g>
<g>
</g>
<g>
</g>
<g>
</g>
</svg>
