<?xml version="1.0" encoding="iso-8859-1"?>
<!-- Generator: Adobe Illustrator 19.0.0, SVG Export Plug-In . SVG Version: 6.00 Build 0)  -->
<svg xmlns="http://www.w3.org/2000/svg" xmlns:xlink="http://www.w3.org/1999/xlink" version="1.1" id="Layer_1" x="0px" y="0px" viewBox="0 0 512 512" style="enable-background:new 0 0 512 512;" xml:space="preserve">
<path style="fill:#52CC77;" d="M415.849,200.596c7.285,10.998,11.541,24.179,11.541,38.358c0,30.737-19.945,56.804-47.576,66.011  c0.011,0.575,0.033,1.151,0.033,1.748c0,24.19-19.619,43.808-43.809,43.808c-3.333,0-6.579-0.38-9.695-1.097H185.657  c-3.116,0.717-6.362,1.097-9.695,1.097c-24.19,0-43.808-19.619-43.808-43.808c0-0.597,0.022-1.173,0.043-1.748  c-27.642-9.207-47.587-35.275-47.587-66.011c0-14.179,4.256-27.36,11.541-38.358c-15.439-9.174-25.786-26.003-25.786-45.252  c0-11.715,3.833-22.529,10.282-31.258c-5.885-8.089-9.37-18.045-9.37-28.815c0-27.056,21.931-48.987,48.987-48.987  c6.514,0,12.714,1.281,18.403,3.583c11.509-15.395,29.249-25.873,49.487-27.686C195.7,8.946,209.922,0,226.251,0  C237.738,0,248.183,4.43,256,11.661C263.817,4.43,274.262,0,285.749,0c16.329,0,30.552,8.946,38.098,22.181  c28.793,2.573,52.538,22.67,60.463,49.563c2.627-1.086,5.515-1.705,8.523-1.705c12.279,0,22.214,9.945,22.214,22.203  c0,5.624-2.085,10.716-5.515,14.625c18.87,8.002,32.104,26.698,32.104,48.477C441.635,174.593,431.288,191.422,415.849,200.596z"/>
<path style="fill:#40B55E;" d="M212.506,46.523c0,37.721,27.295,39.038,29.201,39.083c-1.994-0.029-31.373,0.132-31.373,34.745  c0,15.58,6.362,23.354,13.55,27.164c-26.85-2.845-70.007,29.293-40.247,83.698c26.573,48.579,0,0,0,0l11.574,11.574v106.639h-9.554  c-3.116,0.717-6.362,1.097-9.695,1.097c-24.19,0-43.808-19.619-43.808-43.808c0-0.597,0.022-1.173,0.043-1.748  c-27.642-9.207-47.587-35.275-47.587-66.011c0-14.179,4.256-27.36,11.541-38.358c-15.439-9.174-25.786-26.003-25.786-45.252  c0-11.715,3.833-22.529,10.282-31.258c-5.885-8.089-9.37-18.045-9.37-28.815c0-27.056,21.931-48.987,48.987-48.987  c6.514,0,12.714,1.281,18.403,3.583c11.509-15.395,29.249-25.873,49.487-27.686C195.7,8.946,209.922,0,226.251,0  C237.738,0,248.183,4.43,256,11.661C256,11.661,212.506,7.437,212.506,46.523z"/>
<path style="fill:#DB833A;" d="M353.79,479.722h-28.413c-13.973,0-23.669,13.919-18.815,27.023l1.933,5.255l-31.551-19.402  c-12.844-7.904-29.032-7.904-41.876,0l-0.847,0.521L203.517,512l1.943-5.255c4.842-13.105-4.853-27.023-18.826-27.023h-28.402  c20.422,0,36.979-16.557,36.979-36.979V231.474c7.025-1.064,13.278-4.321,18.077-9.022c4.56,8.935,11.954,16.123,20.933,20.444  c6.862,3.311,14.646,4.951,22.789,4.419c14.994-0.977,27.827-9.066,35.416-20.77c5.646,3.463,12.366,5.287,19.478,4.831  c1.672-0.109,3.322-0.337,4.907-0.684v212.05C316.811,463.165,333.368,479.722,353.79,479.722z"/>
<path style="fill:#C97332;" d="M234.221,242.895v250.224L203.517,512l1.943-5.255c4.842-13.105-4.853-27.023-18.826-27.023h-28.402  c20.422,0,36.979-16.557,36.979-36.979V231.474c7.025-1.064,13.278-4.321,18.077-9.022  C217.848,231.387,225.242,238.574,234.221,242.895z"/>
<path style="fill:#AA5B13;" d="M156.049,377.314v11.119c26.727,15.595,39.151,48.858,39.151,48.858v-52.114  C179.061,377.353,165.646,376.301,156.049,377.314z"/>
<path style="fill:#40B55E;" d="M342.797,196.182c-0.748,6.082-2.76,11.703-6.062,16.253c-0.744,1.181-1.712,2.203-2.584,3.254  c-0.47,0.502-0.987,0.963-1.459,1.449l-0.72,0.717l-0.791,0.643c-2.032,1.781-4.36,3.139-6.693,4.289l-1.794,0.772  c-0.599,0.243-1.232,0.408-1.836,0.624c-1.194,0.473-2.491,0.629-3.709,0.949l-1.891,0.226l-0.935,0.119l-0.947,0.025l-1.876,0.065  c-0.626-0.023-1.249-0.046-1.867-0.104c-2.471-0.238-4.879-0.742-7.155-1.574c-2.277-0.829-4.408-1.976-6.376-3.32  c-2.939-2-6.97-1.344-9.104,1.54l-0.456,0.616c-4.029,5.447-9.297,9.868-15.274,12.698c-2.978,1.435-6.135,2.444-9.358,3.085  c-3.216,0.672-6.546,0.886-9.819,0.692c-6.559-0.284-13.001-2.307-18.626-5.788c-2.798-1.756-5.418-3.83-7.752-6.212  c-1.181-1.18-2.242-2.475-3.259-3.804c-0.483-0.682-1.01-1.341-1.475-2.04l-1.344-2.138l-0.55-0.879  c-0.307-0.482-0.681-0.934-1.119-1.341c-2.765-2.567-7.089-2.406-9.655,0.359c-3.368,3.628-7.732,6.43-12.679,7.844  c-1.236,0.352-2.504,0.632-3.796,0.82c-1.293,0.09-2.606,0.321-3.919,0.268c-0.656-0.016-1.33,0.065-1.985-0.02l-1.988-0.181  c-0.67-0.052-1.31-0.24-1.976-0.349l-0.998-0.181c-0.33-0.071-0.648-0.181-0.976-0.269c-5.248-1.384-10.248-4.337-14.284-8.527  c-2.083-2.061-3.723-4.542-5.234-7.173c-1.492-2.661-2.485-5.598-3.342-8.687c-0.067,1.574-0.267,3.212-0.083,4.819  c0.068,0.807,0.074,1.638,0.201,2.447c0.129,0.808,0.284,1.618,0.438,2.435c0.123,0.829,0.428,1.597,0.639,2.409  c0.229,0.806,0.471,1.616,0.818,2.379l0.985,2.342c0.394,0.747,0.799,1.496,1.217,2.244c3.417,5.921,8.789,10.937,15.296,14.019  c3.242,1.547,6.761,2.657,10.392,3.152c3.627,0.559,7.351,0.559,11.045,0.027c4.476-0.667,8.866-2.178,12.89-4.404  c1.085,1.582,2.22,3.133,3.484,4.584c3.017,3.541,6.516,6.691,10.407,9.293c3.883,2.6,8.095,4.781,12.578,6.22  c4.47,1.458,9.135,2.349,13.83,2.582c4.695,0.214,9.397-0.161,13.986-1.175c4.586-1.018,9.018-2.696,13.157-4.88  c6.481-3.463,12.114-8.347,16.523-14.102c4.729,1.66,9.744,2.418,14.654,2.127c0.89-0.045,1.774-0.134,2.655-0.232l2.618-0.452  l1.3-0.236l1.276-0.362l2.526-0.753c3.283-1.251,6.449-2.751,9.221-4.817c2.76-2.05,5.312-4.346,7.318-7.063l0.78-0.984l0.692-1.051  c0.454-0.702,0.922-1.389,1.329-2.112c0.751-1.49,1.555-2.922,2.098-4.48C343.858,208.791,344.153,202.123,342.797,196.182z"/>
<g>
	<path style="fill:#666666;" d="M253.796,311.436c-3.597,0-6.514-2.916-6.514-6.514v-22.084c0-3.598,2.917-6.514,6.514-6.514   c3.597,0,6.514,2.916,6.514,6.514v22.084C260.31,308.52,257.393,311.436,253.796,311.436z"/>
	<path style="fill:#666666;" d="M286.335,311.436c-3.597,0-6.514-2.916-6.514-6.514v-22.084c0-3.598,2.917-6.514,6.514-6.514   c3.597,0,6.514,2.916,6.514,6.514v22.084C292.849,308.52,289.933,311.436,286.335,311.436z"/>
</g>
<path style="fill:#7F451D;" d="M294.478,339.122c0-17.688-10.451-8.143-23.343-8.143s-23.343-9.546-23.343,8.143  s10.451,32.029,23.343,32.029S294.478,356.811,294.478,339.122z"/>
<path style="fill:#96EAAD;" d="M241.821,85.608c0,0-0.043,0-0.113-0.002C241.778,85.607,241.821,85.608,241.821,85.608z"/>
<circle style="fill:#F4516D;" cx="310.101" cy="153.541" r="28.5"/>
<path style="fill:#D84161;" d="M307.49,153.542c0-11.078,6.324-20.671,15.555-25.387c-3.885-1.985-8.282-3.112-12.944-3.112  c-15.74,0-28.499,12.759-28.499,28.499s12.759,28.499,28.499,28.499c4.662,0,9.059-1.127,12.944-3.112  C313.814,174.213,307.49,164.619,307.49,153.542z"/>
<circle style="fill:#F4516D;" cx="170.337" cy="111.937" r="28.5"/>
<path style="fill:#D84161;" d="M167.731,111.933c0-11.078,6.324-20.671,15.555-25.387c-3.885-1.985-8.282-3.112-12.944-3.112  c-15.74,0-28.499,12.759-28.499,28.499s12.759,28.499,28.499,28.499c4.662,0,9.059-1.127,12.944-3.112  C174.055,132.602,167.731,123.009,167.731,111.933z"/>
<g>
</g>
<g>
</g>
<g>
</g>
<g>
</g>
<g>
</g>
<g>
</g>
<g>
</g>
<g>
</g>
<g>
</g>
<g>
</g>
<g>
</g>
<g>
</g>
<g>
</g>
<g>
</g>
<g>
</g>
</svg>
