<?xml version="1.0" encoding="iso-8859-1"?>
<!-- Generator: Adobe Illustrator 19.0.0, SVG Export Plug-In . SVG Version: 6.00 Build 0)  -->
<svg xmlns="http://www.w3.org/2000/svg" xmlns:xlink="http://www.w3.org/1999/xlink" version="1.1" id="Layer_1" x="0px" y="0px" viewBox="0 0 512 512" style="enable-background:new 0 0 512 512;" xml:space="preserve">
<path style="fill:#F4516D;" d="M345.111,379.934h-97.604l-6.86,53.593c-9.878-17.286-15.585-36.427-18.867-53.593h-30.885  l9.955-96.221l1.383-13.379c17.736,24.662,46.667,40.729,79.363,40.729c22.554,0,39.687-7.65,51.979-20.502l1.745,13.478  L345.111,379.934z"/>
<polyline style="fill:#E54567;" points="225.271,301.021 218.144,470.844 181.375,471.941 202.234,270.334 "/>
<g>
	<path style="fill:#FFD0B8;" d="M256.562,503.768c0,4.544-3.688,8.232-8.232,8.232h-30.182v-41.158c0-4.544,3.677-8.232,8.232-8.232   c4.544,0,8.232,3.688,8.232,8.232v24.695h13.719C252.874,495.537,256.562,499.225,256.562,503.768z"/>
	<path style="fill:#FFD0B8;" d="M316.926,503.768c0,4.544-3.688,8.232-8.232,8.232h-30.182v-41.158c0-4.544,3.677-8.232,8.232-8.232   c4.544,0,8.232,3.688,8.232,8.232v24.695h13.719C313.238,495.537,316.926,499.225,316.926,503.768z"/>
</g>
<path style="fill:#5BA0CE;" d="M356.558,187.909c-2.524-16.265-7.628-30.841-15.618-42.573c-6.41-9.417-19.448-10.986-28.24-3.732  c-8.133,6.728-19.942,10.953-33.091,10.953c-13.587,0-25.737-4.511-33.881-11.634c-0.011-0.011-0.022-0.022-0.033-0.022  c-0.494-0.494-1.021-0.977-1.58-1.46c-0.417-0.406-0.845-0.79-1.284-1.13c-0.033-0.033-0.077-0.077-0.121-0.11  c-6.947-5.575-17.089-5.378-24.036,0.494c-11.864,9.999-21.303,22.774-27.34,37.327c-3.863-2.7-8.155-4.215-12.698-4.215  c-7.057,0-13.544,3.633-18.669,9.735c-32.75-86.628,39.006-146.027,75.982-169.865c5.213-3.358,9.735-6.014,13.181-7.935  C253.565,1.262,256.199,0,256.199,0c4.401,2.294,8.627,4.61,12.688,6.969c3.249,1.877,6.399,3.776,9.439,5.685  C397.43,87.671,357.074,186.647,356.558,187.909z"/>
<path style="fill:#4B8EB2;" d="M242.706,138.203c-6.947-5.575-17.089-5.378-24.036,0.494c-11.864,9.999-21.303,22.774-27.34,37.327  c-3.863-2.7-8.155-4.215-12.698-4.215c-7.057,0-13.544,3.633-18.669,9.735C116.633,66.951,256.195,0.001,256.195,0.001  S191.122,91.228,242.706,138.203z"/>
<path style="fill:#FFD0B8;" d="M358.419,213.384c0,31.379-7.749,59.311-24.848,77.179c-12.292,12.852-29.425,20.502-51.979,20.502  c-16.584,0-32.213-4.138-45.888-11.436v-0.011c-13.28-7.068-24.738-17.143-33.475-29.282v-0.011  c-3.161-4.39-5.96-9.044-8.363-13.939c-4.467,3.951-9.669,6.223-15.234,6.223c-16.672,0-30.182-20.326-30.182-45.405  c0-14.466,4.5-27.351,11.513-35.659c5.125-6.102,11.612-9.735,18.669-9.735c4.544,0,8.835,1.515,12.698,4.215  c6.036-14.553,15.475-27.329,27.34-37.327c7.43-6.278,18.504-6.069,25.441,0.746c8.111,7.968,20.985,13.116,35.494,13.116  c13.148,0,24.958-4.226,33.091-10.953c8.791-7.255,21.83-5.685,28.24,3.732c7.99,11.733,13.094,26.308,15.618,42.573  C357.816,196.032,358.419,204.571,358.419,213.384z"/>
<g>
	<path style="fill:#EFBFAB;" d="M234.611,470.842v15.003h-16.463v-15.003c0-4.544,3.677-8.232,8.232-8.232   C230.923,462.611,234.611,466.299,234.611,470.842z"/>
	<path style="fill:#EFBFAB;" d="M294.975,470.842v15.003h-16.463v-15.003c0-4.544,3.677-8.232,8.232-8.232   C291.288,462.611,294.975,466.299,294.975,470.842z"/>
	<path style="fill:#EFBFAB;" d="M235.704,299.617c-13.28-7.068-24.738-17.143-33.475-29.282v-0.011   c-3.161-4.39-5.96-9.044-8.363-13.939c-4.467,3.951-9.669,6.223-15.234,6.223c-16.672,0-30.182-20.326-30.182-45.405   c0-14.466,4.5-27.351,11.513-35.659c5.125-6.102,11.612-9.735,18.669-9.735c4.544,0,8.835,1.515,12.698,4.215   c6.036-14.553,15.475-27.329,27.34-37.327c7.43-6.278,18.504-6.069,25.441,0.746C244.111,139.443,204.435,230.472,235.704,299.617z   "/>
</g>
<path style="fill:#F4C33B;" d="M356.986,471.94H181.381l9.516-92.006h30.885c0.044,0.241,0.099,0.472,0.154,0.702  c3.754,15.98,25.573-0.702,25.573-0.702h97.604L356.986,471.94z"/>
<path style="fill:#E54567;" d="M335.321,304.039c-0.571,0.637-1.152,1.273-1.745,1.888c-12.292,12.852-29.425,20.502-51.979,20.502  c-16.584,0-32.213-4.138-45.888-11.436v-0.011c-13.28-7.068-24.738-17.143-33.475-29.282v-0.011  c-0.472-0.648-0.933-1.306-1.383-1.976l1.383-13.379c17.736,24.662,46.667,40.73,79.363,40.73c22.554,0,39.687-7.65,51.979-20.502  L335.321,304.039z"/>
<path style="fill:#FFD0B8;" d="M192.351,211.825c-2.286-0.804-3.939-1.792-5.439-2.809c-1.486-1.014-2.736-2.079-3.846-3.077  c-1.111-0.991-2.038-1.905-2.797-2.649c-0.395-0.376-0.78-0.757-1.473-1.036c-0.179-0.095-0.361-0.123-0.571-0.174  c-0.215-0.068-0.432-0.088-0.679-0.113c-0.498-0.068-1.012-0.018-1.658-0.02c0.072-1.224,0.648-2.385,1.699-3.27  c1.05-0.883,2.574-1.313,3.974-1.288c1.415,0.009,2.71,0.4,3.799,0.921c1.099,0.527,2.039,1.193,2.857,1.931  c1.614,1.486,2.781,3.227,3.507,5.158C192.432,207.333,192.818,209.424,192.351,211.825z"/>
<g>
	<path style="fill:#4D4D4D;" d="M270.276,220.606c-3.636,0-6.585-2.949-6.585-6.585V192.07c0-3.636,2.949-6.585,6.585-6.585   s6.585,2.949,6.585,6.585v21.951C276.862,217.657,273.913,220.606,270.276,220.606z"/>
	<path style="fill:#4D4D4D;" d="M311.983,220.606c-3.636,0-6.585-2.949-6.585-6.585V192.07c0-3.636,2.949-6.585,6.585-6.585   c3.636,0,6.585,2.949,6.585,6.585v21.951C318.568,217.657,315.619,220.606,311.983,220.606z"/>
</g>
<path style="fill:#C69C8D;" d="M237.412,237.462c4.078,1.477,8.071,2.739,12.075,3.846c3.992,1.118,7.978,2.055,11.961,2.8  c3.982,0.747,7.956,1.326,11.93,1.689c0.998,0.056,1.989,0.142,2.981,0.225c0.991,0.082,1.988,0.087,2.98,0.135  c0.992,0.061,1.984,0.065,2.977,0.075c0.992,0.018,1.983,0.032,2.974-0.023c3.966-0.023,7.922-0.375,11.87-0.878  c3.963-0.447,7.879-1.283,11.834-2.147c7.891-1.852,15.693-4.535,23.883-7.417c-5.92,6.36-13.337,11.252-21.436,14.788  c-8.129,3.45-17.034,5.408-25.975,5.526c-1.117,0.038-2.235,0.004-3.351-0.035c-1.116-0.041-2.233-0.043-3.344-0.166  c-2.225-0.182-4.437-0.457-6.635-0.82c-4.384-0.777-8.684-1.944-12.813-3.509c-4.127-1.572-8.099-3.495-11.803-5.832  C243.835,243.373,240.312,240.729,237.412,237.462z"/>
<path style="fill:#FFD0B8;" d="M217.595,328.164c0,0-3.293,59.267,23.048,105.363l12.073-94.388"/>
<path style="fill:#4B8EB2;" d="M280.104,75.049c-0.362-4.204-0.966-8.122-1.668-11.875c-0.724-3.743-1.548-7.332-2.447-10.811  c-0.472-1.723-0.922-3.457-1.416-5.147c-0.472-1.701-0.999-3.337-1.493-5.016c-0.516-1.646-1.021-3.282-1.569-4.895  c-0.516-1.635-1.065-3.227-1.602-4.818c-1.098-3.172-2.217-6.322-3.369-9.395c-1.13-3.117-2.327-6.124-3.49-9.153  c-1.174-3.04-2.404-5.971-3.611-8.934c-0.362-0.9-0.735-1.767-1.109-2.645c-0.505,1.427-1.032,2.876-1.526,4.368  c-0.615,1.833-1.207,3.71-1.789,5.619c-0.593,1.888-1.163,3.819-1.723,5.773c-2.217,7.836-4.215,16.057-5.949,24.618  c-1.745,8.572-3.216,17.473-4.467,26.703c-1.218,9.241-2.162,18.779-2.996,28.657c-0.812-9.889-0.944-20.118-0.582-30.303  c0.395-10.163,1.284-20.315,2.7-30.094c0.702-4.895,1.526-9.691,2.437-14.4c0.944-4.675,1.965-9.285,3.117-13.708  c0.505-1.976,1.032-3.929,1.58-5.85C253.565,1.262,256.199,0,256.199,0c4.401,2.294,8.627,4.61,12.688,6.969  c0.801,2.491,1.569,5.038,2.338,7.606c1.032,3.589,2.052,7.189,2.985,10.953c1.877,7.474,3.512,15.376,4.697,23.707l0.406,3.15  c0.132,1.043,0.23,2.129,0.351,3.194c0.121,1.054,0.209,2.14,0.296,3.216c0.088,1.087,0.165,2.162,0.209,3.26  C280.422,66.39,280.444,70.835,280.104,75.049z"/>
<path style="fill:#DDAC31;" d="M221.934,380.636l-3.786,90.206l-36.767,1.098l9.516-92.006h30.885  C221.825,380.175,221.88,380.406,221.934,380.636z"/>
<g>
</g>
<g>
</g>
<g>
</g>
<g>
</g>
<g>
</g>
<g>
</g>
<g>
</g>
<g>
</g>
<g>
</g>
<g>
</g>
<g>
</g>
<g>
</g>
<g>
</g>
<g>
</g>
<g>
</g>
</svg>
