<?xml version="1.0" encoding="iso-8859-1"?>
<!-- Generator: Adobe Illustrator 19.0.0, SVG Export Plug-In . SVG Version: 6.00 Build 0)  -->
<svg xmlns="http://www.w3.org/2000/svg" xmlns:xlink="http://www.w3.org/1999/xlink" version="1.1" id="Layer_1" x="0px" y="0px" viewBox="0 0 512 512" style="enable-background:new 0 0 512 512;" xml:space="preserve">
<path style="fill:#D3D1CD;" d="M205.815,427.425v60.793L162.43,501.09l-5.24-128.008  C166.06,376.001,196.719,426.122,205.815,427.425z"/>
<rect x="160.19" y="488.217" style="fill:#726D65;" width="45.631" height="23.783"/>
<path style="fill:#D3D1CD;" d="M358.392,387.618v99.51l-45.44,17.761l-6.971-123.396c10.768-5.727,44.584,12.66,52.186,5.867  L358.392,387.618z"/>
<rect x="312.947" y="487.128" style="fill:#726D65;" width="45.44" height="24.872"/>
<path style="fill:#FCACDF;" d="M83.409,403.721c-16.214,32.9-61.646,34.248-61.646,34.248s29.431-24.827,7.501-83.25  C7.323,296.295,18.866,191.137,88.148,191.137c44.893,0,58.749,33.08,62.937,56.357c-2.65-0.124-84.519,137.306-66.115,154.767  L83.409,403.721z"/>
<path style="fill:#DB91C5;" d="M57.145,331.924c-1.583,27.713,9.421,52.876,27.825,70.337l-1.561,1.46  c-16.214,32.9-61.646,34.248-61.646,34.248s29.431-24.827,7.501-83.25c-1.718-4.57-3.223-9.421-4.525-14.496  c10.712-10.724,17.27-25.31,21.155-37.212c3.874-11.914,5.075-21.144,5.075-21.144c0.573-70.438,60.613-27.275,60.613-27.275  l-0.55,0.786C81.411,269.098,59.02,298.967,57.145,331.924z"/>
<g>
	<rect x="293.644" y="487.128" style="fill:#847E74;" width="37.066" height="24.872"/>
	<rect x="148.68" y="488.217" style="fill:#847E74;" width="30.015" height="23.783"/>
</g>
<path style="fill:#EDEAE4;" d="M402.977,262.871c-6.805,0.247-13.845-0.393-20.987-2.032l-0.236,1.044  c3.773,8.59,6.906,18.404,8.77,28.903c5.48,30.89-0.011,67.71-32.361,96.579c-7.602,6.793-16.686,13.138-27.454,18.864v80.904  h-37.066v-63.757c0,0-43.13,10.454-87.832,4.054c-9.095-1.303-18.247-3.301-27.118-6.221v67.014h-30.015V431.46  c0,0-10.252-1.987-23.715-7.209c-15.249-3.807-28.959-11.498-39.997-21.986c-18.404-17.461-29.408-42.625-27.825-70.337  c2.504-44.107,41.76-82.667,85.9-84.452c2.706-0.112,5.39-0.101,8.04,0.022c14.8,0.707,28.667,5.008,40.738,12.049  c4.593,2.672,8.927,5.738,12.947,9.151c8.972,7.602,28.779-91.245,28.779-156.125s67.272-51.001,67.272-51.001  c0-8.523,1.056-15.642,2.796-21.593c8.444-28.824,33.091-30.307,33.091-30.307v49.014h0.056c1.46-49.89,35.842-52.102,35.842-52.102  v52.337c-15.855,7.77,32.732,34.237,32.732,34.237l0.011,0.011c4.806,7.142,9.859,14.463,15.114,21.851  c4.39,6.176,8.916,12.408,13.553,18.606c0,0,0,0.011,0.011,0.022c0.281,0.371,0.561,0.752,0.842,1.123  c5.255,6.996,10.645,13.935,16.136,20.751C492.998,207.558,455.146,261.052,402.977,262.871z"/>
<path style="fill:#FCACDF;" d="M303.613,39.979c-0.865,2.931-1.55,6.142-2.032,9.668c-0.494,3.627-0.764,7.602-0.764,11.925  c0,0-55.672,7.13-55.672,72.01s39.896,109.301-5.772,137.328c-0.326,0.202-0.651,0.427-0.999,0.629  c-0.46,0.281-0.932,0.55-1.415,0.809c-2.841,1.527-5.873,2.515-8.961,2.976c-8.163,1.246-16.72-1.112-23.232-6.625  c-4.02-3.414-8.354-6.479-12.947-9.151c38.953-23.783,3.885-59.524,14.07-145.424C216.287,26.538,303.613,39.979,303.613,39.979z"/>
<g>
	<path style="fill:#D3D1CD;" d="M190.474,424.516c81.249,0,103.171-42.232,103.171-42.232v41.086   C293.646,423.371,233.973,443.706,190.474,424.516z"/>
	<path style="fill:#D3D1CD;" d="M96.446,342.445c0,61.758,52.236,89.011,52.236,89.011s-10.252-1.987-23.715-7.209   c-15.249-3.807-28.959-11.498-39.997-21.986c-18.404-17.461-29.408-42.625-27.825-70.337c2.504-44.107,41.76-82.666,85.9-84.452   c2.706-0.112,5.39-0.101,8.04,0.022C151.085,247.494,96.446,277.318,96.446,342.445z"/>
</g>
<g>
	<path style="fill:#666666;" d="M412.903,207.277c-3.672,0-6.736-3.07-6.737-6.737c-0.001-3.661,3.078-6.737,6.737-6.737   c3.668,0,6.734,3.07,6.737,6.737C419.644,204.213,416.582,207.277,412.903,207.277z"/>
	<path style="fill:#666666;" d="M460.244,199.204c-3.663,0-6.737-3.077-6.737-6.737c0-3.604,2.953-6.636,6.56-6.733   c3.616-0.097,6.723,2.794,6.906,6.398C467.165,195.915,464.033,199.204,460.244,199.204z"/>
	<path style="fill:#666666;" d="M336.796,146.17c-1.982-2.301-2.895-5.331-2.958-8.47c-0.033-3.136,0.84-6.398,2.533-9.273   c1.683-2.884,4.17-5.389,7.153-7.185c2.977-1.806,6.45-2.884,9.942-3.117c3.491-0.237,7.079,0.375,10.27,1.773   c3.195,1.39,5.995,3.544,8.042,6.186c2.058,2.63,3.352,5.754,3.728,8.871c0.345,3.124-0.167,6.252-1.844,8.793   c-3.908-4.55-7.43-6.572-10.626-7.693c-3.201-1.084-5.819-1.258-8.465-1.126c-2.644,0.197-5.225,0.714-8.263,2.208   C343.278,138.669,340.054,141.148,336.796,146.17z"/>
	<path style="fill:#666666;" d="M434.867,134.773c-1.392-0.853-2.729-1.449-4.009-1.898c-3.2-1.089-5.828-1.258-8.467-1.134   c-2.65,0.202-5.233,0.719-8.264,2.212c-3.032,1.527-6.254,4.009-9.511,9.028c-1.987-2.291-2.897-5.322-2.964-8.467   c-0.022-3.133,0.842-6.4,2.538-9.275c1.684-2.886,4.166-5.39,7.153-7.186c2.74-1.651,5.918-2.706,9.118-3.032   c4.39,6.176,8.916,12.408,13.553,18.606c0,0,0,0.011,0.011,0.022C434.305,134.02,434.586,134.402,434.867,134.773z"/>
</g>
<path style="fill:#E58376;" d="M333.706,182.808h-17.217c-4.651,0-8.422-3.771-8.422-8.422s3.771-8.422,8.422-8.422h17.217  c4.651,0,8.422,3.771,8.422,8.422S338.357,182.808,333.706,182.808z"/>
<g>
	<path style="fill:#D3D1CD;" d="M287.477,194.611c0.269,0.505,2.246,4.166,5.85,9.859   C291.003,201.27,289.027,197.98,287.477,194.611z"/>
	<path style="fill:#D3D1CD;" d="M390.524,290.786c-50.968-20.515-84.351-66.093-97.174-86.282   c24.726,33.99,88.404,57.379,88.404,57.379C385.527,270.473,388.66,280.287,390.524,290.786z"/>
</g>
<g>
	<path style="fill:#B5B4B4;" d="M336.704,58.686h-20.066c0,0,8.13-43.557,20.066-49.014V58.686z"/>
	<path style="fill:#B5B4B4;" d="M372.603,55.598h-20.066c0,0,8.13-43.557,20.066-49.014V55.598z"/>
</g>
<path style="fill:#DB91C5;" d="M301.581,49.647c-0.494,3.627-0.764,7.602-0.764,11.925c0,0-55.672,7.13-55.672,72.01  s39.896,109.301-5.772,137.328c-0.326,0.202-0.651,0.427-0.999,0.629c-0.46,0.281-0.932,0.55-1.415,0.809  c-2.841,1.527-5.873,2.515-8.961,2.976c41.805-52.91-0.438-63.353-0.438-145.537C227.56,59.281,281.346,50.467,301.581,49.647z"/>
<path style="fill:#F9D780;" d="M492.785,0.004L460.85,34.017l-8.455,9.017l-25.759,27.443l-7.389,7.871l-13.913,14.811l-4.222,4.503  c-1.493,1.583-3.144,2.942-4.929,4.054c-2.594,1.628-5.446,2.74-8.377,3.324c-5.962,1.179-12.273,0.157-17.596-3.234  c-0.808-0.517-1.583-1.078-2.336-1.696c-0.18-0.146-0.348-0.292-0.528-0.449c-13.43-11.431-10.6-32.968,5.255-40.738l11.027-5.401  l9.904-4.862l27.252-13.362l11.925-5.839l20.605-10.106l10.555-5.176L492.785,0.004z"/>
<path style="fill:#F9E9C7;" d="M492.789,0l-87.45,93.154l-4.222,4.503c-8.096,8.624-21.166,10.342-30.902,4.143L492.789,0z"/>
<g>
	<path style="fill:#E0BE70;" d="M426.636,70.477l-7.389,7.871c-4.761-16.708-1.875-32.496,1.538-43.051l11.925-5.839   C429.769,35.858,423.458,52.364,426.636,70.477z"/>
	<path style="fill:#E0BE70;" d="M463.871,14.175c-1.606,5.502-2.976,12.352-3.021,19.841l-8.455,9.017   c-1.112-8.601-0.449-16.72,0.921-23.682L463.871,14.175z"/>
	<path style="fill:#E0BE70;" d="M396.183,101.715c-2.594,1.628-5.446,2.74-8.377,3.324c-6.311-20.055-5.839-38.807-4.177-51.518   l9.904-4.862C391.501,59.775,389.547,80.077,396.183,101.715z"/>
</g>
<g>
</g>
<g>
</g>
<g>
</g>
<g>
</g>
<g>
</g>
<g>
</g>
<g>
</g>
<g>
</g>
<g>
</g>
<g>
</g>
<g>
</g>
<g>
</g>
<g>
</g>
<g>
</g>
<g>
</g>
</svg>
