<?xml version="1.0" encoding="iso-8859-1"?>
<!-- Generator: Adobe Illustrator 19.0.0, SVG Export Plug-In . SVG Version: 6.00 Build 0)  -->
<svg xmlns="http://www.w3.org/2000/svg" xmlns:xlink="http://www.w3.org/1999/xlink" version="1.1" id="Layer_1" x="0px" y="0px" viewBox="0 0 512 512" style="enable-background:new 0 0 512 512;" xml:space="preserve">
<path style="fill:#CCCCCC;" d="M344.293,161.198c0,0,8.15,106.156,55.762,153.767c0,0-38.946,0.603-61.225-33.026l-98.089-98.454"/>
<g>
	<path style="fill:#E6E6E6;" d="M113.474,373.953c-10.957,0-19.871-8.914-19.871-19.871c0-10.957,8.914-19.871,19.871-19.871   s19.871,8.914,19.871,19.871C133.345,365.039,124.431,373.953,113.474,373.953z"/>
	<path style="fill:#E6E6E6;" d="M399.322,512h-78.371c0,0-16.843-127.451-58.594-134.779h-0.011   C220.594,384.549,203.751,512,203.751,512h-78.371l2.989-18.436c0.868-5.384,4.461-9.943,9.504-12.042l13.877-5.779   c1.505-2.736,2.956-5.68,4.318-8.801c30.621-69.691,27.797-230.532,8.867-226.324c-42.85,27.468-69.219,121.957-69.219,121.957   c-14.239-83.008,16.481-147.777,47.19-189.385c12.822-17.371,25.644-30.709,35.192-39.653c9.361-8.779,15.591-13.338,15.591-13.338   c-0.516-4.021-0.78-8.13-0.78-12.295c0-51.376,40.499-93.028,90.457-93.028s70.68,41.652,70.68,93.028   c0,27.204-5.812,51.695-18.7,68.703l1.956-1.395c-4.285,69.757,6.658,226.324,29.984,287.94c1.813,4.801,3.703,9.031,5.669,12.591   l13.866,5.779c5.043,2.099,8.636,6.647,9.515,12.042L399.322,512z"/>
</g>
<path style="fill:#CCCCCC;" d="M401.058,317.256c-10.957,0-19.871-8.914-19.871-19.871c0-10.957,8.914-19.871,19.871-19.871  c10.957,0,19.871,8.914,19.871,19.871C420.929,308.342,412.015,317.256,401.058,317.256z"/>
<path style="fill:#FFD0B8;" d="M355.197,107.904c0,9.833-0.758,19.326-2.351,28.226c-0.725,4.164-1.648,8.207-2.758,12.086  c-2.923,10.306-7.142,19.535-12.789,27.303c-44.718,11.866-84.502-13.207-94.303-48.069c-9.888-35.159,9.339-59.88,24.172-74.713  s38.455,7.691,38.455,7.691c26.007-27.83,45.267,10.108,45.267,10.108C353.813,81.974,355.197,94.609,355.197,107.904z"/>
<g>
	<path style="fill:#666666;" d="M287.253,103.645c-3.034,0-5.494-2.46-5.494-5.494V82.769c0-3.034,2.46-5.494,5.494-5.494   s5.494,2.46,5.494,5.494v15.382C292.747,101.186,290.286,103.645,287.253,103.645z"/>
	<path style="fill:#666666;" d="M320.946,103.645c-3.034,0-5.494-2.46-5.494-5.494V82.769c0-3.034,2.46-5.494,5.494-5.494   s5.494,2.46,5.494,5.494v15.382C326.44,101.186,323.981,103.645,320.946,103.645z"/>
</g>
<path style="fill:#E2B39F;" d="M352.846,136.13c-0.725,4.164-1.648,8.207-2.758,12.086h-71.669c-3.329,0-6.043-2.703-6.043-6.043  c0-3.329,2.714-6.043,6.043-6.043H352.846z"/>
<g>
	<path style="fill:#CCCCCC;" d="M215.474,169.201c0,0-17.14-6.581-37.378-35.664c9.361-8.779,15.591-13.338,15.591-13.338   S198.993,152.72,215.474,169.201z"/>
	<path style="fill:#CCCCCC;" d="M275.669,11.918L289.085,0l1.967,17.835c0.561,5.093-3.112,9.675-8.204,10.237   c-5.093,0.561-9.675-3.112-10.237-8.204C272.27,16.783,273.526,13.848,275.669,11.918z"/>
	<path style="fill:#CCCCCC;" d="M170.605,160.985l-32.543,0.057l28.341-15.993c4.097-2.312,9.293-0.865,11.605,3.232   c2.312,4.097,0.865,9.293-3.232,11.605C173.467,160.624,172.008,160.978,170.605,160.985z"/>
	<path style="fill:#CCCCCC;" d="M143.498,201.533l-25.666-0.597l20.739-15.13c3.882-2.832,9.325-1.981,12.157,1.901   c2.832,3.882,1.981,9.325-1.901,12.157C147.223,201.036,145.344,201.577,143.498,201.533z"/>
	<path style="fill:#CCCCCC;" d="M115.534,262.638l-24.463,9.591l13.938-22.274c2.542-4.063,7.898-5.296,11.96-2.753   c4.062,2.542,5.296,7.898,2.753,11.96C118.696,260.803,117.208,261.982,115.534,262.638z"/>
	<path style="fill:#CCCCCC;" d="M191.577,385.944l-33.665,17.462l23.079-30.093c2.837-3.699,8.137-4.399,11.836-1.561   c3.699,2.837,4.399,8.137,1.561,11.836C193.618,384.592,192.628,385.393,191.577,385.944z"/>
	<path style="fill:#CCCCCC;" d="M176.195,443.078l-24.554,12.826l12.923-24.504c2.224-4.217,7.445-5.832,11.661-3.608   s5.832,7.445,3.608,11.661C178.982,441.066,177.697,442.295,176.195,443.078z"/>
	<path style="fill:#CCCCCC;" d="M342.506,314.493l11.402,26.109l-23.952-15.427c-3.997-2.574-5.151-7.901-2.576-11.898   c2.574-3.997,7.901-5.151,11.898-2.576C340.761,311.657,341.851,312.986,342.506,314.493z"/>
	<path style="fill:#CCCCCC;" d="M348.58,369.242l7.526,20.802l-19.82-9.826c-4.394-2.178-6.19-7.505-4.011-11.899   c2.178-4.394,7.505-6.19,11.899-4.011C346.301,365.362,347.827,367.175,348.58,369.242z"/>
	<path style="fill:#CCCCCC;" d="M358.01,427.073l10.182,17.907l-20.054-4.71c-4.834-1.135-7.833-5.975-6.697-10.809   c1.136-4.834,5.975-7.833,10.809-6.697C354.774,423.357,356.814,424.987,358.01,427.073z"/>
	<path style="fill:#CCCCCC;" d="M354.453,219.835l16.815,21.525l-26.136-7.934c-4.567-1.387-7.146-6.213-5.759-10.781   s6.213-7.146,10.781-5.759C351.923,217.424,353.395,218.478,354.453,219.835z"/>
	<path style="fill:#CCCCCC;" d="M223.551,231.248l-12.475,20.358l-3.685-23.591c-0.748-4.791,2.528-9.282,7.32-10.03   c4.79-0.748,9.282,2.528,10.03,7.32C225.073,227.445,224.599,229.535,223.551,231.248z"/>
	<path style="fill:#CCCCCC;" d="M226.994,49.966l-30.031-10.052l31.016-6.399c4.616-0.953,9.13,2.017,10.083,6.634   s-2.017,9.13-6.634,10.083C229.909,50.545,228.367,50.421,226.994,49.966z"/>
	<path style="fill:#CCCCCC;" d="M200.909,89.221l-18.895-5.047l16.045-11.184c4.117-2.87,9.781-1.859,12.65,2.258   c2.869,4.117,1.859,9.781-2.258,12.65C206.178,89.482,203.395,89.873,200.909,89.221z"/>
	<path style="fill:#CCCCCC;" d="M312.298,25.968l31.809-9.807l-23.205,23.864c-3.274,3.368-8.659,3.443-12.027,0.168   c-3.368-3.274-3.443-8.659-0.168-12.027C309.728,27.115,310.992,26.376,312.298,25.968z"/>
	<path style="fill:#CCCCCC;" d="M243.264,264.501l-13.51,21.165l-2.523-24.981c-0.485-4.794,3.009-9.072,7.803-9.556   c4.794-0.485,9.072,3.009,9.556,7.803C244.794,260.962,244.282,262.905,243.264,264.501z"/>
	<path style="fill:#CCCCCC;" d="M270.941,286.149l-9.325,18.195l-7.127-19.162c-1.734-4.661,0.639-9.844,5.3-11.578   c4.661-1.734,9.844,0.639,11.578,5.3C272.28,281.358,272.039,283.986,270.941,286.149z"/>
	<path style="fill:#CCCCCC;" d="M297.2,257.865l-4.819,20.11l-11.411-17.247c-2.738-4.138-1.603-9.713,2.535-12.451   s9.713-1.603,12.451,2.535C297.379,252.966,297.748,255.537,297.2,257.865z"/>
	<path style="fill:#CCCCCC;" d="M312.643,226.412l-5.979,18.601l-10.374-16.558c-2.665-4.253-1.378-9.862,2.876-12.526   c4.253-2.665,9.862-1.377,12.526,2.876C313.165,221.156,313.418,223.959,312.643,226.412z"/>
	<path style="fill:#CCCCCC;" d="M225.573,336.334l-13.399,16.353l-2.412-21.003c-0.564-4.91,2.959-9.347,7.869-9.91   c4.91-0.564,9.347,2.959,9.91,7.869C227.828,332.136,227.042,334.53,225.573,336.334z"/>
	<path style="fill:#CCCCCC;" d="M312.616,329.49l-4.853,23.197l-11.445-20.751c-2.345-4.25-0.799-9.596,3.451-11.94   c4.25-2.345,9.596-0.799,11.941,3.451C312.764,325.359,313.028,327.507,312.616,329.49z"/>
	<path style="fill:#CCCCCC;" d="M180.315,475.742h-28.567c1.505-2.736,2.956-5.68,4.318-8.801L180.315,475.742z"/>
	<path style="fill:#CCCCCC;" d="M372.953,475.742h-36.895l31.225-12.591C369.096,467.953,370.986,472.183,372.953,475.742z"/>
</g>
<g>
	<polygon style="fill:#FFFFFF;" points="281.943,148.216 287.986,126.898 294.029,148.216  "/>
	<polygon style="fill:#FFFFFF;" points="324.793,148.216 330.836,126.898 336.879,148.216  "/>
</g>
<g>
</g>
<g>
</g>
<g>
</g>
<g>
</g>
<g>
</g>
<g>
</g>
<g>
</g>
<g>
</g>
<g>
</g>
<g>
</g>
<g>
</g>
<g>
</g>
<g>
</g>
<g>
</g>
<g>
</g>
</svg>
