<?xml version="1.0" encoding="iso-8859-1"?>
<!-- Generator: Adobe Illustrator 19.0.0, SVG Export Plug-In . SVG Version: 6.00 Build 0)  -->
<svg xmlns="http://www.w3.org/2000/svg" xmlns:xlink="http://www.w3.org/1999/xlink" version="1.1" id="Layer_1" x="0px" y="0px" viewBox="0 0 512 512" style="enable-background:new 0 0 512 512;" xml:space="preserve">
<g>
	<path style="fill:#F4516D;" d="M298.804,196.301c27.623,3.391,63.818,5.339,87.098-3.033c0,0-35.558,47.411-121.996,30.88   c1.836-3.38,4.074-6.469,6.805-9.2v-0.011C282.038,211.098,291.35,204.684,298.804,196.301z"/>
	<path style="fill:#F4516D;" d="M259.239,282.135c3.984,23.369,11.752,42.934,11.987,43.549l-69.638,18.501l-22.855,6.066   l-14.942,3.973c-55.402-130.95,2.171-172.943,2.171-172.943c7.118,8.976,15.748,16.71,25.507,22.776   c15.255,9.525,33.286,15.02,52.593,15.02c9.894,0,18.758-1.444,26.649-4.141v0.011c-2.731,2.731-4.969,5.82-6.805,9.2   c-4.88,8.987-6.805,19.956-6.973,31.327c22.138,1.377,45.62,0.694,62.386-5.339C319.319,250.136,301.154,274.356,259.239,282.135z"/>
</g>
<path style="fill:#666666;" d="M307.601,484.984l-12.211,1.992l-15.915,2.597c-4.969-24.813-16.206-64.568-39.867-88.218  c-2.294,5.227-4.891,10.7-7.812,16.341v0.011c-11.036,21.366-26.738,45.206-48.81,67.277l-7.846-1.074l-16.643-2.283  c13.129-37.494,31.439-100.104,20.236-131.375l37.125-9.86l55.368-14.707C271.226,325.684,318.233,369.144,307.601,484.984z"/>
<path style="fill:#F4516D;" d="M239.482,18.241c0,2.317-0.157,4.589-0.481,6.816c-0.683,4.913-2.093,9.581-4.141,13.912  c-1.321,2.832-2.921,5.518-4.768,8.025c-7.924,10.845-20.224,18.288-34.316,19.732h-0.011c-1.656,0.179-3.346,0.269-5.048,0.269  c-1.623,0-3.223-0.078-4.801-0.246c-3.783-0.358-7.432-1.175-10.901-2.362c-0.213-1.791-0.313-3.604-0.313-5.451  c0-3.19,0.302-6.301,0.895-9.312c0.649-3.414,1.668-6.693,3-9.816c3.156-7.398,8.092-13.856,14.27-18.837  c2.563-2.071,5.339-3.884,8.293-5.406c6.682-3.447,14.27-5.395,22.306-5.395c5.495,0,10.789,0.907,15.714,2.585  c0.123,1.097,0.213,2.216,0.246,3.335C239.471,16.809,239.482,17.525,239.482,18.241z"/>
<g>
	<path style="fill:#8BE8E8;" d="M205.549,511.881L157.164,512c-4.836,0.012-8.168-4.841-6.419-9.35   c2.043-5.267,4.762-12.497,7.752-21.024l24.489,3.358l25.615,16.457C213.356,504.497,211.202,511.868,205.549,511.881z"/>
	<path style="fill:#8BE8E8;" d="M326.399,511.834H291.13c-4.6,0-8.498-3.368-9.166-7.92c-0.551-3.746-1.357-8.652-2.489-14.342   l28.126-4.589l22.2,16.643C334.161,504.896,331.849,511.834,326.399,511.834z"/>
	<path style="fill:#8BE8E8;" d="M322.408,119.466c0,30.924-7.376,58.558-23.605,76.835c-7.454,8.383-16.766,14.796-28.093,18.635   c-7.891,2.697-16.755,4.141-26.649,4.141c-17.314,0-33.588-4.421-47.769-12.188c-11.752-6.436-22.06-15.177-30.331-25.608   c-8.629-10.879-15.031-23.593-18.512-37.472c-2.753,2.306-6.01,3.637-9.48,3.637c-10.017,0-18.143-11.024-18.143-24.623   s8.126-24.623,18.143-24.623c2.955,0,5.753,0.974,8.215,2.675c2.664-14.102,8.316-29.022,16.251-42.934   c3.817,2.72,8.047,4.925,12.58,6.447c4.925,1.69,10.207,2.608,15.703,2.608c26.94,0,48.765-21.825,48.765-48.754   c0-1.858-0.101-3.682-0.302-5.484c-0.481-4.275-1.522-8.394-3.044-12.267C238.757,0.179,241.398,0,244.062,0   c12.636,0,23.605,3.402,33.006,9.323C308.563,29.134,322.408,77.104,322.408,119.466z"/>
</g>
<path style="fill:#C63958;" d="M201.587,344.185l-22.855,6.066l-14.942,3.973c-55.402-130.95,2.171-172.943,2.171-172.943  c7.118,8.976,15.748,16.71,25.507,22.776C180.87,229.285,170.249,278.095,201.587,344.185z"/>
<path style="fill:#76CECC;" d="M196.293,206.878v0.011c-11.752-6.436-22.06-15.177-30.331-25.608  c-8.629-10.879-15.031-23.593-18.512-37.472c-2.753,2.306-6.01,3.637-9.48,3.637c-10.017,0-18.143-11.024-18.143-24.623  s8.126-24.623,18.143-24.623c2.955,0,5.753,0.974,8.215,2.675c2.664-14.102,8.316-29.022,16.251-42.934  c3.817,2.72,8.047,4.925,12.58,6.447c4.925,1.69,10.207,2.608,15.703,2.608c26.94,0,48.765-21.825,48.765-48.754  c0-1.858-0.101-3.682-0.302-5.484c-0.481-4.275-1.522-8.394-3.044-12.267C238.757,0.179,241.398,0,244.062,0  c12.636,0,23.605,3.402,33.006,9.323C277.068,9.323,161.474,91.441,196.293,206.878z"/>
<g>
	<path style="fill:#4D4D4D;" d="M215.858,340.391c0,0-6.659,76.925-40.718,143.519l-16.643-2.283   c13.129-37.494,31.439-100.104,20.236-131.375L215.858,340.391z"/>
	<path style="fill:#4D4D4D;" d="M295.39,486.976l-15.915,2.597c-4.969-24.813-16.206-64.568-39.867-88.218   c-2.294,5.227-4.891,10.7-7.812,16.341l18.937-45.989C250.733,371.707,286.201,402.698,295.39,486.976z"/>
</g>
<path style="fill:#76CECC;" d="M251.445,119.748c0,0-26.983,22.091-53.329,3.064c0,0,25.287,2.166,39.463-12.012"/>
<path style="fill:#666666;" d="M297.437,166.537c-5.699-0.729-9.999-1.293-14.082-1.502c-4.034-0.248-7.689-0.246-11.345-0.131  c-3.66,0.143-7.284,0.453-11.297,0.956c-4.053,0.501-8.301,1.36-13.949,2.478c0.763-5.741,4.26-10.491,8.75-13.878  c4.523-3.399,10.208-5.282,15.93-5.477c5.727-0.213,11.513,1.316,16.271,4.354C292.431,156.4,296.255,160.879,297.437,166.537z"/>
<path style="fill:#76CECC;" d="M295.468,119.466c0,0,10.119,10.022,26.667,10.022l-14.045-17.195"/>
<g>
	<circle style="fill:#F2F2F2;" cx="237.791" cy="101.133" r="23.083"/>
	<ellipse style="fill:#F2F2F2;" cx="305.18" cy="101.133" rx="15.987" ry="23.083"/>
</g>
<g>
	<path style="fill:#C63958;" d="M203.018,50.8l-7.241,15.927h-0.011c-1.656,0.179-3.346,0.269-5.048,0.269   c-1.623,0-3.223-0.078-4.801-0.246l3.011-6.615c-3.201-1.97-8.058-5.372-13.33-10.51c0.649-3.414,1.668-6.693,3-9.816   c5.417,5.954,10.666,9.86,14.08,12.088l2.194-4.801c1.019-2.261,3.671-3.246,5.921-2.227   C203.051,45.897,204.036,48.55,203.018,50.8z"/>
	<path style="fill:#C63958;" d="M239.001,25.057c-7.163,0.045-13.106,1.365-17.292,2.686c4.544,3.257,9.144,7.018,13.151,11.226   c-1.321,2.832-2.921,5.518-4.768,8.025c-12.681-14.483-35.155-24.455-35.412-24.567c-0.75-0.325-1.365-0.839-1.813-1.455   c2.563-2.071,5.339-3.884,8.293-5.406c2.574,1.254,6.637,3.335,11.304,6.133c3.951-1.836,13.744-5.63,26.962-5.607   c0.045,0.716,0.056,1.433,0.056,2.149C239.482,20.558,239.326,22.83,239.001,25.057z"/>
	<path style="fill:#C63958;" d="M259.239,282.135c0,0-44.005,3.19-78.225-31.031c-20.043-20.043-16.931-6.741-16.931-6.741   l17.106,26.063C181.191,270.426,218.838,297.472,259.239,282.135z"/>
</g>
<g>
	<path style="fill:#8BE8E8;" d="M292.669,255.386l0.594,15.092c0,0,14.828-9.7,20.051-4.477c1.135,1.135,2.024,2.693,2.719,4.436   c1.348,3.379,6.23,2.858,6.787-0.738c1.116-7.197,0.96-15.103-3.501-19.563C309.698,240.517,292.669,255.386,292.669,255.386z"/>
	<path style="fill:#8BE8E8;" d="M361.44,197.657l0.594,15.092c0,0,14.828-9.7,20.051-4.477c1.135,1.135,2.024,2.693,2.719,4.436   c1.348,3.379,6.23,2.859,6.787-0.738c1.116-7.197,0.96-15.103-3.501-19.563C378.469,182.787,361.44,197.657,361.44,197.657z"/>
</g>
<g>
</g>
<g>
</g>
<g>
</g>
<g>
</g>
<g>
</g>
<g>
</g>
<g>
</g>
<g>
</g>
<g>
</g>
<g>
</g>
<g>
</g>
<g>
</g>
<g>
</g>
<g>
</g>
<g>
</g>
</svg>
